<?xml version="1.0" standalone="no"?>
<!DOCTYPE svg PUBLIC "-//W3C//DTD SVG 1.1//EN" "http://www.w3.org/Graphics/SVG/1.1/DTD/svg11.dtd">
<svg xmlns="http://www.w3.org/2000/svg">
<defs >
<font id="AtkinsonHyperlegible" horiz-adv-x="540" ><font-face
    font-family="Atkinson Hyperlegible"
    units-per-em="1000"
    panose-1="0 0 0 0 0 0 0 0 0 0"
    ascent="950"
    descent="-290"
    alphabetic="0" />
<glyph unicode=" " glyph-name="space" horiz-adv-x="280" />
<glyph unicode="!" glyph-name="exclam" horiz-adv-x="284" d="M95 195L140 495L177 668H268L232 495L149 195H95ZM91 -12Q66 -12 47 6T27 53Q27 79 45 98T92 117Q118 117 137 98T156 52Q156 27 138 8T91 -12Z" />
<glyph unicode="&quot;" glyph-name="quotedbl" horiz-adv-x="334" d="M250 447L236 668H316L302 447H250ZM109 447L95 668H175L161 447H109Z" />
<glyph unicode="#" glyph-name="numbersign" horiz-adv-x="634" d="M136 0L161 172H37L48 253H172L195 415H71L82 496H206L230 668H312L288 496H411L435 668H517L493 496H616L605 415H481L459 253H582L571 172H447L423 0H341L365 172H242L218 0H136ZM254 253H377L399
415H276L254 253Z" />
<glyph unicode="$" glyph-name="dollar" horiz-adv-x="610" d="M190 -80L208 4Q150 18 104 55T37 153L128 179Q140 143 166 120T225 86L275 319Q229 333 186 352T116 406T88 503Q88 565 122 606T211 667T326 688Q333 688 339 688T353 687L366 750H418L403 679Q456
667 499 638T563 563L471 537Q459 560 437 575T386 599L341 388Q378 377 414 364T480 330T528 280T546 204Q546 154 524 115T465 50T382 9T287 -5Q280 -5 273 -5T258 -4L242 -80H190ZM293 403L336 608Q299 611 264 601T206 567T183 505Q183 463 215 441T293 403ZM296
74Q335 74 370 87T426 127T448 191Q448 224 431 245T386 279T324 304L275 75Q280 74 285 74T296 74Z" />
<glyph unicode="%" glyph-name="percent" horiz-adv-x="1000" d="M246 317Q199 317 162 338T104 397T82 479Q82 534 110 579T184 652T284 680Q331 680 368 659T426 601T448 519Q448 464 420 418T345 345T246 317ZM231 0L699 668H787L319 0H231ZM254 391Q286 391
313 407T356 451T373 512Q373 552 346 579T276 606Q245 606 218 590T173 547T156 488Q156 447 184 419T254 391ZM734 -12Q687 -12 650 9T592 68T570 150Q570 205 598 250T672 323T772 351Q819 351 856 330T914 272T936 190Q936 135 908 89T833 16T734 -12ZM742
62Q774 62 801 78T844 122T861 183Q861 223 834 250T764 277Q733 277 706 261T661 218T644 159Q644 118 672 90T742 62Z" />
<glyph unicode="&amp;" glyph-name="ampersand" horiz-adv-x="691" d="M204 -12Q141 -12 99 11T36 74T15 162Q15 215 43 260T118 338T222 389Q204 418 193 449T182 513Q182 564 206 601T274 659T371 679Q417 679 454 665T514 622T537 552Q537 502 511 467T442
406T351 362L456 222Q478 248 497 284T529 360H616Q600 307 570 255T503 157L619 0H507L443 86Q391 41 334 15T204 -12ZM312 416Q348 428 380 445T433 487T454 540Q454 567 435 588T373 609Q326 609 298 585T270 520Q270 496 279 474T298 437T312 416ZM212 66Q265
66 309 87T400 145L263 333Q193 311 147 269T101 165Q101 116 132 91T212 66Z" />
<glyph unicode="&apos;" glyph-name="quotesingle" horiz-adv-x="193" d="M109 447L95 668H175L161 447H109Z" />
<glyph unicode="(" glyph-name="parenleft" horiz-adv-x="301" d="M93 -162Q61 -88 45 -15T29 131Q29 274 88 409T258 668H337Q270 586 219 499T138 319T109 124Q109 57 124 -14T170 -162H93Z" />
<glyph unicode=")" glyph-name="parenright" horiz-adv-x="302" d="M-53 -162Q14 -80 65 7T146 187T176 382Q176 450 162 521T115 668H192Q256 522 256 375Q256 233 197 97T28 -162H-53Z" />
<glyph unicode="*" glyph-name="asterisk" horiz-adv-x="439" d="M280 373L236 470L157 399L119 442L198 513L106 566L135 615L227 562L249 667L305 655L283 550L388 561L395 505L289 493L332 396L280 373Z" />
<glyph unicode="+" glyph-name="plus" horiz-adv-x="619" d="M250 0V208H42V288H250V496H330V288H538V208H330V0H250Z" />
<glyph unicode="," glyph-name="comma" horiz-adv-x="209" d="M-44 -134L32 -9Q-11 7 -11 52Q-11 80 8 98T52 116Q82 116 100 96T118 51Q118 39 114 30T102 7L17 -134H-44Z" />
<glyph unicode="-" glyph-name="hyphen" horiz-adv-x="372" d="M31 208L49 289H341L323 208H31Z" />
<glyph unicode="." glyph-name="period" horiz-adv-x="208" d="M63 -12Q37 -12 18 7T-1 52Q-1 79 18 98T63 117Q90 117 109 98T128 52Q128 26 109 7T63 -12Z" />
<glyph unicode="/" glyph-name="slash" horiz-adv-x="371" d="M-50 0L352 668H439L37 0H-50Z" />
<glyph unicode="0" glyph-name="zero" horiz-adv-x="654" d="M293 -12Q182 -12 124 56T66 251Q66 289 72 334Q93 501 171 590T378 680Q490 680 548 613T606 417Q606 379 600 334Q579 168 501 78T293 -12ZM465 172Q497 238 509 334Q511 352 512 371T514 411Q514
459 502 503T459 576T369 605Q312 605 270 574L465 172ZM302 63Q364 63 408 98L211 503Q193 471 182 429T163 334Q161 315 160 296T158 257Q158 204 171 160T215 90T302 63Z" />
<glyph unicode="1" glyph-name="one" horiz-adv-x="403" d="M158 0L265 503H87L101 571Q172 571 216 583T287 617T327 668H385L243 0H158Z" />
<glyph unicode="2" glyph-name="two" horiz-adv-x="565" d="M-18 0L-2 76Q62 112 127 151T251 233T356 319T428 409T455 501Q455 554 420 582T341 610Q295 610 248 587T174 498L96 522Q167 680 344 680Q399 680 445 662T519 607T548 510Q548 441 511 380T411 265T276
164T131 77H479L463 0H-18Z" />
<glyph unicode="3" glyph-name="three" horiz-adv-x="580" d="M259 -12Q158 -12 102 36T32 158L118 181Q126 126 161 92T261 58Q303 58 338 74T394 119T416 187Q416 234 396 260T345 297T279 312T214 315L230 390Q270 390 308 393T378 408T427 442T446 506Q446
558 408 584T318 610Q257 610 222 580T169 498L91 523Q112 593 172 636T323 680Q361 680 399 672T468 645T519 596T538 520Q538 453 501 410T403 347Q461 328 483 288T505 198Q505 145 478 97T397 19T259 -12Z" />
<glyph unicode="4" glyph-name="four" horiz-adv-x="636" d="M320 0L356 165H17L34 244L462 668H549L459 244H583L566 165H442L407 0H320ZM127 244H372L438 552L127 244Z" />
<glyph unicode="5" glyph-name="five" horiz-adv-x="575" d="M252 -12Q153 -12 98 35T25 154L108 177Q124 118 158 90T242 60Q319 58 364 107T410 238Q410 310 373 343T274 377Q225 377 192 356T141 305L63 329L176 668H561L543 587H229L166 400Q220 450 301 450Q352
450 397 427T472 359T501 247Q501 170 469 112T381 21T252 -12Z" />
<glyph unicode="6" glyph-name="six" horiz-adv-x="605" d="M281 -12Q170 -12 116 55T62 238Q62 324 82 403T142 544T240 643T372 680Q447 680 492 649T553 573L465 548Q454 577 429 593T363 610Q287 610 236 543T164 361Q189 398 233 421T336 445Q395 445 439
419T509 347T534 240Q534 173 505 116T420 23T281 -12ZM284 58Q331 58 367 80T423 142T444 232Q444 294 409 332T310 370Q240 370 196 325T151 205Q151 144 187 101T284 58Z" />
<glyph unicode="7" glyph-name="seven" horiz-adv-x="537" d="M31 0L445 587H78L96 668H567L550 587L139 0H31Z" />
<glyph unicode="8" glyph-name="eight" horiz-adv-x="617" d="M266 -12Q200 -12 149 9T68 69T38 166Q38 240 78 291T181 365Q137 411 137 479Q137 533 165 579T239 652T338 680Q385 680 422 658T480 599T501 516Q501 472 482 433T429 365Q477 346 505 307T534
212Q534 140 497 90T400 14T266 -12ZM307 391Q339 391 366 407T410 450T427 509Q427 550 399 577T329 605Q298 605 271 589T228 547T211 487Q211 447 238 419T307 391ZM274 63Q349 63 396 100T444 203Q444 256 406 286T299 317Q225 317 177 278T129 174Q129 122
168 93T274 63Z" />
<glyph unicode="9" glyph-name="nine" horiz-adv-x="601" d="M151 0L335 211Q327 210 319 210T302 209Q235 209 188 237T117 313T92 416Q92 489 127 548T223 644T359 680Q422 680 470 652T546 575T574 468Q574 437 564 403T531 335Q502 291 463 240T384 140T313
54T267 0H151ZM312 288Q361 288 400 314T463 381T487 467Q487 498 473 527T430 576T353 596Q308 596 268 575T204 514T179 423Q179 365 216 327T312 288Z" />
<glyph unicode=":" glyph-name="colon" horiz-adv-x="208" d="M135 375Q109 375 90 394T71 440Q71 466 90 485T135 504Q162 504 181 485T200 440Q200 413 181 394T135 375ZM53 -12Q27 -12 8 7T-11 52Q-11 79 8 98T53 117Q80 117 99 98T118 52Q118 26 99 7T53 -12Z" />
<glyph unicode=";" glyph-name="semicolon" horiz-adv-x="210" d="M-44 -134L32 -9Q-11 7 -11 52Q-11 80 8 98T52 116Q82 116 100 96T118 51Q118 39 114 30T102 7L17 -134H-44ZM137 375Q111 375 92 394T73 439Q73 466 92 485T137 504Q164 504 183 485T202 439Q202
413 183 394T137 375Z" />
<glyph unicode="&lt;" glyph-name="less" horiz-adv-x="613" d="M511 0L38 213V283L511 496V406L143 248L511 90V0Z" />
<glyph unicode="=" glyph-name="equal" horiz-adv-x="658" d="M63 307V386H559V307H63ZM63 121V200H559V121H63Z" />
<glyph unicode="&gt;" glyph-name="greater" horiz-adv-x="613" d="M83 0V90L451 248L83 406V496L556 283V213L83 0Z" />
<glyph unicode="?" glyph-name="question" horiz-adv-x="527" d="M170 190Q172 199 174 208T177 227Q190 284 213 319T270 377T342 421Q377 439 405 464T433 527Q433 565 403 587T329 609Q203 609 166 500L89 524Q118 604 182 641T332 679Q376 679 420 665T494
620T524 533Q524 487 504 454T449 397T372 351Q314 323 293 293T263 224Q261 216 259 207T255 190H170ZM188 -12Q158 -12 141 8T123 52Q123 81 143 99T188 117Q214 117 233 98T253 53Q253 26 234 7T188 -12Z" />
<glyph unicode="@" glyph-name="at" horiz-adv-x="784" d="M414 -12Q344 -12 281 10T169 75T93 183T65 334Q65 406 92 468T166 578T276 653T411 680Q468 680 526 660T634 599T714 501T744 366Q744 290 717 244T649 176T567 155Q525 155 493 174T454 225Q428 190
394 173T326 155Q281 155 247 185T213 275Q213 344 243 399T328 486T452 519Q483 519 513 514T569 499L528 303Q525 290 523 279T520 258Q520 242 536 231T574 219Q610 219 634 240T670 295T682 368Q682 419 661 464T603 544T517 599T411 619Q353 619 302 597T211
536T149 445T127 334Q127 243 166 179T271 82T412 48Q483 48 547 85V16Q484 -12 414 -12ZM346 228Q376 228 409 256T453 339Q464 390 468 411T474 437T475 442Q465 444 455 445T432 446Q389 446 358 423T311 363T294 287Q294 258 309 243T346 228Z" />
<glyph unicode="A" glyph-name="A" horiz-adv-x="627" d="M-52 0L340 668H456L565 0H462L441 146H139L56 0H-52ZM184 226H430L381 573L184 226Z" />
<glyph unicode="B" glyph-name="B" horiz-adv-x="625" d="M14 0L156 668H407Q475 668 518 647T583 592T604 518Q604 470 575 424T490 352Q531 336 551 301T572 221Q572 183 556 144T506 73T421 20T300 0H14ZM192 382H364Q410 382 441 399T488 444T504 499Q504
534 479 561T400 588H235L192 382ZM127 79H308Q359 79 394 99T449 151T468 213Q468 251 439 279T348 308H176L127 79Z" />
<glyph unicode="C" glyph-name="C" horiz-adv-x="661" d="M315 -12Q243 -12 193 11T112 73T67 161T53 263Q53 346 80 421T156 555T272 646T421 680Q508 680 569 643T655 528L566 498Q550 548 509 574T411 600Q351 600 303 572T220 497T168 392T149 272Q149 212
170 166T232 93T325 67Q390 67 435 92T516 171L595 140Q548 64 476 26T315 -12Z" />
<glyph unicode="D" glyph-name="D" horiz-adv-x="674" d="M14 0L156 668H340Q518 668 589 581T631 319Q613 212 554 141T404 35T199 0H14ZM127 79H213Q295 79 362 102T475 180T536 325Q560 466 509 527T320 588H235L127 79Z" />
<glyph unicode="E" glyph-name="E" horiz-adv-x="565" d="M14 0L156 668H611L594 587H235L192 384H457L439 304H175L127 81H486L469 0H14Z" />
<glyph unicode="F" glyph-name="F" horiz-adv-x="546" d="M14 0L156 668H592L574 587H235L192 384H531L514 304H175L110 0H14Z" />
<glyph unicode="G" glyph-name="G" horiz-adv-x="712" d="M300 -12Q222 -12 167 23T83 120T54 265Q54 349 80 424T155 556T271 647T418 680Q511 680 572 642T655 528L566 498Q556 536 518 568T411 600Q350 600 302 573T220 498T168 393T150 273Q150 177 197 123T317
67Q367 65 412 80T491 135T542 243L547 264H351L368 344H655L581 0H525L519 82Q435 -12 300 -12Z" />
<glyph unicode="H" glyph-name="H" horiz-adv-x="694" d="M14 0L156 668H252L192 384H542L602 668H698L556 0H460L524 304H175L110 0H14Z" />
<glyph unicode="I" glyph-name="I" horiz-adv-x="414" d="M4 0L20 75H113L223 593H130L146 668H427L412 593H318L209 75H301L285 0H4Z" />
<glyph unicode="J" glyph-name="J" horiz-adv-x="509" d="M163 -12Q75 -12 29 43T-7 190L83 214Q81 201 80 189T78 166Q78 117 102 91T175 65Q207 65 235 77T285 121T320 213L417 668H513L416 212Q399 131 369 85T303 19T231 -7T163 -12Z" />
<glyph unicode="K" glyph-name="K" horiz-adv-x="623" d="M14 0L156 668H252L183 345L540 668H670L351 385L551 0H446L281 324L155 210L110 0H14Z" />
<glyph unicode="L" glyph-name="L" horiz-adv-x="541" d="M14 0L156 668H252L127 81H486L469 0H14Z" />
<glyph unicode="M" glyph-name="M" horiz-adv-x="824" d="M14 0L156 668H312L374 126L666 668H828L686 0H590L709 559L400 0H305L233 575L110 0H14Z" />
<glyph unicode="N" glyph-name="N" horiz-adv-x="693" d="M14 0L156 668H293L479 94L601 668H697L555 0H418L233 576L110 0H14Z" />
<glyph unicode="O" glyph-name="O" horiz-adv-x="728" d="M312 -12Q231 -12 174 24T86 124T55 268Q55 355 82 429T158 560T278 648T433 680Q515 680 572 643T660 543T691 401Q691 315 664 240T586 109T466 20T312 -12ZM325 67Q388 67 438 94T524 169T577 275T596
399Q596 464 573 509T509 577T420 600Q357 600 307 573T222 500T169 395T150 269Q150 204 173 159T236 90T325 67Z" />
<glyph unicode="P" glyph-name="P" horiz-adv-x="597" d="M14 0L156 668H342Q385 668 430 663T514 640T577 588T601 497Q601 410 562 359T452 287T287 265H166L110 0H14ZM184 346H311Q370 346 413 359T479 403T503 488Q503 548 462 568T351 588H235L184 346Z" />
<glyph unicode="Q" glyph-name="Q" horiz-adv-x="748" d="M617 -55L517 62Q477 35 427 20T315 5Q234 5 177 41T89 141T58 285Q58 372 85 446T161 577T281 664T436 696Q518 696 575 659T663 560T694 418Q694 367 682 313T645 210T588 123L687 7L617 -55ZM328 84Q404
84 464 124L328 284L399 344L531 190Q564 237 581 298T599 415Q599 481 576 526T512 594T423 617Q360 617 310 590T225 517T172 411T153 286Q153 221 176 176T239 107T328 84Z" />
<glyph unicode="R" glyph-name="R" horiz-adv-x="610" d="M14 0L156 668H360Q433 668 487 653T571 603T601 508Q601 408 540 353T371 288L518 0H413L270 281H170L110 0H14ZM187 360H311Q368 360 411 371T479 411T503 495Q503 551 463 569T352 588H235L187 360Z" />
<glyph unicode="S" glyph-name="S" horiz-adv-x="609" d="M285 -12Q232 -12 182 5T94 57T36 147L127 172Q146 118 193 93T293 67Q332 67 367 80T424 120T446 184Q446 220 427 241T375 277T305 302T229 326T158 359T107 411T87 495Q87 557 121 598T210 659T324
680Q373 680 420 666T504 625T561 555L469 529Q451 564 409 582T320 601Q284 601 253 590T202 556T182 498Q182 465 201 444T253 410T324 385T401 361T472 327T524 276T544 197Q544 147 522 108T463 43T380 2T285 -12Z" />
<glyph unicode="T" glyph-name="T" horiz-adv-x="558" d="M169 0L293 587H73L90 668H628L611 587H389L266 0H169Z" />
<glyph unicode="U" glyph-name="U" horiz-adv-x="693" d="M286 -12Q174 -12 118 33T61 175Q61 198 64 224T74 280L157 668H253L169 272Q164 247 162 226T159 186Q159 125 190 97T291 69Q352 69 396 87T469 149T516 272L601 668H697L614 280Q593 180 557 121T476
34T382 -3T286 -12Z" />
<glyph unicode="V" glyph-name="V" horiz-adv-x="592" d="M178 0L90 668H189L251 110L551 668H662L290 0H178Z" />
<glyph unicode="W" glyph-name="W" horiz-adv-x="844" d="M116 0L90 668H190L202 128L436 668H549L554 117L804 668H914L604 0H483L472 551L227 0H116Z" />
<glyph unicode="X" glyph-name="X" horiz-adv-x="624" d="M-52 0L274 351L116 668H218L339 423L566 668H691L383 336L552 0H449L317 264L73 0H-52Z" />
<glyph unicode="Y" glyph-name="Y" horiz-adv-x="598" d="M177 0L229 240L90 668H186L290 331L554 668H668L325 240L274 0H177Z" />
<glyph unicode="Z" glyph-name="Z" horiz-adv-x="613" d="M-18 0L-1 81L500 587H128L145 668H640L623 587L123 81H524L506 0H-18Z" />
<glyph unicode="[" glyph-name="bracketleft" horiz-adv-x="317" d="M-20 -161L156 668H363L348 593H224L79 -87H204L188 -161H-20Z" />
<glyph unicode="\" glyph-name="backslash" horiz-adv-x="519" d="M355 0L95 668H182L442 0H355Z" />
<glyph unicode="]" glyph-name="bracketright" horiz-adv-x="317" d="M-63 -161L-47 -87H78L223 593H98L113 668H320L145 -161H-63Z" />
<glyph unicode="^" glyph-name="asciicircum" horiz-adv-x="552" d="M47 311L232 668H308L493 311H404L270 569L136 311H47Z" />
<glyph unicode="_" glyph-name="underscore" horiz-adv-x="413" d="M-32 -79V0H344V-79H-32Z" />
<glyph unicode="`" glyph-name="grave" horiz-adv-x="272" d="M210 571Q210 571 196 585T166 618T141 647Q134 657 134 669Q134 690 149 700Q159 707 172 707Q192 707 202 692Q208 684 220 665T246 624T268 587T278 571H210Z" />
<glyph unicode="a" glyph-name="a" horiz-adv-x="521" d="M154 -12Q90 -12 48 23T5 117Q5 167 31 200T100 253T192 283T289 299T370 308Q373 322 375 334T377 357Q377 436 285 436Q239 436 207 416T158 359L83 382Q109 438 159 471T281 504Q368 504 415 469T462
361Q462 344 460 327T451 279T431 188Q418 126 414 81T408 0H329L325 63Q292 26 253 7T154 -12ZM181 57Q249 57 297 102T359 224L362 241Q279 233 220 223T130 190T99 125Q99 91 123 74T181 57Z" />
<glyph unicode="b" glyph-name="b" horiz-adv-x="555" d="M266 -12Q210 -12 173 13T112 82L71 0H7L149 668H235L184 430Q218 474 255 489T324 504Q395 504 435 473T492 394T509 293Q509 239 494 186T448 87T372 15T266 -12ZM257 60Q300 60 330 82T380 140T409
215T419 291Q419 353 392 392T307 432Q266 432 235 412T182 358T149 286T138 211Q138 172 151 138T190 82T257 60Z" />
<glyph unicode="c" glyph-name="c" horiz-adv-x="495" d="M222 -12Q129 -12 78 43T26 192Q26 277 59 347T154 461T298 504Q366 504 412 476T483 393L400 364Q390 394 361 412T294 430Q237 430 198 397T139 311T118 197Q118 140 145 101T241 62Q282 62 312 79T365
127L436 99Q402 44 346 16T222 -12Z" />
<glyph unicode="d" glyph-name="d" horiz-adv-x="555" d="M205 -12Q149 -12 109 15T48 89T27 198Q27 258 44 312T92 410T169 479T271 504Q330 504 370 474T424 398L481 668H567Q567 668 562 642T547 571T526 473T503 366T481 265T465 188Q460 163 452 114T442
0H361L356 61Q331 29 296 9T205 -12ZM226 60Q278 60 316 90T376 171T398 281Q398 350 368 391T280 432Q228 432 192 398T136 310T117 199Q117 129 149 95T226 60Z" />
<glyph unicode="e" glyph-name="e" horiz-adv-x="542" d="M238 -12Q140 -12 84 45T27 199Q27 286 61 355T159 464T309 504Q376 504 420 477T486 404T509 300Q509 264 500 225H116Q115 218 115 211T115 197Q115 146 134 117T185 75T248 62Q290 62 320 75T371 111L449
87Q415 43 363 16T238 -12ZM128 293H421Q422 298 422 302T422 310Q422 340 410 368T370 414T297 432Q260 432 225 416T164 369T128 293Z" />
<glyph unicode="f" glyph-name="f" horiz-adv-x="320" d="M37 0L128 428H44L59 496H142L154 549Q166 600 179 631T210 678T255 699T323 706H374L359 635H335Q311 635 293 631T263 612T243 563L228 496H330L315 428H214L123 0H37Z" />
<glyph unicode="g" glyph-name="g" horiz-adv-x="555" d="M180 -190Q117 -190 66 -160T-4 -78L86 -53Q91 -77 116 -97T186 -117Q239 -117 270 -99T317 -48T342 23L355 80Q330 48 294 32T219 16Q173 16 130 38T60 107T32 222Q32 299 60 363T141 467T266 506Q319
506 363 483T426 418L466 496H528Q504 384 481 272T433 47Q428 25 421 -6T400 -69T359 -128T289 -173T180 -190ZM248 89Q295 89 329 120T381 199T400 296Q400 363 363 397T276 432Q225 432 191 402T139 325T121 226Q121 162 156 126T248 89Z" />
<glyph unicode="h" glyph-name="h" horiz-adv-x="548" d="M7 0L149 668H235L184 427Q209 459 248 481T355 504Q418 504 453 471T489 366Q489 332 480 288L418 0H333L392 280Q401 324 401 352Q401 395 381 412T318 430Q282 430 248 414T188 360T147 257L93 0H7Z" />
<glyph unicode="i" glyph-name="i" horiz-adv-x="270" d="M229 591Q204 591 186 609T167 653Q167 679 185 697T229 716Q255 716 273 698T292 653Q292 628 274 610T229 591ZM46 0L137 428H57L71 496H237L132 0H46Z" />
<glyph unicode="j" glyph-name="j" horiz-adv-x="258" d="M211 591Q185 591 167 609T148 654Q148 680 166 698T211 717Q237 717 255 699T274 654Q274 628 256 610T211 591ZM-85 -161Q-101 -161 -118 -161T-154 -159L-138 -86H-106Q-53 -86 -27 -79T10 -50T30 13L133
496H219L115 8Q105 -41 94 -73T62 -125T7 -152T-85 -161Z" />
<glyph unicode="k" glyph-name="k" horiz-adv-x="487" d="M7 0L149 668H235L153 285L388 496H500L266 289L415 0H321L202 232L128 166L93 0H7Z" />
<glyph unicode="l" glyph-name="l" horiz-adv-x="259" d="M126 0Q68 0 48 16T27 67Q27 94 34 125L149 668H235L123 140Q121 129 120 120T118 104Q118 89 127 82T161 75H198L182 0H126Z" />
<glyph unicode="m" glyph-name="m" horiz-adv-x="846" d="M8 0L113 496H177L183 427Q212 462 248 483T341 504Q400 504 430 481T475 416Q512 465 555 484T651 504Q664 504 686 501T732 486T772 447T788 372Q788 342 779 300L716 0H630L691 289Q700 330 700 359Q700
394 684 412T625 431Q562 431 521 389T462 270L405 0H319L380 289Q389 328 389 357Q389 394 372 412T313 431Q258 431 214 392T151 270L94 0H8Z" />
<glyph unicode="n" glyph-name="n" horiz-adv-x="550" d="M8 0L113 496H177L183 427Q208 459 248 481T356 504Q419 504 454 470T490 365Q490 331 481 287L419 0H334L393 279Q402 323 402 351Q402 395 382 412T319 430Q283 430 249 414T189 360T148 257L94 0H8Z" />
<glyph unicode="o" glyph-name="o" horiz-adv-x="547" d="M230 -12Q130 -12 79 47T27 199Q27 286 62 355T159 464T303 504Q354 504 399 482T473 415T502 298Q502 235 482 179T426 80T340 13T230 -12ZM237 62Q295 62 334 97T393 186T413 301Q413 374 378 402T290
430Q231 430 192 396T134 309T115 198Q115 137 146 100T237 62Z" />
<glyph unicode="p" glyph-name="p" horiz-adv-x="556" d="M-26 -162L114 496H177L182 430Q202 459 238 481T331 504Q392 504 431 476T490 399T510 293Q510 240 495 187T451 88T376 16T269 -12Q210 -12 171 16T114 93L60 -162H-26ZM260 59Q299 59 328 80T378 135T409
212T420 297Q420 360 390 396T307 432Q255 432 218 399T160 314T139 209Q139 147 171 103T260 59Z" />
<glyph unicode="q" glyph-name="q" horiz-adv-x="555" d="M207 -12Q126 -12 77 44T28 198Q28 259 45 314T93 413T170 480T271 505Q330 505 369 481T428 418L468 496H530Q505 380 481 263T432 30Q427 6 423 -15T418 -50Q418 -69 430 -80T469 -92Q500 -92 551 -76L534
-154Q524 -161 500 -167T447 -174Q419 -174 392 -165T346 -134T328 -72Q328 -58 330 -43T338 -4T352 59Q335 30 297 9T207 -12ZM232 60Q281 60 317 92T375 174T396 281Q396 353 364 393T276 433Q239 433 210 413T160 358T129 282T118 198Q118 134 146 97T232 60Z"
/>
<glyph unicode="r" glyph-name="r" horiz-adv-x="353" d="M8 0L113 496H176L184 403Q215 447 256 475T372 504H383L364 415Q336 416 312 412Q236 400 196 345T137 205L94 0H8Z" />
<glyph unicode="s" glyph-name="s" horiz-adv-x="479" d="M213 -12Q138 -12 87 17T10 113L96 142Q104 98 140 77T216 56Q257 56 291 77T325 137Q325 165 305 180T254 206T187 225T121 250T69 293T49 365Q49 412 77 442T148 488T240 504Q281 504 320 493T389 459T431
402L351 374Q341 404 306 419T233 435Q195 435 165 419T134 370Q134 343 154 328T206 302T273 283T341 257T393 215T413 143Q413 92 386 58T314 6T213 -12Z" />
<glyph unicode="t" glyph-name="t" horiz-adv-x="324" d="M160 0Q102 0 81 16T59 67Q59 89 69 135L132 428H49L63 496H146L173 620H259L232 496H327L313 428H218L160 159Q156 141 154 127T151 104Q151 88 160 82T194 75H238L222 0H160Z" />
<glyph unicode="u" glyph-name="u" d="M173 -11Q100 -11 70 29T40 128Q40 164 49 203L111 496H197L135 205Q131 187 129 170T126 137Q126 104 142 83T203 62Q262 62 307 102T372 236L428 496H513L408 0H343L337 70Q305 28 268 9T173 -11Z" />
<glyph unicode="v" glyph-name="v" horiz-adv-x="444" d="M115 0L43 496H130L177 110L389 496H487L204 0H115Z" />
<glyph unicode="w" glyph-name="w" horiz-adv-x="658" d="M80 0L43 496H130L147 138L319 496H409L429 130L605 496H701L452 0H370L347 400L154 0H80Z" />
<glyph unicode="x" glyph-name="x" horiz-adv-x="462" d="M-63 0L179 262L61 496H151L237 325L396 496H505L275 248L399 0H309L217 185L46 0H-63Z" />
<glyph unicode="y" glyph-name="y" horiz-adv-x="435" d="M-62 -161L-46 -86H-12Q29 -86 50 -80T84 -56T116 0L43 496H132L172 110L378 496H478L191 -21Q166 -67 147 -94T108 -136T58 -156T-19 -161H-62Z" />
<glyph unicode="z" glyph-name="z" horiz-adv-x="467" d="M-21 0L-6 73L355 424H83L99 497H476L460 424L101 73H390L375 0H-21Z" />
<glyph unicode="{" glyph-name="braceleft" horiz-adv-x="322" d="M149 -162Q67 -162 46 -130T41 -25L73 125Q82 168 76 194T23 220L37 287Q84 287 101 313T128 382L163 545Q173 592 189 619T237 657T325 668H368L353 596H311Q278 596 267 584T247 533L214 380Q201
317 173 291T106 254V253Q141 243 157 216T160 127L128 -26Q119 -69 127 -80T165 -91H207L192 -162H149Z" />
<glyph unicode="|" glyph-name="bar" horiz-adv-x="289" d="M96 -161V668H177V-161H96Z" />
<glyph unicode="}" glyph-name="braceright" horiz-adv-x="322" d="M-62 -163L-47 -91H-5Q28 -91 39 -79T59 -28L92 125Q106 188 134 214T200 251V252Q165 263 149 289T146 378L181 542Q188 575 179 585T141 596H99L114 667H157Q239 667 260 636T265 530L233 380Q224
337 230 311T283 285L269 218Q223 218 205 192T178 123L143 -40Q133 -87 117 -114T69 -152T-19 -163H-62Z" />
<glyph unicode="~" glyph-name="asciitilde" horiz-adv-x="539" d="M364 195Q328 195 294 208T227 235T164 249Q139 249 122 237T100 199L25 221Q36 267 72 295T162 323Q204 323 239 310T306 282T363 268Q386 268 403 281T426 319L500 297Q489 251 453 223T364 195Z" />
<glyph unicode="&#xa0;" glyph-name="uni00A0" horiz-adv-x="280" />
<glyph unicode="&#xa1;" glyph-name="exclamdown" horiz-adv-x="283" d="M177 390Q150 390 131 409T112 455Q112 481 131 500T177 519Q203 519 222 500T241 455Q241 428 222 409T177 390ZM0 -161L37 12L119 311H174L128 12L91 -161H0Z" />
<glyph unicode="&#xa2;" glyph-name="cent" horiz-adv-x="492" d="M157 -87L174 -8Q103 5 64 57T25 191Q25 205 26 219T29 247Q40 318 73 375T160 466T283 503L297 571H347L332 501Q436 486 480 392L397 364Q389 389 368 405T318 427L240 61Q280 62 310 79T362
127L433 98Q400 43 345 16T224 -12L208 -87H157ZM190 68L267 428Q222 421 192 394T144 328T120 248Q118 235 117 222T116 196Q116 150 133 116T190 68Z" />
<glyph unicode="&#xa3;" glyph-name="sterling" horiz-adv-x="585" d="M35 -12L22 55Q39 61 67 77T124 118T172 180T192 264Q192 294 184 317H75L86 368H172Q164 396 159 424T153 483Q153 537 173 574T226 635T301 668T386 679Q466 679 520 646T591 549L508 526Q491
574 463 591T382 608Q351 608 319 597T265 559T243 480Q243 452 250 425T265 368H468L457 317H276Q279 309 280 298T282 273Q282 209 243 164T150 90Q168 97 183 99T212 102Q242 102 265 93T313 75T372 66Q395 66 423 71T487 91L497 18Q455 1 424 -5T366 -12Q329
-12 300 -3T243 16T178 25Q150 25 116 17T35 -12Z" />
<glyph unicode="&#xa4;" glyph-name="currency" horiz-adv-x="666" d="M138 84L102 119L168 185Q121 246 121 321Q121 357 133 392T168 456L102 522L138 558L204 492Q234 516 268 527T339 539Q375 539 410 528T474 492L540 558L576 522L510 456Q534 427 545 392T557
321Q557 285 546 250T510 185L576 119L540 84L474 149Q445 126 410 115T339 103Q303 103 269 114T204 149L138 84ZM339 178Q379 178 411 197T462 249T481 321Q481 360 462 392T411 443T339 463Q300 463 268 444T216 392T197 321Q197 282 216 250T267 198T339 178Z"
/>
<glyph unicode="&#xa5;" glyph-name="yen" horiz-adv-x="598" d="M178 0L196 86H47L58 137H207L225 223H76L87 274H218L90 668H186L291 329L554 668H668L352 274H479L468 223H322L304 137H450L439 86H293L275 0H178Z" />
<glyph unicode="&#xa6;" glyph-name="brokenbar" horiz-adv-x="289" d="M96 358V668H177V358H96ZM96 -161V149H177V-161H96Z" />
<glyph unicode="&#xa7;" glyph-name="section" horiz-adv-x="526" d="M135 -174Q65 -174 18 -142T-43 -55L43 -32Q48 -69 76 -85T140 -102Q183 -102 217 -80T251 -18Q251 17 222 44T152 102Q121 126 96 148T55 195T39 256Q39 305 62 341T125 401T213 435Q196 452
187 474T178 522Q178 560 199 596T261 656T366 680Q402 680 437 670T500 639T537 584L454 561Q450 587 424 599T367 612Q329 612 297 594T265 539Q265 517 280 499T319 464T371 422Q401 398 427 377T470 332T487 272Q487 221 464 184T401 123T313 82Q340 49 340
2Q340 -39 317 -79T249 -147T135 -174ZM266 129Q331 149 364 177T397 239Q397 281 346 323Q335 333 318 346T284 372T260 391Q224 384 193 367T144 326T125 277Q125 260 134 243T166 208Q176 201 192 188T226 161T254 139T266 129Z" />
<glyph unicode="&#xa8;" glyph-name="dieresis" horiz-adv-x="427" d="M183 590Q161 590 145 606T129 644Q129 666 145 681T183 697Q206 697 221 682T237 644Q237 622 222 606T183 590ZM394 590Q372 590 357 606T341 644Q341 666 356 681T394 697Q417 697 432
682T448 644Q448 622 433 606T394 590Z" />
<glyph unicode="&#xa9;" glyph-name="copyright" horiz-adv-x="814" d="M416 -12Q344 -12 282 15T172 89T97 199T70 334Q70 406 97 468T171 578T281 653T416 680Q488 680 550 653T660 579T735 469T762 334Q762 262 735 200T661 90T551 15T416 -12ZM416 50Q475
50 526 72T617 133T678 223T700 334Q700 393 678 444T617 535T527 596T416 618Q357 618 306 596T215 535T154 445T132 334Q132 275 154 224T215 133T305 72T416 50ZM418 150Q334 150 289 201T244 342Q244 431 291 481T420 531Q474 531 510 508T565 449L498 424Q472
473 418 473Q375 473 348 441T320 342Q320 275 347 242T418 209Q443 209 465 219T501 254L567 230Q548 196 511 173T418 150Z" />
<glyph unicode="&#xaa;" glyph-name="ordfeminine" horiz-adv-x="363" d="M159 396Q120 396 96 416T72 468Q72 508 100 529T174 561T272 577Q275 589 275 601Q275 618 264 630T221 643Q204 643 189 634T165 606L108 624Q141 691 231 691Q283 691 312 670T342 605Q342
598 341 590T338 572Q328 530 321 489T314 403H255L252 441Q235 414 210 405T159 396ZM179 447Q220 447 235 468T259 518L262 529L239 526Q184 520 165 509T145 476Q145 447 179 447Z" />
<glyph unicode="&#xab;" glyph-name="guillemotleft" horiz-adv-x="563" d="M356 40L253 250L425 461H529L348 240L445 40H356ZM148 40L45 250L217 461H321L140 240L237 40H148Z" />
<glyph unicode="&#xac;" glyph-name="logicalnot" horiz-adv-x="667" d="M490 90V317H75V396H571V90H490Z" />
<glyph unicode="&#xad;" glyph-name="uni00AD" horiz-adv-x="372" d="M31 208L49 289H341L323 208H31Z" />
<glyph unicode="&#xae;" glyph-name="registered" horiz-adv-x="814" d="M416 -12Q344 -12 282 15T172 89T97 199T70 333Q70 405 97 468T171 578T281 653T416 680Q488 680 550 653T660 579T735 468T762 333Q762 262 735 200T661 90T551 15T416 -12ZM416 49Q475
49 526 71T617 132T678 223T700 333Q700 392 678 443T617 534T527 596T416 619Q357 619 306 597T215 535T154 444T132 333Q132 275 154 224T215 133T305 71T416 49ZM281 162V530H393Q448 530 486 521T546 488T567 414Q567 399 561 379T536 340T479 311L587 162H501L399
301H357V162H281ZM357 359H410Q453 359 472 373T491 413Q491 447 467 458T405 469H357V359Z" />
<glyph unicode="&#xaf;" glyph-name="overscore" horiz-adv-x="382" d="M119 601L133 668H409L395 601H119Z" />
<glyph unicode="&#xb0;" glyph-name="degree" horiz-adv-x="358" d="M223 408Q186 408 155 426T106 476T87 544Q87 582 105 612T155 661T223 680Q261 680 291 662T340 613T359 544Q359 507 341 476T292 427T223 408ZM223 471Q254 471 275 492T296 544Q296 575
275 596T223 617Q193 617 172 596T150 544Q150 514 171 493T223 471Z" />
<glyph unicode="&#xb1;" glyph-name="plusminus" horiz-adv-x="653" d="M262 124V270H65V349H262V496H341V349H538V270H341V124H262ZM65 0V79H538V0H65Z" />
<glyph unicode="&#xb2;" glyph-name="uni00B2" horiz-adv-x="384" d="M59 403L71 457Q165 509 217 547T290 619T312 684Q312 708 297 722T257 736Q234 736 212 722T179 676L119 695Q136 737 171 761T258 786Q309 786 345 763T382 689Q382 631 327 572T168 461H347L335
403H59Z" />
<glyph unicode="&#xb3;" glyph-name="uni00B3" horiz-adv-x="394" d="M220 396Q171 396 136 420T87 486L151 503Q158 479 175 463T223 447Q255 447 276 464T298 513Q298 539 285 551T254 568T217 572H194L205 626H221Q239 627 261 630T300 645T317 682Q317 712
300 724T258 736Q230 736 211 724T178 683L120 701Q141 745 178 765T261 786Q292 786 320 777T367 747T385 689Q385 661 368 638T317 602Q345 589 356 566T367 519Q367 479 347 452T293 410T220 396Z" />
<glyph unicode="&#xb4;" glyph-name="acute" horiz-adv-x="271" d="M113 572Q113 572 128 589T166 629T207 672T234 698Q245 707 259 707Q276 707 288 695Q297 685 297 669Q297 652 285 641Q278 635 262 624T229 600T199 580T187 572H113Z" />
<glyph unicode="&#xb5;" glyph-name="uni00B5" horiz-adv-x="554" d="M-28 -162L111 496H197L135 205Q131 187 129 170T126 137Q126 104 142 83T203 62Q262 62 307 102T372 236L428 496H513L433 122Q427 94 433 85T462 75Q473 75 480 77T494 80L478 7Q468 5 454
3T417 0Q382 0 363 20T342 73Q313 35 271 12T173 -11Q138 -11 116 -2T81 24Q82 1 82 -21T78 -63L58 -162H-28Z" />
<glyph unicode="&#xb6;" glyph-name="paragraph" horiz-adv-x="522" d="M91 -162L188 294Q136 306 105 345T74 438Q74 448 75 458T78 478Q90 531 124 574T207 642T308 668H568L553 600H512L351 -162H268L429 600H336L174 -162H91Z" />
<glyph unicode="&#xb7;" glyph-name="middot" horiz-adv-x="235" d="M117 183Q91 183 72 202T53 248Q53 274 72 293T117 312Q144 312 163 293T182 248Q182 221 163 202T117 183Z" />
<glyph unicode="&#xb8;" glyph-name="cedilla" horiz-adv-x="294" d="M63 -181Q26 -181 -24 -163L-1 -126Q16 -133 30 -136T56 -140Q83 -140 98 -128T113 -104Q113 -95 105 -89T78 -82Q63 -82 56 -84T43 -87Q25 -87 25 -70Q25 -64 30 -57L98 25L128 4L87 -45Q94
-44 99 -44T111 -43Q144 -43 160 -59T176 -96Q176 -125 148 -153T63 -181Z" />
<glyph unicode="&#xb9;" glyph-name="uni00B9" horiz-adv-x="257" d="M139 403L199 682H116L126 730Q166 730 191 740T231 779H288L208 403H139Z" />
<glyph unicode="&#xba;" glyph-name="ordmasculine" horiz-adv-x="383" d="M210 399Q161 399 124 429T87 523Q87 581 109 618T167 674T241 692Q291 692 327 662T364 567Q364 509 342 472T284 417T210 399ZM216 452Q249 452 272 481T295 563Q295 599 279 619T235
639Q203 639 180 610T156 529Q156 492 172 472T216 452Z" />
<glyph unicode="&#xbb;" glyph-name="guillemotright" horiz-adv-x="555" d="M217 40L398 261L301 461H390L493 251L321 40H217ZM9 40L190 261L93 461H182L285 251L113 40H9Z" />
<glyph unicode="&#xbc;" glyph-name="onequarter" horiz-adv-x="824" d="M100 0L568 668H656L188 0H100ZM136 292L195 571H112L122 618Q162 618 187 628T227 667H284L204 292H136ZM574 0L592 86H399L411 140L647 375H724L674 143H739L727 86H662L644 0H574ZM492
143H604L636 289L492 143Z" />
<glyph unicode="&#xbd;" glyph-name="onehalf" horiz-adv-x="802" d="M93 0L561 668H649L181 0H93ZM135 292L194 571H112L122 618Q162 618 187 628T227 667H284L204 292H135ZM411 0L422 54Q516 106 568 144T642 215T664 280Q664 304 648 318T608 333Q586 333 564
319T531 273L471 292Q488 334 523 358T610 382Q661 382 698 359T735 286Q735 227 679 168T520 58H699L687 0H411Z" />
<glyph unicode="&#xbe;" glyph-name="threequarters" horiz-adv-x="906" d="M215 291Q166 291 131 315T82 381L146 398Q153 374 170 358T218 342Q250 342 271 359T293 408Q293 434 280 446T249 463T212 467H189L200 521H216Q234 522 256 525T295 540T312 577Q312
607 295 619T253 631Q225 631 206 619T173 578L115 596Q136 640 173 660T256 681Q287 681 315 672T362 642T380 584Q380 556 363 533T312 497Q340 484 351 461T362 414Q362 374 342 347T288 305T215 291ZM193 0L661 668H749L281 0H193ZM656 0L675 86H482L493 140L730
375H806L756 143H821L809 86H745L726 0H656ZM574 143H687L718 289L574 143Z" />
<glyph unicode="&#xbf;" glyph-name="questiondown" horiz-adv-x="527" d="M322 388Q295 388 277 407T259 452Q259 479 277 498T322 517Q349 517 368 498T387 452Q387 426 368 407T322 388ZM340 316Q339 307 337 297T332 277Q320 221 296 186T240 127T168 83Q133
65 105 40T77 -23Q77 -61 107 -83T181 -105Q307 -105 344 4L421 -20Q393 -99 328 -137T178 -175Q135 -175 91 -161T16 -115T-14 -29Q-14 17 6 50T61 108T138 153Q177 172 198 191T230 233T248 280Q253 298 255 316H340Z" />
<glyph unicode="&#xc0;" glyph-name="Agrave" horiz-adv-x="627" d="M-52 0L340 668H456L565 0H462L441 146H139L56 0H-52ZM184 226H430L381 573L184 226ZM396 744Q362 769 340 787Q316 807 316 828Q316 837 324 850T352 864Q370 864 384 848Q402 826 425 798T469
744H396Z" />
<glyph unicode="&#xc1;" glyph-name="Aacute" horiz-adv-x="627" d="M-52 0L340 668H456L565 0H462L441 146H139L56 0H-52ZM184 226H430L381 573L184 226ZM347 744Q347 744 362 761T400 801T441 844T468 870Q479 879 493 879Q510 879 522 867Q531 857 531 841Q531
824 519 813Q512 807 496 796T463 772T433 752T421 744H347Z" />
<glyph unicode="&#xc2;" glyph-name="Acircumflex" horiz-adv-x="627" d="M-52 0L340 668H456L565 0H462L441 146H139L56 0H-52ZM184 226H430L381 573L184 226ZM242 747L375 848Q399 867 429 867Q457 867 474 848L565 747H473L418 808L338 747H242Z" />
<glyph unicode="&#xc3;" glyph-name="Atilde" horiz-adv-x="627" d="M-52 0L340 668H456L565 0H462L441 146H139L56 0H-52ZM184 226H430L381 573L184 226ZM485 747Q456 747 437 757T400 778T356 789Q312 789 294 749H229Q249 802 283 827T357 852Q390 852 410
842T448 821T485 810Q504 810 515 819T536 839Q549 852 563 852Q576 852 584 843T593 821Q593 812 588 804Q575 784 551 766T485 747Z" />
<glyph unicode="&#xc4;" glyph-name="Adieresis" horiz-adv-x="627" d="M-52 0L340 668H456L565 0H462L441 146H139L56 0H-52ZM184 226H430L381 573L184 226ZM308 740Q286 740 270 756T254 794Q254 816 270 831T308 847Q331 847 346 832T362 794Q362 772 347 756T308
740ZM519 740Q497 740 482 756T466 794Q466 816 481 831T519 847Q542 847 557 832T573 794Q573 772 558 756T519 740Z" />
<glyph unicode="&#xc5;" glyph-name="Aring" horiz-adv-x="627" d="M-52 0L340 668H456L565 0H462L441 146H139L56 0H-52ZM184 226H430L381 573L184 226ZM406 619Q375 619 350 634T310 674T295 728Q295 758 310 782T350 822T406 837Q452 837 482 805T513 728Q513
684 483 652T406 619ZM404 677Q426 677 441 692T456 728Q456 749 441 764T404 779Q382 779 367 764T352 728Q352 707 367 692T404 677Z" />
<glyph unicode="&#xc6;" glyph-name="AE" horiz-adv-x="987" d="M-52 0L577 667H1032L1015 586H656L613 383H879L862 303H596L549 81H908L891 0H435L466 145H194L60 0H-52ZM267 226H483L548 529L267 226Z" />
<glyph unicode="&#xc7;" glyph-name="Ccedilla" horiz-adv-x="661" d="M315 -12Q243 -12 193 11T112 73T67 161T53 263Q53 346 80 421T156 555T272 646T421 680Q508 680 569 643T655 528L566 498Q550 548 509 574T411 600Q351 600 303 572T220 497T168 392T149
272Q149 212 170 166T232 93T325 67Q390 67 435 92T516 171L595 140Q548 64 476 26T315 -12ZM254 -181Q217 -181 167 -163L190 -126Q207 -133 221 -136T247 -140Q274 -140 289 -128T304 -104Q304 -95 296 -89T269 -82Q254 -82 247 -84T234 -87Q216 -87 216 -70Q216
-64 221 -57L289 25L319 4L278 -45Q285 -44 290 -44T302 -43Q335 -43 351 -59T367 -96Q367 -125 339 -153T254 -181Z" />
<glyph unicode="&#xc8;" glyph-name="Egrave" horiz-adv-x="565" d="M14 0L156 668H611L594 587H235L192 384H457L439 304H175L127 81H486L469 0H14ZM390 744Q356 769 334 787Q310 807 310 828Q310 837 318 850T346 864Q364 864 378 848Q396 826 419 798T463 744H390Z" />
<glyph unicode="&#xc9;" glyph-name="Eacute" horiz-adv-x="565" d="M14 0L156 668H611L594 587H235L192 384H457L439 304H175L127 81H486L469 0H14ZM331 744Q335 747 353 762T395 797T439 833T467 855Q481 864 493 864Q508 864 518 854T529 828Q529 815 523 807T510
794Q504 790 490 783T459 767T429 753T412 744H331Z" />
<glyph unicode="&#xca;" glyph-name="Ecircumflex" horiz-adv-x="565" d="M14 0L156 668H611L594 587H235L192 384H457L439 304H175L127 81H486L469 0H14ZM236 747L369 848Q393 867 423 867Q451 867 468 848L559 747H467L412 808L332 747H236Z" />
<glyph unicode="&#xcb;" glyph-name="Edieresis" horiz-adv-x="565" d="M14 0L156 668H611L594 587H235L192 384H457L439 304H175L127 81H486L469 0H14ZM302 740Q280 740 264 756T248 794Q248 816 264 831T302 847Q325 847 340 832T356 794Q356 772 341 756T302
740ZM513 740Q491 740 476 756T460 794Q460 816 475 831T513 847Q536 847 551 832T567 794Q567 772 552 756T513 740Z" />
<glyph unicode="&#xcc;" glyph-name="Igrave" horiz-adv-x="414" d="M4 0L20 75H113L223 593H130L146 668H427L412 593H318L209 75H301L285 0H4ZM296 744Q262 769 240 787Q216 807 216 828Q216 837 224 850T252 864Q270 864 284 848Q302 826 325 798T369 744H296Z" />
<glyph unicode="&#xcd;" glyph-name="Iacute" horiz-adv-x="414" d="M4 0L20 75H113L223 593H130L146 668H427L412 593H318L209 75H301L285 0H4ZM237 744Q241 747 259 762T301 797T345 833T373 855Q387 864 399 864Q414 864 424 854T435 828Q435 815 429 807T416
794Q410 790 396 783T365 767T335 753T318 744H237Z" />
<glyph unicode="&#xce;" glyph-name="Icircumflex" horiz-adv-x="414" d="M4 0L20 75H113L223 593H130L146 668H427L412 593H318L209 75H301L285 0H4ZM142 747L275 848Q299 867 329 867Q357 867 374 848L465 747H373L318 808L238 747H142Z" />
<glyph unicode="&#xcf;" glyph-name="Idieresis" horiz-adv-x="414" d="M4 0L20 75H113L223 593H130L146 668H427L412 593H318L209 75H301L285 0H4ZM208 740Q186 740 170 756T154 794Q154 816 170 831T208 847Q231 847 246 832T262 794Q262 772 247 756T208 740ZM419
740Q397 740 382 756T366 794Q366 816 381 831T419 847Q442 847 457 832T473 794Q473 772 458 756T419 740Z" />
<glyph unicode="&#xd0;" glyph-name="Eth" horiz-adv-x="710" d="M50 0L114 303H22L39 383H131L192 668H376Q554 668 625 581T667 319Q649 212 590 141T440 35T235 0H50ZM163 79H249Q331 79 398 102T511 180T572 325Q596 466 545 527T356 588H271L228 383H368L351
303H211L163 79Z" />
<glyph unicode="&#xd1;" glyph-name="Ntilde" horiz-adv-x="693" d="M14 0L156 668H293L479 94L601 668H697L555 0H418L233 576L110 0H14ZM534 747Q505 747 486 757T449 778T405 789Q361 789 343 749H278Q298 802 332 827T406 852Q439 852 459 842T497 821T534
810Q553 810 564 819T585 839Q598 852 612 852Q625 852 633 843T642 821Q642 812 637 804Q624 784 600 766T534 747Z" />
<glyph unicode="&#xd2;" glyph-name="Ograve" horiz-adv-x="728" d="M312 -12Q231 -12 174 24T86 124T55 268Q55 355 82 429T158 560T278 648T433 680Q515 680 572 643T660 543T691 401Q691 315 664 240T586 109T466 20T312 -12ZM325 67Q388 67 438 94T524 169T577
275T596 399Q596 464 573 509T509 577T420 600Q357 600 307 573T222 500T169 395T150 269Q150 204 173 159T236 90T325 67ZM447 744Q413 769 391 787Q367 807 367 828Q367 837 375 850T403 864Q421 864 435 848Q453 826 476 798T520 744H447Z" />
<glyph unicode="&#xd3;" glyph-name="Oacute" horiz-adv-x="728" d="M312 -12Q231 -12 174 24T86 124T55 268Q55 355 82 429T158 560T278 648T433 680Q515 680 572 643T660 543T691 401Q691 315 664 240T586 109T466 20T312 -12ZM325 67Q388 67 438 94T524 169T577
275T596 399Q596 464 573 509T509 577T420 600Q357 600 307 573T222 500T169 395T150 269Q150 204 173 159T236 90T325 67ZM395 744Q399 747 417 762T459 797T503 833T531 855Q545 864 557 864Q572 864 582 854T593 828Q593 815 587 807T574 794Q568 790 554 783T523
767T493 753T476 744H395Z" />
<glyph unicode="&#xd4;" glyph-name="Ocircumflex" horiz-adv-x="728" d="M312 -12Q231 -12 174 24T86 124T55 268Q55 355 82 429T158 560T278 648T433 680Q515 680 572 643T660 543T691 401Q691 315 664 240T586 109T466 20T312 -12ZM325 67Q388 67 438 94T524
169T577 275T596 399Q596 464 573 509T509 577T420 600Q357 600 307 573T222 500T169 395T150 269Q150 204 173 159T236 90T325 67ZM293 747L426 848Q450 867 480 867Q508 867 525 848L616 747H524L469 808L389 747H293Z" />
<glyph unicode="&#xd5;" glyph-name="Otilde" horiz-adv-x="728" d="M312 -12Q231 -12 174 24T86 124T55 268Q55 355 82 429T158 560T278 648T433 680Q515 680 572 643T660 543T691 401Q691 315 664 240T586 109T466 20T312 -12ZM325 67Q388 67 438 94T524 169T577
275T596 399Q596 464 573 509T509 577T420 600Q357 600 307 573T222 500T169 395T150 269Q150 204 173 159T236 90T325 67ZM536 747Q507 747 488 757T451 778T407 789Q363 789 345 749H280Q300 802 334 827T408 852Q441 852 461 842T499 821T536 810Q555 810 566
819T587 839Q600 852 614 852Q627 852 635 843T644 821Q644 812 639 804Q626 784 602 766T536 747Z" />
<glyph unicode="&#xd6;" glyph-name="Odieresis" horiz-adv-x="728" d="M312 -12Q231 -12 174 24T86 124T55 268Q55 355 82 429T158 560T278 648T433 680Q515 680 572 643T660 543T691 401Q691 315 664 240T586 109T466 20T312 -12ZM325 67Q388 67 438 94T524
169T577 275T596 399Q596 464 573 509T509 577T420 600Q357 600 307 573T222 500T169 395T150 269Q150 204 173 159T236 90T325 67ZM359 740Q337 740 321 756T305 794Q305 816 321 831T359 847Q382 847 397 832T413 794Q413 772 398 756T359 740ZM570 740Q548 740
533 756T517 794Q517 816 532 831T570 847Q593 847 608 832T624 794Q624 772 609 756T570 740Z" />
<glyph unicode="&#xd7;" glyph-name="multiply" horiz-adv-x="593" d="M134 39L77 97L231 250L77 404L134 462L288 308L442 462L499 404L346 250L499 97L442 39L288 193L134 39Z" />
<glyph unicode="&#xd8;" glyph-name="Oslash" horiz-adv-x="725" d="M311 -12Q249 -12 200 9T118 70L39 -4L4 32L89 112Q53 178 53 269Q53 285 54 301T58 333Q73 434 121 512T248 634T431 679Q490 679 536 660T615 606L693 679L728 642L647 566Q689 497 689 402Q689
386 688 369T684 333Q674 269 647 207T574 96T463 18T311 -12ZM162 181L547 542Q498 600 418 600Q343 600 289 565T201 469T154 333Q148 299 148 269Q148 221 162 181ZM324 67Q425 67 496 137T589 333Q592 350 593 365T594 395Q594 454 575 498L187 134Q211 101
246 84T324 67Z" />
<glyph unicode="&#xd9;" glyph-name="Ugrave" horiz-adv-x="693" d="M286 -12Q174 -12 118 33T61 175Q61 198 64 224T74 280L157 668H253L169 272Q164 247 162 226T159 186Q159 125 190 97T291 69Q352 69 396 87T469 149T516 272L601 668H697L614 280Q593 180
557 121T476 34T382 -3T286 -12ZM424 744Q390 769 368 787Q344 807 344 828Q344 837 352 850T380 864Q398 864 412 848Q430 826 453 798T497 744H424Z" />
<glyph unicode="&#xda;" glyph-name="Uacute" horiz-adv-x="693" d="M286 -12Q174 -12 118 33T61 175Q61 198 64 224T74 280L157 668H253L169 272Q164 247 162 226T159 186Q159 125 190 97T291 69Q352 69 396 87T469 149T516 272L601 668H697L614 280Q593 180
557 121T476 34T382 -3T286 -12ZM365 744Q369 747 387 762T429 797T473 833T501 855Q515 864 527 864Q542 864 552 854T563 828Q563 815 557 807T544 794Q538 790 524 783T493 767T463 753T446 744H365Z" />
<glyph unicode="&#xdb;" glyph-name="Ucircumflex" horiz-adv-x="693" d="M286 -12Q174 -12 118 33T61 175Q61 198 64 224T74 280L157 668H253L169 272Q164 247 162 226T159 186Q159 125 190 97T291 69Q352 69 396 87T469 149T516 272L601 668H697L614 280Q593
180 557 121T476 34T382 -3T286 -12ZM270 747L403 848Q427 867 457 867Q485 867 502 848L593 747H501L446 808L366 747H270Z" />
<glyph unicode="&#xdc;" glyph-name="Udieresis" horiz-adv-x="693" d="M286 -12Q174 -12 118 33T61 175Q61 198 64 224T74 280L157 668H253L169 272Q164 247 162 226T159 186Q159 125 190 97T291 69Q352 69 396 87T469 149T516 272L601 668H697L614 280Q593 180
557 121T476 34T382 -3T286 -12ZM336 740Q314 740 298 756T282 794Q282 816 298 831T336 847Q359 847 374 832T390 794Q390 772 375 756T336 740ZM547 740Q525 740 510 756T494 794Q494 816 509 831T547 847Q570 847 585 832T601 794Q601 772 586 756T547 740Z"
/>
<glyph unicode="&#xdd;" glyph-name="Yacute" horiz-adv-x="598" d="M177 0L229 240L90 668H186L290 331L554 668H668L325 240L274 0H177ZM312 744Q316 747 334 762T376 797T420 833T448 855Q462 864 474 864Q489 864 499 854T510 828Q510 815 504 807T491 794Q485
790 471 783T440 767T410 753T393 744H312Z" />
<glyph unicode="&#xde;" glyph-name="Thorn" horiz-adv-x="583" d="M13 -8L155 659H241L211 519H338Q405 519 455 506T533 462T562 378Q562 365 561 350T554 318Q531 224 460 190T261 155H134L99 -8H13ZM151 236H287Q373 236 409 261T454 321Q460 347 460 366Q460
404 431 421T329 438H194L151 236Z" />
<glyph unicode="&#xdf;" glyph-name="germandbls" horiz-adv-x="605" d="M266 -13Q259 -13 253 -13T239 -12L233 67Q257 64 280 64Q329 64 368 80T431 130T454 218Q454 276 415 301T303 329H289L305 406H320Q392 409 437 439T483 522Q483 563 455 586T374 610Q297
610 256 574T196 452L100 0H14L110 452Q118 488 131 527T172 601T249 658T378 680Q430 680 473 665T543 617T570 534Q570 498 556 465T512 406T439 372Q498 350 525 311T548 197Q544 123 503 76T399 8T266 -13Z" />
<glyph unicode="&#xe0;" glyph-name="agrave" horiz-adv-x="521" d="M154 -12Q90 -12 48 23T5 117Q5 167 31 200T100 253T192 283T289 299T370 308Q373 322 375 334T377 357Q377 436 285 436Q239 436 207 416T158 359L83 382Q109 438 159 471T281 504Q368 504
415 469T462 361Q462 344 460 327T451 279T431 188Q418 126 414 81T408 0H329L325 63Q292 26 253 7T154 -12ZM181 57Q249 57 297 102T359 224L362 241Q279 233 220 223T130 190T99 125Q99 91 123 74T181 57ZM291 571Q291 571 277 585T247 618T222 647Q215 657 215
669Q215 690 230 700Q240 707 253 707Q273 707 283 692Q289 684 301 665T327 624T349 587T359 571H291Z" />
<glyph unicode="&#xe1;" glyph-name="aacute" horiz-adv-x="521" d="M154 -12Q90 -12 48 23T5 117Q5 167 31 200T100 253T192 283T289 299T370 308Q373 322 375 334T377 357Q377 436 285 436Q239 436 207 416T158 359L83 382Q109 438 159 471T281 504Q368 504
415 469T462 361Q462 344 460 327T451 279T431 188Q418 126 414 81T408 0H329L325 63Q292 26 253 7T154 -12ZM181 57Q249 57 297 102T359 224L362 241Q279 233 220 223T130 190T99 125Q99 91 123 74T181 57ZM271 572Q271 572 286 589T324 629T365 672T392 698Q403
707 417 707Q434 707 446 695Q455 685 455 669Q455 652 443 641Q436 635 420 624T387 600T357 580T345 572H271Z" />
<glyph unicode="&#xe2;" glyph-name="acircumflex" horiz-adv-x="521" d="M154 -12Q90 -12 48 23T5 117Q5 167 31 200T100 253T192 283T289 299T370 308Q373 322 375 334T377 357Q377 436 285 436Q239 436 207 416T158 359L83 382Q109 438 159 471T281 504Q368
504 415 469T462 361Q462 344 460 327T451 279T431 188Q418 126 414 81T408 0H329L325 63Q292 26 253 7T154 -12ZM181 57Q249 57 297 102T359 224L362 241Q279 233 220 223T130 190T99 125Q99 91 123 74T181 57ZM166 575L299 676Q323 695 353 695Q381 695 398 676L489
575H397L342 636L262 575H166Z" />
<glyph unicode="&#xe3;" glyph-name="atilde" horiz-adv-x="521" d="M154 -12Q90 -12 48 23T5 117Q5 167 31 200T100 253T192 283T289 299T370 308Q373 322 375 334T377 357Q377 436 285 436Q239 436 207 416T158 359L83 382Q109 438 159 471T281 504Q368 504
415 469T462 361Q462 344 460 327T451 279T431 188Q418 126 414 81T408 0H329L325 63Q292 26 253 7T154 -12ZM181 57Q249 57 297 102T359 224L362 241Q279 233 220 223T130 190T99 125Q99 91 123 74T181 57ZM409 575Q380 575 361 585T324 606T280 617Q236 617 218
577H153Q173 630 207 655T281 680Q314 680 334 670T372 649T409 638Q428 638 439 647T460 667Q473 680 487 680Q500 680 508 671T517 649Q517 640 512 632Q499 612 475 594T409 575Z" />
<glyph unicode="&#xe4;" glyph-name="adieresis" horiz-adv-x="521" d="M154 -12Q90 -12 48 23T5 117Q5 167 31 200T100 253T192 283T289 299T370 308Q373 322 375 334T377 357Q377 436 285 436Q239 436 207 416T158 359L83 382Q109 438 159 471T281 504Q368 504
415 469T462 361Q462 344 460 327T451 279T431 188Q418 126 414 81T408 0H329L325 63Q292 26 253 7T154 -12ZM181 57Q249 57 297 102T359 224L362 241Q279 233 220 223T130 190T99 125Q99 91 123 74T181 57ZM224 590Q202 590 186 606T170 644Q170 666 186 681T224
697Q247 697 262 682T278 644Q278 622 263 606T224 590ZM435 590Q413 590 398 606T382 644Q382 666 397 681T435 697Q458 697 473 682T489 644Q489 622 474 606T435 590Z" />
<glyph unicode="&#xe5;" glyph-name="aring" horiz-adv-x="521" d="M154 -12Q90 -12 48 23T5 117Q5 167 31 200T100 253T192 283T289 299T370 308Q373 322 375 334T377 357Q377 436 285 436Q239 436 207 416T158 359L83 382Q109 438 159 471T281 504Q368 504 415
469T462 361Q462 344 460 327T451 279T431 188Q418 126 414 81T408 0H329L325 63Q292 26 253 7T154 -12ZM181 57Q249 57 297 102T359 224L362 241Q279 233 220 223T130 190T99 125Q99 91 123 74T181 57ZM348 552Q317 552 292 567T252 607T237 661Q237 691 252 715T292
755T348 770Q394 770 424 738T455 661Q455 617 425 585T348 552ZM346 610Q368 610 383 625T398 661Q398 682 383 697T346 712Q324 712 309 697T294 661Q294 640 309 625T346 610Z" />
<glyph unicode="&#xe6;" glyph-name="ae" horiz-adv-x="870" d="M165 -12Q94 -12 50 21T6 118Q6 174 33 208T109 261T223 285T367 292Q372 311 374 327T377 357Q377 396 356 415T286 435Q241 435 209 415T160 358L84 382Q109 437 159 470T280 504Q347 504 387
485T446 432Q521 504 637 504Q703 504 747 477T814 403T837 299Q837 263 828 225H443Q442 218 442 211T442 198Q442 146 462 117T512 75T576 62Q617 62 647 75T699 111L777 87Q743 43 690 16T565 -12Q498 -12 452 18T382 100Q355 58 318 34T242 -1T165 -12ZM456
292H748Q749 297 749 301T749 310Q749 340 737 368T697 414T625 432Q588 432 553 416T492 368T456 292ZM175 56Q246 57 294 103T359 224Q309 224 263 221T180 208T122 176T100 120Q100 94 118 75T175 56Z" />
<glyph unicode="&#xe7;" glyph-name="ccedilla" horiz-adv-x="495" d="M222 -12Q129 -12 78 43T26 192Q26 277 59 347T154 461T298 504Q366 504 412 476T483 393L400 364Q390 394 361 412T294 430Q237 430 198 397T139 311T118 197Q118 140 145 101T241 62Q282
62 312 79T365 127L436 99Q402 44 346 16T222 -12ZM170 -181Q133 -181 83 -163L106 -126Q123 -133 137 -136T163 -140Q190 -140 205 -128T220 -104Q220 -95 212 -89T185 -82Q170 -82 163 -84T150 -87Q132 -87 132 -70Q132 -64 137 -57L205 25L235 4L194 -45Q201
-44 206 -44T218 -43Q251 -43 267 -59T283 -96Q283 -125 255 -153T170 -181Z" />
<glyph unicode="&#xe8;" glyph-name="egrave" horiz-adv-x="542" d="M238 -12Q140 -12 84 45T27 199Q27 286 61 355T159 464T309 504Q376 504 420 477T486 404T509 300Q509 264 500 225H116Q115 218 115 211T115 197Q115 146 134 117T185 75T248 62Q290 62 320
75T371 111L449 87Q415 43 363 16T238 -12ZM128 293H421Q422 298 422 302T422 310Q422 340 410 368T370 414T297 432Q260 432 225 416T164 369T128 293ZM301 571Q301 571 287 585T257 618T232 647Q225 657 225 669Q225 690 240 700Q250 707 263 707Q283 707 293
692Q299 684 311 665T337 624T359 587T369 571H301Z" />
<glyph unicode="&#xe9;" glyph-name="eacute" horiz-adv-x="542" d="M238 -12Q140 -12 84 45T27 199Q27 286 61 355T159 464T309 504Q376 504 420 477T486 404T509 300Q509 264 500 225H116Q115 218 115 211T115 197Q115 146 134 117T185 75T248 62Q290 62 320
75T371 111L449 87Q415 43 363 16T238 -12ZM128 293H421Q422 298 422 302T422 310Q422 340 410 368T370 414T297 432Q260 432 225 416T164 369T128 293ZM281 572Q281 572 296 589T334 629T375 672T402 698Q413 707 427 707Q444 707 456 695Q465 685 465 669Q465
652 453 641Q446 635 430 624T397 600T367 580T355 572H281Z" />
<glyph unicode="&#xea;" glyph-name="ecircumflex" horiz-adv-x="542" d="M238 -12Q140 -12 84 45T27 199Q27 286 61 355T159 464T309 504Q376 504 420 477T486 404T509 300Q509 264 500 225H116Q115 218 115 211T115 197Q115 146 134 117T185 75T248 62Q290 62
320 75T371 111L449 87Q415 43 363 16T238 -12ZM128 293H421Q422 298 422 302T422 310Q422 340 410 368T370 414T297 432Q260 432 225 416T164 369T128 293ZM176 575L309 676Q333 695 363 695Q391 695 408 676L499 575H407L352 636L272 575H176Z" />
<glyph unicode="&#xeb;" glyph-name="edieresis" horiz-adv-x="542" d="M238 -12Q140 -12 84 45T27 199Q27 286 61 355T159 464T309 504Q376 504 420 477T486 404T509 300Q509 264 500 225H116Q115 218 115 211T115 197Q115 146 134 117T185 75T248 62Q290 62
320 75T371 111L449 87Q415 43 363 16T238 -12ZM128 293H421Q422 298 422 302T422 310Q422 340 410 368T370 414T297 432Q260 432 225 416T164 369T128 293ZM234 590Q212 590 196 606T180 644Q180 666 196 681T234 697Q257 697 272 682T288 644Q288 622 273 606T234
590ZM445 590Q423 590 408 606T392 644Q392 666 407 681T445 697Q468 697 483 682T499 644Q499 622 484 606T445 590Z" />
<glyph unicode="&#xec;" glyph-name="igrave" horiz-adv-x="248" d="M46 0L137 428H57L71 496H237L132 0H46ZM403 571Q403 571 389 585T359 618T334 647Q327 657 327 669Q327 690 342 700Q352 707 365 707Q385 707 395 692Q401 684 413 665T439 624T461 587T471 571H403Z" />
<glyph unicode="&#xed;" glyph-name="iacute" horiz-adv-x="285" d="M46 1L137 429H57L71 497H237L132 1H46ZM127 573Q127 573 142 590T180 630T221 673T248 699Q259 708 273 708Q290 708 302 696Q311 686 311 670Q311 653 299 642Q292 636 276 625T243 601T213
581T201 573H127Z" />
<glyph unicode="&#xee;" glyph-name="icircumflex" horiz-adv-x="248" d="M46 0L137 428H57L71 496H237L132 0H46ZM278 575L411 676Q435 695 465 695Q493 695 510 676L601 575H509L454 636L374 575H278Z" />
<glyph unicode="&#xef;" glyph-name="idieresis" horiz-adv-x="402" d="M123 0L214 428H134L148 496H314L209 0H123ZM413 590Q391 590 375 606T359 644Q359 666 375 681T413 697Q436 697 451 682T467 644Q467 622 452 606T413 590ZM624 590Q602 590 587 606T571
644Q571 666 586 681T624 697Q647 697 662 682T678 644Q678 622 663 606T624 590Z" />
<glyph unicode="&#xf0;" glyph-name="eth" horiz-adv-x="569" d="M232 -12Q173 -12 126 17T52 93T24 198Q24 268 55 323T143 412T270 445Q314 445 348 430T405 390T437 339Q439 355 440 370T441 399Q441 452 429 489T394 550L301 473L273 509L357 579Q329 594
295 599T221 603L237 679Q294 681 341 671T425 635L478 679L507 643L460 605Q494 568 511 510T526 365Q525 335 519 289T494 190T444 92T359 17T232 -12ZM242 59Q313 59 356 109T400 238Q400 301 364 335T274 370Q222 370 185 347T127 284T107 196Q107 161 123
130T169 79T242 59Z" />
<glyph unicode="&#xf1;" glyph-name="ntilde" horiz-adv-x="550" d="M8 0L113 496H177L183 427Q208 459 248 481T356 504Q419 504 454 470T490 365Q490 331 481 287L419 0H334L393 279Q402 323 402 351Q402 395 382 412T319 430Q283 430 249 414T189 360T148 257L94
0H8ZM426 575Q397 575 378 585T341 606T297 617Q253 617 235 577H170Q190 630 224 655T298 680Q331 680 351 670T389 649T426 638Q445 638 456 647T477 667Q490 680 504 680Q517 680 525 671T534 649Q534 640 529 632Q516 612 492 594T426 575Z" />
<glyph unicode="&#xf2;" glyph-name="ograve" horiz-adv-x="547" d="M230 -12Q130 -12 79 47T27 199Q27 286 62 355T159 464T303 504Q354 504 399 482T473 415T502 298Q502 235 482 179T426 80T340 13T230 -12ZM237 62Q295 62 334 97T393 186T413 301Q413 374
378 402T290 430Q231 430 192 396T134 309T115 198Q115 137 146 100T237 62ZM301 571Q301 571 287 585T257 618T232 647Q225 657 225 669Q225 690 240 700Q250 707 263 707Q283 707 293 692Q299 684 311 665T337 624T359 587T369 571H301Z" />
<glyph unicode="&#xf3;" glyph-name="oacute" horiz-adv-x="547" d="M230 -12Q130 -12 79 47T27 199Q27 286 62 355T159 464T303 504Q354 504 399 482T473 415T502 298Q502 235 482 179T426 80T340 13T230 -12ZM237 62Q295 62 334 97T393 186T413 301Q413 374
378 402T290 430Q231 430 192 396T134 309T115 198Q115 137 146 100T237 62ZM281 572Q281 572 296 589T334 629T375 672T402 698Q413 707 427 707Q444 707 456 695Q465 685 465 669Q465 652 453 641Q446 635 430 624T397 600T367 580T355 572H281Z" />
<glyph unicode="&#xf4;" glyph-name="ocircumflex" horiz-adv-x="547" d="M230 -12Q130 -12 79 47T27 199Q27 286 62 355T159 464T303 504Q354 504 399 482T473 415T502 298Q502 235 482 179T426 80T340 13T230 -12ZM237 62Q295 62 334 97T393 186T413 301Q413
374 378 402T290 430Q231 430 192 396T134 309T115 198Q115 137 146 100T237 62ZM176 575L309 676Q333 695 363 695Q391 695 408 676L499 575H407L352 636L272 575H176Z" />
<glyph unicode="&#xf5;" glyph-name="otilde" horiz-adv-x="547" d="M230 -12Q130 -12 79 47T27 199Q27 286 62 355T159 464T303 504Q354 504 399 482T473 415T502 298Q502 235 482 179T426 80T340 13T230 -12ZM237 62Q295 62 334 97T393 186T413 301Q413 374
378 402T290 430Q231 430 192 396T134 309T115 198Q115 137 146 100T237 62ZM419 575Q390 575 371 585T334 606T290 617Q246 617 228 577H163Q183 630 217 655T291 680Q324 680 344 670T382 649T419 638Q438 638 449 647T470 667Q483 680 497 680Q510 680 518 671T527
649Q527 640 522 632Q509 612 485 594T419 575Z" />
<glyph unicode="&#xf6;" glyph-name="odieresis" horiz-adv-x="547" d="M230 -12Q130 -12 79 47T27 199Q27 286 62 355T159 464T303 504Q354 504 399 482T473 415T502 298Q502 235 482 179T426 80T340 13T230 -12ZM237 62Q295 62 334 97T393 186T413 301Q413 374
378 402T290 430Q231 430 192 396T134 309T115 198Q115 137 146 100T237 62ZM234 590Q212 590 196 606T180 644Q180 666 196 681T234 697Q257 697 272 682T288 644Q288 622 273 606T234 590ZM445 590Q423 590 408 606T392 644Q392 666 407 681T445 697Q468 697
483 682T499 644Q499 622 484 606T445 590Z" />
<glyph unicode="&#xf7;" glyph-name="divide" horiz-adv-x="619" d="M300 354Q273 354 254 372T235 418Q235 445 254 464T300 483Q327 483 345 464T364 418Q364 391 346 373T300 354ZM52 208V289H548V208H52ZM300 14Q273 14 254 33T235 79Q235 105 254 124T300
143Q327 143 345 124T364 79Q364 52 346 33T300 14Z" />
<glyph unicode="&#xf8;" glyph-name="oslash" horiz-adv-x="548" d="M231 -12Q182 -12 145 2T82 43L25 -11L-10 26L52 84Q27 131 27 198Q27 284 62 353T159 463T303 504Q342 504 378 491T443 451L504 509L539 472L475 411Q488 388 495 360T503 297Q503 235 483
180T427 81T340 13T231 -12ZM121 149L384 395Q367 414 343 422T290 430Q231 430 192 396T135 308T116 196Q116 183 117 172T121 149ZM238 62Q295 62 334 97T393 186T413 300Q413 327 407 348L145 102Q176 62 238 62Z" />
<glyph unicode="&#xf9;" glyph-name="ugrave" d="M173 -11Q100 -11 70 29T40 128Q40 164 49 203L111 496H197L135 205Q131 187 129 170T126 137Q126 104 142 83T203 62Q262 62 307 102T372 236L428 496H513L408 0H343L337 70Q305 28 268 9T173 -11ZM288 571Q288
571 274 585T244 618T219 647Q212 657 212 669Q212 690 227 700Q237 707 250 707Q270 707 280 692Q286 684 298 665T324 624T346 587T356 571H288Z" />
<glyph unicode="&#xfa;" glyph-name="uacute" d="M173 -11Q100 -11 70 29T40 128Q40 164 49 203L111 496H197L135 205Q131 187 129 170T126 137Q126 104 142 83T203 62Q262 62 307 102T372 236L428 496H513L408 0H343L337 70Q305 28 268 9T173 -11ZM268 572Q268
572 283 589T321 629T362 672T389 698Q400 707 414 707Q431 707 443 695Q452 685 452 669Q452 652 440 641Q433 635 417 624T384 600T354 580T342 572H268Z" />
<glyph unicode="&#xfb;" glyph-name="ucircumflex" d="M173 -11Q100 -11 70 29T40 128Q40 164 49 203L111 496H197L135 205Q131 187 129 170T126 137Q126 104 142 83T203 62Q262 62 307 102T372 236L428 496H513L408 0H343L337 70Q305 28 268 9T173 -11ZM163 575L296
676Q320 695 350 695Q378 695 395 676L486 575H394L339 636L259 575H163Z" />
<glyph unicode="&#xfc;" glyph-name="udieresis" d="M173 -11Q100 -11 70 29T40 128Q40 164 49 203L111 496H197L135 205Q131 187 129 170T126 137Q126 104 142 83T203 62Q262 62 307 102T372 236L428 496H513L408 0H343L337 70Q305 28 268 9T173 -11ZM221 590Q199
590 183 606T167 644Q167 666 183 681T221 697Q244 697 259 682T275 644Q275 622 260 606T221 590ZM432 590Q410 590 395 606T379 644Q379 666 394 681T432 697Q455 697 470 682T486 644Q486 622 471 606T432 590Z" />
<glyph unicode="&#xfd;" glyph-name="yacute" horiz-adv-x="435" d="M-62 -161L-46 -86H-12Q29 -86 50 -80T84 -56T116 0L43 496H132L172 110L378 496H478L191 -21Q166 -67 147 -94T108 -136T58 -156T-19 -161H-62ZM226 572Q226 572 241 589T279 629T320 672T347
698Q358 707 372 707Q389 707 401 695Q410 685 410 669Q410 652 398 641Q391 635 375 624T342 600T312 580T300 572H226Z" />
<glyph unicode="&#xfe;" glyph-name="thorn" horiz-adv-x="557" d="M-26 -161L150 668H236L188 438Q213 470 249 487T328 504Q408 504 459 450T510 291Q510 196 476 128T386 24T265 -12Q206 -12 167 19T115 94L60 -161H-26ZM262 60Q301 60 330 81T379 137T409
211T419 288Q420 363 389 397T309 432Q265 432 233 410T181 355T151 285T141 218Q141 141 174 101T262 60Z" />
<glyph unicode="&#xff;" glyph-name="ydieresis" horiz-adv-x="435" d="M-62 -161L-46 -86H-12Q29 -86 50 -80T84 -56T116 0L43 496H132L172 110L378 496H478L191 -21Q166 -67 147 -94T108 -136T58 -156T-19 -161H-62ZM435 590Q413 590 397 606T381 644Q381 666
397 681T435 697Q458 697 473 682T489 644Q489 622 474 606T435 590ZM646 590Q624 590 609 606T593 644Q593 666 608 681T646 697Q669 697 684 682T700 644Q700 622 685 606T646 590Z" />
<glyph unicode="&#x2013;" glyph-name="endash" horiz-adv-x="497" d="M40 208V287H438V208H40Z" />
<glyph unicode="&#x2014;" glyph-name="emdash" horiz-adv-x="817" d="M40 208V287H758V208H40Z" />
<glyph unicode="&#x2018;" glyph-name="quoteleft" horiz-adv-x="238" d="M161 418Q131 418 113 438T95 483Q95 501 105 517L196 668H257L181 543Q224 527 224 482Q224 454 206 436T161 418Z" />
<glyph unicode="&#x2019;" glyph-name="quoteright" horiz-adv-x="238" d="M91 429L166 555Q147 562 135 578T123 617Q123 643 143 661T188 680Q217 680 235 661T253 616Q253 598 237 572L152 429H91Z" />
<glyph unicode="&#x201a;" glyph-name="quotesinglbase" horiz-adv-x="239" d="M-28 -133L47 -8Q29 0 17 15T4 53Q4 78 22 98T67 118Q96 118 115 99T134 53Q134 43 130 33T121 14L33 -133H-28Z" />
<glyph unicode="&#x201c;" glyph-name="quotedblleft" horiz-adv-x="395" d="M161 418Q131 418 113 438T95 483Q95 501 105 517L196 668H257L181 543Q224 527 224 482Q224 454 206 436T161 418ZM318 418Q288 418 270 438T252 483Q252 501 262 517L353 668H414L338
543Q381 527 381 482Q381 454 363 436T318 418Z" />
<glyph unicode="&#x201d;" glyph-name="quotedblright" horiz-adv-x="394" d="M246 429L322 554Q279 570 279 615Q279 643 298 661T342 679Q372 679 390 659T408 614Q408 596 398 580L307 429H246ZM89 429L165 554Q122 570 122 615Q122 643 141 661T185 679Q215
679 233 659T251 614Q251 596 241 580L150 429H89Z" />
<glyph unicode="&#x201e;" glyph-name="quotedblbase" horiz-adv-x="394" d="M129 -132L205 -7Q162 9 162 54Q162 82 181 100T225 118Q255 118 273 98T291 53Q291 35 281 19L190 -132H129ZM-28 -132L48 -7Q5 9 5 54Q5 82 24 100T68 118Q98 118 116 98T134 53Q134
35 124 19L33 -132H-28Z" />
<glyph unicode="&#x2022;" glyph-name="bullet" horiz-adv-x="446" d="M215 88Q169 88 132 110T72 171T49 254Q49 300 71 337T131 397T215 420Q261 420 298 398T358 338T381 254Q381 209 359 171T299 111T215 88Z" />
<glyph unicode="&#x2039;" glyph-name="guilsinglleft" horiz-adv-x="355" d="M148 40L45 250L217 461H321L140 240L237 40H148Z" />
<glyph unicode="&#x203a;" glyph-name="guilsinglright" horiz-adv-x="347" d="M9 40L190 261L93 461H182L285 251L113 40H9Z" />
</font>
</defs>
</svg>
