<?xml version="1.0" standalone="no"?>
<!DOCTYPE svg PUBLIC "-//W3C//DTD SVG 1.1//EN" "http://www.w3.org/Graphics/SVG/1.1/DTD/svg11.dtd">
<svg xmlns="http://www.w3.org/2000/svg">
<defs >
<font id="AtkinsonHyperlegible" horiz-adv-x="577" ><font-face
    font-family="Atkinson Hyperlegible"
    units-per-em="1000"
    panose-1="0 0 0 0 0 0 0 0 0 0"
    ascent="950"
    descent="-290"
    alphabetic="0" />
<glyph unicode=" " glyph-name="space" horiz-adv-x="320" />
<glyph unicode="!" glyph-name="exclam" horiz-adv-x="298" d="M71 243L83 496L120 668H318L281 496L186 243H71ZM97 -12Q57 -12 28 17T-1 86Q-1 127 28 155T97 184Q137 184 165 156T194 86Q194 46 166 17T97 -12Z" />
<glyph unicode="&quot;" glyph-name="quotedbl" horiz-adv-x="444" d="M305 434L290 668H432L418 434H305ZM116 434L102 668H244L230 434H116Z" />
<glyph unicode="#" glyph-name="numbersign" horiz-adv-x="750" d="M118 0L136 127H8L28 266H156L176 401H48L68 541H196L215 668H355L336 541H473L492 668H633L614 541H743L722 402H594L575 267H703L683 127H554L536 0H395L413 127H277L259 0H118ZM297 267H434L453
401H316L297 267Z" />
<glyph unicode="$" glyph-name="dollar" horiz-adv-x="643" d="M188 -86L207 -1Q135 16 84 56T10 157L165 210Q171 181 190 161T235 130L266 280Q229 292 193 307T127 344T79 398T61 476Q61 564 130 619T325 679Q335 680 341 680T352 680L366 747H441L425 671Q480
658 528 626T607 536L452 484Q445 503 431 516T397 538L367 398Q432 381 482 358T560 299T589 205Q589 136 551 88T448 14T305 -12Q299 -12 293 -12T280 -11L264 -86H188ZM296 421L324 552Q275 551 250 535T224 493Q224 466 244 450T296 421ZM326 114Q367 116 396
133T425 179Q425 208 400 225T337 256L307 115Q312 114 317 114T326 114Z" />
<glyph unicode="%" glyph-name="percent" horiz-adv-x="1043" d="M234 286Q183 286 143 309T80 372T56 461Q56 521 86 570T167 650T275 680Q326 680 366 657T430 593T453 503Q453 444 423 395T342 316T234 286ZM226 0L693 668H820L352 0H226ZM246 405Q281 405
307 430T334 492Q334 521 314 541T263 561Q228 561 202 535T175 474Q175 444 195 425T246 405ZM769 -12Q718 -12 678 11T615 75T592 165Q592 224 622 273T703 352T811 382Q862 382 902 359T965 295T988 205Q988 146 958 97T877 18T769 -12ZM782 107Q816 107 842
132T869 192Q869 222 849 242T798 263Q764 263 738 238T711 177Q711 147 731 127T782 107Z" />
<glyph unicode="&amp;" glyph-name="ampersand" horiz-adv-x="683" d="M199 -10Q136 -10 90 15T18 81T-7 169Q-7 230 38 290T181 389Q139 452 139 521Q139 575 166 617T242 682T353 706Q405 706 445 685T510 627T534 544Q534 492 498 439T383 348L451 244Q481
273 506 309T549 389H676Q648 315 606 253T515 146L608 0H442L407 53Q349 19 297 5T199 -10ZM326 437Q371 459 389 485T408 534Q408 558 392 575T350 592Q319 592 299 576T278 531Q278 512 289 488T326 437ZM239 116Q265 116 288 123T343 147L247 290Q199 275 178
249T157 196Q157 165 180 141T239 116Z" />
<glyph unicode="&apos;" glyph-name="quotesingle" horiz-adv-x="258" d="M103 434L89 668H231L217 434H103Z" />
<glyph unicode="(" glyph-name="parenleft" horiz-adv-x="377" d="M89 -161Q50 -68 32 14T14 171Q14 268 42 353T120 517T236 669H387Q278 537 219 413T159 155Q159 9 238 -161H89Z" />
<glyph unicode=")" glyph-name="parenright" horiz-adv-x="378" d="M-42 -161Q67 -29 126 95T186 353Q186 499 107 669H256Q295 576 313 494T331 337Q331 240 303 155T226 -9T109 -161H-42Z" />
<glyph unicode="*" glyph-name="asterisk" horiz-adv-x="443" d="M263 336L222 428L148 361L89 426L164 494L76 544L120 619L207 569L228 668L314 650L293 551L392 562L402 475L302 464L343 372L263 336Z" />
<glyph unicode="+" glyph-name="plus" horiz-adv-x="645" d="M231 0V184H39V312H231V496H359V312H551V184H359V0H231Z" />
<glyph unicode="," glyph-name="comma" horiz-adv-x="282" d="M-40 -145L51 -3Q24 8 8 32T-9 85Q-9 129 20 156T90 183Q131 183 159 156T187 88Q187 70 182 55T162 17L59 -145H-40Z" />
<glyph unicode="-" glyph-name="hyphen" horiz-adv-x="376" d="M10 184L38 313H364L336 184H10Z" />
<glyph unicode="." glyph-name="period" horiz-adv-x="247" d="M82 -12Q42 -12 13 17T-16 86Q-16 127 13 155T82 183Q122 183 150 155T179 86Q179 46 151 17T82 -12Z" />
<glyph unicode="/" glyph-name="slash" horiz-adv-x="442" d="M-55 0L348 668H499L98 0H-55Z" />
<glyph unicode="0" glyph-name="zero" horiz-adv-x="659" d="M300 -12Q174 -12 111 64T47 271Q47 302 50 335Q67 496 149 588T372 680Q498 680 561 606T625 398Q625 368 622 335Q611 229 571 151T462 31T300 -12ZM444 227Q452 250 457 277T466 335Q468 349 469
364T470 396Q470 436 462 475T429 540T360 567Q323 567 291 544L444 227ZM312 101Q352 101 385 128L230 450Q222 426 216 398T206 335Q205 319 204 304T202 273Q202 199 227 150T312 101Z" />
<glyph unicode="1" glyph-name="one" horiz-adv-x="455" d="M132 0L228 449H72L98 571Q152 571 190 578T256 607T310 668H428L287 0H132Z" />
<glyph unicode="2" glyph-name="two" horiz-adv-x="587" d="M-35 0L-9 125Q118 190 214 253T365 376T420 490Q420 528 395 548T334 568Q301 568 267 549T208 489L81 539Q108 587 151 618T247 664T350 680Q410 680 462 660T546 601T578 502Q578 447 549 395T468
296T349 206T204 125H504L478 0H-35Z" />
<glyph unicode="3" glyph-name="three" horiz-adv-x="619" d="M267 -12Q211 -12 160 1T69 48T6 140L155 190Q163 141 196 121T268 101Q314 101 347 125T381 190Q381 223 365 243T323 273T265 287T205 291L227 397Q311 397 365 418T419 488Q419 528 392 547T326
567Q286 567 252 550T204 485L77 535Q121 618 190 649T344 680Q408 680 461 661T547 604T579 513Q579 465 563 433T522 381T465 349Q506 326 524 287T539 200Q533 130 495 83T396 12T267 -12Z" />
<glyph unicode="4" glyph-name="four" horiz-adv-x="646" d="M294 0L324 141H-16L7 252L421 668H592L508 275H600L572 141H480L450 0H294ZM193 275H352L394 469L193 275Z" />
<glyph unicode="5" glyph-name="five" horiz-adv-x="616" d="M268 -12Q212 -12 160 5T69 57T17 142L156 189Q164 145 197 123T269 100Q322 100 355 134T388 223Q388 262 372 287T331 325T277 337Q244 337 214 322T168 276L41 327L156 668H586L560 544H259L217
419Q242 433 272 440T333 448Q385 448 433 427T513 360T544 242Q544 162 507 105T408 18T268 -12Z" />
<glyph unicode="6" glyph-name="six" horiz-adv-x="629" d="M289 -12Q203 -12 149 22T69 118T43 258Q43 344 65 420T128 554T231 646T370 680Q444 680 493 653T567 583L429 535Q418 552 399 561T352 570Q300 570 265 526T220 409Q246 429 275 440T349 452Q407
452 455 427T533 355T562 243Q562 171 527 113T429 22T289 -12ZM293 101Q341 101 373 137T407 227Q407 284 380 311T308 339Q250 339 221 302T192 209Q192 162 219 132T293 101Z" />
<glyph unicode="7" glyph-name="seven" horiz-adv-x="561" d="M13 0L400 543H53L80 668H593L567 543L194 0H13Z" />
<glyph unicode="8" glyph-name="eight" horiz-adv-x="623" d="M274 -12Q193 -12 135 13T44 83T12 186Q12 254 47 299T147 378Q135 400 128 424T121 477Q121 528 147 574T221 650T334 680Q386 680 425 656T486 593T508 512Q508 478 493 437T455 373Q499 350 527
313T556 211Q556 147 521 97T422 17T274 -12ZM307 417Q336 417 359 440T382 494Q382 520 365 537T321 555Q292 555 269 533T246 479Q246 453 263 435T307 417ZM280 114Q334 114 368 142T402 215Q402 253 371 273T291 294Q236 294 202 269T167 198Q167 161 198 138T280
114Z" />
<glyph unicode="9" glyph-name="nine" horiz-adv-x="576" d="M106 0L271 222H254Q194 224 151 252T85 324T62 420Q62 473 83 520T142 604T228 660T332 681Q396 681 446 654T526 579T556 472Q556 437 544 399T502 319Q484 293 459 257T405 180T352 103T307 39T280
0H106ZM297 336Q334 336 361 353T402 397T417 452Q417 494 393 520T327 546Q290 546 262 529T218 484T202 422Q202 380 230 358T297 336Z" />
<glyph unicode=":" glyph-name="colon" horiz-adv-x="247" d="M142 316Q102 316 73 344T44 413Q44 454 73 482T142 511Q183 511 211 483T239 413Q239 373 211 345T142 316ZM72 -12Q32 -12 3 17T-26 86Q-26 127 3 155T72 183Q112 183 140 155T169 86Q169 46 141
17T72 -12Z" />
<glyph unicode=";" glyph-name="semicolon" horiz-adv-x="247" d="M199 -145L290 -3Q263 8 247 32T230 85Q230 129 259 156T329 183Q370 183 398 156T426 88Q426 70 421 55T401 17L298 -145H199ZM141 316Q101 316 72 345T43 414Q43 455 72 483T141 511Q181 511
209 483T238 414Q238 374 210 345T141 316Z" />
<glyph unicode="&lt;" glyph-name="less" horiz-adv-x="640" d="M527 -12L34 200V299L527 510V368L203 250L527 130V-12Z" />
<glyph unicode="=" glyph-name="equal" horiz-adv-x="685" d="M60 283V410H572V283H60ZM60 96V225H572V96H60Z" />
<glyph unicode="&gt;" glyph-name="greater" horiz-adv-x="638" d="M78 -12V130L403 250L78 368V510L571 299V200L78 -12Z" />
<glyph unicode="?" glyph-name="question" horiz-adv-x="634" d="M185 243Q188 266 195 284Q211 328 245 359T326 411Q351 423 379 435T427 462T448 497Q450 526 426 539T356 552Q308 552 273 535T223 486L85 541Q128 617 201 648T368 680Q414 680 459 672T541
647T600 600T623 529Q623 480 602 446T546 387T468 345Q429 329 404 314T363 276Q359 269 355 261T346 243H185ZM237 -12Q197 -12 169 17T140 86Q140 127 168 155T237 183Q278 183 306 155T335 86Q335 46 307 17T237 -12Z" />
<glyph unicode="@" glyph-name="at" horiz-adv-x="753" d="M386 -12Q285 -12 207 30T85 147T41 323Q41 395 68 459T142 573T252 651T386 680Q446 680 505 658T612 595T690 497T720 368Q720 308 698 259T636 182T541 153Q502 153 471 171T430 224Q402 188 368 171T299
153Q252 153 217 185T181 276Q181 346 212 400T300 486T428 518Q459 518 489 513T545 498L509 330Q505 308 503 298T501 280Q501 252 516 242T551 231Q583 231 604 249T637 298T648 363Q648 435 612 491T515 578T386 610Q328 610 278 587T190 523T131 432T110 323Q110
241 145 181T243 89T386 56Q424 56 457 65T522 94V16Q458 -12 386 -12ZM325 250Q350 250 376 272T411 339Q420 381 423 399T428 421T429 425Q416 428 400 428Q364 428 338 409T297 361T282 298Q282 274 294 262T325 250Z" />
<glyph unicode="A" glyph-name="A" horiz-adv-x="698" d="M-65 0L329 668H512L623 0H458L442 119H187L121 0H-65ZM255 247H427L395 501L255 247Z" />
<glyph unicode="B" glyph-name="B" horiz-adv-x="643" d="M-23 0L119 668H413Q472 668 522 656T602 613T633 524Q633 468 605 424T523 355Q558 339 579 309T600 229Q600 149 557 99T441 24T283 0H-23ZM224 404H363Q407 404 435 425T464 484Q464 509 446 524T391
539H253L224 404ZM166 131H313Q366 131 399 157T433 222Q433 251 408 266T339 282H198L166 131Z" />
<glyph unicode="C" glyph-name="C" horiz-adv-x="673" d="M322 -12Q240 -12 174 18T70 110T32 265Q32 354 59 429T136 561T257 648T417 680Q469 680 520 666T612 617T671 525L525 476Q507 518 475 534T401 550Q354 550 317 528T254 467T214 382T200 283Q200 202
238 162T338 120Q376 120 412 136T480 194L616 141Q570 70 497 29T322 -12Z" />
<glyph unicode="D" glyph-name="D" horiz-adv-x="690" d="M-23 0L119 668H313Q501 668 592 577T651 312Q635 223 591 163T483 67T347 16T200 0H-23ZM167 133H230Q311 133 365 161T450 240T488 355Q500 457 460 497T311 537H253L167 133Z" />
<glyph unicode="E" glyph-name="E" horiz-adv-x="582" d="M-23 0L119 668H637L607 529H251L226 413H443L414 274H197L168 139H524L495 0H-23Z" />
<glyph unicode="F" glyph-name="F" horiz-adv-x="545" d="M-23 0L119 668H600L571 529H251L226 413H546L517 274H197L138 0H-23Z" />
<glyph unicode="G" glyph-name="G" horiz-adv-x="733" d="M282 -12Q215 -12 158 19T66 111T31 261Q31 350 58 426T137 560T261 648T422 680Q510 680 577 646T677 535L529 478Q519 504 486 527T400 550Q351 550 314 527T251 464T212 377T199 278Q199 198 238 158T344
117Q378 117 412 129T471 167T505 231L509 250H359L386 378H698L617 0H510L504 74Q421 -12 282 -12Z" />
<glyph unicode="H" glyph-name="H" horiz-adv-x="695" d="M-23 0L119 668H279L226 413H502L556 668H717L575 0H414L472 274H197L138 0H-23Z" />
<glyph unicode="I" glyph-name="I" horiz-adv-x="459" d="M-13 0L13 124H105L195 544H103L129 668H474L447 544H355L267 124H358L331 0H-13Z" />
<glyph unicode="J" glyph-name="J" horiz-adv-x="566" d="M195 -12Q127 -12 78 13T2 80T-28 176L129 228Q128 221 128 215T128 203Q128 162 146 138T212 113Q267 113 295 145T339 256L426 668H588L500 256Q478 153 438 95T337 12T195 -12Z" />
<glyph unicode="K" glyph-name="K" horiz-adv-x="657" d="M-23 0L119 668H279L229 426L501 668H715L384 377L577 0H411L270 277L180 197L138 0H-23Z" />
<glyph unicode="L" glyph-name="L" horiz-adv-x="543" d="M-23 0L119 668H279L168 139H488L458 0H-23Z" />
<glyph unicode="M" glyph-name="M" horiz-adv-x="858" d="M-23 0L119 668H356L394 193L635 668H880L737 0H581L690 510L426 0H294L247 533L134 0H-23Z" />
<glyph unicode="N" glyph-name="N" horiz-adv-x="715" d="M-23 0L119 668H318L478 183L582 668H737L595 0H396L236 485L133 0H-23Z" />
<glyph unicode="O" glyph-name="O" horiz-adv-x="763" d="M335 -12Q239 -12 172 23T68 122T32 269Q32 355 61 429T143 560T268 648T426 680Q517 680 585 647T693 550T732 393Q732 306 703 233T620 104T494 19T335 -12ZM349 118Q414 118 462 154T537 251T564 379Q564
438 543 475T487 531T414 550Q365 550 326 528T258 467T216 382T201 286Q201 240 217 202T267 141T349 118Z" />
<glyph unicode="P" glyph-name="P" horiz-adv-x="628" d="M-23 0L119 668H379Q476 668 532 647T613 585T638 490Q638 399 596 342T479 259T304 232H187L138 0H-23ZM216 363H319Q388 363 429 388T470 468Q470 535 355 535H252L216 363Z" />
<glyph unicode="Q" glyph-name="Q" horiz-adv-x="774" d="M617 -55L523 56Q483 36 437 25T340 14Q244 14 177 50T73 149T37 295Q37 381 66 455T147 586T272 674T431 706Q521 706 590 673T698 576T737 420Q737 339 708 262T622 127L709 25L617 -55ZM354 145Q396
145 433 162L330 285L421 363L524 243Q545 278 557 321T569 405Q569 464 548 502T492 558T419 576Q370 576 331 554T263 493T221 408T206 311Q206 266 222 229T272 168T354 145Z" />
<glyph unicode="R" glyph-name="R" horiz-adv-x="644" d="M-23 0L119 668H369Q491 668 560 628T630 489Q630 387 576 336T420 269L557 0H391L263 252H192L138 0H-23ZM220 384H323Q362 384 393 390T444 416T463 473Q463 511 431 523T346 535H252L220 384Z" />
<glyph unicode="S" glyph-name="S" horiz-adv-x="642" d="M306 -12Q197 -12 119 33T10 157L165 209Q173 176 196 155T250 124T313 114Q357 114 390 131T424 179Q424 204 405 221T353 250T281 274T204 301T133 338T81 394T61 475Q61 529 84 567T147 631T237 668T341
680Q391 680 441 667T534 621T606 535L451 483Q438 518 402 534T329 551Q278 551 251 535T224 492Q224 465 243 449T295 420T367 398T445 374T516 339T568 286T588 206Q588 134 548 86T444 13T306 -12Z" />
<glyph unicode="T" glyph-name="T" horiz-adv-x="617" d="M158 0L270 529H57L87 668H673L644 529H430L319 0H158Z" />
<glyph unicode="U" glyph-name="U" horiz-adv-x="679" d="M266 -12Q176 -12 124 14T49 85T26 187Q26 212 29 238T39 292L120 668H281L198 279Q194 258 191 240T188 204Q188 164 210 141T294 117Q349 117 380 137T429 193T457 279L540 668H701L621 292Q601 198
571 139T498 46T398 1T266 -12Z" />
<glyph unicode="V" glyph-name="V" horiz-adv-x="662" d="M166 0L82 668H240L289 177L546 668H724L356 0H166Z" />
<glyph unicode="W" glyph-name="W" horiz-adv-x="889" d="M101 0L82 668H235L230 222L419 668H588V205L783 668H951L648 0H468V470L266 0H101Z" />
<glyph unicode="X" glyph-name="X" horiz-adv-x="706" d="M-60 0L270 356L115 668H286L382 477L558 668H768L456 331L621 0H448L343 210L151 0H-60Z" />
<glyph unicode="Y" glyph-name="Y" horiz-adv-x="700" d="M191 0L242 241L82 668H253L339 391L558 668H762L404 241L354 0H191Z" />
<glyph unicode="Z" glyph-name="Z" horiz-adv-x="632" d="M-38 0L-12 121L411 529H100L130 668H668L642 547L221 139H560L530 0H-38Z" />
<glyph unicode="[" glyph-name="bracketleft" horiz-adv-x="340" d="M-57 -161L119 668H378L353 552H226L99 -46H227L202 -161H-57Z" />
<glyph unicode="\" glyph-name="backslash" horiz-adv-x="584" d="M348 0L87 668H240L499 0H348Z" />
<glyph unicode="]" glyph-name="bracketright" horiz-adv-x="342" d="M-71 -161L-46 -46H82L209 552H81L105 668H364L188 -161H-71Z" />
<glyph unicode="^" glyph-name="asciicircum" horiz-adv-x="589" d="M49 312L234 668H347L532 312H389L291 506L192 312H49Z" />
<glyph unicode="_" glyph-name="underscore" horiz-adv-x="457" d="M-30 -128V0H380V-128H-30Z" />
<glyph unicode="`" glyph-name="grave" horiz-adv-x="315" d="M206 574Q206 574 193 585T164 610T139 635Q127 652 127 670Q127 696 148 714Q162 727 183 727Q210 727 226 706Q235 694 250 673T279 628T304 590T314 574H206Z" />
<glyph unicode="a" glyph-name="a" horiz-adv-x="545" d="M130 -12Q92 -12 58 3T3 48T-18 118Q-18 174 14 209T99 266T214 298T338 315Q342 330 343 339T344 354Q344 383 325 395T272 407Q240 407 212 393T170 348L53 394Q91 453 150 481T293 510Q351 510 396
493T468 440T494 353Q494 333 489 303T476 244T465 193Q458 161 453 124T444 55T441 0H297L292 59Q258 18 221 3T130 -12ZM208 91Q249 91 278 117T325 213L328 225Q244 218 194 199T143 138Q143 116 162 104T208 91Z" />
<glyph unicode="b" glyph-name="b" horiz-adv-x="592" d="M293 -12Q252 -12 214 6T149 66L115 0H-21L121 668H276L227 436Q255 474 294 492T373 510Q423 510 464 487T529 417T554 303Q554 241 536 184T483 83T401 14T293 -12ZM266 105Q299 105 328 125T376 183T395
275Q395 328 374 360T310 392Q264 392 234 364T190 293T175 208Q175 156 202 131T266 105Z" />
<glyph unicode="c" glyph-name="c" horiz-adv-x="531" d="M223 -12Q118 -12 60 45T2 194Q2 284 42 355T154 468T316 510Q381 510 432 483T511 382L378 336Q371 368 350 380T299 392Q251 392 220 363T172 288T156 198Q156 148 180 127T236 105Q268 105 293 115T341
154L464 107Q416 40 352 14T223 -12Z" />
<glyph unicode="d" glyph-name="d" horiz-adv-x="592" d="M187 -12Q105 -12 54 42T3 191Q3 254 21 311T73 413T156 484T266 510Q314 510 351 486T405 421L458 668H613Q613 668 607 642T592 572T571 475T549 369T528 269T512 193Q505 156 497 105T488 0H339L334
63Q303 23 265 6T187 -12ZM251 105Q293 105 322 133T367 204T382 289Q382 327 368 349T334 382T293 392Q248 392 219 367T176 301T162 216Q162 170 183 138T251 105Z" />
<glyph unicode="e" glyph-name="e" horiz-adv-x="567" d="M229 -12Q124 -12 64 42T3 196Q3 262 25 319T89 419T185 486T307 510Q414 510 472 453T530 298Q530 277 528 255T519 209H154Q153 203 153 198T152 188Q152 144 183 125T254 106Q284 106 312 115T358 142L472
98Q429 45 367 17T229 -12ZM168 299H395Q396 303 396 306T396 313Q396 357 368 378T302 399Q262 399 222 374T168 299Z" />
<glyph unicode="f" glyph-name="f" horiz-adv-x="379" d="M18 0L99 380H19L43 496H124L135 547Q147 601 161 636T200 691T265 719T366 727H434L409 608H368Q337 608 322 603T300 581T285 527L278 496H385L360 380H253L173 0H18Z" />
<glyph unicode="g" glyph-name="g" horiz-adv-x="594" d="M194 -207Q144 -207 99 -192T22 -150T-22 -85L112 -41Q119 -63 143 -75T196 -88Q235 -88 272 -66T319 6L337 91Q306 54 267 36T187 17Q140 17 99 40T32 108T6 214Q6 271 24 324T77 419T159 486T262 511Q310
511 350 490T409 429L443 496H577Q552 377 527 257T476 18Q458 -62 414 -111T311 -184T194 -207ZM247 131Q293 131 323 155T368 219T384 301Q384 348 359 371T296 395Q253 395 224 373T179 313T164 234Q164 185 187 158T247 131Z" />
<glyph unicode="h" glyph-name="h" horiz-adv-x="580" d="M-21 0L121 668H272L222 432Q243 461 286 485T396 510Q455 510 491 477T528 366Q528 347 526 326T518 281L458 0H302L358 263Q367 302 367 328Q367 362 353 377T311 392Q216 392 189 254L135 0H-21Z" />
<glyph unicode="i" glyph-name="i" horiz-adv-x="338" d="M266 578Q229 578 203 604T177 668Q177 705 203 731T266 757Q304 757 330 731T356 668Q356 631 330 605T266 578ZM48 0L129 380H26L51 496H309L204 0H48Z" />
<glyph unicode="j" glyph-name="j" horiz-adv-x="263" d="M206 578Q169 578 143 604T116 668Q116 706 142 732T206 758Q243 758 269 732T296 668Q296 631 270 605T206 578ZM-74 -162Q-105 -162 -128 -162T-174 -160L-148 -42H-87Q-57 -42 -42 -36T-19 -12T-4 39L93
496H249L148 23Q135 -38 119 -74T78 -130T17 -155T-74 -162Z" />
<glyph unicode="k" glyph-name="k" horiz-adv-x="562" d="M-21 0L121 668H276L203 327L388 496H586L342 283L487 0H324L229 184L161 124L135 0H-21Z" />
<glyph unicode="l" glyph-name="l" horiz-adv-x="317" d="M147 0Q81 0 43 22T4 99Q4 108 5 118T9 140L121 668H277L179 204Q176 191 174 180T172 159Q172 142 183 133T227 124H270L244 0H147Z" />
<glyph unicode="m" glyph-name="m" horiz-adv-x="895" d="M-20 0L85 496H221L226 432Q249 460 288 485T384 510Q443 510 476 490T523 427Q559 471 604 490T701 510Q776 510 810 473T845 370Q845 352 843 332T835 290L773 0H617L673 263Q678 286 681 305T684 338Q684
367 671 379T628 392Q537 392 509 261L454 0H298L354 263Q363 307 363 332Q363 367 349 379T309 392Q263 392 234 358T191 258L136 0H-20Z" />
<glyph unicode="n" glyph-name="n" horiz-adv-x="581" d="M-20 0L85 496H221L226 432Q247 461 289 485T397 510Q456 510 492 477T529 366Q529 347 527 326T519 281L459 0H303L359 263Q368 302 368 328Q368 362 354 377T312 392Q219 392 190 254L136 0H-20Z" />
<glyph unicode="o" glyph-name="o" horiz-adv-x="576" d="M239 -13Q169 -13 116 13T34 89T5 204Q5 292 42 361T146 470T302 510Q368 510 421 486T505 414T536 295Q536 207 500 137T397 27T239 -13ZM245 105Q291 105 321 131T366 200T381 292Q381 347 357 369T292
392Q246 392 217 365T173 295T159 206Q159 181 166 158T192 120T245 105Z" />
<glyph unicode="p" glyph-name="p" horiz-adv-x="590" d="M-55 -161L85 496H219L225 428Q251 472 293 491T376 510Q429 510 468 484T530 412T552 305Q552 242 534 185T481 84T397 13T287 -13Q247 -13 211 7T150 70L101 -161H-55ZM261 105Q306 105 335 130T379
195T394 282Q394 336 371 364T308 392Q264 392 234 365T189 296T174 210Q174 158 199 132T261 105Z" />
<glyph unicode="q" glyph-name="q" horiz-adv-x="601" d="M183 -12Q101 -12 53 45T4 196Q4 258 22 314T75 415T157 484T263 510Q304 510 342 491T404 427L440 496H575Q552 387 529 278T482 58Q478 42 476 28T473 2Q473 -15 483 -24T520 -34Q552 -34 608 -21L580
-151Q556 -161 525 -167T462 -173Q423 -173 388 -162T330 -123T308 -48Q308 -23 313 -4T326 56Q298 22 261 5T183 -12ZM250 106Q280 106 308 124T357 181T380 279Q384 336 358 364T291 393Q237 393 200 352T162 224Q161 160 185 133T250 106Z" />
<glyph unicode="r" glyph-name="r" horiz-adv-x="391" d="M-20 0L85 496H208L215 409Q241 455 276 482T377 510H403L371 358Q346 361 325 361Q260 361 229 327T185 231L136 0H-20Z" />
<glyph unicode="s" glyph-name="s" horiz-adv-x="515" d="M229 -13Q191 -13 145 -4T57 33T-10 116L120 160Q128 126 159 111T224 96Q256 96 281 108T306 139Q306 157 286 168T235 188T168 208T102 236T50 283T30 357Q30 401 58 435T134 490T243 510Q315 510 375
486T471 400L339 355Q329 381 303 390T241 399Q206 399 190 387T174 362Q174 343 194 331T246 311T314 292T382 266T434 224T454 156Q454 79 394 33T229 -13Z" />
<glyph unicode="t" glyph-name="t" horiz-adv-x="391" d="M193 0Q128 0 89 21T50 98Q50 116 57 150L106 380H28L53 496H131L157 620H312L286 496H394L370 380H261L224 205Q221 192 219 181T217 160Q217 143 228 134T272 124H315L289 0H193Z" />
<glyph unicode="u" glyph-name="u" horiz-adv-x="578" d="M159 -12Q104 -12 73 8T30 61T17 134Q17 156 20 177T27 220L86 496H241L186 235Q184 225 182 209T179 175Q179 149 189 128T231 106Q270 106 303 136T350 234L406 496H561L456 0H321L316 64Q295 30 255
9T159 -12Z" />
<glyph unicode="v" glyph-name="v" horiz-adv-x="533" d="M107 0L35 496H186L219 157L398 496H568L285 0H107Z" />
<glyph unicode="w" glyph-name="w" horiz-adv-x="727" d="M54 0L35 496H181L185 175L313 496H463L455 159L604 496H762L533 0H359L362 356L214 0H54Z" />
<glyph unicode="x" glyph-name="x" horiz-adv-x="536" d="M-71 0L179 270L66 496H216L276 376L387 496H571L340 246L464 0H313L242 141L113 0H-71Z" />
<glyph unicode="y" glyph-name="y" horiz-adv-x="527" d="M-44 -161L-21 -51H10Q52 -51 72 -47T102 -31T121 0L35 496H190L220 180L386 496H562L266 0Q233 -56 209 -88T160 -136T99 -156T5 -161H-44Z" />
<glyph unicode="z" glyph-name="z" horiz-adv-x="528" d="M-40 0L-14 121L296 375H65L91 496H539L513 375L203 121H462L437 0H-40Z" />
<glyph unicode="{" glyph-name="braceleft" horiz-adv-x="373" d="M180 -162Q89 -162 48 -120T23 1L44 97Q55 144 47 168T-6 192L20 315Q67 315 84 340T110 409L131 505Q144 563 164 596T212 644T275 663T355 667H410L384 548H351Q319 548 301 540T277 503L251
380Q237 317 203 291T131 255L130 252Q177 239 192 208T197 127L172 13Q165 -18 175 -30T220 -42H260L234 -162H180Z" />
<glyph unicode="|" glyph-name="bar" horiz-adv-x="299" d="M59 -161V668H205V-161H59Z" />
<glyph unicode="}" glyph-name="braceright" horiz-adv-x="373" d="M-70 -162L-45 -42H-11Q21 -42 39 -34T64 2L90 126Q104 190 138 216T210 252L211 255Q165 269 150 299T144 379L170 498Q176 527 165 537T120 548H81L106 667H161Q249 667 291 628T316 505L296
409Q286 361 294 338T346 315L320 192Q274 192 256 166T229 97L210 1Q198 -57 178 -90T130 -138T65 -158T-16 -162H-70Z" />
<glyph unicode="~" glyph-name="asciitilde" horiz-adv-x="533" d="M324 167Q298 167 278 176T239 197T203 218T164 227Q146 227 130 212T106 146L9 184Q31 261 70 305T180 350Q208 350 230 341T270 320T304 299T339 290Q356 290 372 305T396 370L494 333Q472
256 434 212T324 167Z" />
<glyph unicode="&#xa0;" glyph-name="uni00A0" horiz-adv-x="320" />
<glyph unicode="&#xa1;" glyph-name="exclamdown" horiz-adv-x="297" d="M166 324Q126 324 98 352T69 420Q69 461 97 489T166 518Q207 518 235 490T263 420Q263 380 235 352T166 324ZM-55 -162L-18 11L77 264H192L180 11L143 -162H-55Z" />
<glyph unicode="&#xa2;" glyph-name="cent" horiz-adv-x="531" d="M155 -87L172 -8Q90 6 46 60T2 195Q2 209 3 223T7 251Q28 362 101 430T282 508L295 571H368L354 507Q407 500 447 472T511 381L378 335Q372 358 360 371T329 388L270 109Q290 113 307 123T341
155L464 107Q420 45 362 19T245 -12L229 -87H155ZM198 114L255 383Q225 370 200 339T162 250Q156 220 156 198Q156 164 167 144T198 114Z" />
<glyph unicode="&#xa3;" glyph-name="sterling" horiz-adv-x="617" d="M33 -12L2 104Q85 140 121 188T158 277Q158 287 155 295H43L58 368H133Q126 393 120 421T113 478Q113 531 137 569T201 632T289 667T388 679Q565 679 632 537L485 487Q463 525 437 540T374
556Q325 556 298 535T271 471Q271 430 298 368H458L443 295H315Q317 287 317 279Q317 246 284 201T181 117Q204 129 226 131T269 134Q307 134 341 124T407 113Q434 113 461 121T517 144L535 23Q497 6 457 -3T367 -12Q332 -12 301 -3T239 15T175 24Q153 24 118 18T33
-12Z" />
<glyph unicode="&#xa4;" glyph-name="currency" horiz-adv-x="678" d="M144 75L92 127L159 194Q140 221 129 253T118 321Q118 356 129 387T159 446L92 513L144 565L211 498Q238 518 270 528T337 539Q373 539 404 529T463 498L530 565L582 513L515 446Q555 391
555 321Q555 285 545 253T515 194L582 127L530 75L463 142Q408 102 337 102Q266 102 211 142L144 75ZM337 221Q378 221 407 250T436 321Q436 362 407 390T337 419Q296 419 267 391T238 321Q238 280 267 251T337 221Z" />
<glyph unicode="&#xa5;" glyph-name="yen" horiz-adv-x="700" d="M191 0L207 75H83L99 148H222L236 212H112L128 286H225L82 667H253L339 390L558 667H762L442 286H544L528 212H398L385 148H515L499 75H370L354 0H191Z" />
<glyph unicode="&#xa6;" glyph-name="brokenbar" horiz-adv-x="281" d="M59 358V668H187V358H59ZM59 -161V150H187V-161H59Z" />
<glyph unicode="&#xa7;" glyph-name="section" horiz-adv-x="563" d="M138 -174Q66 -174 12 -142T-59 -49L81 -2Q84 -29 105 -41T152 -54Q181 -54 206 -39T231 5Q231 26 213 44T167 81T112 120Q96 132 73 151T33 197T15 261Q15 307 34 338T86 392T159 429Q147
458 147 490Q147 536 171 579T246 650T371 679Q436 679 491 657T571 578L432 532Q427 548 408 555T367 563Q342 563 321 553T299 523Q299 501 328 481T407 422Q419 413 438 399T478 366T512 324T526 271Q526 221 495 175T375 97Q388 74 388 40Q388 5 372 -32T324
-102T246 -154T138 -174ZM304 177Q365 202 365 232Q365 244 355 257T325 284Q315 292 297 305T262 331T233 352Q203 346 187 332T171 301Q171 278 198 257Q207 250 224 237T259 211T291 187T304 177Z" />
<glyph unicode="&#xa8;" glyph-name="dieresis" horiz-adv-x="455" d="M199 578Q170 578 149 598T128 648Q128 677 149 698T199 719Q228 719 248 698T269 648Q269 619 249 599T199 578ZM393 578Q364 578 343 598T322 648Q322 677 343 698T393 719Q422 719 442
698T462 648Q462 619 442 599T393 578Z" />
<glyph unicode="&#xa9;" glyph-name="copyright" horiz-adv-x="814" d="M407 -12Q336 -12 274 15T164 89T89 199T62 334Q62 405 89 467T163 577T273 652T407 679Q479 679 542 652T652 578T727 468T754 334Q754 262 727 200T653 90T542 15T407 -12ZM407 57Q464
57 514 78T603 138T662 226T684 334Q684 391 663 441T603 529T515 588T407 610Q350 610 301 589T213 529T154 441T132 334Q132 277 153 227T213 138T300 79T407 57ZM410 145Q322 145 275 197T227 334Q227 391 250 433T315 498T410 522Q457 522 502 502T573 428L481
394Q472 417 455 427T416 437Q387 437 363 414T339 334Q339 276 363 253T416 230Q463 230 482 264L572 231Q544 183 499 164T410 145Z" />
<glyph unicode="&#xaa;" glyph-name="ordfeminine" horiz-adv-x="395" d="M174 396Q131 396 109 419T86 477Q86 520 115 541T192 570T289 582Q291 585 292 590T294 601Q294 611 284 618T254 625Q241 625 227 619T207 599L127 631Q148 662 181 677T266 692Q298
692 325 684T370 654T388 596Q388 575 382 549Q373 510 368 476T358 403H272L270 435Q256 419 233 408T174 396ZM222 464Q239 464 254 475T277 510L282 528L256 525Q225 521 209 514T193 491Q192 478 201 471T222 464Z" />
<glyph unicode="&#xab;" glyph-name="guillemotleft" horiz-adv-x="665" d="M379 40L276 250L469 460H640L443 244L543 40H379ZM139 40L36 250L229 460H400L203 244L303 40H139Z" />
<glyph unicode="&#xac;" glyph-name="logicalnot" horiz-adv-x="696" d="M457 56V295H73V422H585V56H457Z" />
<glyph unicode="&#xad;" glyph-name="uni00AD" horiz-adv-x="376" d="M10 184L38 313H364L336 184H10Z" />
<glyph unicode="&#xae;" glyph-name="registered" horiz-adv-x="814" d="M407 -12Q336 -12 274 15T164 89T89 199T62 334Q62 405 89 467T163 577T273 652T407 679Q479 679 542 652T652 578T727 468T754 334Q754 262 727 200T653 90T542 15T407 -12ZM407 57Q464
57 514 78T603 138T662 226T684 334Q684 391 663 441T603 529T515 588T407 610Q350 610 301 589T213 529T154 441T132 334Q132 277 153 227T213 138T300 79T407 57ZM250 161V529H401Q449 529 486 520T546 486T568 415Q568 384 551 354T481 310L588 161H480L379
300H347V161H250ZM347 375H399Q428 375 447 382T467 414Q467 438 448 445T399 453H347V375Z" />
<glyph unicode="&#xaf;" glyph-name="overscore" horiz-adv-x="405" d="M104 570L125 668H424L403 570H104Z" />
<glyph unicode="&#xb0;" glyph-name="degree" horiz-adv-x="411" d="M245 354Q201 354 164 376T105 435T83 517Q83 562 105 598T164 657T245 679Q290 679 327 657T385 599T407 517Q407 472 386 435T327 376T245 354ZM245 444Q276 444 297 465T318 517Q318 547
297 568T245 590Q215 590 194 569T172 517Q172 487 193 466T245 444Z" />
<glyph unicode="&#xb1;" glyph-name="plusminus" horiz-adv-x="701" d="M248 180V283H56V391H248V495H376V391H568V283H376V180H248ZM56 0V128H568V0H56Z" />
<glyph unicode="&#xb2;" glyph-name="uni00B2" horiz-adv-x="407" d="M70 403L87 484Q127 506 168 529T243 577T299 626T321 675Q321 693 308 702T277 711Q232 711 216 667L132 700Q175 788 288 788Q347 788 387 766T427 689Q427 650 399 612T329 543T240 491H388L370
403H70Z" />
<glyph unicode="&#xb3;" glyph-name="uni00B3" horiz-adv-x="425" d="M253 396Q203 396 162 417T98 478L196 511Q210 472 254 472Q277 472 291 485T305 514Q305 535 287 543T233 552H218L236 636H251Q283 636 303 646T324 680Q324 693 313 703T278 713Q260 713
244 706T217 676L134 709Q157 748 194 768T286 788Q345 788 386 763T428 688Q428 654 410 631T362 599Q382 589 396 569T410 521Q410 481 389 453T332 411T253 396Z" />
<glyph unicode="&#xb4;" glyph-name="acute" horiz-adv-x="320" d="M105 574Q105 574 119 588T155 623T197 665T232 700T248 715Q263 727 282 727Q310 727 326 706Q339 692 339 671Q339 645 318 628Q316 626 302 618T271 599T241 582T228 574H105Z" />
<glyph unicode="&#xb5;" glyph-name="uni00B5" horiz-adv-x="599" d="M-53 -161L86 496H241L186 235Q177 195 177 162Q177 137 191 122T231 106Q270 106 303 136T350 234L406 496H561L490 163Q481 124 526 124Q533 124 539 125T554 130L528 6Q509 2 495 1T466
0Q404 0 369 17T326 72Q302 41 265 15T171 -12Q145 -12 124 -5Q124 -29 123 -51T117 -95L103 -161H-53Z" />
<glyph unicode="&#xb6;" glyph-name="paragraph" horiz-adv-x="530" d="M62 -161L159 296Q110 310 81 348T51 438Q51 448 52 458T55 478Q67 531 101 574T184 642T285 668H572L557 600H509L347 -161H252L413 600H320L158 -161H62Z" />
<glyph unicode="&#xb7;" glyph-name="middot" horiz-adv-x="305" d="M136 151Q96 151 67 179T38 248Q38 289 67 317T136 345Q176 345 204 317T233 248Q233 208 205 180T136 151Z" />
<glyph unicode="&#xb8;" glyph-name="cedilla" horiz-adv-x="322" d="M61 -195Q30 -195 4 -190T-35 -178L-9 -128Q20 -141 51 -141Q72 -141 87 -133T103 -109Q103 -98 92 -91T64 -84Q51 -84 46 -86T35 -89Q28 -89 22 -85T16 -71Q16 -64 22 -57L91 26L127 1L87
-47Q102 -44 115 -44Q150 -44 172 -60T194 -103Q194 -139 174 -159T122 -187T61 -195Z" />
<glyph unicode="&#xb9;" glyph-name="uni00B9" horiz-adv-x="294" d="M153 403L205 647H121L140 735Q180 735 207 741T255 779H337L257 403H153Z" />
<glyph unicode="&#xba;" glyph-name="ordmasculine" horiz-adv-x="412" d="M240 396Q182 396 142 426T102 521Q102 597 148 643T271 689Q329 689 368 659T408 565Q408 507 385 470T323 414T240 396ZM248 473Q271 473 288 493T305 557Q305 585 293 598T263 612Q240
612 223 592T205 528Q205 500 217 487T248 473Z" />
<glyph unicode="&#xbb;" glyph-name="guillemotright" horiz-adv-x="666" d="M232 40L429 256L329 460H493L596 250L403 40H232ZM-8 40L189 256L89 460H253L356 250L163 40H-8Z" />
<glyph unicode="&#xbc;" glyph-name="onequarter" horiz-adv-x="930" d="M129 292L181 536H97L116 623Q156 623 183 630T231 668H313L233 292H129ZM129 0L597 667H724L256 0H129ZM646 0L662 75H470L487 152L715 375H829L784 161H841L822 75H765L749 0H646ZM602
161H680L700 257L602 161Z" />
<glyph unicode="&#xbd;" glyph-name="onehalf" horiz-adv-x="919" d="M129 292L181 536H97L116 623Q156 623 183 630T231 668H313L233 292H129ZM129 0L597 667H724L256 0H129ZM496 0L513 81Q552 102 593 125T669 173T725 222T747 272Q747 290 733 299T702 308Q657
308 642 264L558 297Q599 384 714 384Q773 384 813 362T854 286Q854 247 826 209T755 140T666 88H815L796 0H496Z" />
<glyph unicode="&#xbe;" glyph-name="threequarters" horiz-adv-x="958" d="M230 287Q180 287 139 308T75 369L173 402Q187 363 231 363Q254 363 268 376T282 405Q282 426 264 434T210 443H195L213 527H228Q260 527 280 537T301 571Q301 584 290 594T255 604Q237
604 221 597T194 567L111 600Q134 639 171 659T263 679Q322 679 363 654T405 579Q405 545 387 522T339 490Q359 480 373 460T387 412Q387 372 366 344T309 302T230 287ZM198 0L666 667H793L325 0H198ZM674 0L690 75H499L515 152L744 375H858L812 161H869L851 75H794L778
0H674ZM630 161H709L729 257L630 161Z" />
<glyph unicode="&#xbf;" glyph-name="questiondown" horiz-adv-x="634" d="M364 325Q324 325 296 353T268 421Q268 462 296 490T364 519Q405 519 433 491T462 421Q462 381 434 353T364 325ZM417 265Q414 242 407 224Q391 181 357 150T276 97Q251 86 223 74T175
46T154 11Q153 -17 177 -30T246 -44Q294 -44 330 -27T379 22L517 -33Q474 -109 401 -140T234 -172Q188 -172 143 -164T61 -139T2 -92T-21 -21Q-21 28 0 62T56 121T134 163Q173 180 198 195T239 232Q244 239 248 247T256 265H417Z" />
<glyph unicode="&#xc0;" glyph-name="Agrave" horiz-adv-x="698" d="M-65 0L329 668H512L623 0H458L442 119H187L121 0H-65ZM255 247H427L395 501L255 247ZM396 731Q391 735 378 746T352 770T330 793Q317 809 317 830Q317 853 333 868T372 884Q400 884 416 863Q426
851 439 831T467 790T491 752T504 731H396Z" />
<glyph unicode="&#xc1;" glyph-name="Aacute" horiz-adv-x="698" d="M-65 0L329 668H512L623 0H458L442 119H187L121 0H-65ZM255 247H427L395 501L255 247ZM370 746Q370 746 384 760T420 795T462 837T497 872T513 887Q528 899 547 899Q575 899 591 878Q604 864
604 843Q604 817 583 800Q581 798 567 790T536 771T506 754T493 746H370Z" />
<glyph unicode="&#xc2;" glyph-name="Acircumflex" horiz-adv-x="698" d="M-65 0L329 668H512L623 0H458L442 119H187L121 0H-65ZM255 247H427L395 501L255 247ZM237 731L426 868Q446 883 470 883Q503 883 525 858L643 731H527L468 792L384 731H237Z" />
<glyph unicode="&#xc3;" glyph-name="Atilde" horiz-adv-x="698" d="M-65 0L329 668H512L623 0H458L442 119H187L121 0H-65ZM255 247H427L395 501L255 247ZM528 725Q500 725 482 731T449 744T421 758T387 764Q356 764 336 731H247Q256 760 275 786T322 829T383
846Q423 846 446 836T485 816T522 805Q544 805 555 813T575 831T599 845Q602 846 605 846T611 847Q627 847 638 836T650 808Q650 793 640 780Q630 765 604 745T528 725Z" />
<glyph unicode="&#xc4;" glyph-name="Adieresis" horiz-adv-x="698" d="M-65 0L329 668H512L623 0H458L442 119H187L121 0H-65ZM255 247H427L395 501L255 247ZM358 726Q329 726 308 746T287 796Q287 825 308 846T358 867Q387 867 407 846T428 796Q428 767 408
747T358 726ZM552 726Q523 726 502 746T481 796Q481 825 502 846T552 867Q581 867 601 846T621 796Q621 767 601 747T552 726Z" />
<glyph unicode="&#xc5;" glyph-name="Aring" horiz-adv-x="698" d="M-65 0L329 668H512L623 0H458L442 119H187L121 0H-65ZM255 247H427L395 501L255 247ZM432 614Q396 614 366 632T318 680T300 747Q300 784 318 813T366 861T432 879Q469 879 499 861T547 814T565
747Q565 711 547 681T499 632T432 614ZM432 700Q452 700 465 714T479 747Q479 767 466 780T432 794Q413 794 399 781T385 747Q385 728 399 714T432 700Z" />
<glyph unicode="&#xc6;" glyph-name="AE" horiz-adv-x="1016" d="M-65 0L553 668H1071L1042 529H685L660 413H879L849 275H631L602 139H959L929 0H411L437 119H241L136 0H-65ZM354 247H464L501 421L354 247Z" />
<glyph unicode="&#xc7;" glyph-name="Ccedilla" horiz-adv-x="673" d="M322 -12Q240 -12 174 18T70 110T32 265Q32 354 59 429T136 561T257 648T417 680Q469 680 520 666T612 617T671 525L525 476Q507 518 475 534T401 550Q354 550 317 528T254 467T214 382T200
283Q200 202 238 162T338 120Q376 120 412 136T480 194L616 141Q570 70 497 29T322 -12ZM262 -195Q231 -195 205 -190T166 -178L192 -128Q221 -141 252 -141Q273 -141 288 -133T304 -109Q304 -98 293 -91T265 -84Q252 -84 247 -86T236 -89Q229 -89 223 -85T217
-71Q217 -64 223 -57L292 26L328 1L288 -47Q303 -44 316 -44Q351 -44 373 -60T395 -103Q395 -139 375 -159T323 -187T262 -195Z" />
<glyph unicode="&#xc8;" glyph-name="Egrave" horiz-adv-x="582" d="M-23 0L119 668H637L607 529H251L226 413H443L414 274H197L168 139H524L495 0H-23ZM353 731Q348 735 335 746T309 770T287 793Q274 809 274 830Q274 853 290 868T329 884Q357 884 373 863Q383
851 396 831T424 790T448 752T461 731H353Z" />
<glyph unicode="&#xc9;" glyph-name="Eacute" horiz-adv-x="582" d="M-23 0L119 668H637L607 529H251L226 413H443L414 274H197L168 139H524L495 0H-23ZM311 731Q347 766 381 800T445 863Q459 877 469 880T489 884Q515 884 530 867T545 828Q545 802 525 785Q520
781 506 772T475 754T446 738T434 731H311Z" />
<glyph unicode="&#xca;" glyph-name="Ecircumflex" horiz-adv-x="582" d="M-23 0L119 668H637L607 529H251L226 413H443L414 274H197L168 139H524L495 0H-23ZM194 731L383 868Q403 883 427 883Q460 883 482 858L600 731H484L425 792L341 731H194Z" />
<glyph unicode="&#xcb;" glyph-name="Edieresis" horiz-adv-x="582" d="M-23 0L119 668H637L607 529H251L226 413H443L414 274H197L168 139H524L495 0H-23ZM315 726Q286 726 265 746T244 796Q244 825 265 846T315 867Q344 867 364 846T385 796Q385 767 365 747T315
726ZM509 726Q480 726 459 746T438 796Q438 825 459 846T509 867Q538 867 558 846T578 796Q578 767 558 747T509 726Z" />
<glyph unicode="&#xcc;" glyph-name="Igrave" horiz-adv-x="459" d="M-13 0L13 124H105L195 544H103L129 668H474L447 544H355L267 124H358L331 0H-13ZM270 731Q265 735 252 746T226 770T204 793Q191 809 191 830Q191 853 207 868T246 884Q274 884 290 863Q300
851 313 831T341 790T365 752T378 731H270Z" />
<glyph unicode="&#xcd;" glyph-name="Iacute" horiz-adv-x="459" d="M-13 0L13 124H105L195 544H103L129 668H474L447 544H355L267 124H358L331 0H-13ZM228 731Q264 766 298 800T362 863Q376 877 386 880T406 884Q432 884 447 867T462 828Q462 802 442 785Q437
781 423 772T392 754T363 738T351 731H228Z" />
<glyph unicode="&#xce;" glyph-name="Icircumflex" horiz-adv-x="459" d="M-13 0L13 124H105L195 544H103L129 668H474L447 544H355L267 124H358L331 0H-13ZM111 731L300 868Q320 883 344 883Q377 883 399 858L517 731H401L342 792L258 731H111Z" />
<glyph unicode="&#xcf;" glyph-name="Idieresis" horiz-adv-x="459" d="M-13 0L13 124H105L195 544H103L129 668H474L447 544H355L267 124H358L331 0H-13ZM232 726Q203 726 182 746T161 796Q161 825 182 846T232 867Q261 867 281 846T302 796Q302 767 282 747T232
726ZM426 726Q397 726 376 746T355 796Q355 825 376 846T426 867Q455 867 475 846T495 796Q495 767 475 747T426 726Z" />
<glyph unicode="&#xd0;" glyph-name="Eth" horiz-adv-x="738" d="M24 0L82 275H6L36 412H112L166 668H360Q536 668 621 594T706 393Q706 263 647 176T485 44T247 0H24ZM214 133H277Q405 133 471 205T538 402Q538 470 500 503T358 537H300L273 412H389L359 275H244L214
133Z" />
<glyph unicode="&#xd1;" glyph-name="Ntilde" horiz-adv-x="715" d="M-23 0L119 668H318L478 183L582 668H737L595 0H396L236 485L133 0H-23ZM557 725Q529 725 511 731T478 744T450 758T416 764Q385 764 365 731H276Q285 760 304 786T351 829T412 846Q452 846
475 836T514 816T551 805Q573 805 584 813T604 831T628 845Q631 846 634 846T640 847Q656 847 667 836T679 808Q679 793 669 780Q659 765 633 745T557 725Z" />
<glyph unicode="&#xd2;" glyph-name="Ograve" horiz-adv-x="763" d="M335 -12Q239 -12 172 23T68 122T32 269Q32 355 61 429T143 560T268 648T426 680Q517 680 585 647T693 550T732 393Q732 306 703 233T620 104T494 19T335 -12ZM349 118Q414 118 462 154T537
251T564 379Q564 438 543 475T487 531T414 550Q365 550 326 528T258 467T216 382T201 286Q201 240 217 202T267 141T349 118ZM425 731Q420 735 407 746T381 770T359 793Q346 809 346 830Q346 853 362 868T401 884Q429 884 445 863Q455 851 468 831T496 790T520
752T533 731H425Z" />
<glyph unicode="&#xd3;" glyph-name="Oacute" horiz-adv-x="763" d="M335 -12Q239 -12 172 23T68 122T32 269Q32 355 61 429T143 560T268 648T426 680Q517 680 585 647T693 550T732 393Q732 306 703 233T620 104T494 19T335 -12ZM349 118Q414 118 462 154T537
251T564 379Q564 438 543 475T487 531T414 550Q365 550 326 528T258 467T216 382T201 286Q201 240 217 202T267 141T349 118ZM386 731Q422 766 456 800T520 863Q534 877 544 880T564 884Q590 884 605 867T620 828Q620 802 600 785Q595 781 581 772T550 754T521
738T509 731H386Z" />
<glyph unicode="&#xd4;" glyph-name="Ocircumflex" horiz-adv-x="763" d="M335 -12Q239 -12 172 23T68 122T32 269Q32 355 61 429T143 560T268 648T426 680Q517 680 585 647T693 550T732 393Q732 306 703 233T620 104T494 19T335 -12ZM349 118Q414 118 462 154T537
251T564 379Q564 438 543 475T487 531T414 550Q365 550 326 528T258 467T216 382T201 286Q201 240 217 202T267 141T349 118ZM266 731L455 868Q475 883 499 883Q532 883 554 858L672 731H556L497 792L413 731H266Z" />
<glyph unicode="&#xd5;" glyph-name="Otilde" horiz-adv-x="763" d="M335 -12Q239 -12 172 23T68 122T32 269Q32 355 61 429T143 560T268 648T426 680Q517 680 585 647T693 550T732 393Q732 306 703 233T620 104T494 19T335 -12ZM349 118Q414 118 462 154T537
251T564 379Q564 438 543 475T487 531T414 550Q365 550 326 528T258 467T216 382T201 286Q201 240 217 202T267 141T349 118ZM557 725Q529 725 511 731T478 744T450 758T416 764Q385 764 365 731H276Q285 760 304 786T351 829T412 846Q452 846 475 836T514 816T551
805Q573 805 584 813T604 831T628 845Q631 846 634 846T640 847Q656 847 667 836T679 808Q679 793 669 780Q659 765 633 745T557 725Z" />
<glyph unicode="&#xd6;" glyph-name="Odieresis" horiz-adv-x="763" d="M335 -12Q239 -12 172 23T68 122T32 269Q32 355 61 429T143 560T268 648T426 680Q517 680 585 647T693 550T732 393Q732 306 703 233T620 104T494 19T335 -12ZM349 118Q414 118 462 154T537
251T564 379Q564 438 543 475T487 531T414 550Q365 550 326 528T258 467T216 382T201 286Q201 240 217 202T267 141T349 118ZM387 726Q358 726 337 746T316 796Q316 825 337 846T387 867Q416 867 436 846T457 796Q457 767 437 747T387 726ZM581 726Q552 726 531
746T510 796Q510 825 531 846T581 867Q610 867 630 846T650 796Q650 767 630 747T581 726Z" />
<glyph unicode="&#xd7;" glyph-name="multiply" horiz-adv-x="618" d="M149 22L58 112L194 248L55 385L146 476L284 337L421 476L512 385L373 248L509 112L418 22L284 158L149 22Z" />
<glyph unicode="&#xd8;" glyph-name="Oslash" horiz-adv-x="761" d="M333 -12Q268 -12 215 5T124 54L55 -11L4 43L75 109Q30 177 30 269Q30 282 31 295T34 321Q48 430 102 510T239 635T425 680Q547 680 626 622L695 686L746 633L678 569Q730 500 730 394Q730 371
727 345Q716 240 663 160T525 34T333 -12ZM206 231L510 514Q490 532 465 541T413 550Q364 550 319 525T243 448T201 321Q200 312 200 303T199 286Q199 255 206 231ZM348 118Q404 118 449 147T523 228T560 345Q561 354 561 363T562 380Q562 400 559 417T551 451L241
163Q260 142 286 130T348 118Z" />
<glyph unicode="&#xd9;" glyph-name="Ugrave" horiz-adv-x="679" d="M266 -12Q176 -12 124 14T49 85T26 187Q26 212 29 238T39 292L120 668H281L198 279Q194 258 191 240T188 204Q188 164 210 141T294 117Q349 117 380 137T429 193T457 279L540 668H701L621 292Q601
198 571 139T498 46T398 1T266 -12ZM383 731Q378 735 365 746T339 770T317 793Q304 809 304 830Q304 853 320 868T359 884Q387 884 403 863Q413 851 426 831T454 790T478 752T491 731H383Z" />
<glyph unicode="&#xda;" glyph-name="Uacute" horiz-adv-x="679" d="M266 -12Q176 -12 124 14T49 85T26 187Q26 212 29 238T39 292L120 668H281L198 279Q194 258 191 240T188 204Q188 164 210 141T294 117Q349 117 380 137T429 193T457 279L540 668H701L621 292Q601
198 571 139T498 46T398 1T266 -12ZM341 731Q377 766 411 800T475 863Q489 877 499 880T519 884Q545 884 560 867T575 828Q575 802 555 785Q550 781 536 772T505 754T476 738T464 731H341Z" />
<glyph unicode="&#xdb;" glyph-name="Ucircumflex" horiz-adv-x="679" d="M266 -12Q176 -12 124 14T49 85T26 187Q26 212 29 238T39 292L120 668H281L198 279Q194 258 191 240T188 204Q188 164 210 141T294 117Q349 117 380 137T429 193T457 279L540 668H701L621
292Q601 198 571 139T498 46T398 1T266 -12ZM224 731L413 868Q433 883 457 883Q490 883 512 858L630 731H514L455 792L371 731H224Z" />
<glyph unicode="&#xdc;" glyph-name="Udieresis" horiz-adv-x="679" d="M266 -12Q176 -12 124 14T49 85T26 187Q26 212 29 238T39 292L120 668H281L198 279Q194 258 191 240T188 204Q188 164 210 141T294 117Q349 117 380 137T429 193T457 279L540 668H701L621
292Q601 198 571 139T498 46T398 1T266 -12ZM345 726Q316 726 295 746T274 796Q274 825 295 846T345 867Q374 867 394 846T415 796Q415 767 395 747T345 726ZM539 726Q510 726 489 746T468 796Q468 825 489 846T539 867Q568 867 588 846T608 796Q608 767 588 747T539
726Z" />
<glyph unicode="&#xdd;" glyph-name="Yacute" horiz-adv-x="700" d="M191 0L242 241L82 668H253L339 391L558 668H762L404 241L354 0H191ZM330 731Q366 766 400 800T464 863Q478 877 488 880T508 884Q534 884 549 867T564 828Q564 802 544 785Q539 781 525 772T494
754T465 738T453 731H330Z" />
<glyph unicode="&#xde;" glyph-name="Thorn" horiz-adv-x="623" d="M-23 0L119 668H280L259 563H347Q426 563 485 548T578 495T612 389Q612 368 609 344Q599 271 564 228T478 164T369 135T255 128H166L139 0H-23ZM196 269H294Q350 269 380 280T423 308T441 347Q444
361 444 372Q444 399 421 412T332 426H230L196 269Z" />
<glyph unicode="&#xdf;" glyph-name="germandbls" horiz-adv-x="631" d="M303 -13Q290 -13 278 -13T253 -11L241 123Q282 112 312 112Q364 112 394 138T424 214Q424 298 307 298H277L302 415H328Q382 415 414 438T450 498Q453 524 434 545T365 566Q305 566 273
536T224 424L134 0H-23L70 435Q90 526 129 579T229 656T376 679Q439 679 490 662T571 609T602 520Q602 470 581 433T516 368Q548 352 567 317T586 232Q586 150 551 96T452 14T303 -13Z" />
<glyph unicode="&#xe0;" glyph-name="agrave" horiz-adv-x="545" d="M130 -12Q92 -12 58 3T3 48T-18 118Q-18 174 14 209T99 266T214 298T338 315Q342 330 343 339T344 354Q344 383 325 395T272 407Q240 407 212 393T170 348L53 394Q91 453 150 481T293 510Q351
510 396 493T468 440T494 353Q494 333 489 303T476 244T465 193Q458 161 453 124T444 55T441 0H297L292 59Q258 18 221 3T130 -12ZM208 91Q249 91 278 117T325 213L328 225Q244 218 194 199T143 138Q143 116 162 104T208 91ZM253 574Q253 574 240 585T211 610T186
635Q174 652 174 670Q174 696 195 714Q209 727 230 727Q257 727 273 706Q282 694 297 673T326 628T351 590T361 574H253Z" />
<glyph unicode="&#xe1;" glyph-name="aacute" horiz-adv-x="545" d="M130 -12Q92 -12 58 3T3 48T-18 118Q-18 174 14 209T99 266T214 298T338 315Q342 330 343 339T344 354Q344 383 325 395T272 407Q240 407 212 393T170 348L53 394Q91 453 150 481T293 510Q351
510 396 493T468 440T494 353Q494 333 489 303T476 244T465 193Q458 161 453 124T444 55T441 0H297L292 59Q258 18 221 3T130 -12ZM208 91Q249 91 278 117T325 213L328 225Q244 218 194 199T143 138Q143 116 162 104T208 91ZM241 574Q241 574 255 588T291 623T333
665T368 700T384 715Q399 727 418 727Q446 727 462 706Q475 692 475 671Q475 645 454 628Q452 626 438 618T407 599T377 582T364 574H241Z" />
<glyph unicode="&#xe2;" glyph-name="acircumflex" horiz-adv-x="545" d="M130 -12Q92 -12 58 3T3 48T-18 118Q-18 174 14 209T99 266T214 298T338 315Q342 330 343 339T344 354Q344 383 325 395T272 407Q240 407 212 393T170 348L53 394Q91 453 150 481T293 510Q351
510 396 493T468 440T494 353Q494 333 489 303T476 244T465 193Q458 161 453 124T444 55T441 0H297L292 59Q258 18 221 3T130 -12ZM208 91Q249 91 278 117T325 213L328 225Q244 218 194 199T143 138Q143 116 162 104T208 91ZM112 574L301 711Q321 726 345 726Q378
726 400 701L518 574H402L343 635L259 574H112Z" />
<glyph unicode="&#xe3;" glyph-name="atilde" horiz-adv-x="545" d="M130 -12Q92 -12 58 3T3 48T-18 118Q-18 174 14 209T99 266T214 298T338 315Q342 330 343 339T344 354Q344 383 325 395T272 407Q240 407 212 393T170 348L53 394Q91 453 150 481T293 510Q351
510 396 493T468 440T494 353Q494 333 489 303T476 244T465 193Q458 161 453 124T444 55T441 0H297L292 59Q258 18 221 3T130 -12ZM208 91Q249 91 278 117T325 213L328 225Q244 218 194 199T143 138Q143 116 162 104T208 91ZM402 568Q374 568 356 574T323 587T295
601T261 607Q230 607 210 574H121Q130 603 149 629T196 672T257 689Q297 689 320 679T359 659T396 648Q418 648 429 656T449 674T473 688Q476 689 479 689T485 690Q501 690 512 679T524 651Q524 636 514 623Q504 608 478 588T402 568Z" />
<glyph unicode="&#xe4;" glyph-name="adieresis" horiz-adv-x="545" d="M130 -12Q92 -12 58 3T3 48T-18 118Q-18 174 14 209T99 266T214 298T338 315Q342 330 343 339T344 354Q344 383 325 395T272 407Q240 407 212 393T170 348L53 394Q91 453 150 481T293 510Q351
510 396 493T468 440T494 353Q494 333 489 303T476 244T465 193Q458 161 453 124T444 55T441 0H297L292 59Q258 18 221 3T130 -12ZM208 91Q249 91 278 117T325 213L328 225Q244 218 194 199T143 138Q143 116 162 104T208 91ZM224 578Q195 578 174 598T153 648Q153
677 174 698T224 719Q253 719 273 698T294 648Q294 619 274 599T224 578ZM418 578Q389 578 368 598T347 648Q347 677 368 698T418 719Q447 719 467 698T487 648Q487 619 467 599T418 578Z" />
<glyph unicode="&#xe5;" glyph-name="aring" horiz-adv-x="545" d="M130 -12Q92 -12 58 3T3 48T-18 118Q-18 174 14 209T99 266T214 298T338 315Q342 330 343 339T344 354Q344 383 325 395T272 407Q240 407 212 393T170 348L53 394Q91 453 150 481T293 510Q351
510 396 493T468 440T494 353Q494 333 489 303T476 244T465 193Q458 161 453 124T444 55T441 0H297L292 59Q258 18 221 3T130 -12ZM208 91Q249 91 278 117T325 213L328 225Q244 218 194 199T143 138Q143 116 162 104T208 91ZM315 535Q279 535 249 553T201 601T183
668Q183 705 201 734T249 782T315 800Q352 800 382 782T430 735T448 668Q448 632 430 602T382 553T315 535ZM315 621Q335 621 348 635T362 668Q362 688 349 701T315 715Q296 715 282 702T268 668Q268 649 282 635T315 621Z" />
<glyph unicode="&#xe6;" glyph-name="ae" horiz-adv-x="886" d="M165 -13Q113 -13 72 2T6 46T-18 118Q-18 175 14 210T100 265T217 291T345 299Q350 324 352 335T354 353Q354 382 335 394T282 407Q251 407 223 393T181 348L63 394Q101 452 160 481T303 510Q352
510 388 494T442 452Q477 480 521 495T627 510Q734 510 792 452T850 297Q850 276 847 254T839 209H473Q472 203 472 198T471 188Q471 144 502 125T573 106Q603 106 632 116T678 143L791 98Q749 45 687 17T549 -12Q485 -12 441 13T372 78Q329 30 275 9T165 -13ZM487
299H715Q716 303 716 306T716 313Q716 356 688 377T622 398Q581 398 541 374T487 299ZM212 91Q246 94 267 108T302 141T321 178T332 209Q245 210 197 200T144 145Q141 120 159 104T212 91Z" />
<glyph unicode="&#xe7;" glyph-name="ccedilla" horiz-adv-x="531" d="M223 -12Q118 -12 60 45T2 194Q2 284 42 355T154 468T316 510Q381 510 432 483T511 382L378 336Q371 368 350 380T299 392Q251 392 220 363T172 288T156 198Q156 148 180 127T236 105Q268
105 293 115T341 154L464 107Q416 40 352 14T223 -12ZM169 -194Q138 -194 112 -189T73 -177L99 -127Q128 -140 159 -140Q180 -140 195 -132T211 -108Q211 -97 200 -90T172 -83Q159 -83 154 -85T143 -88Q136 -88 130 -84T124 -70Q124 -63 130 -56L199 27L235 2L195
-46Q210 -43 223 -43Q258 -43 280 -59T302 -102Q302 -138 282 -158T230 -186T169 -194Z" />
<glyph unicode="&#xe8;" glyph-name="egrave" horiz-adv-x="567" d="M229 -12Q124 -12 64 42T3 196Q3 262 25 319T89 419T185 486T307 510Q414 510 472 453T530 298Q530 277 528 255T519 209H154Q153 203 153 198T152 188Q152 144 183 125T254 106Q284 106 312
115T358 142L472 98Q429 45 367 17T229 -12ZM168 299H395Q396 303 396 306T396 313Q396 357 368 378T302 399Q262 399 222 374T168 299ZM276 574Q276 574 263 585T234 610T209 635Q197 652 197 670Q197 696 218 714Q232 727 253 727Q280 727 296 706Q305 694 320
673T349 628T374 590T384 574H276Z" />
<glyph unicode="&#xe9;" glyph-name="eacute" horiz-adv-x="567" d="M229 -12Q124 -12 64 42T3 196Q3 262 25 319T89 419T185 486T307 510Q414 510 472 453T530 298Q530 277 528 255T519 209H154Q153 203 153 198T152 188Q152 144 183 125T254 106Q284 106 312
115T358 142L472 98Q429 45 367 17T229 -12ZM168 299H395Q396 303 396 306T396 313Q396 357 368 378T302 399Q262 399 222 374T168 299ZM264 574Q264 574 278 588T314 623T356 665T391 700T407 715Q422 727 441 727Q469 727 485 706Q498 692 498 671Q498 645 477
628Q475 626 461 618T430 599T400 582T387 574H264Z" />
<glyph unicode="&#xea;" glyph-name="ecircumflex" horiz-adv-x="567" d="M229 -12Q124 -12 64 42T3 196Q3 262 25 319T89 419T185 486T307 510Q414 510 472 453T530 298Q530 277 528 255T519 209H154Q153 203 153 198T152 188Q152 144 183 125T254 106Q284 106
312 115T358 142L472 98Q429 45 367 17T229 -12ZM168 299H395Q396 303 396 306T396 313Q396 357 368 378T302 399Q262 399 222 374T168 299ZM135 574L324 711Q344 726 368 726Q401 726 423 701L541 574H425L366 635L282 574H135Z" />
<glyph unicode="&#xeb;" glyph-name="edieresis" horiz-adv-x="567" d="M229 -12Q124 -12 64 42T3 196Q3 262 25 319T89 419T185 486T307 510Q414 510 472 453T530 298Q530 277 528 255T519 209H154Q153 203 153 198T152 188Q152 144 183 125T254 106Q284 106
312 115T358 142L472 98Q429 45 367 17T229 -12ZM168 299H395Q396 303 396 306T396 313Q396 357 368 378T302 399Q262 399 222 374T168 299ZM247 578Q218 578 197 598T176 648Q176 677 197 698T247 719Q276 719 296 698T317 648Q317 619 297 599T247 578ZM441 578Q412
578 391 598T370 648Q370 677 391 698T441 719Q470 719 490 698T510 648Q510 619 490 599T441 578Z" />
<glyph unicode="&#xec;" glyph-name="igrave" horiz-adv-x="326" d="M48 0L129 380H26L51 496H309L204 0H48ZM413 574Q413 574 400 585T371 610T346 635Q334 652 334 670Q334 696 355 714Q369 727 390 727Q417 727 433 706Q442 694 457 673T486 628T511 590T521 574H413Z" />
<glyph unicode="&#xed;" glyph-name="iacute" horiz-adv-x="359" d="M48 0L129 380H26L51 496H309L204 0H48ZM145 574Q145 574 159 588T195 623T237 665T272 700T288 715Q303 727 322 727Q350 727 366 706Q379 692 379 671Q379 645 358 628Q356 626 342 618T311
599T281 582T268 574H145Z" />
<glyph unicode="&#xee;" glyph-name="icircumflex" horiz-adv-x="326" d="M48 0L129 380H26L51 496H309L204 0H48ZM272 574L461 711Q481 726 505 726Q538 726 560 701L678 574H562L503 635L419 574H272Z" />
<glyph unicode="&#xef;" glyph-name="idieresis" horiz-adv-x="405" d="M76 0L157 380H54L79 496H337L232 0H76ZM412 578Q383 578 362 598T341 648Q341 677 362 698T412 719Q441 719 461 698T482 648Q482 619 462 599T412 578ZM606 578Q577 578 556 598T535 648Q535
677 556 698T606 719Q635 719 655 698T675 648Q675 619 655 599T606 578Z" />
<glyph unicode="&#xf0;" glyph-name="eth" horiz-adv-x="581" d="M228 -12Q166 -12 123 6T53 56T14 125T2 201Q2 275 35 332T127 423T262 456Q303 456 346 437T409 384Q411 405 409 432Q407 461 398 491T366 547L289 483L252 530L315 584Q296 593 269 598T207
604L233 726Q295 724 342 710T424 673L498 734L535 686L470 633Q515 584 533 515T547 371Q539 235 494 151T379 27T228 -12ZM237 101Q299 101 328 140T357 238Q357 285 331 311T261 338Q209 338 175 301T141 205Q141 160 168 131T237 101Z" />
<glyph unicode="&#xf1;" glyph-name="ntilde" horiz-adv-x="581" d="M-20 0L85 496H221L226 432Q247 461 289 485T397 510Q456 510 492 477T529 366Q529 347 527 326T519 281L459 0H303L359 263Q368 302 368 328Q368 362 354 377T312 392Q219 392 190 254L136
0H-20ZM448 568Q420 568 402 574T369 587T341 601T307 607Q276 607 256 574H167Q176 603 195 629T242 672T303 689Q343 689 366 679T405 659T442 648Q464 648 475 656T495 674T519 688Q522 689 525 689T531 690Q547 690 558 679T570 651Q570 636 560 623Q550 608
524 588T448 568Z" />
<glyph unicode="&#xf2;" glyph-name="ograve" horiz-adv-x="576" d="M239 -13Q169 -13 116 13T34 89T5 204Q5 292 42 361T146 470T302 510Q368 510 421 486T505 414T536 295Q536 207 500 137T397 27T239 -13ZM245 105Q291 105 321 131T366 200T381 292Q381 347
357 369T292 392Q246 392 217 365T173 295T159 206Q159 181 166 158T192 120T245 105ZM272 574Q272 574 259 585T230 610T205 635Q193 652 193 670Q193 696 214 714Q228 727 249 727Q276 727 292 706Q301 694 316 673T345 628T370 590T380 574H272Z" />
<glyph unicode="&#xf3;" glyph-name="oacute" horiz-adv-x="576" d="M239 -13Q169 -13 116 13T34 89T5 204Q5 292 42 361T146 470T302 510Q368 510 421 486T505 414T536 295Q536 207 500 137T397 27T239 -13ZM245 105Q291 105 321 131T366 200T381 292Q381 347
357 369T292 392Q246 392 217 365T173 295T159 206Q159 181 166 158T192 120T245 105ZM260 574Q260 574 274 588T310 623T352 665T387 700T403 715Q418 727 437 727Q465 727 481 706Q494 692 494 671Q494 645 473 628Q471 626 457 618T426 599T396 582T383 574H260Z"
/>
<glyph unicode="&#xf4;" glyph-name="ocircumflex" horiz-adv-x="576" d="M239 -13Q169 -13 116 13T34 89T5 204Q5 292 42 361T146 470T302 510Q368 510 421 486T505 414T536 295Q536 207 500 137T397 27T239 -13ZM245 105Q291 105 321 131T366 200T381 292Q381
347 357 369T292 392Q246 392 217 365T173 295T159 206Q159 181 166 158T192 120T245 105ZM131 574L320 711Q340 726 364 726Q397 726 419 701L537 574H421L362 635L278 574H131Z" />
<glyph unicode="&#xf5;" glyph-name="otilde" horiz-adv-x="576" d="M239 -13Q169 -13 116 13T34 89T5 204Q5 292 42 361T146 470T302 510Q368 510 421 486T505 414T536 295Q536 207 500 137T397 27T239 -13ZM245 105Q291 105 321 131T366 200T381 292Q381 347
357 369T292 392Q246 392 217 365T173 295T159 206Q159 181 166 158T192 120T245 105ZM421 568Q393 568 375 574T342 587T314 601T280 607Q249 607 229 574H140Q149 603 168 629T215 672T276 689Q316 689 339 679T378 659T415 648Q437 648 448 656T468 674T492
688Q495 689 498 689T504 690Q520 690 531 679T543 651Q543 636 533 623Q523 608 497 588T421 568Z" />
<glyph unicode="&#xf6;" glyph-name="odieresis" horiz-adv-x="576" d="M239 -13Q169 -13 116 13T34 89T5 204Q5 292 42 361T146 470T302 510Q368 510 421 486T505 414T536 295Q536 207 500 137T397 27T239 -13ZM245 105Q291 105 321 131T366 200T381 292Q381
347 357 369T292 392Q246 392 217 365T173 295T159 206Q159 181 166 158T192 120T245 105ZM243 578Q214 578 193 598T172 648Q172 677 193 698T243 719Q272 719 292 698T313 648Q313 619 293 599T243 578ZM437 578Q408 578 387 598T366 648Q366 677 387 698T437
719Q466 719 486 698T506 648Q506 619 486 599T437 578Z" />
<glyph unicode="&#xf7;" glyph-name="divide" horiz-adv-x="645" d="M296 351Q264 351 241 374T217 431Q217 464 240 487T296 510Q328 510 351 487T375 431Q375 398 352 375T296 351ZM40 186V314H552V186H40ZM296 -12Q264 -12 241 11T217 68Q217 100 240 123T296
147Q328 147 351 124T375 68Q375 35 352 12T296 -12Z" />
<glyph unicode="&#xf8;" glyph-name="oslash" d="M242 -12Q149 -12 88 32L26 -27L-25 27L38 85Q22 110 14 140T5 204Q5 292 42 361T147 470T304 510Q346 510 383 500T451 470L514 529L565 475L503 418Q520 393 529 363T538 295Q538 207 502 138T399 28T242 -12ZM161
200L351 376Q329 392 296 392Q247 392 215 359T170 274Q165 255 163 236T161 200ZM248 106Q297 106 329 139T374 222Q379 242 381 263T382 306L189 125Q200 116 214 111T248 106Z" />
<glyph unicode="&#xf9;" glyph-name="ugrave" horiz-adv-x="578" d="M159 -12Q104 -12 73 8T30 61T17 134Q17 156 20 177T27 220L86 496H241L186 235Q184 225 182 209T179 175Q179 149 189 128T231 106Q270 106 303 136T350 234L406 496H561L456 0H321L316 64Q295
30 255 9T159 -12ZM277 574Q277 574 264 585T235 610T210 635Q198 652 198 670Q198 696 219 714Q233 727 254 727Q281 727 297 706Q306 694 321 673T350 628T375 590T385 574H277Z" />
<glyph unicode="&#xfa;" glyph-name="uacute" horiz-adv-x="578" d="M159 -12Q104 -12 73 8T30 61T17 134Q17 156 20 177T27 220L86 496H241L186 235Q184 225 182 209T179 175Q179 149 189 128T231 106Q270 106 303 136T350 234L406 496H561L456 0H321L316 64Q295
30 255 9T159 -12ZM265 574Q265 574 279 588T315 623T357 665T392 700T408 715Q423 727 442 727Q470 727 486 706Q499 692 499 671Q499 645 478 628Q476 626 462 618T431 599T401 582T388 574H265Z" />
<glyph unicode="&#xfb;" glyph-name="ucircumflex" horiz-adv-x="578" d="M159 -12Q104 -12 73 8T30 61T17 134Q17 156 20 177T27 220L86 496H241L186 235Q184 225 182 209T179 175Q179 149 189 128T231 106Q270 106 303 136T350 234L406 496H561L456 0H321L316
64Q295 30 255 9T159 -12ZM136 574L325 711Q345 726 369 726Q402 726 424 701L542 574H426L367 635L283 574H136Z" />
<glyph unicode="&#xfc;" glyph-name="udieresis" horiz-adv-x="578" d="M159 -12Q104 -12 73 8T30 61T17 134Q17 156 20 177T27 220L86 496H241L186 235Q184 225 182 209T179 175Q179 149 189 128T231 106Q270 106 303 136T350 234L406 496H561L456 0H321L316
64Q295 30 255 9T159 -12ZM248 578Q219 578 198 598T177 648Q177 677 198 698T248 719Q277 719 297 698T318 648Q318 619 298 599T248 578ZM442 578Q413 578 392 598T371 648Q371 677 392 698T442 719Q471 719 491 698T511 648Q511 619 491 599T442 578Z" />
<glyph unicode="&#xfd;" glyph-name="yacute" horiz-adv-x="527" d="M-44 -161L-21 -51H10Q52 -51 72 -47T102 -31T121 0L35 496H190L220 180L386 496H562L266 0Q233 -56 209 -88T160 -136T99 -156T5 -161H-44ZM245 574Q245 574 259 588T295 623T337 665T372 700T388
715Q403 727 422 727Q450 727 466 706Q479 692 479 671Q479 645 458 628Q456 626 442 618T411 599T381 582T368 574H245Z" />
<glyph unicode="&#xfe;" glyph-name="thorn" horiz-adv-x="589" d="M-55 -161L121 668H276L227 434Q255 475 295 493T376 511Q403 511 433 502T491 470T534 408T551 306Q551 244 533 187T481 85T398 14T287 -12Q261 -12 233 -2T183 28T151 75L101 -161H-55ZM261
107Q301 107 326 125T366 170T387 225T393 273Q393 338 370 365T306 392Q263 392 234 365T189 297T173 214Q173 162 200 135T261 107Z" />
<glyph unicode="&#xff;" glyph-name="ydieresis" horiz-adv-x="527" d="M-44 -161L-21 -51H10Q52 -51 72 -47T102 -31T121 0L35 496H190L220 180L386 496H562L266 0Q233 -56 209 -88T160 -136T99 -156T5 -161H-44ZM228 578Q199 578 178 598T157 648Q157 677 178
698T228 719Q257 719 277 698T298 648Q298 619 278 599T228 578ZM422 578Q393 578 372 598T351 648Q351 677 372 698T422 719Q451 719 471 698T491 648Q491 619 471 599T422 578Z" />
<glyph unicode="&#x2013;" glyph-name="endash" horiz-adv-x="536" d="M38 185V313H464V185H38Z" />
<glyph unicode="&#x2014;" glyph-name="emdash" horiz-adv-x="870" d="M38 185V313H798V185H38Z" />
<glyph unicode="&#x2018;" glyph-name="quoteleft" horiz-adv-x="281" d="M162 340Q121 340 94 369T67 438Q67 465 81 488L193 668H292L203 526Q229 515 245 491T261 438Q261 395 232 368T162 340Z" />
<glyph unicode="&#x2019;" glyph-name="quoteright" horiz-adv-x="282" d="M66 351L155 493Q130 505 114 529T97 582Q97 625 126 652T195 680Q236 680 264 651T293 584Q293 572 289 557T278 531L165 351H66Z" />
<glyph unicode="&#x201a;" glyph-name="quotesinglbase" horiz-adv-x="282" d="M-40 -145L49 -3Q24 9 8 33T-9 86Q-9 128 20 156T89 184Q130 184 158 155T187 88Q187 76 183 61T172 35L59 -145H-40Z" />
<glyph unicode="&#x201c;" glyph-name="quotedblleft" horiz-adv-x="505" d="M162 340Q122 340 95 367T67 435Q67 453 72 468T92 506L193 668H292L203 526Q229 515 245 491T261 438Q261 395 232 368T162 340ZM386 340Q345 340 318 368T291 429Q291 449 294 463T305
488L417 668H516L427 526Q453 514 469 490T485 436Q485 394 456 367T386 340Z" />
<glyph unicode="&#x201d;" glyph-name="quotedblright" horiz-adv-x="505" d="M290 350L379 492Q353 503 337 527T321 580Q321 624 350 651T420 678Q460 678 487 651T515 583Q515 565 510 550T490 512L389 350H290ZM66 350L155 492Q129 504 113 528T97 582Q97
624 126 651T196 678Q237 678 264 650T291 589Q291 570 288 556T277 530L165 350H66Z" />
<glyph unicode="&#x201e;" glyph-name="quotedblbase" horiz-adv-x="505" d="M183 -145L272 -3Q246 8 230 32T214 85Q214 129 243 156T313 183Q353 183 380 156T408 88Q408 70 403 55T383 17L282 -145H183ZM-41 -145L48 -3Q22 9 6 33T-10 87Q-10 129 19 156T89
183Q130 183 157 155T184 94Q184 75 181 61T170 35L58 -145H-41Z" />
<glyph unicode="&#x2022;" glyph-name="bullet" horiz-adv-x="446" d="M207 88Q161 88 124 110T64 171T41 254Q41 300 63 337T123 397T207 420Q253 420 290 398T350 338T373 254Q373 209 351 171T291 111T207 88Z" />
<glyph unicode="&#x2039;" glyph-name="guilsinglleft" horiz-adv-x="401" d="M127 40L24 250L217 460H388L191 244L291 40H127Z" />
<glyph unicode="&#x203a;" glyph-name="guilsinglright" horiz-adv-x="402" d="M-20 40L177 256L77 460H241L344 250L151 40H-20Z" />
</font>
</defs>
</svg>
