<?xml version="1.0" standalone="no"?>
<!DOCTYPE svg PUBLIC "-//W3C//DTD SVG 1.1//EN" "http://www.w3.org/Graphics/SVG/1.1/DTD/svg11.dtd">
<svg xmlns="http://www.w3.org/2000/svg">
<defs >
<font id="CourierPrime" horiz-adv-x="1228" ><font-face
    font-family="Courier Prime"
    units-per-em="2048"
    panose-1="0 0 5 9 0 0 0 0 0 0"
    ascent="1600"
    descent="-700"
    alphabetic="0" />
<glyph unicode=" " glyph-name="space" />
<glyph unicode="!" glyph-name="exclam" d="M702 1269T712 1257T720 1219L671 512Q669 489 655 477T614 464Q588 464 573 476T556 512L508 1219Q506 1245 516 1257T549 1269H679Q702 1269 712 1257ZM680 270T709 256T739 207V53Q739 19 710 5T614 -10Q548 -10
519 4T489 53V207Q489 241 518 255T614 270Q680 270 709 256Z" />
<glyph unicode="&quot;" glyph-name="quotedbl" d="M513 1269T507 1219L452 769Q449 743 432 729T384 715Q355 715 337 729T316 769L261 1219Q255 1269 302 1269H466Q513 1269 507 1219ZM973 1269T967 1219L912 769Q909 743 892 729T844 715Q815 715 797 729T776
769L721 1219Q715 1269 762 1269H926Q973 1269 967 1219Z" />
<glyph unicode="#" glyph-name="numbersign" d="M1139 865T1153 849T1168 793Q1168 754 1154 738T1105 721H911L847 476H1035Q1069 476 1083 460T1098 404Q1098 365 1084 349T1035 332H809L726 11Q722 -5 707 -13T672 -22Q644 -22 622 -7T600 32Q600 35 602 45L677
332H415L332 11Q328 -5 313 -13T278 -22Q250 -22 228 -7T206 32Q206 35 208 45L283 332H123Q89 332 75 348T60 404Q60 443 74 459T123 476H320L384 721H193Q159 721 145 737T130 793Q130 832 144 848T193 865H421L502 1176Q506 1192 521 1200T556 1209Q584 1209
606 1194T628 1155Q628 1152 626 1142L554 865H815L896 1176Q900 1192 915 1200T950 1209Q978 1209 1000 1194T1022 1155Q1022 1152 1020 1142L948 865H1105Q1139 865 1153 849ZM714 476L778 721H517L453 476H714Z" />
<glyph unicode="$" glyph-name="dollar" d="M645 1312T661 1297T678 1247V1073Q773 1049 854 976V1021Q854 1056 871 1071T929 1086Q970 1086 987 1071T1004 1021V831Q1004 796 987 781T929 766Q895 766 881 792Q821 908 678 935V688Q805 674 881 646Q961 617
1005 562T1050 417Q1050 329 1007 263T880 158T678 118V-60Q678 -94 662 -109T608 -125Q571 -125 555 -110T538 -60V129Q414 154 329 239V183Q329 148 312 133T254 118Q213 118 196 133T179 183V423Q179 458 196 473T254 488Q275 488 287 479T308 447Q336 372 392
329T538 271V550Q408 566 338 595Q265 624 225 675T184 810Q184 897 229 959T355 1054T538 1086V1247Q538 1281 554 1296T608 1312Q645 1312 661 1297ZM445 939T394 905T342 810Q342 778 362 758T423 725Q458 713 538 702V941Q445 939 394 905ZM782 268T837 309T892
417Q892 451 870 473T807 509Q763 524 678 534V263Q782 268 837 309Z" />
<glyph unicode="%" glyph-name="percent" d="M398 1209T461 1172T561 1072T598 935Q598 861 561 798T461 698T324 661Q250 661 187 698T87 798T50 935Q50 1009 87 1072T187 1172T324 1209Q398 1209 461 1172ZM1025 1081T1048 1081Q1074 1081 1098 1054Q1123 1027
1123 1005Q1123 982 1099 959L225 129Q203 107 180 107Q154 107 130 134Q105 161 105 183Q105 207 129 229L1003 1059Q1025 1081 1048 1081ZM285 1079T252 1060T200 1007T180 935Q180 896 199 863T252 811T324 791Q363 791 396 810T448 863T468 935Q468 974 449
1007T396 1059T324 1079Q285 1079 252 1060ZM978 526T1041 489T1141 389T1178 252Q1178 178 1141 115T1041 15T904 -22Q830 -22 767 15T667 115T630 252Q630 326 667 389T767 489T904 526Q978 526 1041 489ZM865 396T832 377T780 324T760 252Q760 213 779 180T832
128T904 108Q943 108 976 127T1028 180T1048 252Q1048 291 1029 324T976 376T904 396Q865 396 832 377Z" />
<glyph unicode="&amp;" glyph-name="ampersand" d="M740 1209T891 1105Q912 1090 912 1051V924Q912 889 895 874T837 859Q796 859 779 874T762 924V1014Q686 1061 577 1061Q522 1061 482 1038T420 976T399 890Q399 838 419 794T482 702L775 372Q815 460 847 569Q859
611 899 611H1056Q1090 611 1104 596T1119 543Q1119 506 1105 491T1056 475H963Q927 353 877 258L986 136H1070Q1104 136 1118 121T1133 68Q1133 31 1119 16T1070 0H956Q908 0 878 33L791 130Q660 -22 486 -22Q381 -22 305 23T188 143T147 310Q147 411 198 490T342
634Q243 750 243 890Q243 979 284 1052T402 1167T578 1209Q740 1209 891 1105ZM366 484T336 431T305 310Q305 258 328 216T392 150T486 126Q604 126 695 238L434 532Q366 484 336 431Z" />
<glyph unicode="&apos;" glyph-name="quotesingle" d="M743 1269T737 1219L682 769Q679 743 662 729T614 715Q585 715 567 729T546 769L491 1219Q485 1269 532 1269H696Q743 1269 737 1219Z" />
<glyph unicode="(" glyph-name="parenleft" d="M782 1381T792 1381Q808 1381 822 1370T848 1341Q865 1312 865 1287Q865 1267 852 1258Q679 1144 562 958T445 517Q445 262 561 78T852 -220Q865 -229 865 -249Q865 -274 848 -303Q837 -321 823 -332T792 -343Q782
-343 771 -337Q649 -264 542 -143T366 148T297 517Q297 717 365 887T542 1179T771 1375Q782 1381 792 1381Z" />
<glyph unicode=")" glyph-name="parenright" d="M578 1302T686 1180T862 887T931 517Q931 317 863 148T687 -142T457 -337Q446 -343 436 -343Q420 -343 406 -332T380 -303Q363 -274 363 -249Q363 -229 376 -220Q550 -106 666 78T783 517Q783 772 666 958T376 1258Q363
1267 363 1287Q363 1312 380 1341Q391 1359 405 1370T436 1381Q446 1381 457 1375Q578 1302 686 1180Z" />
<glyph unicode="*" glyph-name="asterisk" d="M660 1209T682 1185T700 1119L664 839L920 960Q943 970 960 970Q984 970 1002 954T1031 906Q1037 887 1037 869Q1037 841 1020 822T971 797L693 744L889 536Q914 511 914 482Q914 445 872 415Q842 394 816 394Q774
394 749 440L614 685L479 440Q454 394 412 394Q386 394 356 415Q314 445 314 482Q314 511 339 536L533 744L257 797Q225 803 208 822T191 869Q191 887 197 906Q207 937 225 953T268 970Q285 970 308 960L564 839L528 1119Q527 1124 527 1134Q527 1169 549 1189T614
1209Q660 1209 682 1185Z" />
<glyph unicode="+" glyph-name="plus" d="M651 1026T666 1012T682 963V650H995Q1029 650 1043 635T1058 582Q1058 545 1044 530T995 514H682V201Q682 167 667 153T614 138Q577 138 562 152T546 201V514H233Q199 514 185 529T170 582Q170 619 184 634T233 650H546V963Q546
997 561 1011T614 1026Q651 1026 666 1012Z" />
<glyph unicode="," glyph-name="comma" d="M731 294T740 285T749 260Q749 246 742 231L530 -253Q512 -294 444 -294Q372 -294 372 -244Q372 -240 374 -228L468 254Q472 273 485 283T520 294H714Q731 294 740 285Z" />
<glyph unicode="-" glyph-name="hyphen" d="M1029 650T1043 635T1058 582Q1058 545 1044 530T995 514H233Q199 514 185 529T170 582Q170 619 184 634T233 650H995Q1029 650 1043 635Z" />
<glyph unicode="." glyph-name="period" d="M686 300T717 286T749 237V53Q749 19 718 5T614 -10Q542 -10 511 4T479 53V237Q479 271 510 285T614 300Q686 300 717 286Z" />
<glyph unicode="/" glyph-name="slash" d="M978 1394T1004 1379T1030 1341Q1030 1333 1027 1324L355 -319Q348 -335 331 -345T290 -355Q250 -355 224 -340T198 -302Q198 -294 201 -285L873 1358Q880 1374 897 1384T938 1394Q978 1394 1004 1379Z" />
<glyph unicode="0" glyph-name="zero" d="M742 1209T838 1133T987 917T1040 593Q1040 409 988 270T839 55T614 -22Q485 -22 389 54T241 270T188 593Q188 777 240 916T389 1132T614 1209Q742 1209 838 1133ZM535 1061T475 1006T380 845T346 593Q346 447 380 342T474
181T614 126Q693 126 753 181T848 341T882 593Q882 739 848 844T754 1005T614 1061Q535 1061 475 1006Z" />
<glyph unicode="1" glyph-name="one" d="M1008 136T1022 121T1037 68Q1037 31 1023 16T974 0H300Q266 0 252 15T237 68Q237 105 251 120T300 136H569V994L320 839Q303 829 289 829Q257 829 234 870Q220 894 220 916Q220 950 251 968L628 1200Q648 1212 668 1212Q690
1212 704 1198T719 1157V136H974Q1008 136 1022 121Z" />
<glyph unicode="2" glyph-name="two" d="M696 1209T783 1168T919 1047T967 859Q967 757 917 672T759 477L423 136H857V262Q857 297 874 312T932 327Q973 327 990 312T1007 262V68Q1007 31 993 16T944 0H250Q216 0 202 15T187 68Q187 106 202 122L642 568Q734 662
771 724T809 859Q809 952 750 1006T581 1061Q471 1061 374 1005V895Q374 860 357 845T299 830Q258 830 241 845T224 895V1042Q224 1081 247 1097Q320 1150 405 1179T580 1209Q696 1209 783 1168Z" />
<glyph unicode="3" glyph-name="three" d="M705 1209T791 1169T924 1054T971 879Q971 793 931 731T818 631Q909 593 959 520T1010 345Q1010 236 962 153T820 24T598 -22Q500 -22 400 12T221 104Q191 126 191 154Q191 174 208 203Q234 245 266 245Q282 245 300
232Q366 183 443 155T598 126Q722 126 787 184T852 345Q852 448 787 501T603 555H530Q496 555 482 570T467 623Q467 660 481 675T530 691H585Q699 691 758 739T817 879Q817 964 758 1012T591 1061Q475 1061 394 1022V955Q394 920 377 905T319 890Q278 890 261 905T244
955V1064Q244 1086 250 1099T271 1121Q414 1209 590 1209Q705 1209 791 1169Z" />
<glyph unicode="4" glyph-name="four" d="M838 1209T838 1131V496H1000Q1034 496 1048 481T1063 428Q1063 391 1049 376T1000 360H838V136H970Q1004 136 1018 121T1033 68Q1033 31 1019 16T970 0H540Q506 0 492 15T477 68Q477 105 491 120T540 136H688V360H210Q176
360 162 375T147 428Q147 461 157 475L641 1148Q663 1179 688 1194T751 1209Q838 1209 838 1131ZM346 496H688L696 992L346 496Z" />
<glyph unicode="5" glyph-name="five" d="M919 1187T933 1172T948 1119Q948 1082 934 1067T885 1051H419L406 730Q506 786 621 786Q741 786 829 735T963 594T1010 386Q1010 269 958 177T810 31T588 -22Q492 -22 395 10T219 97Q188 118 188 148Q188 170 204 196Q230
239 262 239Q278 239 296 226Q361 180 437 153T588 126Q669 126 729 158T820 249T852 386Q852 460 823 517T738 606T608 638Q540 638 486 621T381 567Q365 557 331 557Q289 557 272 572T256 622L276 1122Q278 1157 294 1172T351 1187H885Q919 1187 933 1172Z" />
<glyph unicode="6" glyph-name="six" d="M944 1210T959 1191T975 1121Q975 1090 966 1077T938 1062Q672 1048 529 925T358 589Q410 657 486 694T648 731Q758 731 846 684T985 551T1036 353Q1036 245 985 160T841 26T626 -22Q517 -22 426 28T278 173Q201 305 201
512Q201 685 274 839T508 1095T917 1209Q944 1210 959 1191ZM553 583T495 556T405 480T372 368Q372 298 403 243T492 157T626 126Q702 126 759 154T847 233T878 353Q878 422 848 474T761 554T626 583Q553 583 495 556Z" />
<glyph unicode="7" glyph-name="seven" d="M1000 1187T1014 1172T1029 1119Q1029 1095 1023 1079L597 24Q588 1 569 -10T522 -22Q486 -22 464 -8T441 31Q441 45 446 56L853 1051H379V905Q379 870 362 855T304 840Q263 840 246 855T229 905V1119Q229 1156 243 1171T292
1187H966Q1000 1187 1014 1172Z" />
<glyph unicode="8" glyph-name="eight" d="M718 1209T802 1166T935 1046T983 879Q983 798 937 734T817 630Q910 588 966 513T1022 340Q1022 237 969 155T823 25T614 -22Q498 -22 405 25T259 154T206 340Q206 438 262 513T410 630Q336 670 291 734T245 879Q245
970 293 1046T425 1165T614 1209Q718 1209 802 1166ZM552 1061T504 1039T427 974T399 876Q399 825 427 783T504 717T614 693Q674 693 723 717T801 783T829 876Q829 932 801 974T725 1038T614 1061Q552 1061 504 1039ZM541 554T485 527T398 452T366 341Q366 279
397 230T485 154T614 126Q687 126 743 153T830 230T862 341Q862 403 831 451T743 527T614 554Q541 554 485 527Z" />
<glyph unicode="9" glyph-name="nine" d="M711 1209T802 1159T950 1014Q1027 882 1027 675Q1027 502 954 348T720 92T311 -22Q284 -23 269 -4T253 66Q253 97 262 110T290 125Q556 139 699 262T870 598Q818 530 742 493T580 456Q470 456 382 503T243 636T192 834Q192
942 243 1027T387 1161T602 1209Q711 1209 802 1159ZM526 1061T469 1033T381 954T350 834Q350 765 380 713T467 633T602 604Q675 604 733 631T823 707T856 819Q856 889 825 944T736 1030T602 1061Q526 1061 469 1033Z" />
<glyph unicode=":" glyph-name="colon" d="M542 624T511 638T479 687V871Q479 905 510 919T614 934Q686 934 717 920T749 871V687Q749 653 718 639T614 624Q542 624 511 638ZM542 -10T511 4T479 53V237Q479 271 510 285T614 300Q686 300 717 286T749 237V53Q749
19 718 5T614 -10Q542 -10 511 4Z" />
<glyph unicode=";" glyph-name="semicolon" d="M542 624T511 638T479 687V871Q479 905 510 919T614 934Q686 934 717 920T749 871V687Q749 653 718 639T614 624Q542 624 511 638ZM751 294T760 285T769 260Q769 246 762 231L550 -253Q532 -294 464 -294Q392 -294
392 -244Q392 -240 394 -228L488 254Q492 273 505 283T540 294H734Q751 294 760 285Z" />
<glyph unicode="&lt;" glyph-name="less" d="M969 1043T986 1043Q1019 1043 1041 1000Q1053 976 1053 958Q1053 925 1012 905L340 583L1012 261Q1053 241 1053 208Q1053 190 1041 166Q1019 123 986 123Q969 123 949 133L172 514Q147 526 136 542T125 583Q125 608
136 624T172 652L949 1033Q969 1043 986 1043Z" />
<glyph unicode="=" glyph-name="equal" d="M1029 850T1043 835T1058 782Q1058 745 1044 730T995 714H233Q199 714 185 729T170 782Q170 819 184 834T233 850H995Q1029 850 1043 835ZM1029 450T1043 435T1058 382Q1058 345 1044 330T995 314H233Q199 314 185 329T170
382Q170 419 184 434T233 450H995Q1029 450 1043 435Z" />
<glyph unicode="&gt;" glyph-name="greater" d="M1081 640T1092 624T1103 583Q1103 558 1092 542T1056 514L279 133Q259 123 242 123Q209 123 187 166Q175 190 175 208Q175 241 216 261L888 583L216 905Q175 925 175 958Q175 976 187 1000Q209 1043 242 1043Q259
1043 279 1033L1056 652Q1081 640 1092 624Z" />
<glyph unicode="?" glyph-name="question" d="M726 1269T804 1230T924 1120T966 956Q966 870 932 809T830 702T653 611L640 467Q635 419 574 419Q511 419 508 467L495 665Q493 685 500 697T525 716L594 744Q674 777 720 806T789 871T812 956Q812 1031 762 1076T619
1121Q492 1121 404 1084V995Q404 960 387 945T329 930Q288 930 271 945T254 995V1122Q254 1143 260 1156T279 1178Q430 1269 618 1269Q726 1269 804 1230ZM635 230T662 216T689 167V53Q689 19 662 5T574 -10Q513 -10 486 4T459 53V167Q459 201 486 215T574 230Q635
230 662 216Z" />
<glyph unicode="@" glyph-name="at" d="M813 1078T928 1009T1107 815T1170 531Q1170 415 1135 326T1036 187T889 137Q824 137 778 170T708 266Q656 199 609 166T499 132Q450 132 410 159T346 236T323 357Q323 448 366 549T482 717T640 785Q726 785 768 685L799
748Q805 759 824 759Q839 759 858 752Q878 745 889 733T897 706L820 404Q813 377 813 352Q813 310 833 287T888 263Q963 263 1006 336T1049 531Q1049 661 1001 756T865 903T655 955Q519 955 409 881T236 677T173 389Q173 261 218 167T350 21T560 -30Q629 -30 695
-20T815 7Q823 9 826 9Q854 9 867 -36Q872 -54 872 -64Q872 -91 848 -101Q794 -125 719 -139T562 -153Q403 -153 288 -88T112 100T50 389Q50 583 129 740T348 988T660 1078Q813 1078 928 1009ZM600 658T558 614T487 500T458 359Q458 312 476 289T524 266Q573 266
616 311T686 426T712 561Q712 607 692 632T636 658Q600 658 558 614Z" />
<glyph unicode="A" glyph-name="A" d="M680 1187T704 1172T741 1122L1094 136H1155Q1189 136 1203 121T1218 68Q1218 31 1204 16T1155 0H801Q767 0 753 15T738 68Q738 105 752 120T801 136H936L854 374H369L286 136H407Q441 136 455 121T470 68Q470 31 456 16T407
0H73Q39 0 25 15T10 68Q10 105 24 120T73 136H129L460 1051H273Q239 1051 225 1066T210 1119Q210 1156 224 1171T273 1187H640Q680 1187 704 1172ZM603 1051L416 510H808L622 1051H603Z" />
<glyph unicode="B" glyph-name="B" d="M761 1187T843 1147T966 1035T1008 865Q1008 789 974 731T875 635Q981 601 1037 526T1094 339Q1094 234 1049 158T918 41T710 0H143Q109 0 95 15T80 68Q80 105 94 120T143 136H265V1051H143Q109 1051 95 1066T80 1119Q80
1156 94 1171T143 1187H644Q761 1187 843 1147ZM415 681H622Q737 681 796 729T855 865Q855 957 797 1004T622 1051H415V681ZM415 136H680Q803 136 869 189T936 339Q936 545 685 545H415V136Z" />
<glyph unicode="C" glyph-name="C" d="M1040 1209T1057 1194T1074 1144V814Q1074 779 1057 764T999 749Q958 749 941 764T924 814Q924 882 894 938T800 1027T644 1061Q536 1061 453 1004T323 841T276 593Q276 451 320 346T445 183T634 126Q733 126 823 155T985
239Q1002 253 1022 253Q1052 253 1075 214Q1093 184 1093 161Q1093 131 1062 109Q969 44 860 11T634 -22Q478 -22 362 54T182 270T118 593Q118 776 183 915T365 1132T634 1209Q728 1209 801 1177T924 1086V1144Q924 1179 941 1194T999 1209Q1040 1209 1057 1194Z"
/>
<glyph unicode="D" glyph-name="D" d="M771 1187T890 1116T1074 910T1140 593Q1140 411 1075 277T890 72T614 0H143Q109 0 95 15T80 68Q80 105 94 120T143 136H255V1051H143Q109 1051 95 1066T80 1119Q80 1156 94 1171T143 1187H614Q771 1187 890 1116ZM405 136H591Q710
136 798 188T934 343T982 593Q982 740 934 842T798 998T591 1051H405V136Z" />
<glyph unicode="E" glyph-name="E" d="M1066 430T1083 415T1100 365V68Q1100 31 1086 16T1037 0H143Q109 0 95 15T80 68Q80 105 94 120T143 136H245V1051H143Q109 1051 95 1066T80 1119Q80 1156 94 1171T143 1187H1017Q1051 1187 1065 1172T1080 1119V865Q1080
830 1063 815T1005 800Q964 800 947 815T930 865V1051H395V680H653V771Q653 806 668 821T724 836Q764 836 779 821T795 771V453Q795 418 780 403T724 388Q684 388 669 403T653 453V544H395V136H950V365Q950 400 967 415T1025 430Q1066 430 1083 415Z" />
<glyph unicode="F" glyph-name="F" d="M1081 1187T1095 1172T1110 1119V855Q1110 820 1093 805T1035 790Q994 790 977 805T960 855V1051H425V660H679V751Q679 786 694 801T750 816Q790 816 805 801T821 751V433Q821 398 806 383T750 368Q710 368 695 383T679 433V524H425V136H657Q691
136 705 121T720 68Q720 31 706 16T657 0H143Q109 0 95 15T80 68Q80 105 94 120T143 136H275V1051H143Q109 1051 95 1066T80 1119Q80 1156 94 1171T143 1187H1047Q1081 1187 1095 1172Z" />
<glyph unicode="G" glyph-name="G" d="M1028 1209T1045 1194T1062 1144V854Q1062 819 1045 804T987 789Q946 789 929 804T912 854Q912 914 880 961T784 1034T634 1061Q523 1061 438 1004T304 841T256 593Q256 451 301 346T430 183T624 126Q799 126 923 183V410H676Q642
410 628 425T613 478Q613 515 627 530T676 546H1105Q1139 546 1153 531T1168 478Q1168 441 1154 426T1105 410H1073V143Q1073 94 1037 74Q955 27 848 3T624 -22Q468 -22 349 54T164 270T98 593Q98 775 165 915T352 1132T624 1209Q718 1209 790 1180T912 1095V1144Q912
1179 929 1194T987 1209Q1028 1209 1045 1194Z" />
<glyph unicode="H" glyph-name="H" d="M1119 1187T1133 1172T1148 1119Q1148 1082 1134 1067T1085 1051H1013V136H1085Q1119 136 1133 121T1148 68Q1148 31 1134 16T1085 0H771Q737 0 723 15T708 68Q708 105 722 120T771 136H863V544H365V136H457Q491 136 505
121T520 68Q520 31 506 16T457 0H143Q109 0 95 15T80 68Q80 105 94 120T143 136H215V1051H143Q109 1051 95 1066T80 1119Q80 1156 94 1171T143 1187H457Q491 1187 505 1172T520 1119Q520 1082 506 1067T457 1051H365V680H863V1051H771Q737 1051 723 1066T708 1119Q708
1156 722 1171T771 1187H1085Q1119 1187 1133 1172Z" />
<glyph unicode="I" glyph-name="I" d="M979 1187T993 1172T1008 1119Q1008 1082 994 1067T945 1051H689V136H965Q999 136 1013 121T1028 68Q1028 31 1014 16T965 0H263Q229 0 215 15T200 68Q200 105 214 120T263 136H539V1051H283Q249 1051 235 1066T220 1119Q220
1156 234 1171T283 1187H945Q979 1187 993 1172Z" />
<glyph unicode="J" glyph-name="J" d="M1129 1187T1143 1172T1158 1119Q1158 1082 1144 1067T1095 1051H894V333Q894 158 792 68T494 -22Q380 -22 288 18T131 129Q115 148 115 180V465Q115 500 132 515T190 530Q231 530 248 515T265 465V201Q349 126 495 126Q626
126 685 184T744 363V1051H403Q369 1051 355 1066T340 1119Q340 1156 354 1171T403 1187H1095Q1129 1187 1143 1172Z" />
<glyph unicode="K" glyph-name="K" d="M1129 1187T1143 1172T1158 1119Q1158 1082 1144 1067T1095 1051H1034L615 646Q623 647 639 647Q770 647 848 547Q879 507 902 457T954 332Q958 322 974 280T1007 208Q1046 136 1097 136H1125Q1159 136 1173 121T1188 68Q1188
31 1174 16T1125 0H1043Q942 0 871 139Q846 189 812 276Q789 337 770 379T728 454Q704 488 668 506T585 524Q543 524 504 509T435 465L405 436V136H567Q601 136 615 121T630 68Q630 31 616 16T567 0H143Q109 0 95 15T80 68Q80 105 94 120T143 136H255V1051H143Q109
1051 95 1066T80 1119Q80 1156 94 1171T143 1187H497Q531 1187 545 1172T560 1119Q560 1082 546 1067T497 1051H405V622L843 1051H771Q737 1051 723 1066T708 1119Q708 1156 722 1171T771 1187H1095Q1129 1187 1143 1172Z" />
<glyph unicode="L" glyph-name="L" d="M731 1187T745 1172T760 1119Q760 1082 746 1067T697 1051H455V136H950V465Q950 500 967 515T1025 530Q1066 530 1083 515T1100 465V68Q1100 31 1086 16T1037 0H143Q109 0 95 15T80 68Q80 105 94 120T143 136H305V1051H143Q109
1051 95 1066T80 1119Q80 1156 94 1171T143 1187H697Q731 1187 745 1172Z" />
<glyph unicode="M" glyph-name="M" d="M1139 1187T1153 1172T1168 1119Q1168 1082 1154 1067T1105 1051H1055L1081 136H1135Q1169 136 1183 121T1198 68Q1198 31 1184 16T1135 0H821Q787 0 773 15T758 68Q758 105 772 120T821 136H932L910 955L706 385Q693 350
672 335T614 320Q578 320 557 335T522 385L317 955L296 136H407Q441 136 455 121T470 68Q470 31 456 16T407 0H93Q59 0 45 15T30 68Q30 105 44 120T93 136H147L172 1051H123Q89 1051 75 1066T60 1119Q60 1156 74 1171T123 1187H334Q358 1187 372 1179T392 1154L614
545L835 1154Q846 1187 894 1187H1105Q1139 1187 1153 1172Z" />
<glyph unicode="N" glyph-name="N" d="M1129 1187T1143 1172T1158 1119Q1158 1082 1144 1067T1095 1051H1038V37Q1038 10 1020 -6T963 -22Q910 -22 879 33L360 960H356V136H497Q531 136 545 121T560 68Q560 31 546 16T497 0H143Q109 0 95 15T80 68Q80 105 94 120T143
136H210V1051H133Q99 1051 85 1066T70 1119Q70 1156 84 1171T133 1187H357Q379 1187 392 1180T414 1159L888 311H892V1051H771Q737 1051 723 1066T708 1119Q708 1156 722 1171T771 1187H1095Q1129 1187 1143 1172Z" />
<glyph unicode="O" glyph-name="O" d="M770 1209T889 1132T1074 916T1140 593Q1140 410 1075 271T890 55T614 -22Q458 -22 339 54T154 270T88 593Q88 776 153 915T338 1132T614 1209Q770 1209 889 1132ZM504 1061T421 1004T292 841T246 593Q246 451 291 346T420
183T614 126Q724 126 807 183T936 345T982 593Q982 735 937 841T808 1004T614 1061Q504 1061 421 1004Z" />
<glyph unicode="P" glyph-name="P" d="M823 1187T918 1140T1062 1007T1112 808Q1112 695 1063 611T918 480T690 433H455V136H695Q729 136 743 121T758 68Q758 31 744 16T695 0H143Q109 0 95 15T80 68Q80 105 94 120T143 136H305V1051H143Q109 1051 95 1066T80
1119Q80 1156 94 1171T143 1187H690Q823 1187 918 1140ZM455 569H669Q808 569 881 632T954 808Q954 923 881 987T669 1051H455V569Z" />
<glyph unicode="Q" glyph-name="Q" d="M770 1209T889 1137T1074 930T1140 618Q1140 440 1075 307T890 101T614 28Q586 28 562 30L433 -105Q514 -73 593 -73Q625 -73 653 -77T725 -90Q794 -105 833 -105Q873 -105 911 -92T993 -48Q1002 -42 1012 -42Q1027 -42 1042
-54T1070 -86Q1087 -115 1087 -137Q1087 -163 1065 -179Q1007 -222 956 -240T853 -258Q827 -258 798 -254T750 -247T723 -241Q671 -230 637 -225T562 -220Q454 -220 337 -269Q330 -272 322 -272Q289 -272 254 -226Q228 -192 228 -167Q228 -153 237 -142L417 62Q263
120 176 265T88 618Q88 796 153 930T338 1136T614 1209Q770 1209 889 1137ZM503 1061T420 1008T292 855T246 618Q246 481 291 381T420 229T614 176Q725 176 808 228T936 381T982 618Q982 755 937 855T808 1008T614 1061Q503 1061 420 1008Z" />
<glyph unicode="R" glyph-name="R" d="M774 1187T863 1145T999 1027T1046 850Q1046 736 972 657T769 549Q825 527 862 478Q893 437 915 397T964 297Q992 236 1007 208Q1046 136 1097 136H1125Q1159 136 1173 121T1188 68Q1188 31 1174 16T1125 0H1053Q993 0 952
31T871 139Q849 183 817 255Q787 321 769 357T724 430Q694 472 652 493T551 515H415V136H545Q579 136 593 121T608 68Q608 31 594 16T545 0H143Q109 0 95 15T80 68Q80 105 94 120T143 136H265V1051H143Q109 1051 95 1066T80 1119Q80 1156 94 1171T143 1187H649Q774
1187 863 1145ZM415 651H618Q888 651 888 850Q888 946 820 998T628 1051H415V651Z" />
<glyph unicode="S" glyph-name="S" d="M984 1209T1001 1194T1018 1144V914Q1018 879 1001 864T943 849Q905 849 891 875Q843 966 756 1013T558 1061Q448 1061 388 1010T327 873Q327 832 348 804T408 756Q443 738 490 727T616 700Q702 683 752 672T852 640Q952
599 1008 526T1065 327Q1065 223 1016 145T872 22T642 -22Q542 -22 457 14T308 121V43Q308 8 291 -7T233 -22Q192 -22 175 -7T158 43V343Q158 378 175 393T233 408Q276 408 291 366Q332 250 421 188T642 126Q770 126 838 181T907 327Q907 390 876 429T784 495Q746
512 701 522T578 549Q496 565 441 579T338 614Q258 650 214 711T169 873Q169 976 218 1052T356 1168T558 1209Q646 1209 728 1175T868 1083V1144Q868 1179 885 1194T943 1209Q984 1209 1001 1194Z" />
<glyph unicode="T" glyph-name="T" d="M1077 1187T1091 1172T1106 1119V742Q1106 707 1089 692T1031 677Q990 677 973 692T956 742V1051H689V136H925Q959 136 973 121T988 68Q988 31 974 16T925 0H303Q269 0 255 15T240 68Q240 105 254 120T303 136H539V1051H272V742Q272
707 255 692T197 677Q156 677 139 692T122 742V1119Q122 1156 136 1171T185 1187H1043Q1077 1187 1091 1172Z" />
<glyph unicode="U" glyph-name="U" d="M1129 1187T1143 1172T1158 1119Q1158 1082 1144 1067T1095 1051H1033V393Q1033 184 924 81T614 -22Q414 -22 305 81T195 393V1051H133Q99 1051 85 1066T70 1119Q70 1156 84 1171T133 1187H457Q491 1187 505 1172T520 1119Q520
1082 506 1067T457 1051H345V413Q345 260 410 193T614 126Q753 126 818 193T883 413V1051H771Q737 1051 723 1066T708 1119Q708 1156 722 1171T771 1187H1095Q1129 1187 1143 1172Z" />
<glyph unicode="V" glyph-name="V" d="M1189 1187T1203 1172T1218 1119Q1218 1082 1204 1067T1155 1051H1078L719 43Q706 8 681 -7T611 -22Q568 -22 543 -7T505 43L149 1051H73Q39 1051 25 1066T10 1119Q10 1156 24 1171T73 1187H447Q481 1187 495 1172T510 1119Q510
1082 496 1067T447 1051H306L612 167L921 1051H821Q787 1051 773 1066T758 1119Q758 1156 772 1171T821 1187H1155Q1189 1187 1203 1172Z" />
<glyph unicode="W" glyph-name="W" d="M1209 1187T1223 1172T1238 1119Q1238 1082 1224 1067T1175 1051H1121L983 43Q978 7 958 -7T897 -22Q815 -22 795 43L610 624L423 43Q402 -22 319 -22Q280 -22 260 -7T235 43L102 1051H53Q19 1051 5 1066T-10 1119Q-10 1156
4 1171T53 1187H397Q431 1187 445 1172T460 1119Q460 1082 446 1067T397 1051H251L351 250L539 838Q553 885 611 885Q643 885 660 875T684 845L871 250L975 1051H851Q817 1051 803 1066T788 1119Q788 1156 802 1171T851 1187H1175Q1209 1187 1223 1172Z" />
<glyph unicode="X" glyph-name="X" d="M1119 1187T1133 1172T1148 1119Q1148 1082 1134 1067T1085 1051H1020L711 617L1057 136H1115Q1149 136 1163 121T1178 68Q1178 31 1164 16T1115 0H761Q727 0 713 15T698 68Q698 105 712 120T761 136H870L615 501L354 136H437Q471
136 485 121T500 68Q500 31 486 16T437 0H113Q79 0 65 15T50 68Q50 105 64 120T113 136H175L524 619L212 1051H143Q109 1051 95 1066T80 1119Q80 1156 94 1171T143 1187H487Q521 1187 535 1172T550 1119Q550 1082 536 1067T487 1051H398L619 735L841 1051H781Q747
1051 733 1066T718 1119Q718 1156 732 1171T781 1187H1085Q1119 1187 1133 1172Z" />
<glyph unicode="Y" glyph-name="Y" d="M1139 1187T1153 1172T1168 1119Q1168 1082 1154 1067T1105 1051H1037L689 492V136H915Q949 136 963 121T978 68Q978 31 964 16T915 0H313Q279 0 265 15T250 68Q250 105 264 120T313 136H539V492L193 1051H123Q89 1051 75
1066T60 1119Q60 1156 74 1171T123 1187H457Q491 1187 505 1172T520 1119Q520 1082 506 1067T457 1051H364L614 642L866 1051H801Q767 1051 753 1066T738 1119Q738 1156 752 1171T801 1187H1105Q1139 1187 1153 1172Z" />
<glyph unicode="Z" glyph-name="Z" d="M1021 1187T1035 1172T1050 1119Q1050 1094 1040 1080L377 136H909V405Q909 440 926 455T984 470Q1025 470 1042 455T1059 405V68Q1059 31 1045 16T996 0H230Q196 0 182 15T167 68Q167 90 181 111L840 1051H338V802Q338 767
321 752T263 737Q222 737 205 752T188 802V1119Q188 1156 202 1171T251 1187H987Q1021 1187 1035 1172Z" />
<glyph unicode="[" glyph-name="bracketleft" d="M841 -189T855 -205T870 -261Q870 -300 856 -316T807 -333H393Q359 -333 345 -318T330 -265V1304Q330 1341 344 1356T393 1372H807Q841 1372 855 1356T870 1300Q870 1261 856 1245T807 1228H480V-189H807Q841 -189
855 -205Z" />
<glyph unicode="\" glyph-name="backslash" d="M313 1394T330 1384T355 1358L1027 -285Q1030 -294 1030 -302Q1030 -325 1004 -340T938 -355Q915 -355 898 -345T873 -319L201 1324Q198 1333 198 1341Q198 1364 224 1379T290 1394Q313 1394 330 1384Z" />
<glyph unicode="]" glyph-name="bracketright" d="M869 1372T883 1357T898 1304V-265Q898 -302 884 -317T835 -333H421Q387 -333 373 -317T358 -261Q358 -222 372 -206T421 -189H748V1228H421Q387 1228 373 1244T358 1300Q358 1339 372 1355T421 1372H835Q869
1372 883 1357Z" />
<glyph unicode="^" glyph-name="asciicircum" d="M642 1209T657 1200T682 1172L990 581Q996 571 996 560Q996 543 982 530T946 509Q928 502 905 502Q886 502 872 508T851 527L614 1007L377 527Q371 515 357 509T323 502Q300 502 282 509Q260 516 246 529T232 560Q232
571 238 581L546 1172Q556 1191 571 1200T614 1209Q642 1209 657 1200Z" />
<glyph unicode="_" glyph-name="underscore" d="M1245 -252T1250 -265T1256 -320Q1256 -362 1251 -375T1233 -388H-5Q-17 -388 -22 -375T-28 -320Q-28 -278 -23 -265T-5 -252H1233Q1245 -252 1250 -265Z" />
<glyph unicode="`" glyph-name="grave" d="M811 1134T811 1115Q811 1090 787 1063Q765 1038 741 1038Q727 1038 709 1048L335 1267Q313 1280 313 1306Q313 1335 343 1374Q376 1415 410 1415Q429 1415 447 1402L795 1146Q811 1134 811 1115Z" />
<glyph unicode="a" glyph-name="a" d="M806 946T900 862T994 613V215Q994 136 1060 136H1095Q1129 136 1143 121T1158 68Q1158 31 1144 16T1095 0H1031Q966 0 920 32T859 128Q777 56 682 17T479 -22Q378 -22 301 12T179 113T135 270Q135 428 248 503T540 579Q699
579 844 528V613Q844 710 790 755T614 801Q539 801 458 780T304 722Q287 713 273 713Q240 713 218 761Q207 785 207 801Q207 836 244 855Q328 899 424 922T618 946Q806 946 900 862ZM426 438T360 399T293 273Q293 200 343 160T485 119Q684 119 844 284V393Q776
415 698 426T541 438Q426 438 360 399Z" />
<glyph unicode="b" glyph-name="b" d="M323 1312T337 1297T352 1244V781Q481 946 669 946Q793 946 891 888T1045 720T1101 462Q1101 314 1045 205T891 37T669 -22Q571 -22 488 22T342 148V68Q342 31 328 16T279 0H120Q86 0 72 15T57 68Q57 105 71 120T120 136H202V1176H100Q66
1176 52 1191T37 1244Q37 1281 51 1296T100 1312H289Q323 1312 337 1297ZM570 798T501 758T392 642T352 462Q352 358 391 282T500 166T659 126Q748 126 812 168T909 287T943 462Q943 561 910 637T812 755T659 798Q570 798 501 758Z" />
<glyph unicode="c" glyph-name="c" d="M1015 946T1032 931T1049 881V591Q1049 556 1032 541T974 526Q933 526 916 541T899 591Q899 652 867 699T772 772T619 798Q523 798 447 755T328 635T285 462Q285 365 325 289T439 169T609 126Q701 126 787 154T945 237Q966
253 984 253Q1013 253 1038 212Q1053 187 1053 164Q1053 129 1021 106Q941 46 832 12T609 -22Q466 -22 357 41T187 214T127 462Q127 600 188 710T358 883T609 946Q698 946 772 914T899 821V881Q899 916 916 931T974 946Q1015 946 1032 931Z" />
<glyph unicode="d" glyph-name="d" d="M997 1312T1011 1297T1026 1244V136H1108Q1142 136 1156 121T1171 68Q1171 31 1157 16T1108 0H949Q915 0 901 15T886 68V148Q823 66 740 22T559 -22Q435 -22 337 36T183 204T127 462Q127 610 183 719T337 887T559 946Q747
946 876 781V1176H714Q680 1176 666 1191T651 1244Q651 1281 665 1296T714 1312H963Q997 1312 1011 1297ZM480 798T416 756T319 637T285 462Q285 363 318 287T416 169T569 126Q658 126 727 166T836 282T876 462Q876 566 837 642T728 758T569 798Q480 798 416 756Z"
/>
<glyph unicode="e" glyph-name="e" d="M768 946T870 888T1028 726T1091 487Q1091 453 1077 439T1028 425H304Q311 276 392 200T623 123Q715 123 805 146T963 209Q980 218 994 218Q1029 218 1051 165Q1060 144 1060 127Q1060 87 1016 65Q939 26 834 2T623 -22Q472
-22 365 36T202 203T146 462Q146 605 207 715T376 885T623 946Q768 946 870 888ZM500 801T420 739T314 565H925Q904 680 829 740T623 801Q500 801 420 739Z" />
<glyph unicode="f" glyph-name="f" d="M934 1317T1066 1266Q1114 1248 1114 1200Q1114 1189 1111 1174Q1097 1117 1061 1117Q1050 1117 1037 1122Q910 1171 800 1171Q598 1171 598 954V844H944Q978 844 992 829T1007 776Q1007 739 993 724T944 708H598V136H944Q978
136 992 121T1007 68Q1007 31 993 16T944 0H250Q216 0 202 15T187 68Q187 105 201 120T250 136H448V708H250Q216 708 202 723T187 776Q187 813 201 828T250 844H448V967Q448 1132 540 1224T800 1317Q934 1317 1066 1266Z" />
<glyph unicode="g" glyph-name="g" d="M657 946T740 902T886 776V856Q886 893 900 908T949 924H1108Q1142 924 1156 909T1171 856Q1171 819 1157 804T1108 788H1026V-30Q1026 -149 976 -234T829 -365T598 -410Q502 -410 404 -394T221 -346Q182 -332 182 -293Q182
-277 190 -253Q208 -198 247 -198Q258 -198 269 -202Q347 -230 433 -246T598 -262Q736 -262 806 -197T876 -17V184Q752 28 559 28Q435 28 337 83T183 243T127 487Q127 627 183 731T337 890T559 946Q657 946 740 902ZM480 798T416 759T319 649T285 487Q285 396 318
326T416 216T569 176Q658 176 727 213T836 320T876 487Q876 583 837 653T728 761T569 798Q480 798 416 759Z" />
<glyph unicode="h" glyph-name="h" d="M353 1312T367 1297T382 1244V746Q447 843 532 894T717 946Q808 946 875 907T978 793T1014 620V136H1096Q1130 136 1144 121T1159 68Q1159 31 1145 16T1096 0H772Q738 0 724 15T709 68Q709 105 723 120T772 136H864V605Q864
694 823 746T702 798Q617 798 544 749T426 614T382 422V136H474Q508 136 522 121T537 68Q537 31 523 16T474 0H150Q116 0 102 15T87 68Q87 105 101 120T150 136H232V1176H140Q106 1176 92 1191T77 1244Q77 1281 91 1296T140 1312H319Q353 1312 367 1297Z" />
<glyph unicode="i" glyph-name="i" d="M684 924T698 909T713 856V136H1034Q1068 136 1082 121T1097 68Q1097 31 1083 16T1034 0H250Q216 0 202 15T187 68Q187 105 201 120T250 136H563V788H310Q276 788 262 803T247 856Q247 893 261 908T310 924H650Q684 924 698
909ZM673 1363T693 1349T713 1298V1168Q713 1132 693 1118T618 1103Q563 1103 543 1117T523 1168V1298Q523 1334 543 1348T618 1363Q673 1363 693 1349Z" />
<glyph unicode="j" glyph-name="j" d="M874 924T888 909T903 856V-57Q903 -233 825 -321T576 -410Q493 -410 397 -379T223 -298Q190 -278 190 -246Q190 -227 203 -201Q227 -155 261 -155Q278 -155 292 -165Q361 -210 435 -237T576 -264Q674 -264 713 -211T753
-44V788H330Q296 788 282 803T267 856Q267 893 281 908T330 924H840Q874 924 888 909ZM863 1363T883 1349T903 1298V1168Q903 1132 883 1118T808 1103Q753 1103 733 1117T713 1168V1298Q713 1334 733 1348T808 1363Q863 1363 883 1349Z" />
<glyph unicode="k" glyph-name="k" d="M1130 136T1144 121T1159 68Q1159 31 1145 16T1096 0H772Q738 0 724 15T709 68Q709 105 723 120T772 136H844L593 434L411 274V136H484Q518 136 532 121T547 68Q547 31 533 16T484 0H150Q116 0 102 15T87 68Q87 105 101 120T150
136H261V1176H130Q96 1176 82 1191T67 1244Q67 1281 81 1296T130 1312H348Q382 1312 396 1297T411 1244V452L792 788H721Q687 788 673 803T658 856Q658 893 672 908T721 924H1055Q1089 924 1103 909T1118 856Q1118 819 1104 804T1055 788H996L702 529L1038 136H1096Q1130
136 1144 121Z" />
<glyph unicode="l" glyph-name="l" d="M674 1312T688 1297T703 1244V136H1024Q1058 136 1072 121T1087 68Q1087 31 1073 16T1024 0H240Q206 0 192 15T177 68Q177 105 191 120T240 136H553V1176H280Q246 1176 232 1191T217 1244Q217 1281 231 1296T280 1312H640Q674
1312 688 1297Z" />
<glyph unicode="m" glyph-name="m" d="M1225 136T1239 121T1254 68Q1254 31 1240 16T1191 0H1042Q1008 0 994 15T979 68V660Q979 729 957 763T884 798Q837 798 797 755T734 634T710 457V136H767Q801 136 815 121T830 68Q830 31 816 16T767 0H623Q589 0 575 15T560
68V660Q560 729 538 763T465 798Q418 798 378 755T315 634T291 457V136H343Q377 136 391 121T406 68Q406 31 392 16T343 0H59Q25 0 11 15T-4 68Q-4 105 10 120T59 136H141V788H59Q25 788 11 803T-4 856Q-4 893 10 908T59 924H208Q242 924 256 909T271 856V757Q314
851 374 898T504 946Q572 946 623 900T692 765Q781 946 922 946Q981 946 1027 917T1101 827T1129 678V136H1191Q1225 136 1239 121Z" />
<glyph unicode="n" glyph-name="n" d="M818 946T885 907T988 793T1024 620V136H1106Q1140 136 1154 121T1169 68Q1169 31 1155 16T1106 0H782Q748 0 734 15T719 68Q719 105 733 120T782 136H874V605Q874 694 833 746T712 798Q627 798 554 749T436 614T392 422V136H484Q518
136 532 121T547 68Q547 31 533 16T484 0H160Q126 0 112 15T97 68Q97 105 111 120T160 136H242V788H140Q106 788 92 803T77 856Q77 893 91 908T140 924H319Q353 924 367 909T382 856V736Q448 838 536 892T727 946Q818 946 885 907Z" />
<glyph unicode="o" glyph-name="o" d="M751 946T861 884T1033 712T1096 462Q1096 323 1034 213T861 40T614 -22Q477 -22 367 40T195 212T132 462Q132 601 194 711T367 884T614 946Q751 946 861 884ZM517 798T444 756T330 637T290 462Q290 364 330 288T443 169T614
126Q711 126 784 168T898 287T938 462Q938 560 898 636T785 755T614 798Q517 798 444 756Z" />
<glyph unicode="p" glyph-name="p" d="M793 946T891 888T1045 720T1101 462Q1101 314 1045 205T891 37T669 -22Q481 -22 352 143V-252H524Q558 -252 572 -267T587 -320Q587 -357 573 -372T524 -388H100Q66 -388 52 -373T37 -320Q37 -283 51 -268T100 -252H202V788H120Q86
788 72 803T57 856Q57 893 71 908T120 924H279Q313 924 327 909T342 856V776Q405 858 488 902T669 946Q793 946 891 888ZM570 798T501 758T392 642T352 462Q352 358 391 282T500 166T659 126Q748 126 812 168T909 287T943 462Q943 561 910 637T812 755T659 798Q570
798 501 758Z" />
<glyph unicode="q" glyph-name="q" d="M657 946T740 902T886 776V856Q886 893 900 908T949 924H1108Q1142 924 1156 909T1171 856Q1171 819 1157 804T1108 788H1026V-252H1128Q1162 -252 1176 -267T1191 -320Q1191 -357 1177 -372T1128 -388H704Q670 -388 656
-373T641 -320Q641 -283 655 -268T704 -252H876V143Q747 -22 559 -22Q435 -22 337 36T183 204T127 462Q127 610 183 719T337 887T559 946Q657 946 740 902ZM480 798T416 756T319 637T285 462Q285 363 318 287T416 169T569 126Q658 126 727 166T836 282T876 462Q876
566 837 642T728 758T569 798Q480 798 416 756Z" />
<glyph unicode="r" glyph-name="r" d="M998 946T1066 906Q1106 882 1106 844Q1106 826 1097 802Q1076 745 1039 745Q1024 745 1011 753Q962 780 906 780Q816 780 725 718T576 551T517 330V136H854Q888 136 902 121T917 68Q917 31 903 16T854 0H210Q176 0 162 15T147
68Q147 105 161 120T210 136H367V788H240Q206 788 192 803T177 856Q177 893 191 908T240 924H444Q478 924 492 909T507 856V654Q555 742 623 808T768 910T920 946Q998 946 1066 906Z" />
<glyph unicode="s" glyph-name="s" d="M970 946T987 931T1004 881V691Q1004 656 987 641T929 626Q895 626 881 652Q838 734 756 767T548 801Q451 801 397 767T342 670Q342 638 362 618T423 585Q456 574 499 568T612 555Q709 544 768 535T881 506Q961 477 1005
422T1050 277Q1050 187 1005 120T872 15T662 -22Q554 -22 472 8T329 99V43Q329 8 312 -7T254 -22Q213 -22 196 -7T179 43V283Q179 318 196 333T254 348Q275 348 287 339T308 307Q344 211 428 167T652 123Q768 123 830 165T892 277Q892 311 870 333T807 369Q772
380 727 387T611 402Q517 412 454 423T338 455Q265 484 225 535T184 670Q184 757 229 819T355 914T538 946Q635 946 715 917T854 836V881Q854 916 871 931T929 946Q970 946 987 931Z" />
<glyph unicode="t" glyph-name="t" d="M499 1209T516 1194T533 1144V844H944Q978 844 992 829T1007 776Q1007 739 993 724T944 708H533V344Q533 230 572 177T710 124Q777 124 851 151T994 223Q1008 233 1025 233Q1059 233 1083 187Q1096 161 1096 142Q1096 110
1063 90Q985 41 889 10T710 -22Q540 -22 462 66T383 331V708H180Q146 708 132 723T117 776Q117 813 131 828T180 844H383V1144Q383 1179 400 1194T458 1209Q499 1209 516 1194Z" />
<glyph unicode="u" glyph-name="u" d="M970 924T984 909T999 856V136H1081Q1115 136 1129 121T1144 68Q1144 31 1130 16T1081 0H922Q888 0 874 15T859 67V188Q793 86 705 32T514 -22Q423 -22 356 17T253 131T217 304V788H135Q101 788 87 803T72 856Q72 893 86
908T135 924H304Q338 924 352 909T367 856V319Q367 230 408 178T529 126Q614 126 687 175T805 310T849 502V788H707Q673 788 659 803T644 856Q644 893 658 908T707 924H936Q970 924 984 909Z" />
<glyph unicode="v" glyph-name="v" d="M1149 924T1163 909T1178 856Q1178 819 1164 804T1115 788H1052L729 43Q715 9 688 -6T611 -22Q563 -22 537 -7T495 43L175 788H113Q79 788 65 803T50 856Q50 893 64 908T113 924H467Q501 924 515 909T530 856Q530 819 516
804T467 788H339L612 136L888 788H801Q767 788 753 803T738 856Q738 893 752 908T801 924H1115Q1149 924 1163 909Z" />
<glyph unicode="w" glyph-name="w" d="M1209 924T1223 909T1238 856Q1238 819 1224 804T1175 788H1151L954 43Q944 7 925 -7T867 -22Q824 -22 800 -7T763 43L610 477L455 43Q443 9 418 -6T349 -22Q311 -22 292 -8T264 43L71 788H53Q19 788 5 803T-10 856Q-10 893
4 908T53 924H347Q381 924 395 909T410 856Q410 819 396 804T347 788H224L368 206L535 670Q542 691 561 704T611 717Q674 717 688 677L854 206L1002 788H901Q867 788 853 803T838 856Q838 893 852 908T901 924H1175Q1209 924 1223 909Z" />
<glyph unicode="x" glyph-name="x" d="M1119 924T1133 909T1148 856Q1148 819 1134 804T1085 788H1020L723 475L1044 136H1095Q1129 136 1143 121T1158 68Q1158 31 1144 16T1095 0H751Q717 0 703 15T688 68Q688 105 702 120T751 136H847L607 394L368 136H447Q481
136 495 121T510 68Q510 31 496 16T447 0H133Q99 0 85 15T70 68Q70 105 84 120T133 136H183L508 477L214 788H143Q109 788 95 803T80 856Q80 893 94 908T143 924H487Q521 924 535 909T550 856Q550 819 536 804T487 788H411L623 558L836 788H781Q747 788 733 803T718
856Q718 893 732 908T781 924H1085Q1119 924 1133 909Z" />
<glyph unicode="y" glyph-name="y" d="M1149 924T1163 909T1178 856Q1178 819 1164 804T1115 788H1053L644 -50Q579 -183 517 -259T378 -370T189 -410Q154 -411 135 -393T116 -327Q116 -262 169 -259Q265 -254 321 -227T425 -135T542 70L176 788H113Q79 788 65
803T50 856Q50 893 64 908T113 924H467Q501 924 515 909T530 856Q530 819 516 804T467 788H339L621 226L890 788H801Q767 788 753 803T738 856Q738 893 752 908T801 924H1115Q1149 924 1163 909Z" />
<glyph unicode="z" glyph-name="z" d="M1011 924T1025 909T1040 856Q1040 827 1025 810L415 136H900V308Q900 343 917 358T975 373Q1016 373 1033 358T1050 308V68Q1050 31 1036 16T987 0H241Q207 0 193 15T178 68Q178 98 192 113L803 788H348V639Q348 604 331
589T273 574Q232 574 215 589T198 639V856Q198 893 212 908T261 924H977Q1011 924 1025 909Z" />
<glyph unicode="{" glyph-name="braceleft" d="M961 1372T975 1356T990 1300Q990 1261 976 1245T927 1228Q821 1228 761 1199T676 1109T655 947L658 875Q663 755 608 677T425 546V536Q551 499 607 428T664 246Q664 224 663 213L655 92Q654 79 654 54Q654 -73 719
-131T927 -189Q961 -189 975 -205T990 -261Q990 -300 976 -316T927 -333Q726 -333 615 -243T503 27Q503 62 505 80L516 203Q518 231 518 243Q518 356 451 412T240 469Q206 469 192 485T177 541Q177 580 191 596T240 613Q379 613 445 676T511 855Q511 875 510 885L505
959Q503 989 503 1002Q503 1187 613 1279T927 1372Q961 1372 975 1356Z" />
<glyph unicode="|" glyph-name="bar" d="M655 1394T672 1379T689 1329V-290Q689 -325 672 -340T614 -355Q573 -355 556 -340T539 -290V1329Q539 1364 556 1379T614 1394Q655 1394 672 1379Z" />
<glyph unicode="}" glyph-name="braceright" d="M504 1372T614 1280T725 1002Q725 989 723 959L718 885Q717 875 717 855Q717 739 783 676T988 613Q1022 613 1036 597T1051 541Q1051 502 1037 486T988 469Q844 469 777 413T710 243Q710 231 712 203L723 80Q725
62 725 27Q725 -153 614 -243T301 -333Q267 -333 253 -317T238 -261Q238 -222 252 -206T301 -189Q443 -189 508 -131T574 54Q574 79 573 92L565 213Q564 224 564 246Q564 356 620 427T803 536V546Q676 598 621 676T570 875L573 947Q577 1047 553 1108T468 1199T301
1228Q267 1228 253 1244T238 1300Q238 1339 252 1355T301 1372Q504 1372 614 1280Z" />
<glyph unicode="~" glyph-name="asciitilde" d="M476 735T526 714T641 653Q699 619 735 603T810 587Q895 587 965 671Q981 690 1003 690Q1025 690 1046 673Q1078 649 1078 621Q1078 607 1071 596Q1024 520 956 475T810 429Q752 429 702 450T586 511Q530 544 493
560T418 577Q333 577 263 493Q247 474 225 474Q203 474 182 491Q150 515 150 543Q150 557 157 568Q204 644 272 689T418 735Q476 735 526 714Z" />
<glyph unicode="&#xa0;" glyph-name="uni00A0" />
<glyph unicode="&#xa1;" glyph-name="exclamdown" d="M548 654T519 668T489 717V871Q489 905 518 919T614 934Q680 934 709 920T739 871V717Q739 683 710 669T614 654Q548 654 519 668ZM526 -345T516 -333T508 -295L557 412Q559 435 573 447T614 460Q640 460 655
448T672 412L720 -295Q722 -321 712 -333T679 -345H549Q526 -345 516 -333Z" />
<glyph unicode="&#xa2;" glyph-name="cent" d="M1053 327T1053 304Q1053 269 1021 246Q955 196 867 164T684 122V-60Q684 -94 668 -109T614 -125Q577 -125 561 -110T544 -60V122Q418 136 324 201T178 370T127 602Q127 729 179 833T325 1002T544 1082V1247Q544
1281 560 1296T614 1312Q651 1312 667 1297T684 1247V1080Q749 1069 804 1039T899 961V1021Q899 1056 916 1071T974 1086Q1015 1086 1032 1071T1049 1021V731Q1049 696 1032 681T974 666Q933 666 916 681T899 731Q899 812 844 866T684 934V271Q756 280 822 307T945
377Q966 393 984 393Q1013 393 1038 352Q1053 327 1053 304ZM285 517T317 447T407 331T544 272V931Q467 915 409 869T318 754T285 602Q285 517 317 447Z" />
<glyph unicode="&#xa3;" glyph-name="sterling" d="M708 1209T790 1182T941 1105Q962 1090 962 1051V924Q962 889 945 874T887 859Q846 859 829 874T812 924V1014Q734 1061 617 1061Q562 1061 520 1038T456 974T434 884Q434 842 448 803T493 706Q517 662 535 620H845Q879
620 893 605T908 552Q908 515 894 500T845 484H567Q568 472 568 449Q568 273 426 132Q496 157 564 157Q596 157 623 152T691 138Q753 123 789 123Q863 123 940 179Q949 185 959 185Q973 185 988 175T1015 146Q1031 123 1031 99Q1031 86 1026 75T1010 56Q952 13
902 -5T803 -24Q776 -24 751 -20T682 -6Q632 5 599 10T528 15Q424 15 307 -34Q298 -37 290 -37Q258 -37 229 0Q203 32 203 61Q203 80 215 92Q326 193 371 271T417 435Q417 459 414 484H273Q239 484 225 499T210 552Q210 589 224 604T273 620H368L350 655Q314 728
296 777T278 884Q278 976 320 1050T440 1166T618 1209Q708 1209 790 1182Z" />
<glyph unicode="&#xa4;" glyph-name="currency" d="M1094 224Q1117 201 1117 180Q1117 157 1088 128Q1059 99 1036 99Q1015 99 992 122L849 265Q746 198 614 198Q482 198 379 265L236 122Q213 99 192 99Q169 99 140 128Q111 157 111 180Q111 201 134 224L276 366Q204
468 204 602Q204 736 276 838L134 980Q111 1003 111 1024Q111 1047 140 1076Q169 1105 192 1105Q213 1105 236 1082L379 939Q482 1006 614 1006Q746 1006 849 939L992 1082Q1015 1105 1036 1105Q1059 1105 1088 1076Q1117 1047 1117 1024Q1117 1003 1094 980L952
838Q1024 736 1024 602Q1024 468 952 366L1094 224ZM352 527T385 467T477 374T614 340Q691 340 750 373T843 467T876 602Q876 677 843 737T751 830T614 864Q537 864 478 831T385 737T352 602Q352 527 385 467Z" />
<glyph unicode="&#xa5;" glyph-name="yen" d="M1139 1187T1153 1172T1168 1119Q1168 1082 1154 1067T1105 1051H1037L893 820H1015Q1049 820 1063 805T1078 752Q1078 715 1064 700T1015 684H808L700 510H995Q1029 510 1043 495T1058 442Q1058 405 1044 390T995
374H689V136H915Q949 136 963 121T978 68Q978 31 964 16T915 0H313Q279 0 265 15T250 68Q250 105 264 120T313 136H539V374H233Q199 374 185 389T170 442Q170 479 184 494T233 510H528L420 684H213Q179 684 165 699T150 752Q150 789 164 804T213 820H336L193 1051H123Q89
1051 75 1066T60 1119Q60 1156 74 1171T123 1187H457Q491 1187 505 1172T520 1119Q520 1082 506 1067T457 1051H364L614 642L866 1051H801Q767 1051 753 1066T738 1119Q738 1156 752 1171T801 1187H1105Q1139 1187 1153 1172Z" />
<glyph unicode="&#xa6;" glyph-name="brokenbar" d="M655 1394T672 1379T689 1329V730Q689 695 672 680T614 665Q573 665 556 680T539 730V1329Q539 1364 556 1379T614 1394Q655 1394 672 1379ZM655 374T672 359T689 309V-290Q689 -325 672 -340T614 -355Q573
-355 556 -340T539 -290V309Q539 344 556 359T614 374Q655 374 672 359Z" />
<glyph unicode="&#xa7;" glyph-name="section" d="M959 1187T973 1172T988 1119V922Q988 887 971 872T913 857Q872 857 855 872T838 922V1051H599Q458 1051 458 943Q458 891 490 849T588 766L882 584Q965 533 1007 472T1049 328Q1049 264 1015 214T911 113Q928
64 928 10Q928 -61 896 -115T802 -199T649 -230H303Q269 -230 255 -215T240 -162V55Q240 90 257 105T315 120Q356 120 373 105T390 55V-94H629Q770 -94 770 14Q770 66 738 108T640 191L346 373Q263 424 221 485T179 629Q179 693 212 742T317 844Q300 892 300 947Q300
1018 332 1072T426 1156T579 1187H925Q959 1187 973 1172ZM365 701T351 677T337 625Q337 585 361 557T437 495L731 313Q788 278 833 233Q862 256 876 280T891 332Q891 372 867 400T791 462L497 644Q435 682 394 723Q365 701 351 677Z" />
<glyph unicode="&#xa8;" glyph-name="dieresis" d="M459 1363T479 1349T499 1298V1168Q499 1132 479 1118T404 1103Q349 1103 329 1117T309 1168V1298Q309 1334 329 1348T404 1363Q459 1363 479 1349ZM879 1363T899 1349T919 1298V1168Q919 1132 899 1118T824
1103Q769 1103 749 1117T729 1168V1298Q729 1334 749 1348T824 1363Q879 1363 899 1349Z" />
<glyph unicode="&#xa9;" glyph-name="copyright" d="M781 1209T912 1128T1118 905T1192 594Q1192 424 1118 283T912 60T614 -22Q448 -22 316 60T110 283T36 594Q36 764 110 905T315 1127T614 1209Q781 1209 912 1128ZM481 1089T377 1025T216 849T158 594Q158 452
215 339T377 162T614 98Q747 98 851 162T1012 339T1070 594Q1070 736 1013 848T851 1025T614 1089Q481 1089 377 1025ZM674 937T720 927T809 897Q830 887 840 875T850 844Q850 828 843 811Q827 771 799 771Q787 771 769 779Q732 796 700 803T629 811Q550 811 499
755T448 593Q448 488 499 432T629 375Q667 375 699 382T769 407Q787 415 799 415Q827 415 843 375Q850 358 850 342Q850 324 840 312T809 289Q767 270 721 260T629 249Q538 249 467 290T355 409T315 593Q315 699 355 776T466 895T629 937Q674 937 720 927Z" />
<glyph unicode="&#xaa;" glyph-name="ordfeminine" d="M766 1209T841 1143T917 954V657Q917 627 929 615T967 602H984Q1010 602 1021 588T1033 541Q1033 510 1022 497T984 483H935Q885 483 846 506T794 574Q665 465 512 465Q434 465 373 490T277 566T242 687Q242
809 327 868T548 927Q680 927 782 899V950Q782 1012 743 1046T622 1080Q564 1080 497 1065T368 1024Q359 1020 349 1020Q316 1020 300 1065Q293 1085 293 1102Q293 1135 324 1148Q391 1177 469 1193T622 1209Q766 1209 841 1143ZM383 801T383 690Q383 642 418 616T516
590Q663 590 782 707V776Q673 801 559 801Q383 801 383 690Z" />
<glyph unicode="&#xab;" glyph-name="guillemotleft" d="M480 946T500 946Q528 946 560 918Q591 891 591 867Q591 851 577 835L331 564L577 293Q591 277 591 261Q591 237 560 210Q528 182 500 182Q480 182 468 197L162 540Q153 551 153 564Q153 579 162 588L468
931Q480 946 500 946ZM960 946T980 946Q1008 946 1040 918Q1071 891 1071 867Q1071 851 1057 835L811 564L1057 293Q1071 277 1071 261Q1071 237 1040 210Q1008 182 980 182Q960 182 948 197L642 540Q633 551 633 564Q633 579 642 588L948 931Q960 946 980 946Z"
/>
<glyph unicode="&#xac;" glyph-name="logicalnot" d="M1049 845T1063 830T1078 777V383Q1078 348 1061 333T1003 318Q962 318 945 333T928 383V709H203Q169 709 155 724T140 777Q140 814 154 829T203 845H1015Q1049 845 1063 830Z" />
<glyph unicode="&#xad;" glyph-name="uni00AD" d="M979 509T993 494T1008 441Q1008 404 994 389T945 373H283Q249 373 235 388T220 441Q220 478 234 493T283 509H945Q979 509 993 494Z" />
<glyph unicode="&#xae;" glyph-name="registered" d="M753 1334T863 1266T1034 1081T1096 822Q1096 680 1035 563T863 377T614 308Q475 308 365 376T194 562T132 822Q132 964 193 1081T365 1266T614 1334Q753 1334 863 1266ZM503 1234T417 1181T282 1034T234 822Q234
703 282 609T416 462T614 408Q725 408 811 461T946 609T994 822Q994 940 946 1034T812 1181T614 1234Q503 1234 417 1181ZM694 1091T740 1068T810 1002T835 906Q835 844 804 801T714 738L803 642Q825 618 825 598Q825 580 807 563Q790 547 771 547Q749 547 732
567L601 718H527V606Q527 577 515 565T474 552Q446 552 435 564T423 606V1038Q423 1066 436 1078T477 1091H633Q694 1091 740 1068ZM527 816H615Q671 816 699 839T727 906Q727 947 701 970T622 993H527V816Z" />
<glyph unicode="&#xaf;" glyph-name="overscore" d="M909 1250T923 1234T938 1178Q938 1139 924 1123T875 1106H353Q319 1106 305 1122T290 1178Q290 1217 304 1233T353 1250H875Q909 1250 923 1234Z" />
<glyph unicode="&#xb0;" glyph-name="degree" d="M602 1209T666 1172T768 1070T806 929Q806 853 769 789T667 687T526 649Q450 649 386 686T284 788T246 929Q246 1005 283 1069T385 1171T526 1209Q602 1209 666 1172ZM487 1074T454 1055T401 1002T381 929Q381
890 400 857T453 804T526 784Q565 784 598 803T651 856T671 929Q671 968 652 1001T599 1054T526 1074Q487 1074 454 1055Z" />
<glyph unicode="&#xb1;" glyph-name="plusminus" d="M651 1126T666 1112T682 1063V810H995Q1029 810 1043 795T1058 742Q1058 705 1044 690T995 674H682V421Q682 387 667 373T614 358Q577 358 562 372T546 421V674H233Q199 674 185 689T170 742Q170 779 184 794T233
810H546V1063Q546 1097 561 1111T614 1126Q651 1126 666 1112ZM1029 250T1043 235T1058 182Q1058 145 1044 130T995 114H233Q199 114 185 129T170 182Q170 219 184 234T233 250H995Q1029 250 1043 235Z" />
<glyph unicode="&#xb2;" glyph-name="uni00B2" d="M704 1334T768 1303T867 1213T901 1078Q901 1001 862 939T738 806L499 608H821V686Q821 712 837 724T889 737Q925 737 940 725T956 686V536Q956 510 943 497T906 483H335Q288 483 288 555Q288 594 319 620L651
900Q708 949 734 989T761 1078Q761 1136 721 1170T607 1205Q565 1205 523 1195T446 1166V1063Q446 1037 430 1025T378 1012Q342 1012 327 1024T311 1063V1210Q311 1237 332 1252Q391 1291 467 1312T616 1334Q704 1334 768 1303Z" />
<glyph unicode="&#xb3;" glyph-name="uni00B3" d="M694 1334T761 1304T863 1220T899 1096Q899 975 787 915Q853 893 889 843T926 719Q926 600 845 533T605 465Q531 465 457 481T324 530Q302 542 302 569Q302 586 310 607Q328 654 359 654Q369 654 378 650Q429
624 486 609T598 594Q688 594 737 626T786 720Q786 786 739 813T602 840H550Q506 840 506 902Q506 930 516 947T550 965H589Q673 965 716 994T759 1086Q759 1144 715 1174T593 1205Q514 1205 446 1176V1113Q446 1087 430 1075T378 1062Q342 1062 327 1074T311 1113V1223Q311
1252 332 1265Q389 1299 461 1316T604 1334Q694 1334 761 1304Z" />
<glyph unicode="&#xb4;" glyph-name="acute" d="M799 1415T818 1415Q852 1415 885 1374Q915 1335 915 1306Q915 1280 893 1267L519 1048Q501 1038 487 1038Q463 1038 441 1063Q417 1090 417 1115Q417 1134 433 1146L781 1402Q799 1415 818 1415Z" />
<glyph unicode="&#xb5;" glyph-name="uni00B5" d="M987 934T1003 919T1020 869V55Q1020 20 1005 5T951 -10H949Q910 -10 895 5T880 55V198Q817 100 727 39T535 -22Q435 -22 368 25V-333Q368 -368 352 -383T294 -398H292Q251 -398 235 -383T218 -333V869Q218 904
234 919T292 934H294Q335 934 351 919T368 869V319Q368 229 412 178T550 126Q626 126 700 177T822 314T870 502V869Q870 904 886 919T944 934H946Q987 934 1003 919Z" />
<glyph unicode="&#xb6;" glyph-name="paragraph" d="M1088 1187T1102 1172T1117 1119Q1117 1082 1103 1067T1054 1051H986V-345Q986 -380 969 -395T911 -410Q870 -410 853 -395T836 -345V1051H676V-345Q676 -380 659 -395T601 -410Q560 -410 543 -395T526 -345V502Q409
506 320 547T181 665T131 844Q131 950 183 1027T330 1146T548 1187H1054Q1088 1187 1102 1172Z" />
<glyph unicode="&#xb7;" glyph-name="middot" d="M686 735T717 721T749 672V488Q749 454 718 440T614 425Q542 425 511 439T479 488V672Q479 706 510 720T614 735Q686 735 717 721Z" />
<glyph unicode="&#xb8;" glyph-name="cedilla" d="M764 -112T815 -159T866 -281Q866 -368 804 -420T621 -472Q553 -472 489 -460T374 -424Q351 -414 351 -389Q351 -375 359 -354Q376 -309 405 -309Q413 -309 418 -311Q461 -327 512 -338T611 -349Q662 -349 691
-333T720 -285Q720 -252 693 -236T604 -220L565 -221Q550 -221 541 -211T531 -177V28H663V-113Q764 -112 815 -159Z" />
<glyph unicode="&#xb9;" glyph-name="uni00B9" d="M923 608T935 594T947 546Q947 513 935 498T898 483H365Q315 483 315 546Q315 579 327 593T365 608H569V1159L400 1071Q382 1062 369 1062Q344 1062 323 1096Q308 1123 308 1139Q308 1163 335 1176L636 1328Q652
1335 662 1335Q680 1335 692 1324T704 1292V608H898Q923 608 935 594Z" />
<glyph unicode="&#xba;" glyph-name="ordmasculine" d="M721 1209T807 1161T943 1028T993 837Q993 730 944 646T808 513T614 465Q507 465 421 513T285 645T235 837Q235 943 284 1028T420 1161T614 1209Q721 1209 807 1161ZM544 1077T490 1046T405 961T375 837Q375
768 405 713T489 628T614 597Q685 597 739 627T823 712T853 837Q853 906 823 960T739 1046T614 1077Q544 1077 490 1046Z" />
<glyph unicode="&#xbb;" glyph-name="guillemotright" d="M595 579T595 564Q595 551 586 540L280 197Q268 182 248 182Q220 182 188 210Q157 237 157 261Q157 277 171 293L417 564L171 835Q157 851 157 867Q157 891 188 918Q220 946 248 946Q268 946 280 931L586
588Q595 579 595 564ZM1075 579T1075 564Q1075 551 1066 540L760 197Q748 182 728 182Q700 182 668 210Q637 237 637 261Q637 277 651 293L897 564L651 835Q637 851 637 867Q637 891 668 918Q700 946 728 946Q748 946 760 931L1066 588Q1075 579 1075 564Z" />
<glyph unicode="&#xbc;" glyph-name="onequarter" d="M529 708T519 696T488 683H43Q1 683 1 736Q1 788 43 788H213V1248L72 1174Q58 1167 46 1167Q23 1167 8 1195Q-5 1216 -5 1231Q-5 1251 18 1262L269 1389Q278 1394 291 1394Q306 1394 316 1385T326 1359V788H488Q509
788 519 776T529 736Q529 708 519 696ZM1117 798T1117 778Q1117 759 1103 751L185 190Q178 186 169 186Q146 186 125 214Q111 234 111 252Q111 270 125 279L1043 840Q1050 844 1059 844Q1082 844 1103 816Q1117 798 1117 778ZM1213 76T1223 64T1233 24Q1233 -4
1223 -16T1193 -29H1102V-182Q1102 -202 1089 -212T1046 -222Q1016 -222 1003 -212T989 -182V-29H675Q655 -29 643 -13T630 36Q630 51 633 60T644 81L961 458Q976 477 991 486T1028 495Q1057 495 1079 482T1102 448V76H1193Q1213 76 1223 64ZM989 76L994 342L773
76H989Z" />
<glyph unicode="&#xbd;" glyph-name="onehalf" d="M529 708T519 696T488 683H43Q1 683 1 736Q1 788 43 788H213V1248L72 1174Q58 1167 46 1167Q23 1167 8 1195Q-5 1216 -5 1231Q-5 1251 18 1262L269 1389Q278 1394 291 1394Q306 1394 316 1385T326 1359V788H488Q509
788 519 776T529 736Q529 708 519 696ZM1117 848T1117 828Q1117 809 1103 801L185 240Q178 236 169 236Q146 236 125 264Q111 284 111 302Q111 320 125 329L1043 890Q1050 894 1059 894Q1082 894 1103 866Q1117 848 1117 828ZM1201 -4T1214 -14T1227 -46V-171Q1227
-216 1186 -216H709Q669 -216 669 -156Q669 -124 695 -101L973 132Q1021 172 1042 206T1064 281Q1064 330 1031 358T936 387Q900 387 865 379T801 355V269Q801 247 788 237T745 226Q715 226 702 236T689 269V391Q689 415 706 426Q755 459 818 477T943 495Q1054
495 1117 437T1181 281Q1181 217 1148 164T1045 54L846 -111H1115V-46Q1115 -25 1128 -15T1171 -4Q1201 -4 1214 -14Z" />
<glyph unicode="&#xbe;" glyph-name="threequarters" d="M348 1395T403 1370T489 1300T519 1196Q519 1096 425 1045Q480 1026 510 985T541 881Q541 782 473 726T273 669Q212 669 150 683T39 724Q20 734 20 756Q20 769 27 788Q41 827 68 827Q75 827 84 824Q126
802 174 790T267 777Q342 777 383 804T424 882Q424 937 385 959T271 982H227Q191 982 191 1034Q191 1058 200 1072T227 1087H260Q330 1087 366 1111T402 1188Q402 1237 365 1262T263 1287Q196 1287 140 1263V1210Q140 1189 127 1179T84 1168Q54 1168 41 1178T28
1210V1302Q28 1328 45 1337Q93 1366 153 1380T272 1395Q348 1395 403 1370ZM1050 854T1059 854Q1082 854 1103 826Q1117 808 1117 788Q1117 769 1103 761L185 200Q178 196 169 196Q146 196 125 224Q111 244 111 262Q111 280 125 289L1043 850Q1050 854 1059 854ZM1057
495T1079 482T1102 448V76H1193Q1213 76 1223 64T1233 24Q1233 -4 1223 -16T1193 -29H1102V-182Q1102 -202 1089 -212T1046 -222Q1016 -222 1003 -212T989 -182V-29H675Q655 -29 643 -13T630 36Q630 51 633 60T644 81L961 458Q976 477 991 486T1028 495Q1057 495
1079 482ZM773 76H989L994 342L773 76Z" />
<glyph unicode="&#xbf;" glyph-name="questiondown" d="M593 694T566 708T539 757V871Q539 905 566 919T654 934Q715 934 742 920T769 871V757Q769 723 742 709T654 694Q593 694 566 708ZM502 -345T424 -306T304 -196T262 -32Q262 54 296 115T398 222T575 313L588
457Q593 505 654 505Q717 505 720 457L733 259Q735 239 728 227T703 208L634 180Q554 147 508 118T439 53T416 -32Q416 -107 466 -152T609 -197Q736 -197 824 -160V-71Q824 -36 841 -21T899 -6Q940 -6 957 -21T974 -71V-198Q974 -219 968 -232T949 -254Q798 -345
610 -345Q502 -345 424 -306Z" />
<glyph unicode="&#xc0;" glyph-name="Agrave" d="M680 1187T704 1172T741 1122L1094 136H1155Q1189 136 1203 121T1218 68Q1218 31 1204 16T1155 0H801Q767 0 753 15T738 68Q738 105 752 120T801 136H936L854 374H369L286 136H407Q441 136 455 121T470 68Q470
31 456 16T407 0H73Q39 0 25 15T10 68Q10 105 24 120T73 136H129L460 1051H273Q239 1051 225 1066T210 1119Q210 1156 224 1171T273 1187H640Q680 1187 704 1172ZM603 1051L416 510H808L622 1051H603ZM773 1404T773 1385Q773 1360 749 1333Q727 1308 703 1308Q689
1308 671 1318L297 1537Q275 1550 275 1576Q275 1605 305 1644Q338 1685 372 1685Q391 1685 409 1672L757 1416Q773 1404 773 1385Z" />
<glyph unicode="&#xc1;" glyph-name="Aacute" d="M680 1187T704 1172T741 1122L1094 136H1155Q1189 136 1203 121T1218 68Q1218 31 1204 16T1155 0H801Q767 0 753 15T738 68Q738 105 752 120T801 136H936L854 374H369L286 136H407Q441 136 455 121T470 68Q470
31 456 16T407 0H73Q39 0 25 15T10 68Q10 105 24 120T73 136H129L460 1051H273Q239 1051 225 1066T210 1119Q210 1156 224 1171T273 1187H640Q680 1187 704 1172ZM603 1051L416 510H808L622 1051H603ZM737 1685T756 1685Q790 1685 823 1644Q853 1605 853 1576Q853
1550 831 1537L457 1318Q439 1308 425 1308Q401 1308 379 1333Q355 1360 355 1385Q355 1404 371 1416L719 1672Q737 1685 756 1685Z" />
<glyph unicode="&#xc2;" glyph-name="Acircumflex" d="M680 1187T704 1172T741 1122L1094 136H1155Q1189 136 1203 121T1218 68Q1218 31 1204 16T1155 0H801Q767 0 753 15T738 68Q738 105 752 120T801 136H936L854 374H369L286 136H407Q441 136 455 121T470 68Q470
31 456 16T407 0H73Q39 0 25 15T10 68Q10 105 24 120T73 136H129L460 1051H273Q239 1051 225 1066T210 1119Q210 1156 224 1171T273 1187H640Q680 1187 704 1172ZM603 1051L416 510H808L622 1051H603ZM630 1666T652 1646L897 1413Q913 1398 913 1380Q913 1359 890
1333Q869 1309 846 1309Q830 1309 815 1321L594 1494L373 1321Q358 1309 342 1309Q319 1309 298 1333Q275 1359 275 1380Q275 1398 291 1413L536 1646Q558 1666 594 1666Q630 1666 652 1646Z" />
<glyph unicode="&#xc3;" glyph-name="Atilde" d="M680 1187T704 1172T741 1122L1094 136H1155Q1189 136 1203 121T1218 68Q1218 31 1204 16T1155 0H801Q767 0 753 15T738 68Q738 105 752 120T801 136H936L854 374H369L286 136H407Q441 136 455 121T470 68Q470
31 456 16T407 0H73Q39 0 25 15T10 68Q10 105 24 120T73 136H129L460 1051H273Q239 1051 225 1066T210 1119Q210 1156 224 1171T273 1187H640Q680 1187 704 1172ZM603 1051L416 510H808L622 1051H603ZM489 1585T517 1576T586 1548Q621 1531 645 1523T695 1515Q727
1515 757 1532T821 1583Q833 1595 850 1595Q875 1595 897 1570Q918 1548 918 1525Q918 1506 904 1489Q856 1427 802 1397T694 1366Q659 1366 631 1375T562 1403Q527 1420 503 1428T453 1436Q421 1436 391 1419T327 1368Q315 1356 298 1356Q273 1356 251 1381Q230
1403 230 1426Q230 1445 244 1462Q292 1524 346 1554T454 1585Q489 1585 517 1576Z" />
<glyph unicode="&#xc4;" glyph-name="Adieresis" d="M680 1187T704 1172T741 1122L1094 136H1155Q1189 136 1203 121T1218 68Q1218 31 1204 16T1155 0H801Q767 0 753 15T738 68Q738 105 752 120T801 136H936L854 374H369L286 136H407Q441 136 455 121T470 68Q470
31 456 16T407 0H73Q39 0 25 15T10 68Q10 105 24 120T73 136H129L460 1051H273Q239 1051 225 1066T210 1119Q210 1156 224 1171T273 1187H640Q680 1187 704 1172ZM603 1051L416 510H808L622 1051H603ZM439 1633T459 1619T479 1568V1438Q479 1402 459 1388T384 1373Q329
1373 309 1387T289 1438V1568Q289 1604 309 1618T384 1633Q439 1633 459 1619ZM859 1633T879 1619T899 1568V1438Q899 1402 879 1388T804 1373Q749 1373 729 1387T709 1438V1568Q709 1604 729 1618T804 1633Q859 1633 879 1619Z" />
<glyph unicode="&#xc5;" glyph-name="Aring" d="M680 1187T704 1172T741 1122L1094 136H1155Q1189 136 1203 121T1218 68Q1218 31 1204 16T1155 0H801Q767 0 753 15T738 68Q738 105 752 120T801 136H936L854 374H369L286 136H407Q441 136 455 121T470 68Q470 31
456 16T407 0H73Q39 0 25 15T10 68Q10 105 24 120T73 136H129L460 1051H273Q239 1051 225 1066T210 1119Q210 1156 224 1171T273 1187H640Q680 1187 704 1172ZM603 1051L416 510H808L622 1051H603ZM643 1827T699 1795T788 1707T820 1581Q820 1512 788 1456T700
1367T574 1335Q505 1335 449 1367T360 1455T328 1581Q328 1650 360 1706T448 1795T574 1827Q643 1827 699 1795ZM522 1695T491 1664T460 1581Q460 1529 491 1498T574 1467Q626 1467 657 1498T688 1581Q688 1633 657 1664T574 1695Q522 1695 491 1664Z" />
<glyph unicode="&#xc6;" glyph-name="AE" d="M1097 1187T1111 1172T1126 1119V865Q1126 830 1109 815T1051 800Q1010 800 993 815T976 865V1051H716V685H908Q942 685 956 670T971 617Q971 580 957 565T908 549H716V136H988V365Q988 400 1005 415T1063 430Q1104
430 1121 415T1138 365V68Q1138 31 1124 16T1075 0H629Q595 0 581 15T566 68V374H341L269 136H357Q391 136 405 121T420 68Q420 31 406 16T357 0H63Q29 0 15 15T0 68Q0 105 14 120T63 136H113L393 1051H294Q260 1051 246 1066T231 1119Q231 1156 245 1171T294 1187H1063Q1097
1187 1111 1172ZM546 1051L382 510H566V1051H546Z" />
<glyph unicode="&#xc7;" glyph-name="Ccedilla" d="M1093 184T1093 161Q1093 131 1062 109Q900 -4 693 -20V-113Q794 -112 845 -159T896 -281Q896 -368 834 -420T651 -472Q583 -472 519 -460T404 -424Q381 -414 381 -389Q381 -375 389 -354Q406 -309 435 -309Q443
-309 448 -311Q491 -327 542 -338T641 -349Q692 -349 721 -333T750 -285Q750 -252 723 -236T634 -220L595 -221Q580 -221 571 -211T561 -177V-17Q426 0 326 80T172 292T118 593Q118 776 183 915T365 1132T634 1209Q728 1209 801 1177T924 1086V1144Q924 1179 941
1194T999 1209Q1040 1209 1057 1194T1074 1144V814Q1074 779 1057 764T999 749Q958 749 941 764T924 814Q924 882 894 938T800 1027T644 1061Q536 1061 453 1004T323 841T276 593Q276 451 320 346T445 183T634 126Q733 126 823 155T985 239Q1002 253 1022 253Q1052
253 1075 214Q1093 184 1093 161Z" />
<glyph unicode="&#xc8;" glyph-name="Egrave" d="M1066 430T1083 415T1100 365V68Q1100 31 1086 16T1037 0H143Q109 0 95 15T80 68Q80 105 94 120T143 136H245V1051H143Q109 1051 95 1066T80 1119Q80 1156 94 1171T143 1187H1017Q1051 1187 1065 1172T1080 1119V865Q1080
830 1063 815T1005 800Q964 800 947 815T930 865V1051H395V680H653V771Q653 806 668 821T724 836Q764 836 779 821T795 771V453Q795 418 780 403T724 388Q684 388 669 403T653 453V544H395V136H950V365Q950 400 967 415T1025 430Q1066 430 1083 415ZM843 1404T843
1385Q843 1360 819 1333Q797 1308 773 1308Q759 1308 741 1318L367 1537Q345 1550 345 1576Q345 1605 375 1644Q408 1685 442 1685Q461 1685 479 1672L827 1416Q843 1404 843 1385Z" />
<glyph unicode="&#xc9;" glyph-name="Eacute" d="M1066 430T1083 415T1100 365V68Q1100 31 1086 16T1037 0H143Q109 0 95 15T80 68Q80 105 94 120T143 136H245V1051H143Q109 1051 95 1066T80 1119Q80 1156 94 1171T143 1187H1017Q1051 1187 1065 1172T1080 1119V865Q1080
830 1063 815T1005 800Q964 800 947 815T930 865V1051H395V680H653V771Q653 806 668 821T724 836Q764 836 779 821T795 771V453Q795 418 780 403T724 388Q684 388 669 403T653 453V544H395V136H950V365Q950 400 967 415T1025 430Q1066 430 1083 415ZM767 1685T786
1685Q820 1685 853 1644Q883 1605 883 1576Q883 1550 861 1537L487 1318Q469 1308 455 1308Q431 1308 409 1333Q385 1360 385 1385Q385 1404 401 1416L749 1672Q767 1685 786 1685Z" />
<glyph unicode="&#xca;" glyph-name="Ecircumflex" d="M1066 430T1083 415T1100 365V68Q1100 31 1086 16T1037 0H143Q109 0 95 15T80 68Q80 105 94 120T143 136H245V1051H143Q109 1051 95 1066T80 1119Q80 1156 94 1171T143 1187H1017Q1051 1187 1065 1172T1080
1119V865Q1080 830 1063 815T1005 800Q964 800 947 815T930 865V1051H395V680H653V771Q653 806 668 821T724 836Q764 836 779 821T795 771V453Q795 418 780 403T724 388Q684 388 669 403T653 453V544H395V136H950V365Q950 400 967 415T1025 430Q1066 430 1083 415ZM680
1666T702 1646L947 1413Q963 1398 963 1380Q963 1359 940 1333Q919 1309 896 1309Q880 1309 865 1321L644 1494L423 1321Q408 1309 392 1309Q369 1309 348 1333Q325 1359 325 1380Q325 1398 341 1413L586 1646Q608 1666 644 1666Q680 1666 702 1646Z" />
<glyph unicode="&#xcb;" glyph-name="Edieresis" d="M1066 430T1083 415T1100 365V68Q1100 31 1086 16T1037 0H143Q109 0 95 15T80 68Q80 105 94 120T143 136H245V1051H143Q109 1051 95 1066T80 1119Q80 1156 94 1171T143 1187H1017Q1051 1187 1065 1172T1080
1119V865Q1080 830 1063 815T1005 800Q964 800 947 815T930 865V1051H395V680H653V771Q653 806 668 821T724 836Q764 836 779 821T795 771V453Q795 418 780 403T724 388Q684 388 669 403T653 453V544H395V136H950V365Q950 400 967 415T1025 430Q1066 430 1083 415ZM489
1633T509 1619T529 1568V1438Q529 1402 509 1388T434 1373Q379 1373 359 1387T339 1438V1568Q339 1604 359 1618T434 1633Q489 1633 509 1619ZM909 1633T929 1619T949 1568V1438Q949 1402 929 1388T854 1373Q799 1373 779 1387T759 1438V1568Q759 1604 779 1618T854
1633Q909 1633 929 1619Z" />
<glyph unicode="&#xcc;" glyph-name="Igrave" d="M979 1187T993 1172T1008 1119Q1008 1082 994 1067T945 1051H689V136H965Q999 136 1013 121T1028 68Q1028 31 1014 16T965 0H263Q229 0 215 15T200 68Q200 105 214 120T263 136H539V1051H283Q249 1051 235 1066T220
1119Q220 1156 234 1171T283 1187H945Q979 1187 993 1172ZM811 1404T811 1385Q811 1360 787 1333Q765 1308 741 1308Q727 1308 709 1318L335 1537Q313 1550 313 1576Q313 1605 343 1644Q376 1685 410 1685Q429 1685 447 1672L795 1416Q811 1404 811 1385Z" />
<glyph unicode="&#xcd;" glyph-name="Iacute" d="M979 1187T993 1172T1008 1119Q1008 1082 994 1067T945 1051H689V136H965Q999 136 1013 121T1028 68Q1028 31 1014 16T965 0H263Q229 0 215 15T200 68Q200 105 214 120T263 136H539V1051H283Q249 1051 235 1066T220
1119Q220 1156 234 1171T283 1187H945Q979 1187 993 1172ZM799 1685T818 1685Q852 1685 885 1644Q915 1605 915 1576Q915 1550 893 1537L519 1318Q501 1308 487 1308Q463 1308 441 1333Q417 1360 417 1385Q417 1404 433 1416L781 1672Q799 1685 818 1685Z" />
<glyph unicode="&#xce;" glyph-name="Icircumflex" d="M979 1187T993 1172T1008 1119Q1008 1082 994 1067T945 1051H689V136H965Q999 136 1013 121T1028 68Q1028 31 1014 16T965 0H263Q229 0 215 15T200 68Q200 105 214 120T263 136H539V1051H283Q249 1051 235
1066T220 1119Q220 1156 234 1171T283 1187H945Q979 1187 993 1172ZM650 1666T672 1646L917 1413Q933 1398 933 1380Q933 1359 910 1333Q889 1309 866 1309Q850 1309 835 1321L614 1494L393 1321Q378 1309 362 1309Q339 1309 318 1333Q295 1359 295 1380Q295 1398
311 1413L556 1646Q578 1666 614 1666Q650 1666 672 1646Z" />
<glyph unicode="&#xcf;" glyph-name="Idieresis" d="M979 1187T993 1172T1008 1119Q1008 1082 994 1067T945 1051H689V136H965Q999 136 1013 121T1028 68Q1028 31 1014 16T965 0H263Q229 0 215 15T200 68Q200 105 214 120T263 136H539V1051H283Q249 1051 235 1066T220
1119Q220 1156 234 1171T283 1187H945Q979 1187 993 1172ZM459 1633T479 1619T499 1568V1438Q499 1402 479 1388T404 1373Q349 1373 329 1387T309 1438V1568Q309 1604 329 1618T404 1633Q459 1633 479 1619ZM879 1633T899 1619T919 1568V1438Q919 1402 899 1388T824
1373Q769 1373 749 1387T729 1438V1568Q729 1604 749 1618T824 1633Q879 1633 899 1619Z" />
<glyph unicode="&#xd0;" glyph-name="Eth" d="M771 1187T890 1116T1074 910T1140 593Q1140 411 1075 277T890 72T614 0H143Q109 0 95 15T80 68Q80 105 94 120T143 136H255V544H113Q79 544 65 559T50 612Q50 649 64 664T113 680H255V1051H143Q109 1051 95 1066T80
1119Q80 1156 94 1171T143 1187H614Q771 1187 890 1116ZM710 136T798 188T934 343T982 593Q982 740 934 842T798 998T591 1051H405V680H595Q629 680 643 665T658 612Q658 575 644 560T595 544H405V136H591Q710 136 798 188Z" />
<glyph unicode="&#xd1;" glyph-name="Ntilde" d="M1129 1187T1143 1172T1158 1119Q1158 1082 1144 1067T1095 1051H1038V37Q1038 10 1020 -6T963 -22Q910 -22 879 33L360 960H356V136H497Q531 136 545 121T560 68Q560 31 546 16T497 0H143Q109 0 95 15T80 68Q80
105 94 120T143 136H210V1051H133Q99 1051 85 1066T70 1119Q70 1156 84 1171T133 1187H357Q379 1187 392 1180T414 1159L888 311H892V1051H771Q737 1051 723 1066T708 1119Q708 1156 722 1171T771 1187H1095Q1129 1187 1143 1172ZM529 1585T557 1576T626 1548Q661
1531 685 1523T735 1515Q767 1515 797 1532T861 1583Q873 1595 890 1595Q915 1595 937 1570Q958 1548 958 1525Q958 1506 944 1489Q896 1427 842 1397T734 1366Q699 1366 671 1375T602 1403Q567 1420 543 1428T493 1436Q461 1436 431 1419T367 1368Q355 1356 338
1356Q313 1356 291 1381Q270 1403 270 1426Q270 1445 284 1462Q332 1524 386 1554T494 1585Q529 1585 557 1576Z" />
<glyph unicode="&#xd2;" glyph-name="Ograve" d="M770 1209T889 1132T1074 916T1140 593Q1140 410 1075 271T890 55T614 -22Q458 -22 339 54T154 270T88 593Q88 776 153 915T338 1132T614 1209Q770 1209 889 1132ZM504 1061T421 1004T292 841T246 593Q246 451
291 346T420 183T614 126Q724 126 807 183T936 345T982 593Q982 735 937 841T808 1004T614 1061Q504 1061 421 1004ZM833 1404T833 1385Q833 1360 809 1333Q787 1308 763 1308Q749 1308 731 1318L357 1537Q335 1550 335 1576Q335 1605 365 1644Q398 1685 432 1685Q451
1685 469 1672L817 1416Q833 1404 833 1385Z" />
<glyph unicode="&#xd3;" glyph-name="Oacute" d="M770 1209T889 1132T1074 916T1140 593Q1140 410 1075 271T890 55T614 -22Q458 -22 339 54T154 270T88 593Q88 776 153 915T338 1132T614 1209Q770 1209 889 1132ZM504 1061T421 1004T292 841T246 593Q246 451
291 346T420 183T614 126Q724 126 807 183T936 345T982 593Q982 735 937 841T808 1004T614 1061Q504 1061 421 1004ZM777 1685T796 1685Q830 1685 863 1644Q893 1605 893 1576Q893 1550 871 1537L497 1318Q479 1308 465 1308Q441 1308 419 1333Q395 1360 395 1385Q395
1404 411 1416L759 1672Q777 1685 796 1685Z" />
<glyph unicode="&#xd4;" glyph-name="Ocircumflex" d="M770 1209T889 1132T1074 916T1140 593Q1140 410 1075 271T890 55T614 -22Q458 -22 339 54T154 270T88 593Q88 776 153 915T338 1132T614 1209Q770 1209 889 1132ZM504 1061T421 1004T292 841T246 593Q246
451 291 346T420 183T614 126Q724 126 807 183T936 345T982 593Q982 735 937 841T808 1004T614 1061Q504 1061 421 1004ZM650 1666T672 1646L917 1413Q933 1398 933 1380Q933 1359 910 1333Q889 1309 866 1309Q850 1309 835 1321L614 1494L393 1321Q378 1309 362
1309Q339 1309 318 1333Q295 1359 295 1380Q295 1398 311 1413L556 1646Q578 1666 614 1666Q650 1666 672 1646Z" />
<glyph unicode="&#xd5;" glyph-name="Otilde" d="M770 1209T889 1132T1074 916T1140 593Q1140 410 1075 271T890 55T614 -22Q458 -22 339 54T154 270T88 593Q88 776 153 915T338 1132T614 1209Q770 1209 889 1132ZM504 1061T421 1004T292 841T246 593Q246 451
291 346T420 183T614 126Q724 126 807 183T936 345T982 593Q982 735 937 841T808 1004T614 1061Q504 1061 421 1004ZM529 1585T557 1576T626 1548Q661 1531 685 1523T735 1515Q767 1515 797 1532T861 1583Q873 1595 890 1595Q915 1595 937 1570Q958 1548 958 1525Q958
1506 944 1489Q896 1427 842 1397T734 1366Q699 1366 671 1375T602 1403Q567 1420 543 1428T493 1436Q461 1436 431 1419T367 1368Q355 1356 338 1356Q313 1356 291 1381Q270 1403 270 1426Q270 1445 284 1462Q332 1524 386 1554T494 1585Q529 1585 557 1576Z"
/>
<glyph unicode="&#xd6;" glyph-name="Odieresis" d="M770 1209T889 1132T1074 916T1140 593Q1140 410 1075 271T890 55T614 -22Q458 -22 339 54T154 270T88 593Q88 776 153 915T338 1132T614 1209Q770 1209 889 1132ZM504 1061T421 1004T292 841T246 593Q246 451
291 346T420 183T614 126Q724 126 807 183T936 345T982 593Q982 735 937 841T808 1004T614 1061Q504 1061 421 1004ZM459 1633T479 1619T499 1568V1438Q499 1402 479 1388T404 1373Q349 1373 329 1387T309 1438V1568Q309 1604 329 1618T404 1633Q459 1633 479 1619ZM879
1633T899 1619T919 1568V1438Q919 1402 899 1388T824 1373Q769 1373 749 1387T729 1438V1568Q729 1604 749 1618T824 1633Q879 1633 899 1619Z" />
<glyph unicode="&#xd7;" glyph-name="multiply" d="M899 963T919 963Q941 963 968 936Q995 909 995 887Q995 867 971 843L710 582L971 321Q995 297 995 277Q995 255 968 228Q941 201 919 201Q899 201 875 225L614 486L353 225Q329 201 309 201Q287 201 260 228Q233
255 233 277Q233 297 257 321L518 582L257 843Q233 867 233 887Q233 909 260 936Q287 963 309 963Q329 963 353 939L614 678L875 939Q899 963 919 963Z" />
<glyph unicode="&#xd8;" glyph-name="Oslash" d="M1106 1227T1106 1200Q1106 1182 1091 1159L1002 1031Q1069 950 1104 839T1140 593Q1140 410 1075 271T890 55T614 -22Q452 -22 329 61L252 -50Q229 -82 205 -82Q187 -82 158 -63Q121 -38 121 -11Q121 6 137 30L225
156Q159 237 124 348T88 593Q88 776 153 915T338 1132T614 1209Q776 1209 898 1127L976 1239Q999 1271 1024 1271Q1043 1271 1071 1252Q1106 1227 1106 1200ZM504 1061T421 1004T292 841T246 593Q246 412 319 292L811 1002Q726 1061 614 1061Q504 1061 421 1004ZM501
126T614 126Q724 126 807 183T936 345T982 593Q982 776 908 896L416 186Q501 126 614 126Z" />
<glyph unicode="&#xd9;" glyph-name="Ugrave" d="M1129 1187T1143 1172T1158 1119Q1158 1082 1144 1067T1095 1051H1033V393Q1033 184 924 81T614 -22Q414 -22 305 81T195 393V1051H133Q99 1051 85 1066T70 1119Q70 1156 84 1171T133 1187H457Q491 1187 505 1172T520
1119Q520 1082 506 1067T457 1051H345V413Q345 260 410 193T614 126Q753 126 818 193T883 413V1051H771Q737 1051 723 1066T708 1119Q708 1156 722 1171T771 1187H1095Q1129 1187 1143 1172ZM811 1404T811 1385Q811 1360 787 1333Q765 1308 741 1308Q727 1308 709
1318L335 1537Q313 1550 313 1576Q313 1605 343 1644Q376 1685 410 1685Q429 1685 447 1672L795 1416Q811 1404 811 1385Z" />
<glyph unicode="&#xda;" glyph-name="Uacute" d="M1129 1187T1143 1172T1158 1119Q1158 1082 1144 1067T1095 1051H1033V393Q1033 184 924 81T614 -22Q414 -22 305 81T195 393V1051H133Q99 1051 85 1066T70 1119Q70 1156 84 1171T133 1187H457Q491 1187 505 1172T520
1119Q520 1082 506 1067T457 1051H345V413Q345 260 410 193T614 126Q753 126 818 193T883 413V1051H771Q737 1051 723 1066T708 1119Q708 1156 722 1171T771 1187H1095Q1129 1187 1143 1172ZM799 1685T818 1685Q852 1685 885 1644Q915 1605 915 1576Q915 1550 893
1537L519 1318Q501 1308 487 1308Q463 1308 441 1333Q417 1360 417 1385Q417 1404 433 1416L781 1672Q799 1685 818 1685Z" />
<glyph unicode="&#xdb;" glyph-name="Ucircumflex" d="M1129 1187T1143 1172T1158 1119Q1158 1082 1144 1067T1095 1051H1033V393Q1033 184 924 81T614 -22Q414 -22 305 81T195 393V1051H133Q99 1051 85 1066T70 1119Q70 1156 84 1171T133 1187H457Q491 1187 505
1172T520 1119Q520 1082 506 1067T457 1051H345V413Q345 260 410 193T614 126Q753 126 818 193T883 413V1051H771Q737 1051 723 1066T708 1119Q708 1156 722 1171T771 1187H1095Q1129 1187 1143 1172ZM650 1666T672 1646L917 1413Q933 1398 933 1380Q933 1359 910
1333Q889 1309 866 1309Q850 1309 835 1321L614 1494L393 1321Q378 1309 362 1309Q339 1309 318 1333Q295 1359 295 1380Q295 1398 311 1413L556 1646Q578 1666 614 1666Q650 1666 672 1646Z" />
<glyph unicode="&#xdc;" glyph-name="Udieresis" d="M1129 1187T1143 1172T1158 1119Q1158 1082 1144 1067T1095 1051H1033V393Q1033 184 924 81T614 -22Q414 -22 305 81T195 393V1051H133Q99 1051 85 1066T70 1119Q70 1156 84 1171T133 1187H457Q491 1187 505
1172T520 1119Q520 1082 506 1067T457 1051H345V413Q345 260 410 193T614 126Q753 126 818 193T883 413V1051H771Q737 1051 723 1066T708 1119Q708 1156 722 1171T771 1187H1095Q1129 1187 1143 1172ZM459 1633T479 1619T499 1568V1438Q499 1402 479 1388T404 1373Q349
1373 329 1387T309 1438V1568Q309 1604 329 1618T404 1633Q459 1633 479 1619ZM879 1633T899 1619T919 1568V1438Q919 1402 899 1388T824 1373Q769 1373 749 1387T729 1438V1568Q729 1604 749 1618T824 1633Q879 1633 899 1619Z" />
<glyph unicode="&#xdd;" glyph-name="Yacute" d="M809 1685T828 1685Q862 1685 895 1644Q925 1605 925 1576Q925 1550 903 1537L529 1318Q511 1308 497 1308Q473 1308 451 1333Q427 1360 427 1385Q427 1404 443 1416L791 1672Q809 1685 828 1685ZM1139 1187T1153
1172T1168 1119Q1168 1082 1154 1067T1105 1051H1037L689 492V136H915Q949 136 963 121T978 68Q978 31 964 16T915 0H313Q279 0 265 15T250 68Q250 105 264 120T313 136H539V492L193 1051H123Q89 1051 75 1066T60 1119Q60 1156 74 1171T123 1187H457Q491 1187 505
1172T520 1119Q520 1082 506 1067T457 1051H364L614 642L866 1051H801Q767 1051 753 1066T738 1119Q738 1156 752 1171T801 1187H1105Q1139 1187 1153 1172Z" />
<glyph unicode="&#xde;" glyph-name="Thorn" d="M729 1187T743 1172T758 1119Q758 1082 744 1067T695 1051H479V927H710Q827 927 908 885T1031 768T1072 598Q1072 504 1031 431T909 315T710 273H479V136H695Q729 136 743 121T758 68Q758 31 744 16T695 0H173Q139
0 125 15T110 68Q110 105 124 120T173 136H329V1051H173Q139 1051 125 1066T110 1119Q110 1156 124 1171T173 1187H695Q729 1187 743 1172ZM479 409H689Q798 409 856 458T914 598Q914 686 858 738T689 791H479V409Z" />
<glyph unicode="&#xdf;" glyph-name="germandbls" d="M737 1317T822 1272T951 1148T994 971Q994 880 948 813T820 702Q928 661 989 572T1051 360Q1051 242 1000 156T857 24T644 -22Q594 -22 578 -6T561 55Q561 92 576 109T625 126Q751 126 822 187T893 362Q893
484 824 551T637 619Q603 619 589 635T574 688Q574 724 588 740T637 759Q735 769 786 825T838 971Q838 1065 780 1118T612 1172Q510 1172 453 1108T395 932V68Q395 31 381 16T332 0H103Q69 0 55 15T40 68Q40 105 54 120T103 136H245V943Q245 1053 289 1137T418
1269T616 1317Q737 1317 822 1272Z" />
<glyph unicode="&#xe0;" glyph-name="agrave" d="M806 946T900 862T994 613V215Q994 136 1060 136H1095Q1129 136 1143 121T1158 68Q1158 31 1144 16T1095 0H1031Q966 0 920 32T859 128Q777 56 682 17T479 -22Q378 -22 301 12T179 113T135 270Q135 428 248 503T540
579Q699 579 844 528V613Q844 710 790 755T614 801Q539 801 458 780T304 722Q287 713 273 713Q240 713 218 761Q207 785 207 801Q207 836 244 855Q328 899 424 922T618 946Q806 946 900 862ZM426 438T360 399T293 273Q293 200 343 160T485 119Q684 119 844 284V393Q776
415 698 426T541 438Q426 438 360 399ZM873 1134T873 1115Q873 1090 849 1063Q827 1038 803 1038Q789 1038 771 1048L397 1267Q375 1280 375 1306Q375 1335 405 1374Q438 1415 472 1415Q491 1415 509 1402L857 1146Q873 1134 873 1115Z" />
<glyph unicode="&#xe1;" glyph-name="aacute" d="M806 946T900 862T994 613V215Q994 136 1060 136H1095Q1129 136 1143 121T1158 68Q1158 31 1144 16T1095 0H1031Q966 0 920 32T859 128Q777 56 682 17T479 -22Q378 -22 301 12T179 113T135 270Q135 428 248 503T540
579Q699 579 844 528V613Q844 710 790 755T614 801Q539 801 458 780T304 722Q287 713 273 713Q240 713 218 761Q207 785 207 801Q207 836 244 855Q328 899 424 922T618 946Q806 946 900 862ZM426 438T360 399T293 273Q293 200 343 160T485 119Q684 119 844 284V393Q776
415 698 426T541 438Q426 438 360 399ZM993 1415T1012 1415Q1046 1415 1079 1374Q1109 1335 1109 1306Q1109 1280 1087 1267L713 1048Q695 1038 681 1038Q657 1038 635 1063Q611 1090 611 1115Q611 1134 627 1146L975 1402Q993 1415 1012 1415Z" />
<glyph unicode="&#xe2;" glyph-name="acircumflex" d="M806 946T900 862T994 613V215Q994 136 1060 136H1095Q1129 136 1143 121T1158 68Q1158 31 1144 16T1095 0H1031Q966 0 920 32T859 128Q777 56 682 17T479 -22Q378 -22 301 12T179 113T135 270Q135 428 248
503T540 579Q699 579 844 528V613Q844 710 790 755T614 801Q539 801 458 780T304 722Q287 713 273 713Q240 713 218 761Q207 785 207 801Q207 836 244 855Q328 899 424 922T618 946Q806 946 900 862ZM426 438T360 399T293 273Q293 200 343 160T485 119Q684 119
844 284V393Q776 415 698 426T541 438Q426 438 360 399ZM650 1396T672 1376L917 1143Q933 1128 933 1110Q933 1089 910 1063Q889 1039 866 1039Q850 1039 835 1051L614 1224L393 1051Q378 1039 362 1039Q339 1039 318 1063Q295 1089 295 1110Q295 1128 311 1143L556
1376Q578 1396 614 1396Q650 1396 672 1376Z" />
<glyph unicode="&#xe3;" glyph-name="atilde" d="M806 946T900 862T994 613V215Q994 136 1060 136H1095Q1129 136 1143 121T1158 68Q1158 31 1144 16T1095 0H1031Q966 0 920 32T859 128Q777 56 682 17T479 -22Q378 -22 301 12T179 113T135 270Q135 428 248 503T540
579Q699 579 844 528V613Q844 710 790 755T614 801Q539 801 458 780T304 722Q287 713 273 713Q240 713 218 761Q207 785 207 801Q207 836 244 855Q328 899 424 922T618 946Q806 946 900 862ZM426 438T360 399T293 273Q293 200 343 160T485 119Q684 119 844 284V393Q776
415 698 426T541 438Q426 438 360 399ZM529 1315T557 1306T626 1278Q661 1261 685 1253T735 1245Q767 1245 797 1262T861 1313Q873 1325 890 1325Q915 1325 937 1300Q958 1278 958 1255Q958 1236 944 1219Q896 1157 842 1127T734 1096Q699 1096 671 1105T602 1133Q567
1150 543 1158T493 1166Q461 1166 431 1149T367 1098Q355 1086 338 1086Q313 1086 291 1111Q270 1133 270 1156Q270 1175 284 1192Q332 1254 386 1284T494 1315Q529 1315 557 1306Z" />
<glyph unicode="&#xe4;" glyph-name="adieresis" d="M806 946T900 862T994 613V215Q994 136 1060 136H1095Q1129 136 1143 121T1158 68Q1158 31 1144 16T1095 0H1031Q966 0 920 32T859 128Q777 56 682 17T479 -22Q378 -22 301 12T179 113T135 270Q135 428 248
503T540 579Q699 579 844 528V613Q844 710 790 755T614 801Q539 801 458 780T304 722Q287 713 273 713Q240 713 218 761Q207 785 207 801Q207 836 244 855Q328 899 424 922T618 946Q806 946 900 862ZM426 438T360 399T293 273Q293 200 343 160T485 119Q684 119
844 284V393Q776 415 698 426T541 438Q426 438 360 399ZM459 1363T479 1349T499 1298V1168Q499 1132 479 1118T404 1103Q349 1103 329 1117T309 1168V1298Q309 1334 329 1348T404 1363Q459 1363 479 1349ZM879 1363T899 1349T919 1298V1168Q919 1132 899 1118T824
1103Q769 1103 749 1117T729 1168V1298Q729 1334 749 1348T824 1363Q879 1363 899 1349Z" />
<glyph unicode="&#xe5;" glyph-name="aring" d="M806 946T900 862T994 613V215Q994 136 1060 136H1095Q1129 136 1143 121T1158 68Q1158 31 1144 16T1095 0H1031Q966 0 920 32T859 128Q777 56 682 17T479 -22Q378 -22 301 12T179 113T135 270Q135 428 248 503T540
579Q699 579 844 528V613Q844 710 790 755T614 801Q539 801 458 780T304 722Q287 713 273 713Q240 713 218 761Q207 785 207 801Q207 836 244 855Q328 899 424 922T618 946Q806 946 900 862ZM426 438T360 399T293 273Q293 200 343 160T485 119Q684 119 844 284V393Q776
415 698 426T541 438Q426 438 360 399ZM690 1557T746 1525T835 1437T867 1311Q867 1242 835 1186T747 1097T621 1065Q552 1065 496 1097T407 1185T375 1311Q375 1380 407 1436T495 1525T621 1557Q690 1557 746 1525ZM569 1425T538 1394T507 1311Q507 1259 538 1228T621
1197Q673 1197 704 1228T735 1311Q735 1363 704 1394T621 1425Q569 1425 538 1394Z" />
<glyph unicode="&#xe6;" glyph-name="ae" d="M1005 946T1075 830T1151 502Q1151 468 1137 454T1088 440H689Q694 123 853 123Q901 123 941 141T1023 201Q1040 218 1062 218Q1093 218 1118 187Q1139 162 1139 137Q1139 109 1112 84Q1057 32 991 5T853 -22Q690 -22
609 122Q561 55 489 17T335 -22Q257 -22 198 10T107 101T75 240Q75 407 199 493T539 580V602Q539 703 511 752T408 801Q363 801 320 784T231 732Q212 717 189 717Q161 717 137 742Q116 766 116 792Q116 820 139 840Q262 946 408 946Q561 946 629 830Q669 887 725
916T853 946Q1005 946 1075 830ZM784 801T745 749T694 580H994Q987 688 954 744T855 801Q784 801 745 749ZM379 440T304 390T228 240Q228 183 258 151T339 119Q395 119 440 147T512 226T539 340V440Q379 440 304 390Z" />
<glyph unicode="&#xe7;" glyph-name="ccedilla" d="M1053 187T1053 164Q1053 129 1021 106Q951 53 858 21T663 -20V-113Q764 -112 815 -159T866 -281Q866 -368 804 -420T621 -472Q553 -472 489 -460T374 -424Q351 -414 351 -389Q351 -375 359 -354Q376 -309 405
-309Q413 -309 418 -311Q461 -327 512 -338T611 -349Q662 -349 691 -333T720 -285Q720 -252 693 -236T604 -220L565 -221Q550 -221 541 -211T531 -177V-17Q409 0 318 65T177 234T127 462Q127 600 188 710T358 883T609 946Q698 946 772 914T899 821V881Q899 916
916 931T974 946Q1015 946 1032 931T1049 881V591Q1049 556 1032 541T974 526Q933 526 916 541T899 591Q899 652 867 699T772 772T619 798Q523 798 447 755T328 635T285 462Q285 365 325 289T439 169T609 126Q701 126 787 154T945 237Q966 253 984 253Q1013 253
1038 212Q1053 187 1053 164Z" />
<glyph unicode="&#xe8;" glyph-name="egrave" d="M768 946T870 888T1028 726T1091 487Q1091 453 1077 439T1028 425H304Q311 276 392 200T623 123Q715 123 805 146T963 209Q980 218 994 218Q1029 218 1051 165Q1060 144 1060 127Q1060 87 1016 65Q939 26 834 2T623
-22Q472 -22 365 36T202 203T146 462Q146 605 207 715T376 885T623 946Q768 946 870 888ZM500 801T420 739T314 565H925Q904 680 829 740T623 801Q500 801 420 739ZM873 1134T873 1115Q873 1090 849 1063Q827 1038 803 1038Q789 1038 771 1048L397 1267Q375 1280
375 1306Q375 1335 405 1374Q438 1415 472 1415Q491 1415 509 1402L857 1146Q873 1134 873 1115Z" />
<glyph unicode="&#xe9;" glyph-name="eacute" d="M768 946T870 888T1028 726T1091 487Q1091 453 1077 439T1028 425H304Q311 276 392 200T623 123Q715 123 805 146T963 209Q980 218 994 218Q1029 218 1051 165Q1060 144 1060 127Q1060 87 1016 65Q939 26 834 2T623
-22Q472 -22 365 36T202 203T146 462Q146 605 207 715T376 885T623 946Q768 946 870 888ZM500 801T420 739T314 565H925Q904 680 829 740T623 801Q500 801 420 739ZM1033 1415T1052 1415Q1086 1415 1119 1374Q1149 1335 1149 1306Q1149 1280 1127 1267L753 1048Q735
1038 721 1038Q697 1038 675 1063Q651 1090 651 1115Q651 1134 667 1146L1015 1402Q1033 1415 1052 1415Z" />
<glyph unicode="&#xea;" glyph-name="ecircumflex" d="M768 946T870 888T1028 726T1091 487Q1091 453 1077 439T1028 425H304Q311 276 392 200T623 123Q715 123 805 146T963 209Q980 218 994 218Q1029 218 1051 165Q1060 144 1060 127Q1060 87 1016 65Q939 26
834 2T623 -22Q472 -22 365 36T202 203T146 462Q146 605 207 715T376 885T623 946Q768 946 870 888ZM500 801T420 739T314 565H925Q904 680 829 740T623 801Q500 801 420 739ZM670 1396T692 1376L937 1143Q953 1128 953 1110Q953 1089 930 1063Q909 1039 886 1039Q870
1039 855 1051L634 1224L413 1051Q398 1039 382 1039Q359 1039 338 1063Q315 1089 315 1110Q315 1128 331 1143L576 1376Q598 1396 634 1396Q670 1396 692 1376Z" />
<glyph unicode="&#xeb;" glyph-name="edieresis" d="M768 946T870 888T1028 726T1091 487Q1091 453 1077 439T1028 425H304Q311 276 392 200T623 123Q715 123 805 146T963 209Q980 218 994 218Q1029 218 1051 165Q1060 144 1060 127Q1060 87 1016 65Q939 26 834
2T623 -22Q472 -22 365 36T202 203T146 462Q146 605 207 715T376 885T623 946Q768 946 870 888ZM500 801T420 739T314 565H925Q904 680 829 740T623 801Q500 801 420 739ZM469 1363T489 1349T509 1298V1168Q509 1132 489 1118T414 1103Q359 1103 339 1117T319 1168V1298Q319
1334 339 1348T414 1363Q469 1363 489 1349ZM889 1363T909 1349T929 1298V1168Q929 1132 909 1118T834 1103Q779 1103 759 1117T739 1168V1298Q739 1334 759 1348T834 1363Q889 1363 909 1349Z" />
<glyph unicode="&#xec;" glyph-name="igrave" d="M684 924T698 909T713 856V136H1034Q1068 136 1082 121T1097 68Q1097 31 1083 16T1034 0H250Q216 0 202 15T187 68Q187 105 201 120T250 136H563V788H310Q276 788 262 803T247 856Q247 893 261 908T310 924H650Q684
924 698 909ZM1029 1134T1029 1115Q1029 1090 1005 1063Q983 1038 959 1038Q945 1038 927 1048L553 1267Q531 1280 531 1306Q531 1335 561 1374Q594 1415 628 1415Q647 1415 665 1402L1013 1146Q1029 1134 1029 1115Z" />
<glyph unicode="&#xed;" glyph-name="iacute" d="M684 924T698 909T713 856V136H1034Q1068 136 1082 121T1097 68Q1097 31 1083 16T1034 0H250Q216 0 202 15T187 68Q187 105 201 120T250 136H563V788H310Q276 788 262 803T247 856Q247 893 261 908T310 924H650Q684
924 698 909ZM993 1415T1012 1415Q1046 1415 1079 1374Q1109 1335 1109 1306Q1109 1280 1087 1267L713 1048Q695 1038 681 1038Q657 1038 635 1063Q611 1090 611 1115Q611 1134 627 1146L975 1402Q993 1415 1012 1415Z" />
<glyph unicode="&#xee;" glyph-name="icircumflex" d="M684 924T698 909T713 856V136H1034Q1068 136 1082 121T1097 68Q1097 31 1083 16T1034 0H250Q216 0 202 15T187 68Q187 105 201 120T250 136H563V788H310Q276 788 262 803T247 856Q247 893 261 908T310 924H650Q684
924 698 909ZM650 1396T672 1376L917 1143Q933 1128 933 1110Q933 1089 910 1063Q889 1039 866 1039Q850 1039 835 1051L614 1224L393 1051Q378 1039 362 1039Q339 1039 318 1063Q295 1089 295 1110Q295 1128 311 1143L556 1376Q578 1396 614 1396Q650 1396 672
1376Z" />
<glyph unicode="&#xef;" glyph-name="idieresis" d="M684 924T698 909T713 856V136H1034Q1068 136 1082 121T1097 68Q1097 31 1083 16T1034 0H250Q216 0 202 15T187 68Q187 105 201 120T250 136H563V788H310Q276 788 262 803T247 856Q247 893 261 908T310 924H650Q684
924 698 909ZM459 1363T479 1349T499 1298V1168Q499 1132 479 1118T404 1103Q349 1103 329 1117T309 1168V1298Q309 1334 329 1348T404 1363Q459 1363 479 1349ZM879 1363T899 1349T919 1298V1168Q919 1132 899 1118T824 1103Q769 1103 749 1117T729 1168V1298Q729
1334 749 1348T824 1363Q879 1363 899 1349Z" />
<glyph unicode="&#xf0;" glyph-name="eth" d="M1088 827T1088 432Q1088 298 1027 195T857 35T614 -22Q479 -22 371 35T202 195T140 432Q140 566 201 669T371 829T614 886Q735 886 853 809Q780 929 644 1036L404 946Q387 939 373 939Q355 939 343 950T321 988Q313
1007 313 1025Q313 1058 356 1074L505 1130Q460 1156 383 1195Q346 1213 346 1242Q346 1261 360 1287Q384 1332 418 1332Q435 1332 453 1323Q578 1262 674 1193L911 1282Q928 1289 942 1289Q960 1289 972 1278T994 1240Q1002 1221 1002 1203Q1002 1170 959 1154L798
1094Q1088 827 1088 432ZM708 126T779 164T890 271T930 432Q930 524 891 593T780 700T614 738Q520 738 449 700T338 593T298 432Q298 340 337 271T448 164T614 126Q708 126 779 164Z" />
<glyph unicode="&#xf1;" glyph-name="ntilde" d="M818 946T885 907T988 793T1024 620V136H1106Q1140 136 1154 121T1169 68Q1169 31 1155 16T1106 0H782Q748 0 734 15T719 68Q719 105 733 120T782 136H874V605Q874 694 833 746T712 798Q627 798 554 749T436 614T392
422V136H484Q518 136 532 121T547 68Q547 31 533 16T484 0H160Q126 0 112 15T97 68Q97 105 111 120T160 136H242V788H140Q106 788 92 803T77 856Q77 893 91 908T140 924H319Q353 924 367 909T382 856V736Q448 838 536 892T727 946Q818 946 885 907ZM529 1315T557
1306T626 1278Q661 1261 685 1253T735 1245Q767 1245 797 1262T861 1313Q873 1325 890 1325Q915 1325 937 1300Q958 1278 958 1255Q958 1236 944 1219Q896 1157 842 1127T734 1096Q699 1096 671 1105T602 1133Q567 1150 543 1158T493 1166Q461 1166 431 1149T367
1098Q355 1086 338 1086Q313 1086 291 1111Q270 1133 270 1156Q270 1175 284 1192Q332 1254 386 1284T494 1315Q529 1315 557 1306Z" />
<glyph unicode="&#xf2;" glyph-name="ograve" d="M751 946T861 884T1033 712T1096 462Q1096 323 1034 213T861 40T614 -22Q477 -22 367 40T195 212T132 462Q132 601 194 711T367 884T614 946Q751 946 861 884ZM517 798T444 756T330 637T290 462Q290 364 330 288T443
169T614 126Q711 126 784 168T898 287T938 462Q938 560 898 636T785 755T614 798Q517 798 444 756ZM833 1134T833 1115Q833 1090 809 1063Q787 1038 763 1038Q749 1038 731 1048L357 1267Q335 1280 335 1306Q335 1335 365 1374Q398 1415 432 1415Q451 1415 469
1402L817 1146Q833 1134 833 1115Z" />
<glyph unicode="&#xf3;" glyph-name="oacute" d="M751 946T861 884T1033 712T1096 462Q1096 323 1034 213T861 40T614 -22Q477 -22 367 40T195 212T132 462Q132 601 194 711T367 884T614 946Q751 946 861 884ZM517 798T444 756T330 637T290 462Q290 364 330 288T443
169T614 126Q711 126 784 168T898 287T938 462Q938 560 898 636T785 755T614 798Q517 798 444 756ZM1033 1415T1052 1415Q1086 1415 1119 1374Q1149 1335 1149 1306Q1149 1280 1127 1267L753 1048Q735 1038 721 1038Q697 1038 675 1063Q651 1090 651 1115Q651 1134
667 1146L1015 1402Q1033 1415 1052 1415Z" />
<glyph unicode="&#xf4;" glyph-name="ocircumflex" d="M751 946T861 884T1033 712T1096 462Q1096 323 1034 213T861 40T614 -22Q477 -22 367 40T195 212T132 462Q132 601 194 711T367 884T614 946Q751 946 861 884ZM517 798T444 756T330 637T290 462Q290 364 330
288T443 169T614 126Q711 126 784 168T898 287T938 462Q938 560 898 636T785 755T614 798Q517 798 444 756ZM650 1396T672 1376L917 1143Q933 1128 933 1110Q933 1089 910 1063Q889 1039 866 1039Q850 1039 835 1051L614 1224L393 1051Q378 1039 362 1039Q339 1039
318 1063Q295 1089 295 1110Q295 1128 311 1143L556 1376Q578 1396 614 1396Q650 1396 672 1376Z" />
<glyph unicode="&#xf5;" glyph-name="otilde" d="M751 946T861 884T1033 712T1096 462Q1096 323 1034 213T861 40T614 -22Q477 -22 367 40T195 212T132 462Q132 601 194 711T367 884T614 946Q751 946 861 884ZM517 798T444 756T330 637T290 462Q290 364 330 288T443
169T614 126Q711 126 784 168T898 287T938 462Q938 560 898 636T785 755T614 798Q517 798 444 756ZM529 1315T557 1306T626 1278Q661 1261 685 1253T735 1245Q767 1245 797 1262T861 1313Q873 1325 890 1325Q915 1325 937 1300Q958 1278 958 1255Q958 1236 944
1219Q896 1157 842 1127T734 1096Q699 1096 671 1105T602 1133Q567 1150 543 1158T493 1166Q461 1166 431 1149T367 1098Q355 1086 338 1086Q313 1086 291 1111Q270 1133 270 1156Q270 1175 284 1192Q332 1254 386 1284T494 1315Q529 1315 557 1306Z" />
<glyph unicode="&#xf6;" glyph-name="odieresis" d="M751 946T861 884T1033 712T1096 462Q1096 323 1034 213T861 40T614 -22Q477 -22 367 40T195 212T132 462Q132 601 194 711T367 884T614 946Q751 946 861 884ZM517 798T444 756T330 637T290 462Q290 364 330
288T443 169T614 126Q711 126 784 168T898 287T938 462Q938 560 898 636T785 755T614 798Q517 798 444 756ZM459 1363T479 1349T499 1298V1168Q499 1132 479 1118T404 1103Q349 1103 329 1117T309 1168V1298Q309 1334 329 1348T404 1363Q459 1363 479 1349ZM879
1363T899 1349T919 1298V1168Q919 1132 899 1118T824 1103Q769 1103 749 1117T729 1168V1298Q729 1334 749 1348T824 1363Q879 1363 899 1349Z" />
<glyph unicode="&#xf7;" glyph-name="divide" d="M670 1055T694 1041T719 992V888Q719 854 695 840T614 825Q558 825 534 839T509 888V992Q509 1026 533 1040T614 1055Q670 1055 694 1041ZM1029 650T1043 635T1058 582Q1058 545 1044 530T995 514H233Q199 514
185 529T170 582Q170 619 184 634T233 650H995Q1029 650 1043 635ZM670 340T694 326T719 277V173Q719 139 695 125T614 110Q558 110 534 124T509 173V277Q509 311 533 325T614 340Q670 340 694 326Z" />
<glyph unicode="&#xf8;" glyph-name="oslash" d="M1144 920T1144 898Q1144 876 1119 852L1011 747Q1096 624 1096 462Q1096 323 1034 213T861 40T614 -22Q528 -22 452 3T314 76L205 -29Q180 -52 160 -52Q138 -52 110 -24Q84 4 84 26Q84 47 108 71L217 177Q132
300 132 462Q132 601 194 711T367 884T614 946Q700 946 776 921T914 849L1022 953Q1047 976 1067 976Q1090 976 1118 948Q1144 920 1144 898ZM290 362T331 286L804 743Q724 798 614 798Q517 798 444 756T330 637T290 462Q290 362 331 286ZM938 562T897 638L424
182Q503 126 614 126Q711 126 784 168T898 287T938 462Q938 562 897 638Z" />
<glyph unicode="&#xf9;" glyph-name="ugrave" d="M970 924T984 909T999 856V136H1081Q1115 136 1129 121T1144 68Q1144 31 1130 16T1081 0H922Q888 0 874 15T859 67V188Q793 86 705 32T514 -22Q423 -22 356 17T253 131T217 304V788H135Q101 788 87 803T72 856Q72
893 86 908T135 924H304Q338 924 352 909T367 856V319Q367 230 408 178T529 126Q614 126 687 175T805 310T849 502V788H707Q673 788 659 803T644 856Q644 893 658 908T707 924H936Q970 924 984 909ZM823 1134T823 1115Q823 1090 799 1063Q777 1038 753 1038Q739
1038 721 1048L347 1267Q325 1280 325 1306Q325 1335 355 1374Q388 1415 422 1415Q441 1415 459 1402L807 1146Q823 1134 823 1115Z" />
<glyph unicode="&#xfa;" glyph-name="uacute" d="M970 924T984 909T999 856V136H1081Q1115 136 1129 121T1144 68Q1144 31 1130 16T1081 0H922Q888 0 874 15T859 67V188Q793 86 705 32T514 -22Q423 -22 356 17T253 131T217 304V788H135Q101 788 87 803T72 856Q72
893 86 908T135 924H304Q338 924 352 909T367 856V319Q367 230 408 178T529 126Q614 126 687 175T805 310T849 502V788H707Q673 788 659 803T644 856Q644 893 658 908T707 924H936Q970 924 984 909ZM1053 1415T1072 1415Q1106 1415 1139 1374Q1169 1335 1169 1306Q1169
1280 1147 1267L773 1048Q755 1038 741 1038Q717 1038 695 1063Q671 1090 671 1115Q671 1134 687 1146L1035 1402Q1053 1415 1072 1415Z" />
<glyph unicode="&#xfb;" glyph-name="ucircumflex" d="M970 924T984 909T999 856V136H1081Q1115 136 1129 121T1144 68Q1144 31 1130 16T1081 0H922Q888 0 874 15T859 67V188Q793 86 705 32T514 -22Q423 -22 356 17T253 131T217 304V788H135Q101 788 87 803T72
856Q72 893 86 908T135 924H304Q338 924 352 909T367 856V319Q367 230 408 178T529 126Q614 126 687 175T805 310T849 502V788H707Q673 788 659 803T644 856Q644 893 658 908T707 924H936Q970 924 984 909ZM896 1396T918 1376L1163 1143Q1179 1128 1179 1110Q1179
1089 1156 1063Q1135 1039 1112 1039Q1096 1039 1081 1051L860 1224L639 1051Q624 1039 608 1039Q585 1039 564 1063Q541 1089 541 1110Q541 1128 557 1143L802 1376Q824 1396 860 1396Q896 1396 918 1376Z" />
<glyph unicode="&#xfc;" glyph-name="udieresis" d="M970 924T984 909T999 856V136H1081Q1115 136 1129 121T1144 68Q1144 31 1130 16T1081 0H922Q888 0 874 15T859 67V188Q793 86 705 32T514 -22Q423 -22 356 17T253 131T217 304V788H135Q101 788 87 803T72 856Q72
893 86 908T135 924H304Q338 924 352 909T367 856V319Q367 230 408 178T529 126Q614 126 687 175T805 310T849 502V788H707Q673 788 659 803T644 856Q644 893 658 908T707 924H936Q970 924 984 909ZM695 1363T715 1349T735 1298V1168Q735 1132 715 1118T640 1103Q585
1103 565 1117T545 1168V1298Q545 1334 565 1348T640 1363Q695 1363 715 1349ZM1115 1363T1135 1349T1155 1298V1168Q1155 1132 1135 1118T1060 1103Q1005 1103 985 1117T965 1168V1298Q965 1334 985 1348T1060 1363Q1115 1363 1135 1349Z" />
<glyph unicode="&#xfd;" glyph-name="yacute" d="M1149 924T1163 909T1178 856Q1178 819 1164 804T1115 788H1053L644 -50Q579 -183 517 -259T378 -370T189 -410Q154 -411 135 -393T116 -327Q116 -262 169 -259Q265 -254 321 -227T425 -135T542 70L176 788H113Q79
788 65 803T50 856Q50 893 64 908T113 924H467Q501 924 515 909T530 856Q530 819 516 804T467 788H339L621 226L890 788H801Q767 788 753 803T738 856Q738 893 752 908T801 924H1115Q1149 924 1163 909ZM799 1415T818 1415Q852 1415 885 1374Q915 1335 915 1306Q915
1280 893 1267L519 1048Q501 1038 487 1038Q463 1038 441 1063Q417 1090 417 1115Q417 1134 433 1146L781 1402Q799 1415 818 1415Z" />
<glyph unicode="&#xfe;" glyph-name="thorn" d="M323 1312T337 1297T352 1244V781Q481 946 669 946Q793 946 891 888T1045 720T1101 462Q1101 314 1045 205T891 37T669 -22Q481 -22 352 143V-252H524Q558 -252 572 -267T587 -320Q587 -357 573 -372T524 -388H100Q66
-388 52 -373T37 -320Q37 -283 51 -268T100 -252H202V1176H120Q86 1176 72 1191T57 1244Q57 1281 71 1296T120 1312H289Q323 1312 337 1297ZM570 798T501 758T392 642T352 462Q352 358 391 282T500 166T659 126Q748 126 812 168T909 287T943 462Q943 561 910 637T812
755T659 798Q570 798 501 758Z" />
<glyph unicode="&#xff;" glyph-name="ydieresis" d="M1149 924T1163 909T1178 856Q1178 819 1164 804T1115 788H1053L644 -50Q579 -183 517 -259T378 -370T189 -410Q154 -411 135 -393T116 -327Q116 -262 169 -259Q265 -254 321 -227T425 -135T542 70L176 788H113Q79
788 65 803T50 856Q50 893 64 908T113 924H467Q501 924 515 909T530 856Q530 819 516 804T467 788H339L621 226L890 788H801Q767 788 753 803T738 856Q738 893 752 908T801 924H1115Q1149 924 1163 909ZM459 1363T479 1349T499 1298V1168Q499 1132 479 1118T404
1103Q349 1103 329 1117T309 1168V1298Q309 1334 329 1348T404 1363Q459 1363 479 1349ZM879 1363T899 1349T919 1298V1168Q919 1132 899 1118T824 1103Q769 1103 749 1117T729 1168V1298Q729 1334 749 1348T824 1363Q879 1363 899 1349Z" />
<glyph unicode="&#x2013;" glyph-name="endash" d="M1029 650T1043 635T1058 582Q1058 545 1044 530T995 514H233Q199 514 185 529T170 582Q170 619 184 634T233 650H995Q1029 650 1043 635Z" />
<glyph unicode="&#x2014;" glyph-name="emdash" d="M1229 650T1243 635T1258 582Q1258 545 1244 530T1195 514H33Q-1 514 -15 529T-30 582Q-30 619 -16 634T33 650H1195Q1229 650 1243 635Z" />
<glyph unicode="&#x2018;" glyph-name="quoteleft" d="M441 752T432 761T422 785Q422 797 430 815L650 1264Q672 1307 724 1307Q753 1307 770 1293T788 1255Q788 1250 786 1238L685 792Q676 752 633 752H458Q441 752 432 761Z" />
<glyph unicode="&#x2019;" glyph-name="quoteright" d="M784 1269T793 1260T803 1236Q803 1224 795 1206L575 757Q554 714 501 714Q472 714 455 728T437 766Q437 771 439 783L540 1229Q549 1269 592 1269H767Q784 1269 793 1260Z" />
<glyph unicode="&#x201a;" glyph-name="quotesinglbase" d="M784 294T793 285T803 261Q803 249 795 231L575 -218Q554 -261 501 -261Q472 -261 455 -247T437 -209Q437 -204 439 -192L540 254Q549 294 592 294H767Q784 294 793 285Z" />
<glyph unicode="&#x201c;" glyph-name="quotedblleft" d="M196 752T187 761T177 785Q177 797 185 815L405 1264Q427 1307 479 1307Q508 1307 525 1293T543 1255Q543 1250 541 1238L440 792Q431 752 388 752H213Q196 752 187 761ZM686 752T677 761T667 785Q667
797 675 815L895 1264Q917 1307 969 1307Q998 1307 1015 1293T1033 1255Q1033 1250 1031 1238L930 792Q921 752 878 752H703Q686 752 677 761Z" />
<glyph unicode="&#x201d;" glyph-name="quotedblright" d="M539 1269T548 1260T558 1236Q558 1224 550 1206L330 757Q309 714 256 714Q227 714 210 728T192 766Q192 771 194 783L295 1229Q304 1269 347 1269H522Q539 1269 548 1260ZM1029 1269T1038 1260T1048
1236Q1048 1224 1040 1206L820 757Q799 714 746 714Q717 714 700 728T682 766Q682 771 684 783L785 1229Q794 1269 837 1269H1012Q1029 1269 1038 1260Z" />
<glyph unicode="&#x201e;" glyph-name="quotedblbase" d="M1029 294T1038 285T1048 261Q1048 249 1040 231L820 -218Q799 -261 746 -261Q717 -261 700 -247T682 -209Q682 -204 684 -192L785 254Q794 294 837 294H1012Q1029 294 1038 285ZM539 294T548 285T558
261Q558 249 550 231L330 -218Q309 -261 256 -261Q227 -261 210 -247T192 -209Q192 -204 194 -192L295 254Q304 294 347 294H522Q539 294 548 285Z" />
<glyph unicode="&#x2022;" glyph-name="bullet" d="M737 853T791 830T846 755V453Q846 401 792 378T614 355Q491 355 437 378T382 453V755Q382 807 436 830T614 853Q737 853 791 830Z" />
<glyph unicode="&#x2039;" glyph-name="guilsinglleft" d="M720 946T740 946Q768 946 800 918Q831 891 831 867Q831 851 817 835L571 564L817 293Q831 277 831 261Q831 237 800 210Q768 182 740 182Q720 182 708 197L402 540Q393 551 393 564Q393 579 402 588L708
931Q720 946 740 946Z" />
<glyph unicode="&#x203a;" glyph-name="guilsinglright" d="M835 579T835 564Q835 551 826 540L520 197Q508 182 488 182Q460 182 428 210Q397 237 397 261Q397 277 411 293L657 564L411 835Q397 851 397 867Q397 891 428 918Q460 946 488 946Q508 946 520 931L826
588Q835 579 835 564Z" />
</font>
</defs>
</svg>
