<?xml version="1.0" standalone="no"?>
<!DOCTYPE svg PUBLIC "-//W3C//DTD SVG 1.1//EN" "http://www.w3.org/Graphics/SVG/1.1/DTD/svg11.dtd">
<svg xmlns="http://www.w3.org/2000/svg">
<defs >
<font id="CourierPrime" horiz-adv-x="1228" ><font-face
    font-family="Courier Prime"
    units-per-em="2048"
    panose-1="0 0 8 9 0 0 0 0 0 0"
    ascent="1600"
    descent="-700"
    alphabetic="0" />
<glyph unicode=" " glyph-name="space" />
<glyph unicode="!" glyph-name="exclam" d="M752 1269T762 1257T770 1219L713 562Q708 504 614 504Q520 504 515 562L458 1219Q456 1245 466 1257T499 1269H729Q752 1269 762 1257ZM696 330T732 316T769 267V53Q769 19 733 5T614 -10Q532 -10 496 4T459 53V267Q459
301 495 315T614 330Q696 330 732 316Z" />
<glyph unicode="&quot;" glyph-name="quotedbl" d="M517 1269T510 1219L437 739Q432 706 411 689T344 671Q298 671 277 688T251 739L178 1219Q177 1223 177 1231Q177 1269 219 1269H469Q517 1269 510 1219ZM1057 1269T1050 1219L977 739Q972 706 951 689T884 671Q838
671 817 688T791 739L718 1219Q717 1223 717 1231Q717 1269 759 1269H1009Q1057 1269 1050 1219Z" />
<glyph unicode="#" glyph-name="numbersign" d="M1139 940T1152 931T1171 898T1178 827Q1178 780 1172 756T1152 724T1115 715H959L898 482H1025Q1049 482 1062 473T1081 440T1088 369Q1088 322 1082 298T1062 266T1025 257H840L776 11Q772 -5 751 -13T699 -22Q654
-22 618 -6T581 36Q581 42 582 45L637 257H416L352 11Q348 -5 327 -13T275 -22Q230 -22 194 -6T157 36Q157 42 158 45L213 257H113Q89 257 76 265T57 298T50 369Q50 416 56 440T76 473T113 482H272L332 715H203Q179 715 166 723T147 756T140 827Q140 874 146 898T166
931T203 940H391L452 1176Q456 1192 477 1200T529 1209Q574 1209 610 1193T647 1151Q647 1145 646 1142L593 940H815L876 1176Q880 1192 901 1200T953 1209Q998 1209 1034 1193T1071 1151Q1071 1145 1070 1142L1017 940H1115Q1139 940 1152 931ZM696 482L756 715H535L474
482H696Z" />
<glyph unicode="$" glyph-name="dollar" d="M663 1312T682 1298T701 1249V1058Q750 1040 794 1013V1023Q794 1057 818 1071T906 1086Q970 1086 997 1072T1024 1023V812Q1024 778 1003 764T932 749Q879 749 859 770Q795 838 701 867V721Q823 707 900 675Q980 642
1025 583T1070 427Q1070 336 1027 268T901 161T701 118V-62Q701 -97 682 -111T608 -125Q553 -125 534 -111T515 -62V142Q463 159 414 189V181Q414 147 385 133T292 118Q228 118 201 132T174 181V404Q174 437 197 452T270 467Q331 467 353 439Q412 364 515 335V496Q450
506 398 521T302 560Q164 636 164 800Q164 886 209 950T334 1049T515 1086V1249Q515 1284 534 1298T608 1312Q663 1312 682 1298ZM471 878T447 858T422 809Q422 777 458 758Q479 747 515 742V884Q471 878 447 858ZM812 332T812 401Q812 434 770 455Q742 467 701
473V320Q812 332 812 401Z" />
<glyph unicode="%" glyph-name="percent" d="M398 1209T461 1172T561 1072T598 935Q598 861 561 798T461 698T324 661Q250 661 187 698T87 798T50 935Q50 1009 87 1072T187 1172T324 1209Q398 1209 461 1172ZM1005 1103T1024 1103Q1038 1103 1055 1092T1098 1054Q1142
1009 1142 981Q1142 962 1120 940L243 106Q220 85 203 85Q189 85 172 96T130 134Q85 182 85 209Q85 226 108 249L985 1083Q1005 1103 1024 1103ZM288 1022T263 997T237 935Q237 899 262 874T324 848Q360 848 385 873T411 935Q411 971 386 996T324 1022Q288 1022
263 997ZM978 526T1041 489T1141 389T1178 252Q1178 178 1141 115T1041 15T904 -22Q830 -22 767 15T667 115T630 252Q630 326 667 389T767 489T904 526Q978 526 1041 489ZM868 339T843 314T817 252Q817 216 842 191T904 165Q940 165 965 190T991 252Q991 288 966
313T904 339Q868 339 843 314Z" />
<glyph unicode="&amp;" glyph-name="ampersand" d="M738 1209T912 1113Q934 1101 944 1087T955 1051V854Q955 820 926 806T833 791Q771 791 748 805T725 854V956Q653 992 582 992Q526 992 491 956T456 861Q456 813 484 767T564 666L745 477Q772 542 792 603Q799
623 811 634T844 645H1064Q1088 645 1101 637T1120 607T1127 543Q1127 501 1121 479T1101 449T1064 440H973Q946 363 916 299L1007 205H1084Q1108 205 1121 197T1140 166T1147 102Q1147 60 1141 38T1121 8T1084 0H913Q873 0 841 33L776 100Q647 -22 456 -22Q351
-22 272 21T150 142T107 320Q107 415 152 488T287 622Q202 742 202 866Q202 965 248 1043T380 1165T583 1209Q738 1209 912 1113ZM388 438T372 405T355 330Q355 273 388 239T476 205Q554 205 617 266L422 469Q388 438 372 405Z" />
<glyph unicode="&apos;" glyph-name="quotesingle" d="M787 1269T780 1219L707 739Q702 706 681 689T614 671Q568 671 547 688T521 739L448 1219Q447 1223 447 1231Q447 1269 489 1269H739Q787 1269 780 1219Z" />
<glyph unicode="(" glyph-name="parenleft" d="M785 1383T799 1383Q822 1383 846 1365T891 1315Q927 1261 927 1220Q927 1193 909 1181Q709 1056 607 895T505 519Q505 305 607 144T909 -143Q927 -155 927 -182Q927 -223 891 -277Q871 -308 847 -326T799 -345Q785
-345 771 -337Q632 -258 517 -139T329 147T257 519Q257 724 329 891T516 1177T771 1375Q785 1383 799 1383Z" />
<glyph unicode=")" glyph-name="parenright" d="M596 1296T711 1177T899 891T971 519Q971 314 899 147T712 -139T457 -337Q443 -345 429 -345Q406 -345 382 -327T337 -277Q301 -223 301 -182Q301 -155 319 -143Q519 -18 621 143T723 519Q723 733 621 894T319 1181Q301
1193 301 1220Q301 1261 337 1315Q357 1346 381 1364T429 1383Q443 1383 457 1375Q596 1296 711 1177Z" />
<glyph unicode="*" glyph-name="asterisk" d="M671 1209T702 1179T734 1101Q734 1084 730 1069L683 865L862 973Q894 993 928 993Q962 993 989 971T1031 906Q1039 879 1039 859Q1039 814 1010 786T934 753L726 734L884 597Q905 578 916 556T928 510Q928 456 873
415Q835 387 796 387Q764 387 738 406T697 460L614 653L531 460Q517 426 491 407T432 387Q393 387 355 415Q300 456 300 510Q300 533 311 555T344 597L502 734L294 753Q247 758 218 786T189 859Q189 879 197 906Q211 949 238 971T300 993Q334 993 366 973L545 865L498
1069Q494 1084 494 1101Q494 1148 525 1178T614 1209Q671 1209 702 1179Z" />
<glyph unicode="+" glyph-name="plus" d="M661 1026T685 1020T717 1000T726 963V695H995Q1019 695 1032 686T1051 653T1058 582Q1058 535 1052 511T1032 479T995 470H726V201Q726 177 718 164T685 145T614 138Q567 138 543 144T510 164T501 201V470H233Q209 470
196 478T177 511T170 582Q170 629 176 653T196 686T233 695H501V963Q501 987 510 1000T543 1019T614 1026Q661 1026 685 1020Z" />
<glyph unicode="," glyph-name="comma" d="M766 354T775 345T784 321Q784 306 777 291L540 -246Q520 -294 434 -294Q396 -294 375 -280T353 -241Q353 -232 354 -228L454 314Q458 333 471 343T506 354H749Q766 354 775 345Z" />
<glyph unicode="-" glyph-name="hyphen" d="M1019 695T1032 686T1051 653T1058 582Q1058 535 1052 511T1032 479T995 470H233Q209 470 196 478T177 511T170 582Q170 629 176 653T196 686T233 695H995Q1019 695 1032 686Z" />
<glyph unicode="." glyph-name="period" d="M701 370T740 356T779 307V53Q779 19 740 5T614 -10Q527 -10 488 4T449 53V307Q449 341 488 355T614 370Q701 370 740 356Z" />
<glyph unicode="/" glyph-name="slash" d="M978 1399T1023 1377T1069 1321Q1069 1310 1065 1301L399 -317Q381 -360 317 -360Q250 -360 205 -338T159 -282Q159 -271 163 -262L829 1356Q847 1399 911 1399Q978 1399 1023 1377Z" />
<glyph unicode="0" glyph-name="zero" d="M761 1209T870 1131T1037 913T1095 593Q1095 413 1037 274T870 56T614 -22Q467 -22 358 56T191 273T133 593Q133 773 191 912T358 1130T614 1209Q761 1209 870 1131ZM510 982T456 884T401 593Q401 401 455 303T614 205Q718
205 772 303T827 593Q827 785 773 883T614 982Q510 982 456 884Z" />
<glyph unicode="1" glyph-name="one" d="M1029 205T1042 197T1061 166T1068 102Q1068 60 1062 38T1042 8T1005 0H273Q249 0 236 8T217 38T210 102Q210 144 216 166T236 196T273 205H519V879L310 760Q292 750 278 750Q259 750 242 768T206 825Q186 869 186 898Q186
919 195 933T225 958L647 1196Q675 1212 704 1212Q733 1212 751 1196T769 1148V205H1005Q1029 205 1042 197Z" />
<glyph unicode="2" glyph-name="two" d="M731 1209T823 1164T963 1036T1011 844Q1011 743 966 658T821 478L548 215H830V307Q830 342 853 356T938 370Q1002 370 1031 356T1060 307V65Q1060 31 1045 16T995 0H221Q197 0 184 8T165 39T158 103Q158 143 163 163T182
196L611 609Q694 689 725 738T757 839Q757 908 717 950T601 992Q514 992 428 950V810Q428 775 405 761T320 747Q256 747 227 761T198 810V1047Q198 1088 241 1111Q330 1160 422 1184T600 1209Q731 1209 823 1164Z" />
<glyph unicode="3" glyph-name="three" d="M792 1209T901 1122T1011 869Q1011 698 870 624Q953 586 999 519T1046 356Q1046 169 919 74T564 -22Q366 -22 221 55Q183 74 183 119Q183 146 200 191Q234 275 276 275Q284 275 296 270Q361 239 430 222T564 205Q670
205 724 244T778 358Q778 430 735 466T608 503H505Q470 503 456 525T442 610Q442 672 456 695T505 718H581Q670 718 713 751T757 854Q757 922 715 957T591 992Q516 992 438 969V890Q438 855 415 841T330 827Q266 827 237 841T208 890V1077Q208 1122 257 1141Q336
1173 421 1191T590 1209Q792 1209 901 1122Z" />
<glyph unicode="4" glyph-name="four" d="M816 1209T839 1186T863 1119V575H1035Q1059 575 1072 567T1091 536T1098 472Q1098 430 1092 408T1072 378T1035 370H863V205H1005Q1029 205 1042 197T1061 166T1068 102Q1068 60 1062 38T1042 8T1005 0H443Q419 0 406
8T387 38T380 102Q380 144 386 166T406 196T443 205H613V370H183Q159 370 146 378T127 408T120 472Q120 537 139 561L609 1140Q636 1174 671 1191T758 1209Q816 1209 839 1186ZM403 575H622L638 867L403 575Z" />
<glyph unicode="5" glyph-name="five" d="M956 1187T970 1164T984 1079Q984 1017 970 995T921 972H479L465 749Q561 786 657 786Q781 786 868 736T1001 595T1046 386Q1046 185 921 82T574 -22Q479 -22 386 1T214 67Q176 88 176 131Q176 158 193 203Q227 287 269
287Q277 287 289 282Q443 205 574 205Q666 205 722 253T778 386Q778 467 733 513T604 559Q510 559 412 523Q370 507 330 507Q266 507 240 522T215 572L248 1122Q250 1157 264 1172T313 1187H921Q956 1187 970 1164Z" />
<glyph unicode="6" glyph-name="six" d="M1003 1210T1017 1184T1037 1102Q1039 1085 1039 1057Q1039 970 998 967Q814 958 694 920T507 810T420 624Q474 684 541 712T695 741Q806 741 893 694T1029 561T1078 366Q1078 254 1021 166T861 28T631 -22Q505 -22 408
29T246 176Q205 237 183 324T160 512Q160 723 253 875T530 1113T977 1209Q1003 1210 1017 1184ZM580 529T535 509T465 453T440 371Q440 325 462 286T528 224T630 201Q716 201 768 245T820 365Q820 442 772 485T638 529Q580 529 535 509Z" />
<glyph unicode="7" glyph-name="seven" d="M1041 1187T1054 1179T1073 1148T1080 1084Q1080 1035 1071 1012L654 24Q644 1 620 -10T561 -22Q532 -22 504 -15Q459 -5 431 17T402 70Q402 82 408 97L784 972H418V780Q418 745 395 731T310 717Q246 717 217 731T188
780V1122Q188 1157 203 1172T253 1187H1017Q1041 1187 1054 1179Z" />
<glyph unicode="8" glyph-name="eight" d="M736 1209T828 1164T969 1042T1018 871Q1018 779 975 717T855 619Q950 584 1003 513T1057 335Q1057 225 1002 145T846 21T614 -22Q482 -22 382 21T227 144T171 335Q171 443 224 513T373 619Q296 653 253 716T210 871Q210
964 259 1041T400 1164T614 1209Q736 1209 828 1164ZM543 991T501 953T459 851Q459 788 500 750T614 712Q687 712 728 750T769 851Q769 914 727 952T614 991Q543 991 501 953ZM528 518T482 474T436 356Q436 282 482 239T614 196Q700 196 746 239T792 356Q792 430
746 474T614 518Q528 518 482 474Z" />
<glyph unicode="9" glyph-name="nine" d="M723 1209T820 1158T982 1011Q1023 950 1045 863T1068 675Q1068 349 885 171T311 -22Q285 -23 271 3T251 85Q249 102 249 130Q249 217 290 220Q472 229 579 266T740 375T808 563Q754 503 687 475T533 446Q422 446 335
493T199 626T150 821Q150 933 207 1021T367 1159T597 1209Q723 1209 820 1158ZM512 986T460 942T408 822Q408 745 456 702T590 658Q648 658 693 678T763 734T788 816Q788 862 766 901T700 963T598 986Q512 986 460 942Z" />
<glyph unicode=":" glyph-name="colon" d="M527 594T488 608T449 657V871Q449 905 488 919T614 934Q701 934 740 920T779 871V657Q779 623 740 609T614 594Q527 594 488 608ZM527 -10T488 4T449 53V267Q449 301 488 315T614 330Q701 330 740 316T779 267V53Q779
19 740 5T614 -10Q527 -10 488 4Z" />
<glyph unicode=";" glyph-name="semicolon" d="M527 594T488 608T449 657V871Q449 905 488 919T614 934Q701 934 740 920T779 871V657Q779 623 740 609T614 594Q527 594 488 608ZM786 354T795 345T804 321Q804 306 797 291L560 -246Q540 -294 454 -294Q416 -294
395 -280T373 -241Q373 -232 374 -228L474 314Q478 333 491 343T526 354H769Q786 354 795 345Z" />
<glyph unicode="&lt;" glyph-name="less" d="M966 1089T979 1089Q999 1089 1017 1071T1056 1011Q1082 959 1082 928Q1082 894 1046 875L461 583L1046 291Q1082 272 1082 238Q1082 207 1056 155Q1035 113 1017 95T979 77Q966 77 946 87L166 489Q141 502 131 522T120
583Q120 624 130 644T166 677L946 1079Q966 1089 979 1089Z" />
<glyph unicode="=" glyph-name="equal" d="M1019 924T1032 915T1051 882T1058 811Q1058 764 1052 740T1032 708T995 699H233Q209 699 196 707T177 740T170 811Q170 858 176 882T196 915T233 924H995Q1019 924 1032 915ZM1019 466T1032 457T1051 424T1058 353Q1058
306 1052 282T1032 250T995 241H233Q209 241 196 249T177 282T170 353Q170 400 176 424T196 457T233 466H995Q1019 466 1032 457Z" />
<glyph unicode="&gt;" glyph-name="greater" d="M1087 664T1097 644T1108 583Q1108 542 1098 522T1062 489L282 87Q262 77 249 77Q229 77 211 95T172 155Q146 207 146 238Q146 272 182 291L767 583L182 875Q146 894 146 928Q146 959 172 1011Q193 1053 211 1071T249
1089Q262 1089 282 1079L1062 677Q1087 664 1097 644Z" />
<glyph unicode="?" glyph-name="question" d="M793 1269T895 1175T998 914Q998 775 923 696T691 573L685 487Q683 462 661 451T584 439Q529 439 507 450T483 487L471 696Q469 740 502 747L605 767Q677 781 712 816T747 914Q747 982 708 1017T591 1052Q516 1052
438 1022V930Q438 895 415 881T330 867Q266 867 237 881T208 930V1120Q208 1161 249 1181Q435 1269 600 1269Q793 1269 895 1175ZM661 290T695 276T729 227V53Q729 19 695 5T584 -10Q507 -10 473 4T439 53V227Q439 261 473 275T584 290Q661 290 695 276Z" />
<glyph unicode="@" glyph-name="at" d="M817 1078T936 1008T1121 814T1187 531Q1187 404 1148 312T1039 171T881 122Q812 122 767 160T704 261Q627 117 507 117Q423 117 372 180T321 357Q321 460 365 563T482 733T638 800Q729 800 766 685L799 754Q804 763 828
763Q847 763 868 757Q894 750 909 740T920 716L848 404Q840 372 840 351Q840 315 856 297T897 278Q935 278 965 309T1012 397T1030 531Q1030 649 985 738T855 876T655 925Q522 925 418 854T255 659T196 389Q196 273 238 185T363 49T560 0Q696 0 818 40Q826 43 832
43Q846 43 856 30T875 -17Q882 -44 882 -61Q882 -78 876 -87T858 -101Q805 -124 725 -138T562 -153Q399 -153 280 -87T97 102T33 389Q33 581 114 738T339 987T660 1078Q817 1078 936 1008ZM613 643T578 604T520 503T496 379Q496 332 514 307T562 281Q596 281 630
325T687 432T710 541Q710 643 644 643Q613 643 578 604Z" />
<glyph unicode="A" glyph-name="A" d="M737 1187T762 1172T798 1122L1088 205H1175Q1199 205 1212 197T1231 167T1238 103Q1238 61 1232 39T1212 9T1175 0H751Q727 0 714 8T695 39T688 103Q688 145 694 167T714 197T751 205H837L792 350H428L383 205H457Q481 205
494 197T513 167T520 103Q520 61 514 39T494 9T457 0H53Q29 0 16 8T-3 39T-10 103Q-10 145 -4 167T16 197T53 205H137L390 982H223Q199 982 186 990T167 1021T160 1085Q160 1127 166 1149T186 1179T223 1187H697Q737 1187 762 1172ZM609 982L486 555H735L615 982H609Z"
/>
<glyph unicode="B" glyph-name="B" d="M863 1187T963 1102T1064 864Q1064 782 1024 724T910 630Q1139 568 1139 344Q1139 175 1028 88T710 0H133Q109 0 96 8T77 38T70 102Q70 144 76 166T96 196T133 205H240V982H133Q109 982 96 990T77 1020T70 1084Q70 1126 76
1148T96 1178T133 1187H654Q863 1187 963 1102ZM490 714H632Q722 714 766 746T810 844Q810 911 768 941T632 972H490V714ZM490 215H682Q876 215 876 354Q876 428 829 463T682 499H490V215Z" />
<glyph unicode="C" glyph-name="C" d="M1068 1209T1091 1195T1114 1146V762Q1114 728 1084 714T982 699Q935 699 910 705T874 725T864 762Q864 862 810 922T654 982Q515 982 443 882T371 594Q371 408 447 307T664 205Q751 205 831 228T1005 300Q1021 308 1035
308Q1082 308 1113 225Q1127 187 1127 157Q1127 106 1081 84Q867 -22 654 -22Q490 -22 365 53T172 267T103 594Q103 780 170 919T355 1134T624 1209Q799 1209 884 1083V1146Q884 1180 913 1194T1006 1209Q1068 1209 1091 1195Z" />
<glyph unicode="D" glyph-name="D" d="M769 1187T895 1118T1088 916T1155 594Q1155 406 1088 273T895 70T594 0H123Q99 0 86 8T67 38T60 102Q60 144 66 166T86 196T123 205H220V982H123Q99 982 86 990T67 1020T60 1084Q60 1126 66 1148T86 1178T123 1187H594Q769
1187 895 1118ZM470 215H574Q729 215 808 311T887 594Q887 780 808 876T574 972H470V215Z" />
<glyph unicode="E" glyph-name="E" d="M1070 1187T1085 1172T1100 1122V820Q1100 786 1071 772T978 757Q916 757 893 771T870 820V972H470V719H714Q749 719 763 696T777 611Q777 549 763 527T714 504H470V215H880V417Q880 451 909 465T1006 480Q1072 480 1096
466T1120 417V65Q1120 31 1105 16T1055 0H123Q99 0 86 8T67 38T60 102Q60 144 66 166T86 196T123 205H220V982H123Q99 982 86 990T67 1020T60 1084Q60 1126 66 1148T86 1178T123 1187H1035Q1070 1187 1085 1172Z" />
<glyph unicode="F" glyph-name="F" d="M1090 1187T1105 1172T1120 1122V820Q1120 786 1091 772T998 757Q936 757 913 771T890 820V972H500V667H804Q839 667 853 644T867 559Q867 497 853 475T804 452H500V205H717Q741 205 754 197T773 166T780 102Q780 60 774
38T754 8T717 0H123Q99 0 86 8T67 38T60 102Q60 144 66 166T86 196T123 205H250V982H123Q99 982 86 990T67 1020T60 1084Q60 1126 66 1148T86 1178T123 1187H1055Q1090 1187 1105 1172Z" />
<glyph unicode="G" glyph-name="G" d="M1038 1209T1061 1195T1084 1146V802Q1084 768 1054 754T952 739Q905 739 880 745T844 765T834 802Q834 888 782 935T624 982Q485 982 413 882T341 594Q341 408 417 307T634 205Q745 205 844 235V402H651Q627 402 614 410T595
440T588 504Q588 546 594 568T614 598T651 607H1125Q1149 607 1162 599T1181 568T1188 504Q1188 462 1182 440T1162 410T1125 402H1094V143Q1094 119 1085 101T1058 74Q965 26 854 2T624 -22Q460 -22 335 53T142 267T73 594Q73 780 140 919T325 1134T594 1209Q770
1209 854 1091V1146Q854 1180 883 1194T976 1209Q1038 1209 1061 1195Z" />
<glyph unicode="H" glyph-name="H" d="M1139 1187T1152 1179T1171 1148T1178 1084Q1178 1042 1172 1020T1152 990T1115 982H1058V205H1115Q1139 205 1152 197T1171 166T1178 102Q1178 60 1172 38T1152 8T1115 0H741Q717 0 704 8T685 38T678 102Q678 144 684 166T704
196T741 205H808V504H420V205H487Q511 205 524 197T543 166T550 102Q550 60 544 38T524 8T487 0H113Q89 0 76 8T57 38T50 102Q50 144 56 166T76 196T113 205H170V982H113Q89 982 76 990T57 1020T50 1084Q50 1126 56 1148T76 1178T113 1187H487Q511 1187 524 1179T543
1148T550 1084Q550 1042 544 1020T524 990T487 982H420V719H808V982H741Q717 982 704 990T685 1020T678 1084Q678 1126 684 1148T704 1178T741 1187H1115Q1139 1187 1152 1179Z" />
<glyph unicode="I" glyph-name="I" d="M999 1187T1012 1179T1031 1148T1038 1084Q1038 1042 1032 1020T1012 990T975 982H739V205H995Q1019 205 1032 197T1051 166T1058 102Q1058 60 1052 38T1032 8T995 0H233Q209 0 196 8T177 38T170 102Q170 144 176 166T196
196T233 205H489V982H253Q229 982 216 990T197 1020T190 1084Q190 1126 196 1148T216 1178T253 1187H975Q999 1187 1012 1179Z" />
<glyph unicode="J" glyph-name="J" d="M1139 1187T1152 1179T1171 1148T1178 1084Q1178 1042 1172 1020T1152 990T1115 982H929V363Q929 171 821 75T504 -22Q270 -22 115 125Q99 141 99 175V499Q99 533 129 547T231 562Q278 562 303 556T339 536T349 499V239Q418
205 515 205Q597 205 638 248T679 383V982H373Q349 982 336 990T317 1020T310 1084Q310 1126 316 1148T336 1178T373 1187H1115Q1139 1187 1152 1179Z" />
<glyph unicode="K" glyph-name="K" d="M1154 1187T1167 1179T1186 1148T1193 1084Q1193 1042 1187 1020T1167 990T1130 982H1087L737 641Q793 638 839 611T919 535Q942 502 961 467T1004 380Q1040 306 1054 282Q1076 245 1100 225T1155 205H1165Q1189 205 1202
197T1221 166T1228 102Q1228 60 1222 38T1202 8T1165 0H1026Q965 0 923 37T844 142Q821 185 796 242Q778 280 759 318T724 381Q698 420 666 442T600 465Q556 465 521 431L470 381V205H585Q609 205 622 197T641 166T648 102Q648 60 642 38T622 8T585 0H113Q89 0
76 8T57 38T50 102Q50 144 56 166T76 196T113 205H220V982H113Q89 982 76 990T57 1020T50 1084Q50 1126 56 1148T76 1178T113 1187H517Q541 1187 554 1179T573 1148T580 1084Q580 1042 574 1020T554 990T517 982H470V662L794 982H741Q717 982 704 990T685 1020T678
1084Q678 1126 684 1148T704 1178T741 1187H1130Q1154 1187 1167 1179Z" />
<glyph unicode="L" glyph-name="L" d="M761 1187T774 1179T793 1148T800 1084Q800 1042 794 1020T774 990T737 982H519V215H870V527Q870 561 900 575T1002 590Q1049 590 1074 584T1110 564T1120 527V65Q1120 31 1105 16T1055 0H123Q99 0 86 8T67 38T60 102Q60
144 66 166T86 196T123 205H269V982H123Q99 982 86 990T67 1020T60 1084Q60 1126 66 1148T86 1178T123 1187H737Q761 1187 774 1179Z" />
<glyph unicode="M" glyph-name="M" d="M1159 1187T1172 1179T1191 1148T1198 1084Q1198 1042 1192 1020T1172 990T1135 982H1081L1095 205H1155Q1179 205 1192 197T1211 166T1218 102Q1218 60 1212 38T1192 8T1155 0H781Q757 0 744 8T725 38T718 102Q718 144 724
166T744 196T781 205H873L867 797L716 389Q703 354 680 340T615 325Q572 325 549 339T512 389L360 794L354 205H447Q471 205 484 197T503 166T510 102Q510 60 504 38T484 8T447 0H73Q49 0 36 8T17 38T10 102Q10 144 16 166T36 196T73 205H132L147 982H93Q69 982
56 990T37 1020T30 1084Q30 1126 36 1148T56 1178T93 1187H377Q398 1187 411 1180T431 1156L614 665L796 1156Q802 1173 815 1180T850 1187H1135Q1159 1187 1172 1179Z" />
<glyph unicode="N" glyph-name="N" d="M1159 1187T1172 1179T1191 1148T1198 1084Q1198 1042 1192 1020T1172 990T1135 982H1078V44Q1078 11 1053 -5T968 -22Q922 -22 900 -10T860 31L410 776H406V205H517Q541 205 554 197T573 166T580 102Q580 60 574 38T554
8T517 0H113Q89 0 76 8T57 38T50 102Q50 144 56 166T76 196T113 205H180V982H113Q89 982 76 990T57 1020T50 1084Q50 1126 56 1148T76 1178T113 1187H377Q417 1187 433 1160L848 473H852V982H760Q736 982 723 990T704 1020T697 1084Q697 1126 703 1148T723 1178T760
1187H1135Q1159 1187 1172 1179Z" />
<glyph unicode="O" glyph-name="O" d="M778 1209T903 1135T1096 921T1165 594Q1165 407 1097 268T903 53T614 -22Q450 -22 325 53T132 267T63 594Q63 781 131 920T325 1134T614 1209Q778 1209 903 1135ZM475 982T403 882T331 594Q331 406 403 306T614 205Q753
205 825 305T897 594Q897 782 825 882T614 982Q475 982 403 882Z" />
<glyph unicode="P" glyph-name="P" d="M900 1187T1018 1084T1137 785Q1137 590 1019 486T670 382H520V205H737Q761 205 774 197T793 166T800 102Q800 60 794 38T774 8T737 0H123Q99 0 86 8T67 38T60 102Q60 144 66 166T86 196T123 205H270V982H123Q99 982 86 990T67
1020T60 1084Q60 1126 66 1148T86 1178T123 1187H670Q900 1187 1018 1084ZM520 597H639Q758 597 818 643T879 785Q879 881 819 926T639 972H520V597Z" />
<glyph unicode="Q" glyph-name="Q" d="M778 1209T903 1138T1096 937T1165 634Q1165 461 1097 331T903 129T614 58Q589 58 569 60L463 -46Q541 -17 619 -17Q650 -17 684 -21T750 -32Q778 -37 807 -41T863 -46Q941 -46 1016 -6Q1028 0 1041 0Q1063 0 1084 -18T1121
-67Q1140 -105 1140 -136Q1140 -178 1105 -204Q1048 -246 994 -263T882 -281Q846 -281 809 -276T720 -260Q655 -248 614 -243T526 -237Q408 -237 297 -284Q291 -287 283 -287Q264 -287 243 -269T207 -223Q185 -184 185 -149Q185 -119 202 -102L390 98Q237 159 150
299T63 634Q63 807 131 937T325 1138T614 1209Q778 1209 903 1138ZM476 982T404 891T331 634Q331 468 403 377T614 285Q752 285 824 376T897 634Q897 800 825 891T614 982Q476 982 404 891Z" />
<glyph unicode="R" glyph-name="R" d="M861 1187T974 1094T1087 824Q1087 593 839 533Q893 512 925 471Q946 444 963 415T1004 340Q1028 292 1041 271Q1061 238 1081 222T1126 205H1145Q1169 205 1182 197T1201 166T1208 102Q1208 60 1202 38T1182 8T1145 0H1048Q969
0 920 32T830 139Q810 174 782 235Q762 281 744 314T704 380Q673 423 635 442T544 461H480V205H577Q601 205 614 197T633 166T640 102Q640 60 634 38T614 8T577 0H123Q99 0 86 8T67 38T60 102Q60 144 66 166T86 196T123 205H230V982H123Q99 982 86 990T67 1020T60
1084Q60 1126 66 1148T86 1178T123 1187H650Q861 1187 974 1094ZM480 676H629Q731 676 780 712T829 824Q829 899 780 935T629 972H480V676Z" />
<glyph unicode="S" glyph-name="S" d="M980 1209T1007 1195T1034 1146V872Q1034 838 1013 824T942 809Q909 809 890 817T860 841Q813 915 739 955T568 996Q495 996 454 959T412 863Q412 834 430 816T482 783Q526 766 633 748Q737 728 803 711T927 657Q1087 560
1087 344Q1087 234 1041 152T901 24T672 -22Q505 -22 389 79V41Q389 7 365 -7T277 -22Q213 -22 186 -8T159 41V375Q159 409 180 423T251 438Q286 438 306 429T338 398Q392 295 467 243T642 191Q730 191 776 227T822 327Q822 367 802 394T742 441Q710 457 672 467T558
493Q472 511 416 526T311 567Q235 607 192 673T149 846Q149 952 198 1034T335 1163T538 1209Q618 1209 686 1183T804 1109V1146Q804 1180 828 1194T916 1209Q980 1209 1007 1195Z" />
<glyph unicode="T" glyph-name="T" d="M1100 1187T1115 1172T1130 1122V700Q1130 667 1103 652T1018 637Q963 637 942 651T920 700V972H739V205H955Q979 205 992 197T1011 166T1018 102Q1018 60 1012 38T992 8T955 0H273Q249 0 236 8T217 38T210 102Q210 144 216
166T236 196T273 205H489V972H308V700Q308 667 281 652T196 637Q141 637 120 651T98 700V1122Q98 1157 113 1172T163 1187H1065Q1100 1187 1115 1172Z" />
<glyph unicode="U" glyph-name="U" d="M1139 1187T1152 1179T1171 1148T1178 1084Q1178 1042 1172 1020T1152 990T1115 982H1068V413Q1068 275 1013 177T856 29T614 -22Q474 -22 372 28T215 177T160 413V982H113Q89 982 76 990T57 1020T50 1084Q50 1126 56 1148T76
1178T113 1187H487Q511 1187 524 1179T543 1148T550 1084Q550 1042 544 1020T524 990T487 982H410V433Q410 318 465 262T614 205Q708 205 763 261T818 433V982H741Q717 982 704 990T685 1020T678 1084Q678 1126 684 1148T704 1178T741 1187H1115Q1139 1187 1152
1179Z" />
<glyph unicode="V" glyph-name="V" d="M1199 1187T1212 1179T1231 1148T1238 1084Q1238 1042 1232 1020T1212 990T1175 982H1107L744 43Q730 7 701 -7T611 -22Q550 -22 522 -7T480 43L130 982H53Q29 982 16 990T-3 1020T-10 1084Q-10 1126 -4 1148T16 1178T53
1187H487Q511 1187 524 1179T543 1148T550 1084Q550 1042 544 1020T524 990T487 982H398L613 369L842 982H771Q747 982 734 990T715 1020T708 1084Q708 1126 714 1148T734 1178T771 1187H1175Q1199 1187 1212 1179Z" />
<glyph unicode="W" glyph-name="W" d="M1209 1187T1222 1179T1241 1148T1248 1084Q1248 1042 1242 1020T1222 990T1185 982H1129L1028 43Q1025 18 1014 4T978 -16T907 -22Q841 -22 812 -7T770 43L610 514L448 43Q436 8 406 -7T309 -22Q263 -22 239 -16T204 4T190
43L93 982H43Q19 982 6 990T-13 1020T-20 1084Q-20 1126 -14 1148T6 1178T43 1187H437Q461 1187 474 1179T493 1148T500 1084Q500 1042 494 1020T474 990T437 982H320L373 398L519 826Q526 849 546 861T613 873Q663 873 685 864T713 833L860 398L914 982H811Q787
982 774 990T755 1020T748 1084Q748 1126 754 1148T774 1178T811 1187H1185Q1209 1187 1222 1179Z" />
<glyph unicode="X" glyph-name="X" d="M1129 1187T1142 1179T1161 1148T1168 1084Q1168 1042 1162 1020T1142 990T1105 982H1049L783 604L1074 205H1135Q1159 205 1172 197T1191 166T1198 102Q1198 60 1192 38T1172 8T1135 0H731Q707 0 694 8T675 38T668 102Q668
144 674 166T694 196T731 205H783L610 449L439 205H477Q501 205 514 197T533 166T540 102Q540 60 534 38T514 8T477 0H93Q69 0 56 8T37 38T30 102Q30 144 36 166T56 196T93 205H155L446 615L183 982H123Q99 982 86 990T67 1020T60 1084Q60 1126 66 1148T86 1178T123
1187H517Q541 1187 554 1179T573 1148T580 1084Q580 1042 574 1020T554 990T517 982H474L620 773L765 982H741Q717 982 704 990T685 1020T678 1084Q678 1126 684 1148T704 1178T741 1187H1105Q1129 1187 1142 1179Z" />
<glyph unicode="Y" glyph-name="Y" d="M1149 1187T1162 1179T1181 1148T1188 1084Q1188 1042 1182 1020T1162 990T1125 982H1081L739 459V205H935Q959 205 972 197T991 166T998 102Q998 60 992 38T972 8T935 0H293Q269 0 256 8T237 38T230 102Q230 144 236 166T256
196T293 205H489V460L149 982H103Q79 982 66 990T47 1020T40 1084Q40 1126 46 1148T66 1178T103 1187H497Q521 1187 534 1179T553 1148T560 1084Q560 1042 554 1020T534 990T497 982H430L616 690L804 982H751Q727 982 714 990T695 1020T688 1084Q688 1126 694 1148T714
1178T751 1187H1125Q1149 1187 1162 1179Z" />
<glyph unicode="Z" glyph-name="Z" d="M1041 1187T1054 1179T1073 1148T1080 1084Q1080 1023 1057 992L483 215H850V437Q850 471 879 485T972 500Q1034 500 1057 486T1080 437V65Q1080 31 1065 16T1015 0H201Q177 0 164 8T145 38T138 102Q138 168 158 195L732
972H398V770Q398 736 369 722T276 707Q214 707 191 721T168 770V1122Q168 1157 183 1172T233 1187H1017Q1041 1187 1054 1179Z" />
<glyph unicode="[" glyph-name="bracketleft" d="M898 -108T912 -131T926 -221Q926 -287 912 -310T863 -333H353Q319 -333 305 -319T290 -270V1309Q290 1343 304 1357T353 1372H863Q898 1372 912 1349T926 1259Q926 1193 912 1170T863 1147H540V-108H863Q898 -108
912 -131Z" />
<glyph unicode="\" glyph-name="backslash" d="M381 1399T399 1356L1065 -262Q1069 -271 1069 -282Q1069 -316 1024 -338T911 -360Q847 -360 829 -317L163 1301Q159 1310 159 1321Q159 1355 204 1377T317 1399Q381 1399 399 1356Z" />
<glyph unicode="]" glyph-name="bracketright" d="M909 1372T923 1358T938 1309V-270Q938 -304 924 -318T875 -333H365Q330 -333 316 -310T302 -221Q302 -155 316 -132T365 -108H688V1147H365Q330 1147 316 1170T302 1259Q302 1325 316 1348T365 1372H875Q909
1372 923 1358Z" />
<glyph unicode="^" glyph-name="asciicircum" d="M656 1209T679 1200T712 1172L1030 562Q1035 552 1035 544Q1035 521 1008 504T940 476Q906 468 878 468Q849 468 829 475T801 497L614 887L427 497Q420 483 400 476T350 468Q322 468 288 476Q247 486 220 503T193
544Q193 552 198 562L516 1172Q525 1191 548 1200T614 1209Q656 1209 679 1200Z" />
<glyph unicode="_" glyph-name="underscore" d="M1246 -288T1253 -296T1263 -329T1266 -401Q1266 -449 1263 -472T1253 -504T1233 -513H-5Q-18 -513 -25 -505T-35 -473T-38 -401Q-38 -353 -35 -329T-25 -297T-5 -288H1233Q1246 -288 1253 -296Z" />
<glyph unicode="`" glyph-name="grave" d="M820 1163T820 1135Q820 1107 798 1072Q766 1021 730 1021Q718 1021 707 1027L300 1232Q276 1244 276 1276Q276 1315 316 1369Q373 1444 419 1444Q436 1444 452 1433L799 1178Q820 1163 820 1135Z" />
<glyph unicode="a" glyph-name="a" d="M823 946T921 851T1019 579V290Q1019 250 1036 228T1085 205H1116Q1140 205 1153 197T1172 166T1179 102Q1179 60 1173 38T1153 8T1116 0H1004Q942 0 895 25T822 106Q743 45 655 12T474 -22Q361 -22 279 16T154 126T110 295Q110
435 209 512T486 589Q619 589 769 559V588Q769 655 727 687T579 719Q520 719 448 705T304 666Q287 661 275 661Q250 661 231 679T195 742Q180 786 180 814Q180 865 226 882Q315 914 415 930T603 946Q823 946 921 851ZM441 383T405 358T368 285Q368 238 403 214T506
189Q575 189 642 216T769 292V356Q637 383 511 383Q441 383 405 358Z" />
<glyph unicode="b" glyph-name="b" d="M408 1312T422 1298T437 1249V828Q488 885 555 915T700 946Q831 946 929 882T1079 708T1131 462Q1131 326 1079 216T929 42T700 -22Q605 -22 527 22T397 147V63Q397 29 383 15T334 0H110Q86 0 73 8T54 39T47 103Q47 145 53
167T73 197T110 205H187V1107H90Q66 1107 53 1115T34 1145T27 1209Q27 1251 33 1273T53 1303T90 1312H374Q408 1312 422 1298ZM596 719T544 689T461 601T430 462Q430 382 461 324T544 235T660 205Q722 205 768 236T838 326T863 462Q863 540 839 598T768 687T660
719Q596 719 544 689Z" />
<glyph unicode="c" glyph-name="c" d="M1017 946T1040 932T1063 883V562Q1063 528 1033 514T931 499Q884 499 859 505T823 525T813 562Q813 604 793 640T732 697T634 719Q562 719 508 688T425 598T395 462Q395 385 424 327T508 237T634 205Q711 205 791 230T948
299Q966 309 981 309Q1026 309 1060 230Q1078 187 1078 157Q1078 112 1035 88Q942 36 840 7T634 -22Q482 -22 367 40T190 212T127 462Q127 602 190 712T361 884T604 946Q766 946 833 829V883Q833 917 862 931T955 946Q1017 946 1040 932Z" />
<glyph unicode="d" glyph-name="d" d="M1012 1312T1026 1298T1041 1249V205H1128Q1152 205 1165 197T1184 167T1191 103Q1191 61 1185 39T1165 9T1128 0H894Q860 0 846 14T831 63V147Q779 67 701 23T528 -22Q397 -22 299 42T149 216T97 462Q97 598 149 708T299
882T528 946Q606 946 673 916T791 828V1107H644Q620 1107 607 1115T588 1145T581 1209Q581 1251 587 1273T607 1303T644 1312H978Q1012 1312 1026 1298ZM506 719T460 688T390 598T365 462Q365 384 389 326T460 237T568 205Q632 205 684 235T767 323T798 462Q798
542 767 600T684 689T568 719Q506 719 460 688Z" />
<glyph unicode="e" glyph-name="e" d="M780 946T887 881T1048 699T1103 432Q1103 398 1089 384T1040 370H398Q417 290 479 248T638 205Q793 205 974 260Q986 264 998 264Q1020 264 1036 244T1065 176Q1075 139 1075 113Q1075 87 1064 73T1026 49Q926 16 822 -3T618
-22Q466 -22 356 40T189 211T131 462Q131 602 191 712T364 884T628 946Q780 946 887 881ZM445 719T402 565H842Q825 638 770 678T628 719Q445 719 402 565Z" />
<glyph unicode="f" glyph-name="f" d="M922 1317T1074 1260Q1099 1251 1111 1235T1124 1190Q1124 1164 1114 1128Q1102 1084 1085 1065T1043 1046Q1031 1046 1014 1051Q887 1090 792 1090Q663 1090 663 924V864H974Q1009 864 1023 841T1037 756Q1037 694 1023
672T974 649H663V205H944Q968 205 981 197T1000 166T1007 102Q1007 60 1001 38T981 8T944 0H230Q206 0 193 8T174 38T167 102Q167 144 173 166T193 196T230 205H413V649H230Q195 649 181 671T167 756Q167 818 181 841T230 864H413V937Q413 1123 504 1220T770 1317Q922
1317 1074 1260Z" />
<glyph unicode="g" glyph-name="g" d="M623 946T701 906T831 791V861Q831 895 845 909T894 924H1128Q1152 924 1165 916T1184 885T1191 821Q1191 779 1185 757T1165 727T1128 719H1041V1Q1041 -195 924 -302T572 -410Q486 -410 384 -394T189 -348Q141 -333 141
-279Q141 -255 154 -209Q169 -162 187 -141T231 -120Q244 -120 255 -124Q446 -183 562 -183Q683 -183 737 -133T791 21V123Q740 68 673 38T528 8Q399 8 301 68T150 235T97 477Q97 612 150 718T301 885T528 946Q623 946 701 906ZM475 719T420 656T365 477Q365 362
420 299T568 235Q632 235 684 262T767 344T798 477Q798 555 768 609T685 691T568 719Q475 719 420 656Z" />
<glyph unicode="h" glyph-name="h" d="M428 1312T442 1298T457 1249V763Q577 946 747 946Q838 946 906 906T1012 793T1049 620V205H1126Q1150 205 1163 197T1182 166T1189 102Q1189 60 1183 38T1163 8T1126 0H752Q728 0 715 8T696 38T689 102Q689 144 695 166T715
196T752 205H799V561Q799 639 772 679T682 719Q624 719 572 671T489 541T457 368V205H504Q528 205 541 197T560 166T567 102Q567 60 561 38T541 8T504 0H130Q106 0 93 8T74 38T67 102Q67 144 73 166T93 196T130 205H207V1107H110Q86 1107 73 1115T54 1145T47 1209Q47
1251 53 1273T73 1303T110 1312H394Q428 1312 442 1298Z" />
<glyph unicode="i" glyph-name="i" d="M724 924T738 910T753 861V205H1034Q1058 205 1071 197T1090 166T1097 102Q1097 60 1091 38T1071 8T1034 0H230Q206 0 193 8T174 38T167 102Q167 144 173 166T193 196T230 205H503V719H290Q266 719 253 727T234 757T227 821Q227
863 233 885T253 915T290 924H690Q724 924 738 910ZM696 1363T724 1349T753 1300V1136Q753 1102 727 1088T630 1073Q560 1073 532 1087T503 1136V1300Q503 1335 529 1349T625 1363Q696 1363 724 1349Z" />
<glyph unicode="j" glyph-name="j" d="M894 924T908 910T923 861V-30Q923 -216 832 -313T566 -410Q480 -410 388 -386T204 -315Q159 -293 159 -248Q159 -220 177 -178Q195 -136 214 -117T258 -97Q272 -97 293 -105Q375 -142 436 -162T544 -183Q673 -183 673 -17V719H290Q266
719 253 727T234 757T227 821Q227 863 233 885T253 915T290 924H860Q894 924 908 910ZM866 1363T894 1349T923 1300V1136Q923 1102 897 1088T800 1073Q730 1073 702 1087T673 1136V1300Q673 1335 699 1349T795 1363Q866 1363 894 1349Z" />
<glyph unicode="k" glyph-name="k" d="M1141 205T1155 184T1169 102Q1169 60 1163 38T1143 8T1106 0H935Q885 0 857 40L605 390L467 285V205H554Q578 205 591 197T610 166T617 102Q617 60 611 38T591 8T554 0H140Q116 0 103 8T84 38T77 102Q77 144 83 166T103
196T140 205H217V1107H120Q96 1107 83 1115T64 1145T57 1209Q57 1251 63 1273T83 1303T120 1312H404Q438 1312 452 1298T467 1249V527L727 739H677Q642 739 628 758T614 831Q614 886 628 905T677 924H1091Q1126 924 1140 905T1154 831Q1154 777 1140 758T1091 739H1051L802
538L1045 205H1106Q1141 205 1155 184Z" />
<glyph unicode="l" glyph-name="l" d="M714 1312T728 1298T743 1249V205H1024Q1048 205 1061 197T1080 166T1087 102Q1087 60 1081 38T1061 8T1024 0H220Q196 0 183 8T164 38T157 102Q157 144 163 166T183 196T220 205H493V1107H260Q236 1107 223 1115T204 1145T197
1209Q197 1251 203 1273T223 1303T260 1312H680Q714 1312 728 1298Z" />
<glyph unicode="m" glyph-name="m" d="M1058 946T1111 871T1164 643V63Q1164 29 1150 15T1101 0H977Q943 0 929 14T914 63V586Q914 639 902 664T862 689Q815 689 788 616T760 403V63Q760 29 746 15T697 0H573Q539 0 525 14T510 63V586Q510 639 498 664T458 689Q411
689 384 616T356 403V63Q356 29 342 15T293 0H169Q135 0 121 14T106 63V719H49Q25 719 12 727T-7 757T-14 821Q-14 863 -8 885T12 915T49 924H223Q257 924 271 910T286 861V717Q333 830 396 888T536 946Q684 946 727 743Q773 843 834 894T966 946Q1058 946 1111
871Z" />
<glyph unicode="n" glyph-name="n" d="M848 946T916 906T1022 793T1059 620V205H1136Q1160 205 1173 197T1192 166T1199 102Q1199 60 1193 38T1173 8T1136 0H762Q738 0 725 8T706 38T699 102Q699 144 705 166T725 196T762 205H809V561Q809 639 782 679T692 719Q634
719 582 671T499 541T467 368V205H514Q538 205 551 197T570 166T577 102Q577 60 571 38T551 8T514 0H140Q116 0 103 8T84 38T77 102Q77 144 83 166T103 196T140 205H217V719H120Q96 719 83 727T64 757T57 821Q57 863 63 885T83 915T120 924H364Q398 924 412 910T427
861V716Q559 946 757 946Q848 946 916 906Z" />
<glyph unicode="o" glyph-name="o" d="M766 946T880 884T1055 712T1117 462Q1117 322 1056 212T880 40T614 -22Q462 -22 348 40T173 212T111 462Q111 602 172 712T348 884T614 946Q766 946 880 884ZM542 719T489 688T408 598T379 462Q379 384 407 326T489 237T614
205Q686 205 739 236T820 326T849 462Q849 540 821 598T739 687T614 719Q542 719 489 688Z" />
<glyph unicode="p" glyph-name="p" d="M831 946T929 882T1079 708T1131 462Q1131 326 1079 216T929 42T700 -22Q622 -22 555 8T437 96V-183H604Q628 -183 641 -191T660 -221T667 -285Q667 -327 661 -349T641 -379T604 -388H100Q76 -388 63 -380T44 -350T37 -286Q37
-244 43 -222T63 -192T100 -183H187V719H100Q76 719 63 727T44 757T37 821Q37 863 43 885T63 915T100 924H334Q368 924 382 910T397 861V777Q449 857 527 901T700 946Q831 946 929 882ZM596 719T544 689T461 601T430 462Q430 382 461 324T544 235T660 205Q722 205
768 236T838 326T863 462Q863 540 839 598T768 687T660 719Q596 719 544 689Z" />
<glyph unicode="q" glyph-name="q" d="M623 946T701 902T831 777V861Q831 895 845 909T894 924H1128Q1152 924 1165 916T1184 885T1191 821Q1191 779 1185 757T1165 727T1128 719H1041V-183H1128Q1152 -183 1165 -191T1184 -222T1191 -286Q1191 -328 1185 -350T1165
-380T1128 -388H624Q600 -388 587 -380T568 -349T561 -285Q561 -243 567 -221T587 -191T624 -183H791V96Q740 39 673 9T528 -22Q397 -22 299 42T149 216T97 462Q97 598 149 708T299 882T528 946Q623 946 701 902ZM506 719T460 688T390 598T365 462Q365 384 389
326T460 237T568 205Q632 205 684 235T767 323T798 462Q798 542 767 600T684 689T568 719Q506 719 460 688Z" />
<glyph unicode="r" glyph-name="r" d="M1012 946T1087 890Q1131 858 1131 806Q1131 773 1113 728Q1095 683 1073 660T1025 637Q1011 637 995 645Q939 676 879 676Q802 676 735 627T628 492T587 300V205H874Q898 205 911 197T930 166T937 102Q937 60 931 38T911
8T874 0H190Q166 0 153 8T134 38T127 102Q127 144 133 166T153 196T190 205H337V719H220Q196 719 183 727T164 757T157 821Q157 863 163 885T183 915T220 924H494Q528 924 542 910T557 861V644Q632 789 729 867T927 946Q1012 946 1087 890Z" />
<glyph unicode="s" glyph-name="s" d="M970 946T997 932T1024 883V672Q1024 638 1003 624T932 609Q879 609 859 630Q800 693 724 719T548 746Q489 746 456 725T422 669Q422 627 496 609Q535 599 629 590Q722 579 783 568T900 535Q980 502 1025 443T1070 287Q1070
192 1024 123T888 16T672 -22Q533 -22 414 49V41Q414 7 385 -7T292 -22Q228 -22 201 -8T174 41V264Q174 297 197 312T270 327Q331 327 353 299Q403 236 481 207T652 178Q812 178 812 261Q812 286 790 301T723 326Q698 331 607 344Q506 356 434 371T302 420Q164
496 164 660Q164 747 211 812T340 911T526 946Q677 946 794 873V883Q794 917 818 931T906 946Q970 946 997 932Z" />
<glyph unicode="t" glyph-name="t" d="M532 1209T557 1203T593 1183T603 1146V864H974Q1009 864 1023 841T1037 756Q1037 694 1023 672T974 649H603V371Q603 205 732 205Q778 205 839 225T983 283Q1005 292 1018 292Q1039 292 1057 275T1091 217Q1109 172 1109
144Q1109 122 1099 108T1067 82Q861 -22 710 -22Q536 -22 445 75T353 358V649H160Q125 649 111 671T97 756Q97 818 111 841T160 864H353V1146Q353 1180 383 1194T485 1209Q532 1209 557 1203Z" />
<glyph unicode="u" glyph-name="u" d="M1003 924T1017 910T1032 861V205H1109Q1133 205 1146 197T1165 167T1172 103Q1172 61 1166 39T1146 9T1109 0H885Q851 0 837 14T822 63V208Q690 -22 492 -22Q401 -22 333 18T227 131T190 304V719H113Q89 719 76 727T57 758T50
822Q50 864 56 886T76 916T113 924H377Q411 924 425 910T440 861V363Q440 285 467 245T557 205Q615 205 667 253T750 383T782 556V719H675Q651 719 638 727T619 758T612 822Q612 864 618 886T638 916T675 924H969Q1003 924 1017 910Z" />
<glyph unicode="v" glyph-name="v" d="M1149 924T1162 916T1181 885T1188 821Q1188 779 1182 757T1162 727T1125 719H1057L764 43Q749 8 715 -7T611 -22Q541 -22 508 -7T460 43L169 719H103Q79 719 66 727T47 757T40 821Q40 863 46 885T66 915T103 924H507Q531
924 544 916T563 885T570 821Q570 779 564 757T544 727T507 719H440L617 278L796 719H741Q717 719 704 727T685 757T678 821Q678 863 684 885T704 915T741 924H1125Q1149 924 1162 916Z" />
<glyph unicode="w" glyph-name="w" d="M1209 924T1222 916T1241 885T1248 821Q1248 779 1242 757T1222 727T1185 719H1144L998 43Q990 7 964 -7T877 -22Q819 -22 791 -7T750 43L610 398L468 43Q454 8 426 -7T339 -22Q279 -22 254 -8T220 43L77 719H43Q19 719 6
727T-13 757T-20 821Q-20 863 -14 885T6 915T43 924H387Q411 924 424 916T443 885T450 821Q450 779 444 757T424 727T387 719H302L377 331L515 670Q526 698 548 712T611 727Q654 727 675 715T708 677L845 331L923 719H851Q827 719 814 727T795 757T788 821Q788
863 794 885T814 915T851 924H1185Q1209 924 1222 916Z" />
<glyph unicode="x" glyph-name="x" d="M1109 924T1122 916T1141 885T1148 821Q1148 779 1142 757T1122 727T1085 719H1026L785 468L1044 205H1095Q1119 205 1132 197T1151 166T1158 102Q1158 60 1152 38T1132 8T1095 0H711Q687 0 674 8T655 38T648 102Q648 144
654 166T674 196T711 205H725L594 339L470 205H487Q511 205 524 197T543 166T550 102Q550 60 544 38T524 8T487 0H133Q109 0 96 8T77 38T70 102Q70 144 76 166T96 196T133 205H187L441 469L195 719H143Q119 719 106 727T87 757T80 821Q80 863 86 885T106 915T143
924H517Q541 924 554 916T573 885T580 821Q580 779 574 757T554 727T517 719H504L632 588L753 719H731Q707 719 694 727T675 757T668 821Q668 863 674 885T694 915T731 924H1085Q1109 924 1122 916Z" />
<glyph unicode="y" glyph-name="y" d="M1149 924T1162 916T1181 885T1188 821Q1188 779 1182 757T1162 727T1125 719H1061L678 -57Q608 -198 545 -271T400 -375T189 -410Q153 -411 135 -383T116 -281Q116 -230 129 -208T168 -184Q247 -179 296 -154T386 -75T484
90L178 719H103Q79 719 66 727T47 757T40 821Q40 863 46 885T66 915T103 924H507Q531 924 544 916T563 885T570 821Q570 779 564 757T544 727T507 719H447L621 339L795 719H741Q717 719 704 727T685 757T678 821Q678 863 684 885T704 915T741 924H1125Q1149 924
1162 916Z" />
<glyph unicode="z" glyph-name="z" d="M1041 924T1054 916T1073 886T1080 822Q1080 795 1073 777T1048 740L525 205H850V329Q850 364 876 378T972 392Q1019 392 1042 386T1072 367T1080 329V65Q1080 31 1065 16T1015 0H201Q177 0 164 8T145 38T138 102Q138 129
145 147T170 184L693 719H388V605Q388 570 362 556T266 542Q219 542 196 548T166 567T158 605V859Q158 894 173 909T223 924H1017Q1041 924 1054 916Z" />
<glyph unicode="{" glyph-name="braceleft" d="M970 1372T984 1351T998 1267Q998 1221 992 1198T973 1167T935 1159Q837 1159 784 1138T711 1071T695 947L700 850L701 824Q701 719 647 651T470 547V537Q593 503 648 434T704 263Q704 243 703 233L694 102Q693 90
693 66Q693 -1 716 -41T792 -100T935 -120Q959 -120 972 -127T992 -158T998 -227Q998 -289 984 -311T935 -333Q684 -333 563 -245T442 30Q442 59 445 90L458 233Q459 241 459 257Q459 342 400 388T228 435Q204 435 191 443T172 475T165 542Q165 586 171 608T191
639T228 648Q340 648 397 694T455 825Q455 841 454 850L444 959Q441 989 441 1017Q441 1198 562 1285T935 1372Q970 1372 984 1351Z" />
<glyph unicode="|" glyph-name="bar" d="M685 1394T712 1380T739 1331V-292Q739 -325 706 -340T607 -355Q543 -355 516 -341T489 -292V1331Q489 1364 522 1379T621 1394Q685 1394 712 1380Z" />
<glyph unicode="}" glyph-name="braceright" d="M545 1372T666 1285T787 1017Q787 989 784 959L774 850Q773 841 773 825Q773 740 830 694T1000 648Q1024 648 1037 640T1056 609T1063 542Q1063 498 1057 475T1037 444T1000 435Q888 435 829 389T769 257Q769 241
770 233L783 90Q786 59 786 30Q786 -156 665 -244T293 -333Q258 -333 244 -311T230 -227Q230 -181 236 -158T255 -128T293 -120Q383 -120 436 -101T512 -41T535 66Q535 90 534 102L525 233Q524 243 524 263Q524 365 579 434T758 537V547Q627 584 575 659T528 850L533
947Q534 957 534 975Q534 1042 512 1081T437 1140T293 1159Q269 1159 256 1167T236 1198T230 1267Q230 1329 244 1350T293 1372Q545 1372 666 1285Z" />
<glyph unicode="~" glyph-name="asciitilde" d="M483 765T530 748T643 696Q696 668 733 654T806 639Q845 639 875 655T938 705Q956 724 978 724Q1011 724 1052 687Q1099 646 1099 609Q1099 592 1086 571Q1027 484 958 440T798 396Q744 396 696 414T583 466Q529
494 493 508T422 522Q383 522 353 506T290 456Q272 437 250 437Q217 437 176 474Q129 515 129 552Q129 569 142 590Q201 677 270 721T430 765Q483 765 530 748Z" />
<glyph unicode="&#xa0;" glyph-name="uni00A0" />
<glyph unicode="&#xa1;" glyph-name="exclamdown" d="M532 594T496 608T459 657V871Q459 905 495 919T614 934Q696 934 732 920T769 871V657Q769 623 733 609T614 594Q532 594 496 608ZM476 -345T466 -333T458 -295L515 362Q520 420 614 420Q708 420 713 362L770
-295Q772 -321 762 -333T729 -345H499Q476 -345 466 -333Z" />
<glyph unicode="&#xa2;" glyph-name="cent" d="M1078 327T1078 297Q1078 252 1035 228Q879 141 711 122V-62Q711 -97 692 -111T618 -125Q563 -125 544 -111T525 -62V127Q403 148 314 213T176 379T127 602Q127 728 178 830T319 998T525 1080V1249Q525 1284 544
1298T618 1312Q673 1312 692 1298T711 1249V1070Q790 1043 833 969V1023Q833 1057 862 1071T955 1086Q1017 1086 1040 1072T1063 1023V702Q1063 668 1033 654T931 639Q884 639 859 645T823 665T813 702Q813 750 787 789T711 846V351Q829 370 948 439Q966 449 981
449Q1026 449 1060 370Q1078 327 1078 297ZM395 519T429 458T525 368V836Q464 807 430 746T395 602Q395 519 429 458Z" />
<glyph unicode="&#xa3;" glyph-name="sterling" d="M782 1209T955 1120Q1001 1096 1001 1057V850Q1001 816 972 802T879 787Q817 787 794 801T771 850V961Q707 992 628 992Q566 992 531 956T495 858Q495 815 510 779T555 690Q559 682 565 673T577 650H865Q889
650 902 641T921 608T928 537Q928 490 922 466T902 434T865 425H624Q616 366 587 313T509 207Q584 235 650 235Q689 235 738 226Q792 218 818 218Q884 218 951 251Q958 255 967 255Q987 255 1007 235T1042 184Q1061 144 1061 107Q1061 70 1040 56Q981 12 927 -6T818
-24Q787 -24 756 -20T682 -7Q631 3 594 8T515 13Q401 13 287 -34Q283 -36 275 -36Q256 -36 236 -16T199 34Q178 78 178 111Q178 146 199 161Q288 231 329 289T375 425H213Q189 425 176 433T157 466T150 537Q150 584 156 608T176 641T213 650H308Q276 711 259 760T241
867Q241 965 286 1042T416 1164T620 1209Q782 1209 955 1120Z" />
<glyph unicode="&#xa4;" glyph-name="currency" d="M1126 250T1126 232Q1126 217 1113 197T1069 147Q1040 117 1020 104T985 91Q967 91 946 112L813 245Q722 198 614 198Q506 198 415 245L282 112Q261 91 243 91Q228 91 208 104T159 147Q129 177 116 197T102 232Q102
250 123 271L254 402Q204 493 204 602Q204 712 254 804L124 934Q103 955 103 973Q103 988 116 1008T159 1057Q189 1087 209 1100T244 1114Q262 1114 283 1093L416 960Q505 1006 614 1006Q723 1006 812 960L945 1093Q966 1114 984 1114Q999 1114 1019 1101T1069
1057Q1099 1028 1112 1008T1125 973Q1125 955 1104 934L974 804Q1024 712 1024 602Q1024 493 974 402L1105 271Q1126 250 1126 232ZM426 548T449 505T516 438T614 414Q669 414 712 438T778 505T802 602Q802 656 779 699T712 766T614 790Q559 790 516 766T450 699T426
602Q426 548 449 505Z" />
<glyph unicode="&#xa5;" glyph-name="yen" d="M1149 1187T1162 1179T1181 1148T1188 1084Q1188 1042 1182 1020T1162 990T1125 982H1081L988 840H1045Q1080 840 1094 821T1108 747Q1108 693 1094 674T1045 655H867L773 512H1025Q1060 512 1074 493T1088 419Q1088
365 1074 346T1025 327H739V205H935Q959 205 972 197T991 166T998 102Q998 60 992 38T972 8T935 0H293Q269 0 256 8T237 38T230 102Q230 144 236 166T256 196T293 205H489V327H203Q168 327 154 346T140 419Q140 474 154 493T203 512H455L362 655H183Q148 655 134
674T120 747Q120 802 134 821T183 840H241L149 982H103Q79 982 66 990T47 1020T40 1084Q40 1126 46 1148T66 1178T103 1187H497Q521 1187 534 1179T553 1148T560 1084Q560 1042 554 1020T534 990T497 982H430L616 690L804 982H751Q727 982 714 990T695 1020T688
1084Q688 1126 694 1148T714 1178T751 1187H1125Q1149 1187 1162 1179Z" />
<glyph unicode="&#xa6;" glyph-name="brokenbar" d="M685 1394T712 1380T739 1331V708Q739 675 706 660T607 645Q543 645 516 659T489 708V1331Q489 1364 522 1379T621 1394Q685 1394 712 1380ZM685 394T712 380T739 331V-292Q739 -325 706 -340T607 -355Q543
-355 516 -341T489 -292V331Q489 364 522 379T621 394Q685 394 712 380Z" />
<glyph unicode="&#xa7;" glyph-name="section" d="M988 1187T1003 1172T1018 1122V860Q1018 826 989 812T896 797Q834 797 811 811T788 860V992H595Q552 992 529 974T506 920Q506 851 592 809L883 664Q973 619 1021 545T1069 374Q1069 235 955 140Q970 95 970
41Q970 -40 935 -101T833 -196T669 -230H275Q241 -230 226 -215T210 -165V97Q210 131 239 145T332 160Q394 160 417 146T440 97V-35H633Q676 -35 699 -17T722 37Q722 106 636 148L345 293Q255 338 207 412T159 583Q159 723 272 816Q258 864 258 916Q258 997 293
1058T395 1153T559 1187H953Q988 1187 1003 1172ZM407 620T407 592Q407 553 431 523T507 467L772 335Q793 324 808 315Q821 337 821 365Q821 404 797 434T721 490L456 622Q443 628 419 642Q407 620 407 592Z" />
<glyph unicode="&#xa8;" glyph-name="dieresis" d="M462 1363T490 1349T519 1300V1136Q519 1102 493 1088T396 1073Q326 1073 298 1087T269 1136V1300Q269 1335 295 1349T391 1363Q462 1363 490 1349ZM902 1363T930 1349T959 1300V1136Q959 1102 933 1088T836
1073Q766 1073 738 1087T709 1136V1300Q709 1335 735 1349T831 1363Q902 1363 930 1349Z" />
<glyph unicode="&#xa9;" glyph-name="copyright" d="M780 1209T913 1129T1122 908T1198 594Q1198 421 1123 280T914 59T613 -22Q446 -22 313 58T104 280T28 594Q28 767 103 907T312 1128T613 1209Q780 1209 913 1129ZM484 1056T386 996T235 831T181 594Q181 463
234 358T386 192T613 131Q742 131 840 191T991 357T1045 594Q1045 725 992 830T840 996T613 1056Q484 1056 386 996ZM686 937T734 926T825 894Q843 885 851 873T860 844Q860 823 848 791Q836 760 825 746T796 732Q786 732 777 736Q697 764 639 764Q568 764 527
719T485 593Q485 512 526 467T639 422Q697 422 777 450Q786 454 796 454Q813 454 824 440T848 395Q860 364 860 342Q860 325 852 313T825 292Q783 271 735 260T639 249Q543 249 468 290T350 409T307 593Q307 699 349 776T467 895T639 937Q686 937 734 926Z" />
<glyph unicode="&#xaa;" glyph-name="ordfeminine" d="M777 1209T852 1136T928 927V705Q928 674 941 657T978 640H1002Q1029 640 1040 624T1051 560Q1051 513 1041 498T1002 482H916Q814 482 776 563Q715 516 647 491T508 465Q377 465 303 530T229 709Q229 816
305 875T518 935Q617 935 735 912V934Q735 984 701 1009T586 1035Q503 1035 378 994Q367 990 356 990Q335 990 320 1007T293 1060Q283 1088 283 1107Q283 1143 318 1156Q388 1182 465 1195T608 1209Q777 1209 852 1136ZM483 776T455 757T427 701Q427 665 454 646T533
627Q586 627 638 648T735 706V756Q634 776 537 776Q483 776 455 757Z" />
<glyph unicode="&#xab;" glyph-name="guillemotleft" d="M397 946T422 946Q457 946 514 907Q579 863 579 821Q579 803 565 786L356 536L565 285Q579 268 579 250Q579 208 514 164Q457 125 422 125Q397 125 382 144L103 510Q94 522 94 536Q94 551 103 561L382 927Q397
946 422 946ZM917 946T942 946Q977 946 1034 907Q1099 863 1099 821Q1099 803 1085 786L876 536L1085 285Q1099 268 1099 250Q1099 208 1034 164Q977 125 942 125Q917 125 902 144L623 510Q614 522 614 536Q614 551 623 561L902 927Q917 946 942 946Z" />
<glyph unicode="&#xac;" glyph-name="logicalnot" d="M1068 845T1083 830T1098 780V308Q1098 274 1068 260T966 245Q919 245 894 251T858 271T848 308V630H183Q159 630 146 638T127 670T120 738Q120 783 126 805T146 836T183 845H1033Q1068 845 1083 830Z" />
<glyph unicode="&#xad;" glyph-name="uni00AD" d="M989 551T1002 542T1021 509T1028 438Q1028 391 1022 367T1002 335T965 326H263Q239 326 226 334T207 367T200 438Q200 485 206 509T226 542T263 551H965Q989 551 1002 542Z" />
<glyph unicode="&#xae;" glyph-name="registered" d="M752 1334T863 1267T1038 1083T1101 822Q1101 678 1038 561T864 376T613 308Q474 308 363 375T188 560T125 822Q125 966 188 1083T362 1267T613 1334Q752 1334 863 1267ZM506 1206T424 1156T298 1019T253 822Q253
712 297 624T424 486T613 436Q720 436 802 486T928 624T973 822Q973 931 929 1018T802 1156T613 1206Q506 1206 424 1156ZM716 1091T762 1064T833 990T858 889Q858 833 832 791T757 725L821 652Q838 632 838 616Q838 594 801 568Q767 545 748 545Q728 545 710 568L611
696H549V606Q549 575 535 564T478 552Q435 552 421 563T407 606V1038Q407 1067 419 1079T460 1091H656Q716 1091 762 1064ZM549 825H631Q668 825 689 842T710 889Q710 918 691 935T639 953H549V825Z" />
<glyph unicode="&#xaf;" glyph-name="overscore" d="M909 1275T922 1267T941 1236T948 1172Q948 1130 942 1108T922 1078T885 1070H343Q319 1070 306 1078T287 1108T280 1172Q280 1214 286 1236T306 1266T343 1275H885Q909 1275 922 1267Z" />
<glyph unicode="&#xb0;" glyph-name="degree" d="M629 1209T703 1166T820 1048T864 887Q864 800 821 726T703 609T542 565Q455 565 381 608T264 726T220 887Q220 974 263 1048T381 1165T542 1209Q629 1209 703 1166ZM496 998T464 966T431 887Q431 841 463 809T542
776Q588 776 620 808T653 887Q653 933 621 965T542 998Q496 998 464 966Z" />
<glyph unicode="&#xb1;" glyph-name="plusminus" d="M661 1126T685 1120T717 1100T726 1063V845H995Q1019 845 1032 836T1051 803T1058 732Q1058 685 1052 661T1032 629T995 620H726V401Q726 377 718 364T685 345T614 338Q567 338 543 344T510 364T501 401V620H233Q209
620 196 628T177 661T170 732Q170 779 176 803T196 836T233 845H501V1063Q501 1087 510 1100T543 1119T614 1126Q661 1126 685 1120ZM1019 225T1032 216T1051 183T1058 112Q1058 65 1052 41T1032 9T995 0H233Q209 0 196 8T177 41T170 112Q170 159 176 183T196 216T233
225H995Q1019 225 1032 216Z" />
<glyph unicode="&#xb2;" glyph-name="uni00B2" d="M738 1334T806 1301T909 1207T944 1067Q944 989 897 926T758 796L560 653H798V699Q798 724 816 735T884 747Q936 747 959 735T983 699V529Q983 504 973 494T937 483H332Q307 483 293 507T279 583Q279 638 307
659L634 912Q690 954 716 987T742 1058Q742 1106 711 1133T625 1161Q591 1161 557 1155T493 1135V1047Q493 1022 475 1011T407 999Q355 999 332 1011T308 1047V1220Q308 1248 339 1265Q403 1299 483 1316T641 1334Q738 1334 806 1301Z" />
<glyph unicode="&#xb3;" glyph-name="uni00B3" d="M776 1334T859 1268T942 1084Q942 966 820 907Q884 883 919 835T954 718Q954 593 863 529T603 465Q529 465 450 480T314 519Q280 533 280 573Q280 596 290 623Q302 657 318 674T350 692Q358 692 362 690Q417 667
478 653T594 638Q742 638 742 724Q742 767 715 789T635 811H542Q518 811 506 831T494 897Q494 943 506 963T542 983H616Q678 983 709 1006T740 1074Q740 1115 706 1138T607 1161Q541 1161 471 1135V1077Q471 1052 453 1041T385 1029Q333 1029 310 1041T286 1077V1230Q286
1262 317 1275Q381 1303 461 1318T622 1334Q776 1334 859 1268Z" />
<glyph unicode="&#xb4;" glyph-name="acute" d="M792 1444T809 1444Q855 1444 912 1369Q952 1315 952 1276Q952 1244 928 1232L521 1027Q511 1021 498 1021Q462 1021 430 1072Q408 1107 408 1135Q408 1163 429 1178L776 1433Q792 1444 809 1444Z" />
<glyph unicode="&#xb5;" glyph-name="uni00B5" d="M1027 924T1041 910T1056 861V63Q1056 29 1042 15T993 0H909Q875 0 861 14T846 63V178Q780 84 693 31T506 -22Q472 -22 434 -12V-325Q434 -359 420 -373T371 -388H247Q213 -388 199 -374T184 -325V861Q184 895
198 909T247 924H371Q405 924 419 910T434 861V373Q434 215 571 215Q628 215 682 255T771 362T806 506V861Q806 895 820 909T869 924H993Q1027 924 1041 910Z" />
<glyph unicode="&#xb6;" glyph-name="paragraph" d="M1099 1187T1112 1179T1131 1148T1138 1084Q1138 1042 1132 1020T1112 990T1075 982H1009V-347Q1009 -380 982 -395T897 -410Q842 -410 821 -396T799 -347V982H639V-347Q639 -380 612 -395T527 -410Q472 -410
451 -396T429 -347V440Q330 455 256 503T142 630T101 809Q101 926 154 1011T301 1142T519 1187H1075Q1099 1187 1112 1179Z" />
<glyph unicode="&#xb7;" glyph-name="middot" d="M701 770T740 756T779 707V453Q779 419 740 405T614 390Q527 390 488 404T449 453V707Q449 741 488 755T614 770Q701 770 740 756Z" />
<glyph unicode="&#xb8;" glyph-name="cedilla" d="M801 -83T855 -135T910 -273Q910 -369 839 -420T631 -472Q484 -472 375 -430Q351 -420 351 -391Q351 -372 361 -346Q385 -282 415 -282Q419 -282 427 -284Q509 -313 588 -313Q637 -313 660 -301T684 -262Q684
-236 660 -226T593 -215L570 -216Q562 -217 546 -217Q509 -217 509 -176V28H694V-83Q801 -83 855 -135Z" />
<glyph unicode="&#xb9;" glyph-name="uni00B9" d="M946 653T958 633T970 568Q970 523 958 503T918 483H354Q326 483 315 502T303 568Q303 613 315 633T354 653H542V1094L403 1022Q386 1013 372 1013Q336 1013 309 1072Q293 1107 293 1130Q293 1162 326 1178L634
1326Q652 1334 671 1334Q698 1334 717 1319T737 1275V653H918Q946 653 958 633Z" />
<glyph unicode="&#xba;" glyph-name="ordmasculine" d="M731 1209T819 1161T956 1029T1004 837Q1004 730 956 646T820 513T614 465Q498 465 410 513T273 645T224 837Q224 944 272 1028T409 1161T614 1209Q731 1209 819 1161ZM531 1035T481 981T430 837Q430 747
480 694T614 640Q698 640 748 693T798 837Q798 927 748 981T614 1035Q531 1035 481 981Z" />
<glyph unicode="&#xbb;" glyph-name="guillemotright" d="M614 551T614 536Q614 522 605 510L326 144Q311 125 286 125Q251 125 194 164Q129 208 129 250Q129 268 143 285L352 536L143 786Q129 803 129 821Q129 863 194 907Q251 946 286 946Q311 946 326 927L605
561Q614 551 614 536ZM1134 551T1134 536Q1134 522 1125 510L846 144Q831 125 806 125Q771 125 714 164Q649 208 649 250Q649 268 663 285L872 536L663 786Q649 803 649 821Q649 863 714 907Q771 946 806 946Q831 946 846 927L1125 561Q1134 551 1134 536Z" />
<glyph unicode="&#xbc;" glyph-name="onequarter" d="M545 718T535 701T502 684H31Q7 684 -2 700T-12 755Q-12 793 -2 809T31 826H188V1194L72 1134Q59 1127 46 1127Q16 1127 -7 1176Q-20 1203 -20 1224Q-20 1252 7 1265L264 1388Q278 1395 296 1395Q319 1395
334 1382T350 1346V826H502Q525 826 535 809T545 755Q545 718 535 701ZM1142 764T1142 742Q1142 723 1122 711L185 190Q173 185 165 185Q138 185 109 230Q85 266 85 288Q85 307 105 319L1042 840Q1054 845 1062 845Q1089 845 1118 800Q1142 764 1142 742ZM1230
81T1240 64T1251 10Q1251 -27 1241 -43T1208 -60H1133V-178Q1133 -199 1118 -208T1060 -218Q1012 -218 991 -208T970 -178V-60H680Q661 -60 644 -28T627 40Q627 55 630 64T641 85L951 463Q965 481 986 490T1043 499Q1088 499 1110 487T1133 452V81H1208Q1230 81
1240 64ZM970 81L975 280L820 81H970Z" />
<glyph unicode="&#xbd;" glyph-name="onehalf" d="M545 718T535 701T502 684H31Q7 684 -2 700T-12 755Q-12 793 -2 809T31 826H188V1194L72 1134Q59 1127 46 1127Q16 1127 -7 1176Q-20 1203 -20 1224Q-20 1252 7 1265L264 1388Q278 1395 296 1395Q319 1395 334
1382T350 1346V826H502Q525 826 535 809T545 755Q545 718 535 701ZM1142 814T1142 792Q1142 773 1122 761L185 240Q173 235 165 235Q138 235 109 280Q85 316 85 338Q85 357 105 369L1042 890Q1054 895 1062 895Q1089 895 1118 850Q1142 814 1142 792ZM1207 4T1227
-6T1247 -36V-178Q1247 -199 1238 -208T1208 -217H703Q659 -217 659 -133Q659 -88 682 -70L955 142Q1003 177 1024 204T1046 263Q1046 303 1020 326T948 349Q886 349 838 328V254Q838 233 823 224T766 214Q723 214 703 224T683 254V399Q683 422 709 436Q763 464
829 479T961 494Q1082 494 1148 433T1214 271Q1214 206 1175 153T1059 45L894 -75H1092V-36Q1092 -15 1107 -6T1164 4Q1207 4 1227 -6Z" />
<glyph unicode="&#xbe;" glyph-name="threequarters" d="M405 1394T474 1339T544 1185Q544 1086 442 1037Q495 1017 524 977T554 880Q554 775 478 722T261 668Q200 668 134 680T19 713Q-10 726 -10 759Q-10 776 -1 800Q9 828 22 843T50 858Q53 858 59 856Q106
837 157 825T253 813Q377 813 377 885Q377 920 354 938T287 957H210Q190 957 180 974T169 1029Q169 1067 179 1084T210 1101H271Q375 1101 375 1177Q375 1211 347 1230T264 1249Q208 1249 150 1228V1179Q150 1158 135 1149T78 1139Q-4 1139 -4 1179V1307Q-4 1333
22 1345Q75 1368 141 1381T276 1394Q405 1394 474 1339ZM1054 855T1062 855Q1089 855 1118 810Q1142 774 1142 752Q1142 733 1122 721L185 200Q173 195 165 195Q138 195 109 240Q85 276 85 298Q85 317 105 329L1042 850Q1054 855 1062 855ZM1088 499T1110 487T1133
452V81H1208Q1230 81 1240 64T1251 10Q1251 -27 1241 -43T1208 -60H1133V-178Q1133 -199 1118 -208T1060 -218Q1012 -218 991 -208T970 -178V-60H680Q661 -60 644 -28T627 40Q627 55 630 64T641 85L951 463Q965 481 986 490T1043 499Q1088 499 1110 487ZM820 81H970L975
280L820 81Z" />
<glyph unicode="&#xbf;" glyph-name="questiondown" d="M567 634T533 648T499 697V871Q499 905 533 919T644 934Q721 934 755 920T789 871V697Q789 663 755 649T644 634Q567 634 533 648ZM435 -345T333 -251T230 10Q230 149 305 228T537 351L543 437Q545 462 567
473T644 485Q699 485 721 474T745 437L757 228Q759 184 726 177L623 157Q551 143 516 108T481 10Q481 -58 520 -93T637 -128Q712 -128 790 -98V-6Q790 29 813 43T898 57Q962 57 991 43T1020 -6V-196Q1020 -237 979 -257Q793 -345 628 -345Q435 -345 333 -251Z"
/>
<glyph unicode="&#xc0;" glyph-name="Agrave" d="M737 1187T762 1172T798 1122L1088 205H1175Q1199 205 1212 197T1231 167T1238 103Q1238 61 1232 39T1212 9T1175 0H751Q727 0 714 8T695 39T688 103Q688 145 694 167T714 197T751 205H837L792 350H428L383 205H457Q481
205 494 197T513 167T520 103Q520 61 514 39T494 9T457 0H53Q29 0 16 8T-3 39T-10 103Q-10 145 -4 167T16 197T53 205H137L390 982H223Q199 982 186 990T167 1021T160 1085Q160 1127 166 1149T186 1179T223 1187H697Q737 1187 762 1172ZM609 982L486 555H735L615
982H609ZM782 1433T782 1405Q782 1377 760 1342Q728 1291 692 1291Q680 1291 669 1297L262 1502Q238 1514 238 1546Q238 1585 278 1639Q335 1714 381 1714Q398 1714 414 1703L761 1448Q782 1433 782 1405Z" />
<glyph unicode="&#xc1;" glyph-name="Aacute" d="M737 1187T762 1172T798 1122L1088 205H1175Q1199 205 1212 197T1231 167T1238 103Q1238 61 1232 39T1212 9T1175 0H751Q727 0 714 8T695 39T688 103Q688 145 694 167T714 197T751 205H837L792 350H428L383 205H457Q481
205 494 197T513 167T520 103Q520 61 514 39T494 9T457 0H53Q29 0 16 8T-3 39T-10 103Q-10 145 -4 167T16 197T53 205H137L390 982H223Q199 982 186 990T167 1021T160 1085Q160 1127 166 1149T186 1179T223 1187H697Q737 1187 762 1172ZM609 982L486 555H735L615
982H609ZM730 1714T747 1714Q793 1714 850 1639Q890 1585 890 1546Q890 1514 866 1502L459 1297Q449 1291 436 1291Q400 1291 368 1342Q346 1377 346 1405Q346 1433 367 1448L714 1703Q730 1714 747 1714Z" />
<glyph unicode="&#xc2;" glyph-name="Acircumflex" d="M737 1187T762 1172T798 1122L1088 205H1175Q1199 205 1212 197T1231 167T1238 103Q1238 61 1232 39T1212 9T1175 0H751Q727 0 714 8T695 39T688 103Q688 145 694 167T714 197T751 205H837L792 350H428L383
205H457Q481 205 494 197T513 167T520 103Q520 61 514 39T494 9T457 0H53Q29 0 16 8T-3 39T-10 103Q-10 145 -4 167T16 197T53 205H137L390 982H223Q199 982 186 990T167 1021T160 1085Q160 1127 166 1149T186 1179T223 1187H697Q737 1187 762 1172ZM609 982L486
555H735L615 982H609ZM620 1680T635 1675T665 1657L930 1432Q952 1413 952 1390Q952 1365 927 1330Q897 1287 867 1287Q851 1287 834 1298L594 1436L354 1298Q337 1287 321 1287Q291 1287 261 1330Q236 1365 236 1390Q236 1413 258 1432L523 1657Q537 1669 552
1674T594 1680Q620 1680 635 1675Z" />
<glyph unicode="&#xc3;" glyph-name="Atilde" d="M737 1187T762 1172T798 1122L1088 205H1175Q1199 205 1212 197T1231 167T1238 103Q1238 61 1232 39T1212 9T1175 0H751Q727 0 714 8T695 39T688 103Q688 145 694 167T714 197T751 205H837L792 350H428L383 205H457Q481
205 494 197T513 167T520 103Q520 61 514 39T494 9T457 0H53Q29 0 16 8T-3 39T-10 103Q-10 145 -4 167T16 197T53 205H137L390 982H223Q199 982 186 990T167 1021T160 1085Q160 1127 166 1149T186 1179T223 1187H697Q737 1187 762 1172ZM609 982L486 555H735L615
982H609ZM485 1641T518 1629T595 1595Q631 1577 653 1569T700 1560Q761 1560 829 1632Q843 1646 859 1646Q888 1646 925 1606Q961 1566 961 1530Q961 1510 951 1496Q900 1420 836 1378T703 1335Q663 1335 630 1347T553 1381Q517 1399 495 1407T448 1416Q387 1416
319 1344Q305 1330 289 1330Q260 1330 223 1370Q187 1410 187 1446Q187 1466 197 1480Q248 1556 312 1598T445 1641Q485 1641 518 1629Z" />
<glyph unicode="&#xc4;" glyph-name="Adieresis" d="M737 1187T762 1172T798 1122L1088 205H1175Q1199 205 1212 197T1231 167T1238 103Q1238 61 1232 39T1212 9T1175 0H751Q727 0 714 8T695 39T688 103Q688 145 694 167T714 197T751 205H837L792 350H428L383
205H457Q481 205 494 197T513 167T520 103Q520 61 514 39T494 9T457 0H53Q29 0 16 8T-3 39T-10 103Q-10 145 -4 167T16 197T53 205H137L390 982H223Q199 982 186 990T167 1021T160 1085Q160 1127 166 1149T186 1179T223 1187H697Q737 1187 762 1172ZM609 982L486
555H735L615 982H609ZM442 1633T470 1619T499 1570V1406Q499 1372 473 1358T376 1343Q306 1343 278 1357T249 1406V1570Q249 1605 275 1619T371 1633Q442 1633 470 1619ZM882 1633T910 1619T939 1570V1406Q939 1372 913 1358T816 1343Q746 1343 718 1357T689 1406V1570Q689
1605 715 1619T811 1633Q882 1633 910 1619Z" />
<glyph unicode="&#xc5;" glyph-name="Aring" d="M737 1187T762 1172T798 1122L1088 205H1175Q1199 205 1212 197T1231 167T1238 103Q1238 61 1232 39T1212 9T1175 0H751Q727 0 714 8T695 39T688 103Q688 145 694 167T714 197T751 205H837L792 350H428L383 205H457Q481
205 494 197T513 167T520 103Q520 61 514 39T494 9T457 0H53Q29 0 16 8T-3 39T-10 103Q-10 145 -4 167T16 197T53 205H137L390 982H223Q199 982 186 990T167 1021T160 1085Q160 1127 166 1149T186 1179T223 1187H697Q737 1187 762 1172ZM609 982L486 555H735L615
982H609ZM668 1827T728 1793T822 1699T856 1565Q856 1491 822 1431T728 1337T594 1303Q520 1303 460 1337T366 1431T332 1565Q332 1639 366 1699T460 1793T594 1827Q668 1827 728 1793ZM552 1657T527 1632T502 1565Q502 1523 527 1498T594 1473Q636 1473 661 1498T686
1565Q686 1607 661 1632T594 1657Q552 1657 527 1632Z" />
<glyph unicode="&#xc6;" glyph-name="AE" d="M1130 1187T1145 1172T1160 1122V850Q1160 816 1134 802T1048 787Q990 787 970 801T950 850V982H780V729H894Q929 729 943 706T957 621Q957 559 943 537T894 514H780V205H960V387Q960 421 986 435T1076 450Q1118 450
1140 444T1171 424T1180 387V65Q1180 31 1165 16T1115 0H615Q581 0 566 15T550 65V330H348L316 205H357Q381 205 394 197T413 166T420 102Q420 60 414 38T394 8T357 0H33Q9 0 -4 8T-23 38T-30 102Q-30 144 -24 166T-4 196T33 205H86L285 982H183Q159 982 146 990T127
1020T120 1084Q120 1126 126 1148T146 1178T183 1187H1095Q1130 1187 1145 1172ZM503 982L400 545H550V982H503Z" />
<glyph unicode="&#xc7;" glyph-name="Ccedilla" d="M1127 187T1127 157Q1127 106 1081 84Q905 -4 724 -19V-83Q831 -83 885 -135T940 -273Q940 -369 869 -420T661 -472Q514 -472 405 -430Q381 -420 381 -391Q381 -372 391 -346Q415 -282 445 -282Q449 -282 457
-284Q539 -313 618 -313Q667 -313 690 -301T714 -262Q714 -236 690 -226T623 -215L600 -216Q592 -217 576 -217Q539 -217 539 -176V-12Q407 12 309 92T157 301T103 594Q103 780 170 919T355 1134T624 1209Q799 1209 884 1083V1146Q884 1180 913 1194T1006 1209Q1068
1209 1091 1195T1114 1146V762Q1114 728 1084 714T982 699Q935 699 910 705T874 725T864 762Q864 862 810 922T654 982Q515 982 443 882T371 594Q371 408 447 307T664 205Q751 205 831 228T1005 300Q1021 308 1035 308Q1082 308 1113 225Q1127 187 1127 157Z" />
<glyph unicode="&#xc8;" glyph-name="Egrave" d="M1070 1187T1085 1172T1100 1122V820Q1100 786 1071 772T978 757Q916 757 893 771T870 820V972H470V719H714Q749 719 763 696T777 611Q777 549 763 527T714 504H470V215H880V417Q880 451 909 465T1006 480Q1072
480 1096 466T1120 417V65Q1120 31 1105 16T1055 0H123Q99 0 86 8T67 38T60 102Q60 144 66 166T86 196T123 205H220V982H123Q99 982 86 990T67 1020T60 1084Q60 1126 66 1148T86 1178T123 1187H1035Q1070 1187 1085 1172ZM852 1433T852 1405Q852 1377 830 1342Q798
1291 762 1291Q750 1291 739 1297L332 1502Q308 1514 308 1546Q308 1585 348 1639Q405 1714 451 1714Q468 1714 484 1703L831 1448Q852 1433 852 1405Z" />
<glyph unicode="&#xc9;" glyph-name="Eacute" d="M1070 1187T1085 1172T1100 1122V820Q1100 786 1071 772T978 757Q916 757 893 771T870 820V972H470V719H714Q749 719 763 696T777 611Q777 549 763 527T714 504H470V215H880V417Q880 451 909 465T1006 480Q1072
480 1096 466T1120 417V65Q1120 31 1105 16T1055 0H123Q99 0 86 8T67 38T60 102Q60 144 66 166T86 196T123 205H220V982H123Q99 982 86 990T67 1020T60 1084Q60 1126 66 1148T86 1178T123 1187H1035Q1070 1187 1085 1172ZM760 1714T777 1714Q823 1714 880 1639Q920
1585 920 1546Q920 1514 896 1502L489 1297Q479 1291 466 1291Q430 1291 398 1342Q376 1377 376 1405Q376 1433 397 1448L744 1703Q760 1714 777 1714Z" />
<glyph unicode="&#xca;" glyph-name="Ecircumflex" d="M1070 1187T1085 1172T1100 1122V820Q1100 786 1071 772T978 757Q916 757 893 771T870 820V972H470V719H714Q749 719 763 696T777 611Q777 549 763 527T714 504H470V215H880V417Q880 451 909 465T1006 480Q1072
480 1096 466T1120 417V65Q1120 31 1105 16T1055 0H123Q99 0 86 8T67 38T60 102Q60 144 66 166T86 196T123 205H220V982H123Q99 982 86 990T67 1020T60 1084Q60 1126 66 1148T86 1178T123 1187H1035Q1070 1187 1085 1172ZM670 1680T685 1675T715 1657L980 1432Q1002
1413 1002 1390Q1002 1365 977 1330Q947 1287 917 1287Q901 1287 884 1298L644 1436L404 1298Q387 1287 371 1287Q341 1287 311 1330Q286 1365 286 1390Q286 1413 308 1432L573 1657Q587 1669 602 1674T644 1680Q670 1680 685 1675Z" />
<glyph unicode="&#xcb;" glyph-name="Edieresis" d="M1070 1187T1085 1172T1100 1122V820Q1100 786 1071 772T978 757Q916 757 893 771T870 820V972H470V719H714Q749 719 763 696T777 611Q777 549 763 527T714 504H470V215H880V417Q880 451 909 465T1006 480Q1072
480 1096 466T1120 417V65Q1120 31 1105 16T1055 0H123Q99 0 86 8T67 38T60 102Q60 144 66 166T86 196T123 205H220V982H123Q99 982 86 990T67 1020T60 1084Q60 1126 66 1148T86 1178T123 1187H1035Q1070 1187 1085 1172ZM492 1633T520 1619T549 1570V1406Q549
1372 523 1358T426 1343Q356 1343 328 1357T299 1406V1570Q299 1605 325 1619T421 1633Q492 1633 520 1619ZM932 1633T960 1619T989 1570V1406Q989 1372 963 1358T866 1343Q796 1343 768 1357T739 1406V1570Q739 1605 765 1619T861 1633Q932 1633 960 1619Z" />
<glyph unicode="&#xcc;" glyph-name="Igrave" d="M999 1187T1012 1179T1031 1148T1038 1084Q1038 1042 1032 1020T1012 990T975 982H739V205H995Q1019 205 1032 197T1051 166T1058 102Q1058 60 1052 38T1032 8T995 0H233Q209 0 196 8T177 38T170 102Q170 144 176
166T196 196T233 205H489V982H253Q229 982 216 990T197 1020T190 1084Q190 1126 196 1148T216 1178T253 1187H975Q999 1187 1012 1179ZM820 1433T820 1405Q820 1377 798 1342Q766 1291 730 1291Q718 1291 707 1297L300 1502Q276 1514 276 1546Q276 1585 316 1639Q373
1714 419 1714Q436 1714 452 1703L799 1448Q820 1433 820 1405Z" />
<glyph unicode="&#xcd;" glyph-name="Iacute" d="M999 1187T1012 1179T1031 1148T1038 1084Q1038 1042 1032 1020T1012 990T975 982H739V205H995Q1019 205 1032 197T1051 166T1058 102Q1058 60 1052 38T1032 8T995 0H233Q209 0 196 8T177 38T170 102Q170 144 176
166T196 196T233 205H489V982H253Q229 982 216 990T197 1020T190 1084Q190 1126 196 1148T216 1178T253 1187H975Q999 1187 1012 1179ZM792 1714T809 1714Q855 1714 912 1639Q952 1585 952 1546Q952 1514 928 1502L521 1297Q511 1291 498 1291Q462 1291 430 1342Q408
1377 408 1405Q408 1433 429 1448L776 1703Q792 1714 809 1714Z" />
<glyph unicode="&#xce;" glyph-name="Icircumflex" d="M999 1187T1012 1179T1031 1148T1038 1084Q1038 1042 1032 1020T1012 990T975 982H739V205H995Q1019 205 1032 197T1051 166T1058 102Q1058 60 1052 38T1032 8T995 0H233Q209 0 196 8T177 38T170 102Q170
144 176 166T196 196T233 205H489V982H253Q229 982 216 990T197 1020T190 1084Q190 1126 196 1148T216 1178T253 1187H975Q999 1187 1012 1179ZM640 1680T655 1675T685 1657L950 1432Q972 1413 972 1390Q972 1365 947 1330Q917 1287 887 1287Q871 1287 854 1298L614
1436L374 1298Q357 1287 341 1287Q311 1287 281 1330Q256 1365 256 1390Q256 1413 278 1432L543 1657Q557 1669 572 1674T614 1680Q640 1680 655 1675Z" />
<glyph unicode="&#xcf;" glyph-name="Idieresis" d="M999 1187T1012 1179T1031 1148T1038 1084Q1038 1042 1032 1020T1012 990T975 982H739V205H995Q1019 205 1032 197T1051 166T1058 102Q1058 60 1052 38T1032 8T995 0H233Q209 0 196 8T177 38T170 102Q170 144
176 166T196 196T233 205H489V982H253Q229 982 216 990T197 1020T190 1084Q190 1126 196 1148T216 1178T253 1187H975Q999 1187 1012 1179ZM462 1633T490 1619T519 1570V1406Q519 1372 493 1358T396 1343Q326 1343 298 1357T269 1406V1570Q269 1605 295 1619T391
1633Q462 1633 490 1619ZM902 1633T930 1619T959 1570V1406Q959 1372 933 1358T836 1343Q766 1343 738 1357T709 1406V1570Q709 1605 735 1619T831 1633Q902 1633 930 1619Z" />
<glyph unicode="&#xd0;" glyph-name="Eth" d="M769 1187T895 1118T1088 916T1155 594Q1155 406 1088 273T895 70T594 0H123Q99 0 86 8T67 38T60 102Q60 144 66 166T86 196T123 205H220V494H103Q79 494 66 502T47 535T40 606Q40 653 46 677T66 710T103 719H220V982H123Q99
982 86 990T67 1020T60 1084Q60 1126 66 1148T86 1178T123 1187H594Q769 1187 895 1118ZM729 215T808 311T887 594Q887 780 808 876T574 972H470V719H605Q629 719 642 710T661 677T668 606Q668 559 662 535T642 503T605 494H470V215H574Q729 215 808 311Z" />
<glyph unicode="&#xd1;" glyph-name="Ntilde" d="M1159 1187T1172 1179T1191 1148T1198 1084Q1198 1042 1192 1020T1172 990T1135 982H1078V44Q1078 11 1053 -5T968 -22Q922 -22 900 -10T860 31L410 776H406V205H517Q541 205 554 197T573 166T580 102Q580 60 574
38T554 8T517 0H113Q89 0 76 8T57 38T50 102Q50 144 56 166T76 196T113 205H180V982H113Q89 982 76 990T57 1020T50 1084Q50 1126 56 1148T76 1178T113 1187H377Q417 1187 433 1160L848 473H852V982H760Q736 982 723 990T704 1020T697 1084Q697 1126 703 1148T723
1178T760 1187H1135Q1159 1187 1172 1179ZM525 1641T558 1629T635 1595Q671 1577 693 1569T740 1560Q801 1560 869 1632Q883 1646 899 1646Q928 1646 965 1606Q1001 1566 1001 1530Q1001 1510 991 1496Q940 1420 876 1378T743 1335Q703 1335 670 1347T593 1381Q557
1399 535 1407T488 1416Q427 1416 359 1344Q345 1330 329 1330Q300 1330 263 1370Q227 1410 227 1446Q227 1466 237 1480Q288 1556 352 1598T485 1641Q525 1641 558 1629Z" />
<glyph unicode="&#xd2;" glyph-name="Ograve" d="M778 1209T903 1135T1096 921T1165 594Q1165 407 1097 268T903 53T614 -22Q450 -22 325 53T132 267T63 594Q63 781 131 920T325 1134T614 1209Q778 1209 903 1135ZM475 982T403 882T331 594Q331 406 403 306T614
205Q753 205 825 305T897 594Q897 782 825 882T614 982Q475 982 403 882ZM842 1433T842 1405Q842 1377 820 1342Q788 1291 752 1291Q740 1291 729 1297L322 1502Q298 1514 298 1546Q298 1585 338 1639Q395 1714 441 1714Q458 1714 474 1703L821 1448Q842 1433 842
1405Z" />
<glyph unicode="&#xd3;" glyph-name="Oacute" d="M778 1209T903 1135T1096 921T1165 594Q1165 407 1097 268T903 53T614 -22Q450 -22 325 53T132 267T63 594Q63 781 131 920T325 1134T614 1209Q778 1209 903 1135ZM475 982T403 882T331 594Q331 406 403 306T614
205Q753 205 825 305T897 594Q897 782 825 882T614 982Q475 982 403 882ZM770 1714T787 1714Q833 1714 890 1639Q930 1585 930 1546Q930 1514 906 1502L499 1297Q489 1291 476 1291Q440 1291 408 1342Q386 1377 386 1405Q386 1433 407 1448L754 1703Q770 1714 787
1714Z" />
<glyph unicode="&#xd4;" glyph-name="Ocircumflex" d="M778 1209T903 1135T1096 921T1165 594Q1165 407 1097 268T903 53T614 -22Q450 -22 325 53T132 267T63 594Q63 781 131 920T325 1134T614 1209Q778 1209 903 1135ZM475 982T403 882T331 594Q331 406 403 306T614
205Q753 205 825 305T897 594Q897 782 825 882T614 982Q475 982 403 882ZM640 1680T655 1675T685 1657L950 1432Q972 1413 972 1390Q972 1365 947 1330Q917 1287 887 1287Q871 1287 854 1298L614 1436L374 1298Q357 1287 341 1287Q311 1287 281 1330Q256 1365 256
1390Q256 1413 278 1432L543 1657Q557 1669 572 1674T614 1680Q640 1680 655 1675Z" />
<glyph unicode="&#xd5;" glyph-name="Otilde" d="M778 1209T903 1135T1096 921T1165 594Q1165 407 1097 268T903 53T614 -22Q450 -22 325 53T132 267T63 594Q63 781 131 920T325 1134T614 1209Q778 1209 903 1135ZM475 982T403 882T331 594Q331 406 403 306T614
205Q753 205 825 305T897 594Q897 782 825 882T614 982Q475 982 403 882ZM525 1641T558 1629T635 1595Q671 1577 693 1569T740 1560Q801 1560 869 1632Q883 1646 899 1646Q928 1646 965 1606Q1001 1566 1001 1530Q1001 1510 991 1496Q940 1420 876 1378T743 1335Q703
1335 670 1347T593 1381Q557 1399 535 1407T488 1416Q427 1416 359 1344Q345 1330 329 1330Q300 1330 263 1370Q227 1410 227 1446Q227 1466 237 1480Q288 1556 352 1598T485 1641Q525 1641 558 1629Z" />
<glyph unicode="&#xd6;" glyph-name="Odieresis" d="M778 1209T903 1135T1096 921T1165 594Q1165 407 1097 268T903 53T614 -22Q450 -22 325 53T132 267T63 594Q63 781 131 920T325 1134T614 1209Q778 1209 903 1135ZM475 982T403 882T331 594Q331 406 403 306T614
205Q753 205 825 305T897 594Q897 782 825 882T614 982Q475 982 403 882ZM462 1633T490 1619T519 1570V1406Q519 1372 493 1358T396 1343Q326 1343 298 1357T269 1406V1570Q269 1605 295 1619T391 1633Q462 1633 490 1619ZM902 1633T930 1619T959 1570V1406Q959
1372 933 1358T836 1343Q766 1343 738 1357T709 1406V1570Q709 1605 735 1619T831 1633Q902 1633 930 1619Z" />
<glyph unicode="&#xd7;" glyph-name="multiply" d="M855 982T873 982Q888 982 908 969T958 926Q988 896 1000 877T1013 841Q1013 822 993 802L773 582L993 362Q1014 341 1014 323Q1014 308 1001 288T958 238Q928 208 909 196T873 183Q854 183 834 203L614 423L394
203Q374 183 355 183Q339 183 320 195T270 238Q240 268 227 288T214 323Q214 341 235 362L455 582L235 802Q215 822 215 841Q215 857 227 876T270 926Q300 956 320 969T355 982Q373 982 394 961L614 741L834 961Q855 982 873 982Z" />
<glyph unicode="&#xd8;" glyph-name="Oslash" d="M1102 1228T1115 1212T1128 1180Q1128 1164 1113 1143L1030 1025Q1096 944 1130 835T1165 594Q1165 407 1097 268T903 53T614 -22Q463 -22 342 43L268 -63Q248 -92 224 -92Q200 -92 156 -61Q127 -41 114 -25T100
7Q100 22 115 44L198 163Q133 243 98 352T63 594Q63 781 131 920T325 1134T614 1209Q765 1209 886 1144L961 1250Q981 1279 1004 1279Q1027 1279 1073 1248Q1102 1228 1115 1212ZM475 982T403 882T331 594Q331 479 359 392L750 949Q693 982 614 982Q475 982 403
882ZM536 205T614 205Q753 205 825 305T897 594Q897 712 869 795L478 237Q536 205 614 205Z" />
<glyph unicode="&#xd9;" glyph-name="Ugrave" d="M1139 1187T1152 1179T1171 1148T1178 1084Q1178 1042 1172 1020T1152 990T1115 982H1068V413Q1068 275 1013 177T856 29T614 -22Q474 -22 372 28T215 177T160 413V982H113Q89 982 76 990T57 1020T50 1084Q50 1126
56 1148T76 1178T113 1187H487Q511 1187 524 1179T543 1148T550 1084Q550 1042 544 1020T524 990T487 982H410V433Q410 318 465 262T614 205Q708 205 763 261T818 433V982H741Q717 982 704 990T685 1020T678 1084Q678 1126 684 1148T704 1178T741 1187H1115Q1139
1187 1152 1179ZM820 1433T820 1405Q820 1377 798 1342Q766 1291 730 1291Q718 1291 707 1297L300 1502Q276 1514 276 1546Q276 1585 316 1639Q373 1714 419 1714Q436 1714 452 1703L799 1448Q820 1433 820 1405Z" />
<glyph unicode="&#xda;" glyph-name="Uacute" d="M1139 1187T1152 1179T1171 1148T1178 1084Q1178 1042 1172 1020T1152 990T1115 982H1068V413Q1068 275 1013 177T856 29T614 -22Q474 -22 372 28T215 177T160 413V982H113Q89 982 76 990T57 1020T50 1084Q50 1126
56 1148T76 1178T113 1187H487Q511 1187 524 1179T543 1148T550 1084Q550 1042 544 1020T524 990T487 982H410V433Q410 318 465 262T614 205Q708 205 763 261T818 433V982H741Q717 982 704 990T685 1020T678 1084Q678 1126 684 1148T704 1178T741 1187H1115Q1139
1187 1152 1179ZM792 1714T809 1714Q855 1714 912 1639Q952 1585 952 1546Q952 1514 928 1502L521 1297Q511 1291 498 1291Q462 1291 430 1342Q408 1377 408 1405Q408 1433 429 1448L776 1703Q792 1714 809 1714Z" />
<glyph unicode="&#xdb;" glyph-name="Ucircumflex" d="M1139 1187T1152 1179T1171 1148T1178 1084Q1178 1042 1172 1020T1152 990T1115 982H1068V413Q1068 275 1013 177T856 29T614 -22Q474 -22 372 28T215 177T160 413V982H113Q89 982 76 990T57 1020T50 1084Q50
1126 56 1148T76 1178T113 1187H487Q511 1187 524 1179T543 1148T550 1084Q550 1042 544 1020T524 990T487 982H410V433Q410 318 465 262T614 205Q708 205 763 261T818 433V982H741Q717 982 704 990T685 1020T678 1084Q678 1126 684 1148T704 1178T741 1187H1115Q1139
1187 1152 1179ZM640 1680T655 1675T685 1657L950 1432Q972 1413 972 1390Q972 1365 947 1330Q917 1287 887 1287Q871 1287 854 1298L614 1436L374 1298Q357 1287 341 1287Q311 1287 281 1330Q256 1365 256 1390Q256 1413 278 1432L543 1657Q557 1669 572 1674T614
1680Q640 1680 655 1675Z" />
<glyph unicode="&#xdc;" glyph-name="Udieresis" d="M1139 1187T1152 1179T1171 1148T1178 1084Q1178 1042 1172 1020T1152 990T1115 982H1068V413Q1068 275 1013 177T856 29T614 -22Q474 -22 372 28T215 177T160 413V982H113Q89 982 76 990T57 1020T50 1084Q50
1126 56 1148T76 1178T113 1187H487Q511 1187 524 1179T543 1148T550 1084Q550 1042 544 1020T524 990T487 982H410V433Q410 318 465 262T614 205Q708 205 763 261T818 433V982H741Q717 982 704 990T685 1020T678 1084Q678 1126 684 1148T704 1178T741 1187H1115Q1139
1187 1152 1179ZM462 1633T490 1619T519 1570V1406Q519 1372 493 1358T396 1343Q326 1343 298 1357T269 1406V1570Q269 1605 295 1619T391 1633Q462 1633 490 1619ZM902 1633T930 1619T959 1570V1406Q959 1372 933 1358T836 1343Q766 1343 738 1357T709 1406V1570Q709
1605 735 1619T831 1633Q902 1633 930 1619Z" />
<glyph unicode="&#xdd;" glyph-name="Yacute" d="M792 1714T809 1714Q855 1714 912 1639Q952 1585 952 1546Q952 1514 928 1502L521 1297Q511 1291 498 1291Q462 1291 430 1342Q408 1377 408 1405Q408 1433 429 1448L776 1703Q792 1714 809 1714ZM1149 1187T1162
1179T1181 1148T1188 1084Q1188 1042 1182 1020T1162 990T1125 982H1081L739 459V205H935Q959 205 972 197T991 166T998 102Q998 60 992 38T972 8T935 0H293Q269 0 256 8T237 38T230 102Q230 144 236 166T256 196T293 205H489V460L149 982H103Q79 982 66 990T47
1020T40 1084Q40 1126 46 1148T66 1178T103 1187H497Q521 1187 534 1179T553 1148T560 1084Q560 1042 554 1020T534 990T497 982H430L616 690L804 982H751Q727 982 714 990T695 1020T688 1084Q688 1126 694 1148T714 1178T751 1187H1125Q1149 1187 1162 1179Z"
/>
<glyph unicode="&#xde;" glyph-name="Thorn" d="M791 1187T804 1179T823 1148T830 1084Q830 1042 824 1020T804 990T767 982H580V886H720Q903 886 995 810T1087 594Q1087 455 995 378T720 301H580V205H767Q791 205 804 197T823 166T830 102Q830 60 824 38T804
8T767 0H183Q159 0 146 8T127 38T120 102Q120 144 126 166T146 196T183 205H330V982H183Q159 982 146 990T127 1020T120 1084Q120 1126 126 1148T146 1178T183 1187H767Q791 1187 804 1179ZM580 496H689Q762 496 795 519T829 594Q829 645 796 668T689 691H580V496Z"
/>
<glyph unicode="&#xdf;" glyph-name="germandbls" d="M752 1317T844 1270T983 1139T1031 946Q1031 852 993 787T875 678Q978 639 1034 560T1090 367Q1090 240 1036 153T882 22T649 -22Q609 -22 591 3T572 91Q572 156 584 180T629 205Q822 205 822 387Q822 465
775 507T642 549Q608 549 594 573T579 661Q579 723 593 747T642 774Q783 788 783 936Q783 1005 744 1047T625 1090Q544 1090 501 1035T458 874V63Q458 29 444 15T395 0H85Q61 0 48 8T29 38T22 102Q22 144 28 166T48 196T85 205H208V877Q208 1011 257 1110T399 1263T623
1317Q752 1317 844 1270Z" />
<glyph unicode="&#xe0;" glyph-name="agrave" d="M823 946T921 851T1019 579V290Q1019 250 1036 228T1085 205H1116Q1140 205 1153 197T1172 166T1179 102Q1179 60 1173 38T1153 8T1116 0H1004Q942 0 895 25T822 106Q743 45 655 12T474 -22Q361 -22 279 16T154
126T110 295Q110 435 209 512T486 589Q619 589 769 559V588Q769 655 727 687T579 719Q520 719 448 705T304 666Q287 661 275 661Q250 661 231 679T195 742Q180 786 180 814Q180 865 226 882Q315 914 415 930T603 946Q823 946 921 851ZM441 383T405 358T368 285Q368
238 403 214T506 189Q575 189 642 216T769 292V356Q637 383 511 383Q441 383 405 358ZM882 1163T882 1135Q882 1107 860 1072Q828 1021 792 1021Q780 1021 769 1027L362 1232Q338 1244 338 1276Q338 1315 378 1369Q435 1444 481 1444Q498 1444 514 1433L861 1178Q882
1163 882 1135Z" />
<glyph unicode="&#xe1;" glyph-name="aacute" d="M823 946T921 851T1019 579V290Q1019 250 1036 228T1085 205H1116Q1140 205 1153 197T1172 166T1179 102Q1179 60 1173 38T1153 8T1116 0H1004Q942 0 895 25T822 106Q743 45 655 12T474 -22Q361 -22 279 16T154
126T110 295Q110 435 209 512T486 589Q619 589 769 559V588Q769 655 727 687T579 719Q520 719 448 705T304 666Q287 661 275 661Q250 661 231 679T195 742Q180 786 180 814Q180 865 226 882Q315 914 415 930T603 946Q823 946 921 851ZM441 383T405 358T368 285Q368
238 403 214T506 189Q575 189 642 216T769 292V356Q637 383 511 383Q441 383 405 358ZM986 1444T1003 1444Q1049 1444 1106 1369Q1146 1315 1146 1276Q1146 1244 1122 1232L715 1027Q705 1021 692 1021Q656 1021 624 1072Q602 1107 602 1135Q602 1163 623 1178L970
1433Q986 1444 1003 1444Z" />
<glyph unicode="&#xe2;" glyph-name="acircumflex" d="M823 946T921 851T1019 579V290Q1019 250 1036 228T1085 205H1116Q1140 205 1153 197T1172 166T1179 102Q1179 60 1173 38T1153 8T1116 0H1004Q942 0 895 25T822 106Q743 45 655 12T474 -22Q361 -22 279 16T154
126T110 295Q110 435 209 512T486 589Q619 589 769 559V588Q769 655 727 687T579 719Q520 719 448 705T304 666Q287 661 275 661Q250 661 231 679T195 742Q180 786 180 814Q180 865 226 882Q315 914 415 930T603 946Q823 946 921 851ZM441 383T405 358T368 285Q368
238 403 214T506 189Q575 189 642 216T769 292V356Q637 383 511 383Q441 383 405 358ZM640 1410T655 1405T685 1387L950 1162Q972 1143 972 1120Q972 1095 947 1060Q917 1017 887 1017Q871 1017 854 1028L614 1166L374 1028Q357 1017 341 1017Q311 1017 281 1060Q256
1095 256 1120Q256 1143 278 1162L543 1387Q557 1399 572 1404T614 1410Q640 1410 655 1405Z" />
<glyph unicode="&#xe3;" glyph-name="atilde" d="M823 946T921 851T1019 579V290Q1019 250 1036 228T1085 205H1116Q1140 205 1153 197T1172 166T1179 102Q1179 60 1173 38T1153 8T1116 0H1004Q942 0 895 25T822 106Q743 45 655 12T474 -22Q361 -22 279 16T154
126T110 295Q110 435 209 512T486 589Q619 589 769 559V588Q769 655 727 687T579 719Q520 719 448 705T304 666Q287 661 275 661Q250 661 231 679T195 742Q180 786 180 814Q180 865 226 882Q315 914 415 930T603 946Q823 946 921 851ZM441 383T405 358T368 285Q368
238 403 214T506 189Q575 189 642 216T769 292V356Q637 383 511 383Q441 383 405 358ZM525 1371T558 1359T635 1325Q671 1307 693 1299T740 1290Q801 1290 869 1362Q883 1376 899 1376Q928 1376 965 1336Q1001 1296 1001 1260Q1001 1240 991 1226Q940 1150 876
1108T743 1065Q703 1065 670 1077T593 1111Q557 1129 535 1137T488 1146Q427 1146 359 1074Q345 1060 329 1060Q300 1060 263 1100Q227 1140 227 1176Q227 1196 237 1210Q288 1286 352 1328T485 1371Q525 1371 558 1359Z" />
<glyph unicode="&#xe4;" glyph-name="adieresis" d="M823 946T921 851T1019 579V290Q1019 250 1036 228T1085 205H1116Q1140 205 1153 197T1172 166T1179 102Q1179 60 1173 38T1153 8T1116 0H1004Q942 0 895 25T822 106Q743 45 655 12T474 -22Q361 -22 279 16T154
126T110 295Q110 435 209 512T486 589Q619 589 769 559V588Q769 655 727 687T579 719Q520 719 448 705T304 666Q287 661 275 661Q250 661 231 679T195 742Q180 786 180 814Q180 865 226 882Q315 914 415 930T603 946Q823 946 921 851ZM441 383T405 358T368 285Q368
238 403 214T506 189Q575 189 642 216T769 292V356Q637 383 511 383Q441 383 405 358ZM462 1363T490 1349T519 1300V1136Q519 1102 493 1088T396 1073Q326 1073 298 1087T269 1136V1300Q269 1335 295 1349T391 1363Q462 1363 490 1349ZM902 1363T930 1349T959 1300V1136Q959
1102 933 1088T836 1073Q766 1073 738 1087T709 1136V1300Q709 1335 735 1349T831 1363Q902 1363 930 1349Z" />
<glyph unicode="&#xe5;" glyph-name="aring" d="M823 946T921 851T1019 579V290Q1019 250 1036 228T1085 205H1116Q1140 205 1153 197T1172 166T1179 102Q1179 60 1173 38T1153 8T1116 0H1004Q942 0 895 25T822 106Q743 45 655 12T474 -22Q361 -22 279 16T154
126T110 295Q110 435 209 512T486 589Q619 589 769 559V588Q769 655 727 687T579 719Q520 719 448 705T304 666Q287 661 275 661Q250 661 231 679T195 742Q180 786 180 814Q180 865 226 882Q315 914 415 930T603 946Q823 946 921 851ZM441 383T405 358T368 285Q368
238 403 214T506 189Q575 189 642 216T769 292V356Q637 383 511 383Q441 383 405 358ZM695 1568T755 1534T849 1440T883 1306Q883 1232 849 1172T755 1078T621 1044Q547 1044 487 1078T393 1172T359 1306Q359 1380 393 1440T487 1534T621 1568Q695 1568 755 1534ZM579
1398T554 1373T529 1306Q529 1264 554 1239T621 1214Q663 1214 688 1239T713 1306Q713 1348 688 1373T621 1398Q579 1398 554 1373Z" />
<glyph unicode="&#xe6;" glyph-name="ae" d="M988 946T1061 882T1164 706T1193 432Q1193 398 1179 384T1130 370H724Q745 205 858 205Q913 205 963 216T1076 255Q1091 261 1104 261Q1128 261 1145 240T1176 179Q1190 139 1190 114Q1190 68 1145 49Q981 -22 843
-22Q686 -22 603 102Q509 -22 335 -22Q245 -22 177 13T70 116T32 275Q32 438 141 512T419 587Q459 587 509 582V588Q509 652 473 685T365 719Q322 719 280 706T189 667Q173 659 159 659Q115 659 78 738Q60 777 60 806Q60 848 96 868Q161 906 237 926T393 946Q553
946 634 852Q717 946 858 946Q988 946 1061 882ZM798 719T767 682T724 565H968Q963 639 936 679T858 719Q798 719 767 682ZM459 392T438 392Q350 392 305 369T260 285Q260 240 285 215T358 189Q428 189 468 236T509 358V390Q459 392 438 392Z" />
<glyph unicode="&#xe7;" glyph-name="ccedilla" d="M1078 187T1078 157Q1078 112 1035 88Q956 44 869 16T694 -19V-83Q801 -83 855 -135T910 -273Q910 -369 839 -420T631 -472Q484 -472 375 -430Q351 -420 351 -391Q351 -372 361 -346Q385 -282 415 -282Q419 -282
427 -284Q509 -313 588 -313Q637 -313 660 -301T684 -262Q684 -236 660 -226T593 -215L570 -216Q562 -217 546 -217Q509 -217 509 -176V-10Q392 14 306 80T174 244T127 462Q127 602 190 712T361 884T604 946Q766 946 833 829V883Q833 917 862 931T955 946Q1017
946 1040 932T1063 883V562Q1063 528 1033 514T931 499Q884 499 859 505T823 525T813 562Q813 604 793 640T732 697T634 719Q562 719 508 688T425 598T395 462Q395 385 424 327T508 237T634 205Q711 205 791 230T948 299Q966 309 981 309Q1026 309 1060 230Q1078
187 1078 157Z" />
<glyph unicode="&#xe8;" glyph-name="egrave" d="M780 946T887 881T1048 699T1103 432Q1103 398 1089 384T1040 370H398Q417 290 479 248T638 205Q793 205 974 260Q986 264 998 264Q1020 264 1036 244T1065 176Q1075 139 1075 113Q1075 87 1064 73T1026 49Q926
16 822 -3T618 -22Q466 -22 356 40T189 211T131 462Q131 602 191 712T364 884T628 946Q780 946 887 881ZM445 719T402 565H842Q825 638 770 678T628 719Q445 719 402 565ZM872 1163T872 1135Q872 1107 850 1072Q818 1021 782 1021Q770 1021 759 1027L352 1232Q328
1244 328 1276Q328 1315 368 1369Q425 1444 471 1444Q488 1444 504 1433L851 1178Q872 1163 872 1135Z" />
<glyph unicode="&#xe9;" glyph-name="eacute" d="M780 946T887 881T1048 699T1103 432Q1103 398 1089 384T1040 370H398Q417 290 479 248T638 205Q793 205 974 260Q986 264 998 264Q1020 264 1036 244T1065 176Q1075 139 1075 113Q1075 87 1064 73T1026 49Q926
16 822 -3T618 -22Q466 -22 356 40T189 211T131 462Q131 602 191 712T364 884T628 946Q780 946 887 881ZM445 719T402 565H842Q825 638 770 678T628 719Q445 719 402 565ZM1016 1444T1033 1444Q1079 1444 1136 1369Q1176 1315 1176 1276Q1176 1244 1152 1232L745
1027Q735 1021 722 1021Q686 1021 654 1072Q632 1107 632 1135Q632 1163 653 1178L1000 1433Q1016 1444 1033 1444Z" />
<glyph unicode="&#xea;" glyph-name="ecircumflex" d="M780 946T887 881T1048 699T1103 432Q1103 398 1089 384T1040 370H398Q417 290 479 248T638 205Q793 205 974 260Q986 264 998 264Q1020 264 1036 244T1065 176Q1075 139 1075 113Q1075 87 1064 73T1026 49Q926
16 822 -3T618 -22Q466 -22 356 40T189 211T131 462Q131 602 191 712T364 884T628 946Q780 946 887 881ZM445 719T402 565H842Q825 638 770 678T628 719Q445 719 402 565ZM650 1410T665 1405T695 1387L960 1162Q982 1143 982 1120Q982 1095 957 1060Q927 1017 897
1017Q881 1017 864 1028L624 1166L384 1028Q367 1017 351 1017Q321 1017 291 1060Q266 1095 266 1120Q266 1143 288 1162L553 1387Q567 1399 582 1404T624 1410Q650 1410 665 1405Z" />
<glyph unicode="&#xeb;" glyph-name="edieresis" d="M780 946T887 881T1048 699T1103 432Q1103 398 1089 384T1040 370H398Q417 290 479 248T638 205Q793 205 974 260Q986 264 998 264Q1020 264 1036 244T1065 176Q1075 139 1075 113Q1075 87 1064 73T1026 49Q926
16 822 -3T618 -22Q466 -22 356 40T189 211T131 462Q131 602 191 712T364 884T628 946Q780 946 887 881ZM445 719T402 565H842Q825 638 770 678T628 719Q445 719 402 565ZM462 1363T490 1349T519 1300V1136Q519 1102 493 1088T396 1073Q326 1073 298 1087T269 1136V1300Q269
1335 295 1349T391 1363Q462 1363 490 1349ZM902 1363T930 1349T959 1300V1136Q959 1102 933 1088T836 1073Q766 1073 738 1087T709 1136V1300Q709 1335 735 1349T831 1363Q902 1363 930 1349Z" />
<glyph unicode="&#xec;" glyph-name="igrave" d="M724 924T738 910T753 861V205H1034Q1058 205 1071 197T1090 166T1097 102Q1097 60 1091 38T1071 8T1034 0H230Q206 0 193 8T174 38T167 102Q167 144 173 166T193 196T230 205H503V719H290Q266 719 253 727T234
757T227 821Q227 863 233 885T253 915T290 924H690Q724 924 738 910ZM1038 1163T1038 1135Q1038 1107 1016 1072Q984 1021 948 1021Q936 1021 925 1027L518 1232Q494 1244 494 1276Q494 1315 534 1369Q591 1444 637 1444Q654 1444 670 1433L1017 1178Q1038 1163
1038 1135Z" />
<glyph unicode="&#xed;" glyph-name="iacute" d="M724 924T738 910T753 861V205H1034Q1058 205 1071 197T1090 166T1097 102Q1097 60 1091 38T1071 8T1034 0H230Q206 0 193 8T174 38T167 102Q167 144 173 166T193 196T230 205H503V719H290Q266 719 253 727T234
757T227 821Q227 863 233 885T253 915T290 924H690Q724 924 738 910ZM986 1444T1003 1444Q1049 1444 1106 1369Q1146 1315 1146 1276Q1146 1244 1122 1232L715 1027Q705 1021 692 1021Q656 1021 624 1072Q602 1107 602 1135Q602 1163 623 1178L970 1433Q986 1444
1003 1444Z" />
<glyph unicode="&#xee;" glyph-name="icircumflex" d="M724 924T738 910T753 861V205H1034Q1058 205 1071 197T1090 166T1097 102Q1097 60 1091 38T1071 8T1034 0H230Q206 0 193 8T174 38T167 102Q167 144 173 166T193 196T230 205H503V719H290Q266 719 253 727T234
757T227 821Q227 863 233 885T253 915T290 924H690Q724 924 738 910ZM640 1410T655 1405T685 1387L950 1162Q972 1143 972 1120Q972 1095 947 1060Q917 1017 887 1017Q871 1017 854 1028L614 1166L374 1028Q357 1017 341 1017Q311 1017 281 1060Q256 1095 256 1120Q256
1143 278 1162L543 1387Q557 1399 572 1404T614 1410Q640 1410 655 1405Z" />
<glyph unicode="&#xef;" glyph-name="idieresis" d="M724 924T738 910T753 861V205H1034Q1058 205 1071 197T1090 166T1097 102Q1097 60 1091 38T1071 8T1034 0H230Q206 0 193 8T174 38T167 102Q167 144 173 166T193 196T230 205H503V719H290Q266 719 253 727T234
757T227 821Q227 863 233 885T253 915T290 924H690Q724 924 738 910ZM462 1363T490 1349T519 1300V1136Q519 1102 493 1088T396 1073Q326 1073 298 1087T269 1136V1300Q269 1335 295 1349T391 1363Q462 1363 490 1349ZM902 1363T930 1349T959 1300V1136Q959 1102
933 1088T836 1073Q766 1073 738 1087T709 1136V1300Q709 1335 735 1349T831 1363Q902 1363 930 1349Z" />
<glyph unicode="&#xf0;" glyph-name="eth" d="M974 971T1040 809T1106 462Q1106 314 1046 205T874 37T614 -22Q467 -22 356 34T183 192T122 422Q122 551 179 652T342 809T584 866Q691 866 774 816Q715 906 620 984L467 903Q447 892 433 892Q416 892 401 906T368
955Q345 999 345 1021Q345 1036 353 1047T380 1067L445 1102L378 1137Q347 1153 347 1183Q347 1217 385 1277Q410 1316 431 1333T474 1350Q490 1350 510 1340Q607 1291 691 1232L841 1312Q860 1322 875 1322Q892 1322 907 1308T940 1259Q962 1216 962 1194Q962
1179 954 1168T928 1148L844 1103Q974 971 1040 809ZM716 205T777 263T838 422Q838 523 777 581T614 639Q512 639 451 581T390 422Q390 321 451 263T614 205Q716 205 777 263Z" />
<glyph unicode="&#xf1;" glyph-name="ntilde" d="M848 946T916 906T1022 793T1059 620V205H1136Q1160 205 1173 197T1192 166T1199 102Q1199 60 1193 38T1173 8T1136 0H762Q738 0 725 8T706 38T699 102Q699 144 705 166T725 196T762 205H809V561Q809 639 782 679T692
719Q634 719 582 671T499 541T467 368V205H514Q538 205 551 197T570 166T577 102Q577 60 571 38T551 8T514 0H140Q116 0 103 8T84 38T77 102Q77 144 83 166T103 196T140 205H217V719H120Q96 719 83 727T64 757T57 821Q57 863 63 885T83 915T120 924H364Q398 924
412 910T427 861V716Q559 946 757 946Q848 946 916 906ZM525 1371T558 1359T635 1325Q671 1307 693 1299T740 1290Q801 1290 869 1362Q883 1376 899 1376Q928 1376 965 1336Q1001 1296 1001 1260Q1001 1240 991 1226Q940 1150 876 1108T743 1065Q703 1065 670 1077T593
1111Q557 1129 535 1137T488 1146Q427 1146 359 1074Q345 1060 329 1060Q300 1060 263 1100Q227 1140 227 1176Q227 1196 237 1210Q288 1286 352 1328T485 1371Q525 1371 558 1359Z" />
<glyph unicode="&#xf2;" glyph-name="ograve" d="M766 946T880 884T1055 712T1117 462Q1117 322 1056 212T880 40T614 -22Q462 -22 348 40T173 212T111 462Q111 602 172 712T348 884T614 946Q766 946 880 884ZM542 719T489 688T408 598T379 462Q379 384 407 326T489
237T614 205Q686 205 739 236T820 326T849 462Q849 540 821 598T739 687T614 719Q542 719 489 688ZM842 1163T842 1135Q842 1107 820 1072Q788 1021 752 1021Q740 1021 729 1027L322 1232Q298 1244 298 1276Q298 1315 338 1369Q395 1444 441 1444Q458 1444 474
1433L821 1178Q842 1163 842 1135Z" />
<glyph unicode="&#xf3;" glyph-name="oacute" d="M766 946T880 884T1055 712T1117 462Q1117 322 1056 212T880 40T614 -22Q462 -22 348 40T173 212T111 462Q111 602 172 712T348 884T614 946Q766 946 880 884ZM542 719T489 688T408 598T379 462Q379 384 407 326T489
237T614 205Q686 205 739 236T820 326T849 462Q849 540 821 598T739 687T614 719Q542 719 489 688ZM1026 1444T1043 1444Q1089 1444 1146 1369Q1186 1315 1186 1276Q1186 1244 1162 1232L755 1027Q745 1021 732 1021Q696 1021 664 1072Q642 1107 642 1135Q642 1163
663 1178L1010 1433Q1026 1444 1043 1444Z" />
<glyph unicode="&#xf4;" glyph-name="ocircumflex" d="M766 946T880 884T1055 712T1117 462Q1117 322 1056 212T880 40T614 -22Q462 -22 348 40T173 212T111 462Q111 602 172 712T348 884T614 946Q766 946 880 884ZM542 719T489 688T408 598T379 462Q379 384 407
326T489 237T614 205Q686 205 739 236T820 326T849 462Q849 540 821 598T739 687T614 719Q542 719 489 688ZM640 1410T655 1405T685 1387L950 1162Q972 1143 972 1120Q972 1095 947 1060Q917 1017 887 1017Q871 1017 854 1028L614 1166L374 1028Q357 1017 341 1017Q311
1017 281 1060Q256 1095 256 1120Q256 1143 278 1162L543 1387Q557 1399 572 1404T614 1410Q640 1410 655 1405Z" />
<glyph unicode="&#xf5;" glyph-name="otilde" d="M766 946T880 884T1055 712T1117 462Q1117 322 1056 212T880 40T614 -22Q462 -22 348 40T173 212T111 462Q111 602 172 712T348 884T614 946Q766 946 880 884ZM542 719T489 688T408 598T379 462Q379 384 407 326T489
237T614 205Q686 205 739 236T820 326T849 462Q849 540 821 598T739 687T614 719Q542 719 489 688ZM525 1371T558 1359T635 1325Q671 1307 693 1299T740 1290Q801 1290 869 1362Q883 1376 899 1376Q928 1376 965 1336Q1001 1296 1001 1260Q1001 1240 991 1226Q940
1150 876 1108T743 1065Q703 1065 670 1077T593 1111Q557 1129 535 1137T488 1146Q427 1146 359 1074Q345 1060 329 1060Q300 1060 263 1100Q227 1140 227 1176Q227 1196 237 1210Q288 1286 352 1328T485 1371Q525 1371 558 1359Z" />
<glyph unicode="&#xf6;" glyph-name="odieresis" d="M766 946T880 884T1055 712T1117 462Q1117 322 1056 212T880 40T614 -22Q462 -22 348 40T173 212T111 462Q111 602 172 712T348 884T614 946Q766 946 880 884ZM542 719T489 688T408 598T379 462Q379 384 407
326T489 237T614 205Q686 205 739 236T820 326T849 462Q849 540 821 598T739 687T614 719Q542 719 489 688ZM462 1363T490 1349T519 1300V1136Q519 1102 493 1088T396 1073Q326 1073 298 1087T269 1136V1300Q269 1335 295 1349T391 1363Q462 1363 490 1349ZM902
1363T930 1349T959 1300V1136Q959 1102 933 1088T836 1073Q766 1073 738 1087T709 1136V1300Q709 1335 735 1349T831 1363Q902 1363 930 1349Z" />
<glyph unicode="&#xf7;" glyph-name="divide" d="M680 1095T709 1081T739 1032V888Q739 854 710 840T614 825Q548 825 519 839T489 888V1032Q489 1066 518 1080T614 1095Q680 1095 709 1081ZM1019 695T1032 686T1051 653T1058 582Q1058 535 1052 511T1032 479T995
470H233Q209 470 196 478T177 511T170 582Q170 629 176 653T196 686T233 695H995Q1019 695 1032 686ZM680 340T709 326T739 277V133Q739 99 710 85T614 70Q548 70 519 84T489 133V277Q489 311 518 325T614 340Q680 340 709 326Z" />
<glyph unicode="&#xf8;" glyph-name="oslash" d="M1145 921T1145 895Q1145 877 1124 854L1028 755Q1117 632 1117 462Q1117 322 1056 212T880 40T614 -22Q457 -22 339 45L238 -59Q217 -82 196 -82Q170 -82 127 -40Q83 3 83 29Q83 47 104 70L200 169Q111 292 111
462Q111 602 172 712T348 884T614 946Q771 946 889 879L990 983Q1011 1006 1032 1006Q1058 1006 1101 964Q1145 921 1145 895ZM379 407T392 367L715 700Q668 719 614 719Q542 719 489 688T408 598T379 462Q379 407 392 367ZM849 517T836 557L513 224Q561 205 614
205Q686 205 739 236T820 326T849 462Q849 517 836 557Z" />
<glyph unicode="&#xf9;" glyph-name="ugrave" d="M1003 924T1017 910T1032 861V205H1109Q1133 205 1146 197T1165 167T1172 103Q1172 61 1166 39T1146 9T1109 0H885Q851 0 837 14T822 63V208Q690 -22 492 -22Q401 -22 333 18T227 131T190 304V719H113Q89 719 76
727T57 758T50 822Q50 864 56 886T76 916T113 924H377Q411 924 425 910T440 861V363Q440 285 467 245T557 205Q615 205 667 253T750 383T782 556V719H675Q651 719 638 727T619 758T612 822Q612 864 618 886T638 916T675 924H969Q1003 924 1017 910ZM832 1163T832
1135Q832 1107 810 1072Q778 1021 742 1021Q730 1021 719 1027L312 1232Q288 1244 288 1276Q288 1315 328 1369Q385 1444 431 1444Q448 1444 464 1433L811 1178Q832 1163 832 1135Z" />
<glyph unicode="&#xfa;" glyph-name="uacute" d="M1003 924T1017 910T1032 861V205H1109Q1133 205 1146 197T1165 167T1172 103Q1172 61 1166 39T1146 9T1109 0H885Q851 0 837 14T822 63V208Q690 -22 492 -22Q401 -22 333 18T227 131T190 304V719H113Q89 719 76
727T57 758T50 822Q50 864 56 886T76 916T113 924H377Q411 924 425 910T440 861V363Q440 285 467 245T557 205Q615 205 667 253T750 383T782 556V719H675Q651 719 638 727T619 758T612 822Q612 864 618 886T638 916T675 924H969Q1003 924 1017 910ZM1046 1444T1063
1444Q1109 1444 1166 1369Q1206 1315 1206 1276Q1206 1244 1182 1232L775 1027Q765 1021 752 1021Q716 1021 684 1072Q662 1107 662 1135Q662 1163 683 1178L1030 1433Q1046 1444 1063 1444Z" />
<glyph unicode="&#xfb;" glyph-name="ucircumflex" d="M1003 924T1017 910T1032 861V205H1109Q1133 205 1146 197T1165 167T1172 103Q1172 61 1166 39T1146 9T1109 0H885Q851 0 837 14T822 63V208Q690 -22 492 -22Q401 -22 333 18T227 131T190 304V719H113Q89
719 76 727T57 758T50 822Q50 864 56 886T76 916T113 924H377Q411 924 425 910T440 861V363Q440 285 467 245T557 205Q615 205 667 253T750 383T782 556V719H675Q651 719 638 727T619 758T612 822Q612 864 618 886T638 916T675 924H969Q1003 924 1017 910ZM886
1410T901 1405T931 1387L1196 1162Q1218 1143 1218 1120Q1218 1095 1193 1060Q1163 1017 1133 1017Q1117 1017 1100 1028L860 1166L620 1028Q603 1017 587 1017Q557 1017 527 1060Q502 1095 502 1120Q502 1143 524 1162L789 1387Q803 1399 818 1404T860 1410Q886
1410 901 1405Z" />
<glyph unicode="&#xfc;" glyph-name="udieresis" d="M1003 924T1017 910T1032 861V205H1109Q1133 205 1146 197T1165 167T1172 103Q1172 61 1166 39T1146 9T1109 0H885Q851 0 837 14T822 63V208Q690 -22 492 -22Q401 -22 333 18T227 131T190 304V719H113Q89 719
76 727T57 758T50 822Q50 864 56 886T76 916T113 924H377Q411 924 425 910T440 861V363Q440 285 467 245T557 205Q615 205 667 253T750 383T782 556V719H675Q651 719 638 727T619 758T612 822Q612 864 618 886T638 916T675 924H969Q1003 924 1017 910ZM698 1363T726
1349T755 1300V1136Q755 1102 729 1088T632 1073Q562 1073 534 1087T505 1136V1300Q505 1335 531 1349T627 1363Q698 1363 726 1349ZM1138 1363T1166 1349T1195 1300V1136Q1195 1102 1169 1088T1072 1073Q1002 1073 974 1087T945 1136V1300Q945 1335 971 1349T1067
1363Q1138 1363 1166 1349Z" />
<glyph unicode="&#xfd;" glyph-name="yacute" d="M1149 924T1162 916T1181 885T1188 821Q1188 779 1182 757T1162 727T1125 719H1061L678 -57Q608 -198 545 -271T400 -375T189 -410Q153 -411 135 -383T116 -281Q116 -230 129 -208T168 -184Q247 -179 296 -154T386
-75T484 90L178 719H103Q79 719 66 727T47 757T40 821Q40 863 46 885T66 915T103 924H507Q531 924 544 916T563 885T570 821Q570 779 564 757T544 727T507 719H447L621 339L795 719H741Q717 719 704 727T685 757T678 821Q678 863 684 885T704 915T741 924H1125Q1149
924 1162 916ZM792 1444T809 1444Q855 1444 912 1369Q952 1315 952 1276Q952 1244 928 1232L521 1027Q511 1021 498 1021Q462 1021 430 1072Q408 1107 408 1135Q408 1163 429 1178L776 1433Q792 1444 809 1444Z" />
<glyph unicode="&#xfe;" glyph-name="thorn" d="M408 1312T422 1298T437 1249V828Q488 885 555 915T700 946Q831 946 929 882T1079 708T1131 462Q1131 326 1079 216T929 42T700 -22Q622 -22 555 8T437 96V-183H604Q628 -183 641 -191T660 -221T667 -285Q667 -327
661 -349T641 -379T604 -388H100Q76 -388 63 -380T44 -350T37 -286Q37 -244 43 -222T63 -192T100 -183H187V1107H100Q76 1107 63 1115T44 1145T37 1209Q37 1251 43 1273T63 1303T100 1312H374Q408 1312 422 1298ZM596 719T544 689T461 601T430 462Q430 382 461
324T544 235T660 205Q722 205 768 236T838 326T863 462Q863 540 839 598T768 687T660 719Q596 719 544 689Z" />
<glyph unicode="&#xff;" glyph-name="ydieresis" d="M1149 924T1162 916T1181 885T1188 821Q1188 779 1182 757T1162 727T1125 719H1061L678 -57Q608 -198 545 -271T400 -375T189 -410Q153 -411 135 -383T116 -281Q116 -230 129 -208T168 -184Q247 -179 296 -154T386
-75T484 90L178 719H103Q79 719 66 727T47 757T40 821Q40 863 46 885T66 915T103 924H507Q531 924 544 916T563 885T570 821Q570 779 564 757T544 727T507 719H447L621 339L795 719H741Q717 719 704 727T685 757T678 821Q678 863 684 885T704 915T741 924H1125Q1149
924 1162 916ZM462 1363T490 1349T519 1300V1136Q519 1102 493 1088T396 1073Q326 1073 298 1087T269 1136V1300Q269 1335 295 1349T391 1363Q462 1363 490 1349ZM902 1363T930 1349T959 1300V1136Q959 1102 933 1088T836 1073Q766 1073 738 1087T709 1136V1300Q709
1335 735 1349T831 1363Q902 1363 930 1349Z" />
<glyph unicode="&#x2013;" glyph-name="endash" d="M1019 695T1032 686T1051 653T1058 582Q1058 535 1052 511T1032 479T995 470H233Q209 470 196 478T177 511T170 582Q170 629 176 653T196 686T233 695H995Q1019 695 1032 686Z" />
<glyph unicode="&#x2014;" glyph-name="emdash" d="M1219 695T1232 686T1251 653T1258 582Q1258 535 1252 511T1232 479T1195 470H33Q9 470 -4 478T-23 511T-30 582Q-30 629 -24 653T-4 686T33 695H1195Q1219 695 1232 686Z" />
<glyph unicode="&#x2018;" glyph-name="quoteleft" d="M397 709T388 718T379 742Q379 757 386 772L593 1239Q609 1276 639 1291T719 1307Q762 1307 782 1293T802 1247Q802 1236 799 1221L709 749Q705 730 692 720T657 709H414Q397 709 388 718Z" />
<glyph unicode="&#x2019;" glyph-name="quoteright" d="M816 1269T825 1260T834 1236Q834 1221 827 1206L620 739Q604 702 574 687T494 671Q451 671 431 685T411 731Q411 742 414 757L504 1229Q508 1248 521 1258T556 1269H799Q816 1269 825 1260Z" />
<glyph unicode="&#x201a;" glyph-name="quotesinglbase" d="M816 304T825 295T834 271Q834 256 827 241L620 -226Q604 -263 574 -278T494 -294Q451 -294 431 -280T411 -234Q411 -223 414 -208L504 264Q508 283 521 293T556 304H799Q816 304 825 295Z" />
<glyph unicode="&#x201c;" glyph-name="quotedblleft" d="M117 709T108 718T99 742Q99 757 106 772L313 1239Q329 1276 359 1291T439 1307Q482 1307 502 1293T522 1247Q522 1236 519 1221L429 749Q425 730 412 720T377 709H134Q117 709 108 718ZM677 709T668 718T659
742Q659 757 666 772L873 1239Q889 1276 919 1291T999 1307Q1042 1307 1062 1293T1082 1247Q1082 1236 1079 1221L989 749Q985 730 972 720T937 709H694Q677 709 668 718Z" />
<glyph unicode="&#x201d;" glyph-name="quotedblright" d="M536 1269T545 1260T554 1236Q554 1221 547 1206L340 739Q324 702 294 687T214 671Q171 671 151 685T131 731Q131 742 134 757L224 1229Q228 1248 241 1258T276 1269H519Q536 1269 545 1260ZM1096 1269T1105
1260T1114 1236Q1114 1221 1107 1206L900 739Q884 702 854 687T774 671Q731 671 711 685T691 731Q691 742 694 757L784 1229Q788 1248 801 1258T836 1269H1079Q1096 1269 1105 1260Z" />
<glyph unicode="&#x201e;" glyph-name="quotedblbase" d="M1096 304T1105 295T1114 271Q1114 256 1107 241L900 -226Q884 -263 854 -278T774 -294Q731 -294 711 -280T691 -234Q691 -223 694 -208L784 264Q788 283 801 293T836 304H1079Q1096 304 1105 295ZM536
304T545 295T554 271Q554 256 547 241L340 -226Q324 -263 294 -278T214 -294Q171 -294 151 -280T131 -234Q131 -223 134 -208L224 264Q228 283 241 293T276 304H519Q536 304 545 295Z" />
<glyph unicode="&#x2022;" glyph-name="bullet" d="M749 858T809 833T869 750V418Q869 360 809 335T614 310Q479 310 419 335T359 418V750Q359 808 419 833T614 858Q749 858 809 833Z" />
<glyph unicode="&#x2039;" glyph-name="guilsinglleft" d="M657 946T682 946Q717 946 774 907Q839 863 839 821Q839 803 825 786L616 536L825 285Q839 268 839 250Q839 208 774 164Q717 125 682 125Q657 125 642 144L363 510Q354 522 354 536Q354 551 363 561L642
927Q657 946 682 946Z" />
<glyph unicode="&#x203a;" glyph-name="guilsinglright" d="M874 551T874 536Q874 522 865 510L586 144Q571 125 546 125Q511 125 454 164Q389 208 389 250Q389 268 403 285L612 536L403 786Q389 803 389 821Q389 863 454 907Q511 946 546 946Q571 946 586 927L865
561Q874 551 874 536Z" />
</font>
</defs>
</svg>
