<?xml version="1.0" standalone="no"?>
<!DOCTYPE svg PUBLIC "-//W3C//DTD SVG 1.1//EN" "http://www.w3.org/Graphics/SVG/1.1/DTD/svg11.dtd">
<svg xmlns="http://www.w3.org/2000/svg">
<defs >
<font id="CourierPrime" horiz-adv-x="1228" ><font-face
    font-family="Courier Prime"
    units-per-em="2048"
    panose-1="0 0 8 9 0 0 0 0 0 0"
    ascent="1600"
    descent="-700"
    alphabetic="0" />
<glyph unicode=" " glyph-name="space" />
<glyph unicode="!" glyph-name="exclam" d="M918 1269T918 1240Q918 1231 915 1219L742 562Q727 504 633 504Q539 504 544 562L603 1219Q607 1269 653 1269H883Q918 1269 918 1240ZM689 330T725 315T756 267L718 53Q712 19 676 5T558 -10Q475 -10 439 5T408 53L446
267Q452 301 488 315T606 330Q689 330 725 315Z" />
<glyph unicode="&quot;" glyph-name="quotedbl" d="M650 1269T650 1240Q650 1231 647 1219L507 739Q498 706 471 689T392 671Q340 671 320 688T301 739L331 1219Q334 1269 381 1269H615Q650 1269 650 1240ZM1190 1269T1190 1240Q1190 1231 1187 1219L1047 739Q1038
706 1011 689T932 671Q880 671 860 688T841 739L871 1219Q874 1269 921 1269H1155Q1190 1269 1190 1240Z" />
<glyph unicode="#" glyph-name="numbersign" d="M1237 940T1249 929T1261 888Q1261 862 1254 827Q1246 780 1236 756T1210 724T1171 715H1017L917 482H1040Q1066 482 1078 471T1090 430Q1090 404 1083 369Q1075 322 1065 298T1039 266T1000 257H820L714 11Q700
-22 631 -22Q583 -22 550 -8T517 31Q517 38 520 45L611 257H396L290 11Q276 -22 207 -22Q159 -22 126 -8T93 31Q93 38 96 45L187 257H88Q62 257 50 267T38 308Q38 334 45 369Q53 416 64 440T89 473T128 482H284L384 715H259Q233 715 221 725T209 766Q209 792 216
827Q224 874 235 898T260 931T299 940H481L583 1176Q597 1209 666 1209Q714 1209 747 1195T780 1156Q780 1150 777 1142L690 940H905L1007 1176Q1021 1209 1090 1209Q1138 1209 1171 1195T1204 1156Q1204 1150 1201 1142L1114 940H1211Q1237 940 1249 929ZM708
482L808 715H593L493 482H708Z" />
<glyph unicode="$" glyph-name="dollar" d="M816 1312T834 1302T853 1268Q853 1263 851 1249L816 1054Q858 1038 901 1008L904 1023Q911 1057 937 1071T1027 1086Q1084 1086 1109 1075T1135 1036Q1135 1028 1134 1023L1097 812Q1091 778 1067 764T994 749Q940
749 925 770Q871 840 783 866L756 712Q821 702 873 687T967 649Q1076 586 1076 465Q1076 375 1034 299T896 173T652 118L620 -62Q614 -97 592 -111T515 -125Q469 -125 451 -115T432 -81Q432 -76 434 -62L470 145Q425 162 378 194L376 181Q371 148 339 133T243 118Q186
118 161 129T135 168Q135 176 136 181L175 404Q181 437 207 452T282 467Q343 467 360 439Q407 364 504 335L534 506Q474 518 427 533T342 571Q233 636 233 760Q233 853 279 926T416 1041T636 1086L665 1249Q671 1284 692 1298T769 1312Q816 1312 834 1302ZM555
878T524 856T493 800Q493 776 513 762T575 739L600 884Q555 878 524 856ZM746 324T780 348T814 409Q814 435 791 452T714 477L687 320Q746 324 780 348Z" />
<glyph unicode="%" glyph-name="percent" d="M487 1209T544 1178T633 1090T664 962Q664 878 627 810T520 701T362 661Q287 661 230 692T141 780T110 908Q110 992 147 1060T254 1169T412 1209Q487 1209 544 1178ZM1130 1103T1148 1103Q1162 1103 1177 1092T1213
1054Q1246 1012 1246 988Q1246 975 1239 964T1215 940L191 106Q165 85 148 85Q133 85 118 96T83 134Q51 176 51 201Q51 214 58 225T81 249L1105 1083Q1130 1103 1148 1103ZM352 1030T322 999T292 921Q292 885 314 863T376 840Q422 840 452 871T482 949Q482 985
460 1007T398 1030Q352 1030 322 999ZM1008 526T1065 495T1154 407T1185 279Q1185 195 1148 127T1041 18T883 -22Q808 -22 751 9T662 97T631 225Q631 309 668 377T775 486T933 526Q1008 526 1065 495ZM873 347T843 316T813 238Q813 202 835 180T897 157Q943 157
973 188T1003 266Q1003 302 981 324T919 347Q873 347 843 316Z" />
<glyph unicode="&amp;" glyph-name="ampersand" d="M795 1209T877 1184T1035 1109Q1053 1097 1061 1085T1070 1057Q1070 1050 1069 1046L1035 854Q1029 820 998 806T902 791Q847 791 825 802T803 838Q803 842 805 854L824 961Q760 992 686 992Q642 992 608 971T554
911T534 827Q534 750 601 666L755 470Q789 528 828 603Q848 645 887 645H1107Q1134 645 1146 635T1158 595Q1158 575 1152 543Q1145 501 1135 479T1110 449T1071 440H990Q944 353 899 286L963 205H1050Q1076 205 1088 195T1100 155Q1100 135 1094 102Q1087 60 1077
38T1053 8T1014 0H853Q812 0 786 33L735 98Q588 -22 402 -22Q309 -22 238 15T129 119T90 269Q90 495 329 635Q281 729 281 819Q281 915 330 1004T477 1151T716 1209Q795 1209 877 1184ZM340 398T340 301Q340 257 367 231T442 205Q523 205 600 271L441 474Q340 398
340 301Z" />
<glyph unicode="&apos;" glyph-name="quotesingle" d="M920 1269T920 1240Q920 1231 917 1219L777 739Q768 706 741 689T662 671Q610 671 590 688T571 739L601 1219Q604 1269 651 1269H885Q920 1269 920 1240Z" />
<glyph unicode="(" glyph-name="parenleft" d="M957 1381T968 1381Q994 1381 1018 1359T1059 1302Q1081 1258 1081 1216Q1081 1174 1057 1161Q790 1016 651 823T512 366Q512 203 582 75T794 -153Q807 -162 807 -183Q807 -203 795 -229T764 -280Q742 -308 716 -326T667
-344Q652 -344 641 -337Q538 -272 453 -172T317 64T266 361Q266 568 343 757T572 1105T943 1375Q957 1381 968 1381Z" />
<glyph unicode=")" glyph-name="parenright" d="M732 1310T817 1210T953 974T1004 677Q1004 470 927 281T698 -67T327 -337Q314 -343 302 -343Q276 -343 252 -321T211 -264Q189 -220 189 -178Q189 -136 213 -123Q480 22 619 215T758 672Q758 835 688 963T476 1191Q463
1200 463 1221Q463 1241 475 1267T506 1318Q528 1346 554 1364T603 1382Q618 1382 629 1375Q732 1310 817 1210Z" />
<glyph unicode="*" glyph-name="asterisk" d="M798 1209T826 1182T855 1112Q855 1086 845 1062L763 859L955 964Q992 984 1023 984Q1056 984 1080 963T1115 899Q1119 883 1119 864Q1119 815 1085 784T996 748L784 729L924 587Q957 552 957 509Q957 480 940 454T887
409Q846 387 811 387Q778 387 756 406T723 460L665 658L554 466Q535 432 507 414T446 395Q405 395 369 425Q326 461 326 507Q326 534 341 560T384 607L559 739L366 757Q323 761 298 785T273 850Q273 878 286 911Q303 954 334 976T403 998Q438 998 467 978L627 870L616
1075Q613 1133 647 1171T747 1209Q798 1209 826 1182Z" />
<glyph unicode="+" glyph-name="plus" d="M783 1026T805 1016T827 982Q827 977 825 963L778 695H1047Q1073 695 1085 684T1097 643Q1097 617 1090 582Q1082 535 1072 511T1046 479T1007 470H738L691 201Q687 177 676 164T640 145T568 138Q509 138 487 148T464
183Q464 187 466 201L513 470H245Q219 470 207 480T195 521Q195 547 202 582Q210 629 221 653T246 686T285 695H553L600 963Q604 987 615 1000T651 1019T724 1026Q783 1026 805 1016Z" />
<glyph unicode="," glyph-name="comma" d="M759 354T768 346T777 324Q777 308 766 291L441 -246Q412 -294 326 -294Q290 -294 269 -282T248 -247Q248 -242 252 -228L439 314Q446 333 461 343T498 354H743Q759 354 768 346Z" />
<glyph unicode="-" glyph-name="hyphen" d="M1073 695T1085 684T1097 643Q1097 617 1090 582Q1082 535 1072 511T1046 479T1007 470H245Q219 470 207 480T195 521Q195 547 202 582Q210 629 221 653T246 686T285 695H1047Q1073 695 1085 684Z" />
<glyph unicode="." glyph-name="period" d="M690 370T729 355T763 307L718 53Q712 19 674 5T550 -10Q462 -10 422 5T388 53L433 307Q439 341 477 355T601 370Q690 370 729 355Z" />
<glyph unicode="/" glyph-name="slash" d="M1129 1399T1176 1375T1223 1313Q1223 1297 1213 1281L286 -327Q267 -360 200 -360Q144 -360 96 -336T48 -274Q48 -260 57 -243L984 1365Q1003 1399 1072 1399Q1129 1399 1176 1375Z" />
<glyph unicode="0" glyph-name="zero" d="M867 1209T957 1150T1095 985T1142 740Q1142 560 1078 385T882 94T555 -22Q430 -22 340 37T202 202T155 447Q155 627 219 802T415 1093T742 1209Q867 1209 957 1150ZM618 982T551 897T452 685T419 439Q419 323 460 264T580
205Q679 205 746 290T845 502T878 748Q878 864 837 923T717 982Q618 982 551 897Z" />
<glyph unicode="1" glyph-name="one" d="M1017 205T1029 195T1041 155Q1041 135 1035 102Q1028 60 1018 38T994 8T955 0H223Q196 0 184 11T172 51Q172 76 177 102Q188 163 206 184T259 205H485L600 856L392 748Q374 739 359 739Q317 739 284 818Q266 860 266 888Q266
928 308 950L788 1196Q817 1212 848 1212Q872 1212 887 1200T902 1163Q902 1153 901 1148L735 205H991Q1017 205 1029 195Z" />
<glyph unicode="2" glyph-name="two" d="M848 1209T928 1170T1050 1062T1092 901Q1092 813 1064 744T982 615T835 478L515 215H797L814 307Q820 342 845 356T933 370Q991 370 1018 358T1045 319Q1045 311 1044 307L1001 65Q995 30 977 15T925 0H151Q124 0 112
11T100 51Q100 72 106 103Q113 144 123 168T148 206L650 619Q720 676 758 715T816 793T836 878Q836 931 802 961T705 992Q617 992 525 950L500 810Q494 775 469 761T381 747Q323 747 296 759T269 798Q269 806 270 810L314 1057Q321 1098 368 1121Q545 1209 733
1209Q848 1209 928 1170Z" />
<glyph unicode="3" glyph-name="three" d="M901 1209T999 1131T1097 912Q1097 813 1050 735T908 612Q970 580 1004 524T1039 392Q1039 286 988 192T824 38T534 -22Q320 -22 180 55Q151 70 151 108Q151 140 173 191Q192 234 213 254T253 275Q263 275 273 270Q400
205 540 205Q663 205 718 259T774 391Q774 446 737 474T626 503H523Q497 503 485 514T473 556Q473 577 479 610Q490 672 508 695T561 718H637Q743 718 791 762T840 875Q840 936 804 964T695 992Q621 992 538 969L524 890Q518 855 493 841T405 827Q347 827 320 839T293
878Q293 886 294 890L329 1087Q338 1132 390 1151Q542 1209 723 1209Q901 1209 999 1131Z" />
<glyph unicode="4" glyph-name="four" d="M950 1209T971 1193T992 1143Q992 1137 990 1119L894 575H1066Q1093 575 1105 564T1117 524Q1117 504 1111 472Q1104 430 1094 408T1069 378T1030 370H858L829 205H971Q997 205 1009 195T1021 155Q1021 135 1015 102Q1008
60 998 38T974 8T935 0H373Q346 0 334 11T322 51Q322 76 327 102Q338 163 356 184T409 205H579L608 370H178Q151 370 139 380T127 420Q127 441 133 472Q139 507 148 533T169 571L742 1150Q773 1181 811 1195T901 1209Q950 1209 971 1193ZM434 575H653L720 867L434
575Z" />
<glyph unicode="5" glyph-name="five" d="M1086 1187T1098 1175T1110 1133Q1110 1112 1104 1079Q1093 1017 1075 995T1022 972H580L527 749Q579 768 623 777T715 786Q822 786 897 744T1010 626T1048 452Q1048 318 994 211T822 41T524 -22Q431 -22 342 1T175 67Q145
84 145 121Q145 154 168 203Q206 288 247 288Q257 288 268 282Q333 246 403 226T540 205Q617 205 671 236T753 316T780 418Q780 487 742 523T632 559Q552 559 458 523Q434 514 416 510T379 506Q317 506 281 520T244 561Q244 568 245 572L375 1122Q383 1157 400
1172T452 1187H1060Q1086 1187 1098 1175Z" />
<glyph unicode="6" glyph-name="six" d="M1096 1209T1108 1182T1121 1096Q1121 1032 1107 1000T1068 967Q886 963 765 926T572 818T461 634Q524 687 592 714T745 741Q843 741 917 699T1032 582T1073 410Q1073 298 1014 199T846 39T592 -22Q450 -22 357 34T221
190T177 418Q177 639 276 818T576 1103T1070 1209Q1096 1209 1108 1182ZM591 529T540 503T460 434T432 340Q432 280 475 241T595 201Q663 201 713 228T790 299T817 396Q817 460 776 494T660 529Q591 529 540 503Z" />
<glyph unicode="7" glyph-name="seven" d="M1183 1187T1195 1176T1207 1136Q1207 1116 1201 1084Q1192 1034 1179 1012L603 24Q576 -22 493 -22Q436 -22 390 2T344 64Q344 80 354 97L870 972H519L485 780Q479 745 453 731T365 717Q307 717 281 729T254 768Q254
776 255 780L315 1122Q321 1156 339 1171T392 1187H1156Q1183 1187 1195 1176Z" />
<glyph unicode="8" glyph-name="eight" d="M866 1209T944 1169T1062 1060T1102 910Q1102 799 1046 724T893 613Q967 579 1007 520T1048 379Q1048 277 996 186T830 36T540 -22Q423 -22 337 16T205 123T158 286Q158 413 224 500T415 625Q355 657 323 709T291 832Q291
928 345 1014T504 1155T757 1209Q866 1209 944 1169ZM662 991T621 968T558 906T536 822Q536 771 570 742T669 712Q728 712 769 736T830 799T851 878Q851 930 816 960T718 991Q662 991 621 968ZM566 518T519 490T448 416T425 321Q425 263 464 230T578 196Q648 196
695 224T764 296T787 391Q787 450 749 484T635 518Q566 518 519 490Z" />
<glyph unicode="9" glyph-name="nine" d="M846 1209T939 1153T1075 997T1119 769Q1119 553 1028 378T743 95T257 -22Q230 -23 218 4T205 89Q205 155 219 186T258 220Q436 229 551 266T735 372T845 553Q774 499 704 473T551 446Q453 446 379 488T264 605T223 777Q223
889 282 988T450 1148T704 1209Q846 1209 939 1153ZM633 986T583 959T506 888T479 791Q479 727 520 693T636 658Q705 658 756 684T836 753T864 847Q864 907 821 946T701 986Q633 986 583 959Z" />
<glyph unicode=":" glyph-name="colon" d="M789 934T828 919T862 871L824 657Q818 623 780 609T656 594Q568 594 528 609T494 657L532 871Q538 905 576 919T700 934Q789 934 828 919ZM683 330T722 315T756 267L718 53Q712 19 674 5T550 -10Q462 -10 422 5T388
53L426 267Q432 301 470 315T594 330Q683 330 722 315Z" />
<glyph unicode=";" glyph-name="semicolon" d="M789 934T828 919T862 871L824 657Q818 623 780 609T656 594Q568 594 528 609T494 657L532 871Q538 905 576 919T700 934Q789 934 828 919ZM799 354T808 346T817 324Q817 308 806 291L481 -246Q452 -294 366 -294Q330
-294 309 -282T288 -247Q288 -242 292 -228L479 314Q486 333 501 343T538 354H783Q799 354 808 346Z" />
<glyph unicode="&lt;" glyph-name="less" d="M1080 1085T1094 1085Q1114 1085 1130 1067T1164 1007Q1182 961 1182 933Q1182 890 1139 870L491 573L1012 288Q1043 271 1043 241Q1043 207 1011 154Q986 112 966 94T926 75Q911 75 896 84L182 489Q165 499 157 512T148
547Q148 555 152 583Q159 624 173 644T215 677L1060 1076Q1080 1085 1094 1085Z" />
<glyph unicode="=" glyph-name="equal" d="M1113 924T1125 913T1137 870Q1137 849 1131 811Q1123 764 1113 740T1087 708T1048 699H286Q260 699 248 709T236 750Q236 776 243 811Q251 858 261 882T286 915T325 924H1087Q1113 924 1125 913ZM1033 466T1044 455T1056
413Q1056 391 1050 353Q1042 306 1032 282T1006 250T967 241H205Q179 241 167 251T155 292Q155 318 162 353Q170 400 180 424T206 457T245 466H1007Q1033 466 1044 455Z" />
<glyph unicode="&gt;" glyph-name="greater" d="M1127 667T1135 654T1144 619Q1144 611 1140 583Q1133 542 1119 522T1077 489L232 90Q213 81 198 81Q178 81 162 99T128 159Q110 206 110 233Q110 276 153 296L801 593L280 878Q249 895 249 925Q249 959 281 1012Q306
1054 326 1072T366 1091Q381 1091 396 1082L1110 677Q1127 667 1135 654Z" />
<glyph unicode="?" glyph-name="question" d="M846 1269T929 1231T1056 1122T1099 957Q1099 814 1011 717T727 578L703 487Q697 462 673 451T593 439Q538 439 519 450T501 487L518 695Q521 739 557 746L670 766Q755 781 799 821T843 926Q843 984 808 1018T705
1052Q626 1052 547 1022L532 930Q527 895 501 881T413 867Q355 867 328 879T301 918Q301 926 302 930L337 1130Q345 1173 389 1191Q572 1269 729 1269Q846 1269 929 1231ZM647 290T681 275T709 227L678 53Q672 19 638 5T528 -10Q450 -10 416 5T388 53L419 227Q425
261 459 275T569 290Q647 290 681 275Z" />
<glyph unicode="@" glyph-name="at" d="M907 1078T1008 1020T1162 860T1216 627Q1216 493 1169 377T1037 192T842 122Q773 122 734 160T690 261Q586 117 467 117Q396 117 353 167T309 303Q309 407 368 524T520 721T705 800Q755 800 782 769T816 685L861 754Q869
767 895 767Q910 767 933 761Q954 755 966 746T978 725Q978 722 976 716L849 404Q831 359 831 330Q831 306 843 292T876 278Q926 278 969 329T1037 461T1062 624Q1062 764 980 844T748 925Q590 925 461 830T259 587T185 295Q185 158 263 79T490 0Q632 0 755 40Q760
42 768 42Q796 42 805 -19Q808 -36 808 -48Q808 -89 780 -101Q722 -124 640 -138T475 -153Q334 -153 232 -99T77 54T24 285Q24 475 118 659T383 960T770 1078Q907 1078 1008 1020ZM650 643T603 593T523 473T489 348Q489 316 503 299T541 281Q576 281 623 332T705
454T739 580Q739 643 687 643Q650 643 603 593Z" />
<glyph unicode="A" glyph-name="A" d="M872 1187T894 1172T921 1122L1050 205H1141Q1168 205 1180 195T1192 155Q1192 135 1186 103Q1179 61 1169 39T1144 9T1105 0H681Q654 0 642 11T630 51Q630 72 636 103Q643 145 653 167T678 197T717 205H807L787 350H423L353
205H423Q450 205 462 195T474 155Q474 135 468 103Q461 61 451 39T426 9T387 0H-17Q-44 0 -55 11T-67 52Q-67 68 -62 103Q-55 145 -45 167T-20 197T19 205H99L489 982H326Q299 982 287 993T275 1033Q275 1054 281 1085Q288 1127 298 1149T323 1179T362 1187H832Q872
1187 894 1172ZM716 982L517 555H766L722 982H716Z" />
<glyph unicode="B" glyph-name="B" d="M959 1187T1054 1111T1149 903Q1149 809 1098 738T950 625Q1036 599 1084 538T1132 384Q1132 273 1079 187T915 50T640 0H63Q36 0 24 11T12 51Q12 76 17 102Q28 163 46 184T99 205H206L343 982H236Q209 982 197 992T185 1032Q185
1053 191 1084Q198 1126 208 1148T233 1178T272 1187H773Q959 1187 1054 1111ZM546 714H688Q793 714 842 755T891 865Q891 923 853 947T733 972H591L546 714ZM458 215H650Q766 215 818 260T871 376Q871 440 829 469T699 499H507L458 215Z" />
<glyph unicode="C" glyph-name="C" d="M1204 1209T1226 1198T1248 1162Q1248 1158 1246 1146L1178 762Q1172 728 1139 714T1035 699Q974 699 950 710T926 746Q926 750 928 762Q933 794 933 816Q933 893 888 937T757 982Q627 982 546 900T429 701T394 475Q394 345
454 275T630 205Q716 205 796 229T982 302Q996 309 1012 309Q1058 309 1082 225Q1093 184 1093 159Q1093 131 1081 113T1045 84Q813 -22 600 -22Q458 -22 351 38T186 210T128 471Q128 652 201 822T417 1101T757 1209Q847 1209 910 1174T1003 1078L1016 1146Q1023
1180 1054 1194T1149 1209Q1204 1209 1226 1198Z" />
<glyph unicode="D" glyph-name="D" d="M864 1187T973 1131T1140 970T1198 718Q1198 560 1141 397T937 117T544 0H53Q26 0 14 11T2 51Q2 76 7 102Q18 163 36 184T89 205H186L323 982H226Q199 982 187 992T175 1032Q175 1053 181 1084Q188 1126 198 1148T223 1178T262
1187H713Q864 1187 973 1131ZM438 215H542Q680 215 767 290T893 478T932 712Q932 841 868 906T675 972H571L438 215Z" />
<glyph unicode="E" glyph-name="E" d="M1203 1187T1216 1177T1229 1143Q1229 1138 1227 1122L1174 820Q1168 786 1137 772T1041 757Q986 757 964 768T942 804Q942 808 944 820L971 972H571L526 719H770Q796 719 808 707T820 665Q820 644 814 611Q803 549 785 527T732
504H488L437 215H847L883 417Q889 451 921 465T1020 480Q1078 480 1101 469T1125 433Q1125 429 1123 417L1061 65Q1055 30 1037 15T985 0H53Q26 0 14 11T2 51Q2 76 7 102Q18 163 36 184T89 205H186L323 982H226Q199 982 187 992T175 1032Q175 1053 181 1084Q188
1126 198 1148T223 1178T262 1187H1174Q1203 1187 1216 1177Z" />
<glyph unicode="F" glyph-name="F" d="M1223 1187T1236 1177T1249 1143Q1249 1138 1247 1122L1194 820Q1188 786 1157 772T1061 757Q1006 757 984 768T962 804Q962 808 964 820L991 972H601L547 667H851Q877 667 889 655T901 613Q901 592 895 559Q884 497 866
475T813 452H509L466 205H683Q709 205 721 195T733 155Q733 135 727 102Q720 60 710 38T686 8T647 0H53Q26 0 14 11T2 51Q2 76 7 102Q18 163 36 184T89 205H216L353 982H226Q199 982 187 992T175 1032Q175 1053 181 1084Q188 1126 198 1148T223 1178T262 1187H1194Q1223
1187 1236 1177Z" />
<glyph unicode="G" glyph-name="G" d="M1174 1209T1196 1198T1218 1162Q1218 1158 1216 1146L1155 802Q1149 768 1116 754T1012 739Q951 739 927 750T903 786Q903 790 905 802Q909 822 909 844Q909 911 864 946T727 982Q597 982 516 900T399 701T364 475Q364 345
424 275T600 205Q710 205 815 235L844 402H651Q624 402 612 412T600 452Q600 473 606 504Q617 565 635 586T688 607H1162Q1188 607 1200 597T1212 557Q1212 537 1206 504Q1199 462 1189 440T1164 410T1125 402H1094L1047 133Q1042 109 1030 91T999 64Q810 -22 570
-22Q428 -22 321 38T156 210T98 471Q98 652 171 822T387 1101T727 1209Q817 1209 881 1176T975 1086L986 1146Q992 1180 1023 1194T1119 1209Q1174 1209 1196 1198Z" />
<glyph unicode="H" glyph-name="H" d="M1281 1187T1293 1176T1305 1136Q1305 1116 1299 1084Q1292 1042 1282 1020T1257 990T1218 982H1161L1024 205H1081Q1107 205 1119 195T1131 155Q1131 135 1125 102Q1118 60 1108 38T1084 8T1045 0H671Q644 0 632 11T620
51Q620 76 625 102Q636 163 654 184T707 205H774L826 504H438L386 205H453Q479 205 491 195T503 155Q503 135 497 102Q490 60 480 38T456 8T417 0H43Q16 0 4 11T-8 51Q-8 76 -3 102Q8 163 26 184T79 205H136L273 982H216Q189 982 177 992T165 1032Q165 1053 171
1084Q178 1126 188 1148T213 1178T252 1187H626Q653 1187 665 1176T677 1136Q677 1116 671 1084Q664 1042 654 1020T629 990T590 982H523L476 719H864L911 982H844Q817 982 805 992T793 1032Q793 1053 799 1084Q806 1126 816 1148T841 1178T880 1187H1254Q1281
1187 1293 1176Z" />
<glyph unicode="I" glyph-name="I" d="M1141 1187T1153 1176T1165 1136Q1165 1116 1159 1084Q1152 1042 1142 1020T1117 990T1078 982H842L705 205H961Q987 205 999 195T1011 155Q1011 135 1005 102Q998 60 988 38T964 8T925 0H183Q156 0 144 11T132 51Q132 76
137 102Q148 163 166 184T219 205H455L592 982H336Q309 982 297 992T285 1032Q285 1053 291 1084Q298 1126 308 1148T333 1178T372 1187H1114Q1141 1187 1153 1176Z" />
<glyph unicode="J" glyph-name="J" d="M1271 1187T1283 1176T1295 1136Q1295 1116 1289 1084Q1282 1042 1272 1020T1247 990T1208 982H1032L921 353Q887 160 773 69T450 -22Q334 -22 234 19T69 135Q59 146 59 165Q59 171 61 185L116 499Q122 533 155 547T260 562Q320
562 344 551T368 515Q368 511 366 499L322 244Q385 205 481 205Q563 205 611 248T676 383L782 982H466Q439 982 427 992T415 1032Q415 1053 421 1084Q428 1126 438 1148T463 1178T502 1187H1244Q1271 1187 1283 1176Z" />
<glyph unicode="K" glyph-name="K" d="M1296 1187T1308 1176T1320 1136Q1320 1116 1314 1084Q1307 1042 1297 1020T1272 990T1233 982H1200L790 641Q843 638 877 612T938 535Q955 503 967 468T995 380Q1019 304 1028 282Q1043 245 1064 225T1116 205H1131Q1157
205 1169 195T1181 155Q1181 135 1175 102Q1168 60 1158 38T1134 8T1095 0H966Q904 0 866 38T805 142Q789 188 772 250Q770 258 757 304T728 382Q709 422 682 443T621 465Q576 465 536 431L465 371L436 205H551Q577 205 589 195T601 155Q601 135 595 102Q588 60
578 38T554 8T515 0H43Q16 0 4 11T-8 51Q-8 76 -3 102Q8 163 26 184T79 205H186L323 982H216Q189 982 177 992T165 1032Q165 1053 171 1084Q178 1126 188 1148T213 1178T252 1187H656Q683 1187 695 1176T707 1136Q707 1116 701 1084Q694 1042 684 1020T659 990T620
982H573L518 672L887 982H844Q817 982 805 992T793 1032Q793 1053 799 1084Q806 1126 816 1148T841 1178T880 1187H1269Q1296 1187 1308 1176Z" />
<glyph unicode="L" glyph-name="L" d="M903 1187T915 1176T927 1136Q927 1116 921 1084Q914 1042 904 1020T879 990T840 982H622L486 215H837L892 527Q898 561 931 575T1036 590Q1096 590 1120 579T1144 543Q1144 539 1142 527L1061 65Q1055 30 1037 15T985 0H53Q26
0 14 11T2 51Q2 76 7 102Q18 163 36 184T89 205H235L372 982H226Q199 982 187 992T175 1032Q175 1053 181 1084Q188 1126 198 1148T223 1178T262 1187H876Q903 1187 915 1176Z" />
<glyph unicode="M" glyph-name="M" d="M1301 1187T1313 1176T1325 1136Q1325 1116 1319 1084Q1312 1042 1302 1020T1277 990T1238 982H1184L1061 205H1121Q1147 205 1159 195T1171 155Q1171 135 1165 102Q1158 60 1148 38T1124 8T1085 0H711Q684 0 672 11T660
51Q660 76 665 102Q676 163 694 184T747 205H839L937 797L714 389Q694 354 669 340T602 325Q559 325 538 340T510 389L430 794L320 205H413Q439 205 451 195T463 155Q463 135 457 102Q450 60 440 38T416 8T377 0H3Q-24 0 -36 11T-48 51Q-48 76 -43 102Q-32 163
-14 184T39 205H98L250 982H196Q169 982 157 992T145 1032Q145 1053 151 1084Q158 1126 168 1148T193 1178T232 1187H506Q527 1187 538 1180T554 1156L651 665L919 1156Q928 1173 942 1180T979 1187H1274Q1301 1187 1313 1176Z" />
<glyph unicode="N" glyph-name="N" d="M1301 1187T1313 1176T1325 1136Q1325 1116 1319 1084Q1312 1042 1302 1020T1277 990T1238 982H1181L1015 44Q1009 11 982 -5T894 -22Q848 -22 827 -10T795 31L480 796H476L372 205H483Q509 205 521 195T533 155Q533 135
527 102Q520 60 510 38T486 8T447 0H43Q16 0 4 11T-8 51Q-8 76 -3 102Q8 163 26 184T79 205H146L283 982H216Q189 982 177 992T165 1032Q165 1053 171 1084Q178 1126 188 1148T213 1178T252 1187H516Q556 1187 567 1160L857 453H861L955 982H863Q836 982 824 992T812
1032Q812 1053 818 1084Q825 1126 835 1148T860 1178T899 1187H1274Q1301 1187 1313 1176Z" />
<glyph unicode="O" glyph-name="O" d="M879 1209T986 1149T1151 977T1209 716Q1209 593 1171 462T1062 231Q976 108 848 43T560 -22Q418 -22 311 38T146 210T88 471Q88 594 126 725T235 956Q321 1079 449 1144T737 1209Q879 1209 986 1149ZM558 982T462 849Q410
776 382 671T353 467Q353 340 410 273T580 205Q739 205 835 338Q887 411 915 516T944 720Q944 847 887 914T717 982Q558 982 462 849Z" />
<glyph unicode="P" glyph-name="P" d="M999 1187T1104 1100T1209 857Q1209 769 1181 681T1096 529Q965 382 677 382H517L486 205H703Q729 205 741 195T753 155Q753 135 747 102Q740 60 730 38T706 8T667 0H53Q26 0 14 11T2 51Q2 76 7 102Q18 163 36 184T89 205H236L373
982H226Q199 982 187 992T175 1032Q175 1053 181 1084Q188 1126 198 1148T223 1178T262 1187H799Q999 1187 1104 1100ZM555 597H674Q826 597 895 672Q922 701 936 743T951 829Q951 972 740 972H621L555 597Z" />
<glyph unicode="Q" glyph-name="Q" d="M889 1209T994 1151T1157 987T1214 738Q1214 609 1169 481T1038 257Q951 160 830 109T564 58Q539 58 519 60L396 -46Q479 -17 555 -17Q586 -17 611 -20T679 -32Q715 -39 738 -42T786 -46Q863 -46 944 -6Q956 0 969 0Q993
0 1014 -18T1049 -66Q1062 -95 1062 -122Q1062 -175 1019 -204Q954 -246 897 -263T781 -281Q745 -281 709 -276T623 -260Q560 -248 520 -243T433 -237Q318 -237 196 -284Q188 -287 182 -287Q162 -287 141 -269T106 -221Q90 -189 90 -159Q90 -123 114 -102L347 98Q229
148 163 262T97 529Q97 658 142 786T273 1010Q360 1107 481 1158T747 1209Q889 1209 994 1151ZM566 982T473 872Q420 809 391 715T362 529Q362 411 420 348T594 285Q745 285 838 395Q891 458 920 552T949 738Q949 855 891 918T717 982Q566 982 473 872Z" />
<glyph unicode="R" glyph-name="R" d="M964 1187T1065 1109T1166 888Q1166 605 853 533Q899 514 928 464Q955 417 986 331Q1008 275 1009 271Q1023 238 1040 222T1082 205H1101Q1128 205 1140 194T1152 154Q1152 134 1146 102Q1139 60 1129 38T1104 8T1065 0H978Q900
0 858 32T785 139Q772 170 754 236Q739 287 729 318T701 380Q678 422 643 441T555 461H491L446 205H543Q569 205 581 195T593 155Q593 135 587 102Q580 60 570 38T546 8T507 0H53Q26 0 14 11T2 51Q2 76 7 102Q18 163 36 184T89 205H196L333 982H226Q199 982 187
992T175 1032Q175 1053 181 1084Q188 1126 198 1148T223 1178T262 1187H779Q964 1187 1065 1109ZM529 676H678Q806 676 861 734Q882 757 894 790T907 857Q907 915 864 943T730 972H581L529 676Z" />
<glyph unicode="S" glyph-name="S" d="M1116 1209T1141 1198T1167 1159Q1167 1151 1166 1146L1117 872Q1111 838 1087 824T1014 809Q981 809 964 817T938 841Q904 915 837 955T673 996Q615 996 575 973T514 916T493 849Q493 823 510 806T561 775Q584 766 620 757T693
740Q787 720 853 699T972 639Q1081 559 1081 413Q1081 296 1033 198T879 39T608 -22Q526 -22 454 6T333 84L326 41Q321 7 294 -7T203 -22Q146 -22 121 -11T95 28Q95 36 96 41L155 375Q161 409 185 423T258 438Q293 438 312 429T338 398Q374 295 439 243T605 191Q679
191 725 215T791 276T811 351Q811 387 790 411T729 454Q701 467 667 476T577 500Q481 524 420 545T312 604Q225 673 225 793Q225 907 280 1002T437 1153T671 1209Q751 1209 818 1181T928 1104L936 1146Q943 1180 969 1194T1059 1209Q1116 1209 1141 1198Z" />
<glyph unicode="T" glyph-name="T" d="M1233 1187T1246 1177T1259 1143Q1259 1138 1257 1122L1183 700Q1177 667 1147 652T1060 637Q1011 637 991 647T971 683Q971 688 973 700L1021 972H840L705 205H931Q957 205 969 195T981 155Q981 135 975 102Q968 60 958
38T934 8T895 0H213Q186 0 174 11T162 51Q162 76 167 102Q178 163 196 184T249 205H455L590 972H409L361 700Q355 667 325 652T238 637Q189 637 169 647T149 683Q149 688 151 700L225 1122Q231 1156 249 1171T302 1187H1204Q1233 1187 1246 1177Z" />
<glyph unicode="U" glyph-name="U" d="M1281 1187T1293 1176T1305 1136Q1305 1116 1299 1084Q1292 1042 1282 1020T1257 990T1218 982H1171L1068 403Q1031 194 901 86T560 -22Q437 -22 346 21T206 146T157 338Q157 384 166 433L263 982H216Q189 982 177 992T165
1032Q165 1053 171 1084Q178 1126 188 1148T213 1178T252 1187H626Q653 1187 665 1176T677 1136Q677 1116 671 1084Q664 1042 654 1020T629 990T590 982H513L416 433Q410 399 410 370Q410 287 455 246T580 205Q674 205 739 261T824 433L921 982H844Q817 982 805
992T793 1032Q793 1053 799 1084Q806 1126 816 1148T841 1178T880 1187H1254Q1281 1187 1293 1176Z" />
<glyph unicode="V" glyph-name="V" d="M1341 1187T1353 1176T1365 1136Q1365 1116 1359 1084Q1352 1042 1342 1020T1317 990T1278 982H1210L681 43Q661 7 630 -7T537 -22Q476 -22 450 -7T417 43L233 982H156Q129 982 117 992T105 1032Q105 1053 111 1084Q118 1126
128 1148T153 1178T192 1187H618Q645 1187 657 1176T669 1136Q669 1116 663 1084Q656 1042 646 1020T621 990T582 982H493L600 369L937 982H866Q839 982 827 992T815 1032Q815 1053 821 1084Q828 1126 838 1148T863 1178T902 1187H1314Q1341 1187 1353 1176Z" />
<glyph unicode="W" glyph-name="W" d="M1351 1187T1363 1176T1375 1136Q1375 1116 1369 1084Q1362 1042 1352 1020T1327 990T1288 982H1233L965 43Q958 18 945 4T905 -16T833 -22Q767 -22 740 -7T707 43L630 514L385 43Q366 7 334 -7T235 -22Q189 -22 166 -16T134
4T127 43L195 982H146Q119 982 107 992T95 1032Q95 1053 101 1084Q108 1126 118 1148T143 1178T182 1187H566Q593 1187 605 1176T617 1136Q617 1116 611 1084Q604 1042 594 1020T569 990T530 982H412L366 408L584 826Q596 849 617 861T686 873Q735 873 755 864T779
833L849 408L1008 982H904Q877 982 865 992T853 1032Q853 1053 859 1084Q866 1126 876 1148T901 1178T940 1187H1324Q1351 1187 1363 1176Z" />
<glyph unicode="X" glyph-name="X" d="M1271 1187T1283 1176T1295 1136Q1295 1116 1289 1084Q1282 1042 1272 1020T1247 990T1208 982H1152L813 597L1030 205H1101Q1127 205 1139 195T1151 155Q1151 135 1145 102Q1138 60 1128 38T1104 8T1065 0H669Q642 0 630
11T618 51Q618 76 623 102Q634 163 652 184T705 205H749L623 442L415 205H451Q477 205 489 195T501 155Q501 135 495 102Q488 60 478 38T454 8T415 0H23Q-4 0 -16 11T-28 51Q-28 76 -23 102Q-12 163 6 184T59 205H121L493 625L298 982H226Q199 982 187 992T175
1032Q175 1053 181 1084Q188 1126 198 1148T223 1178T262 1187H650Q677 1187 689 1176T701 1136Q701 1116 695 1084Q688 1042 678 1020T653 990T614 982H573L680 778L858 982H838Q811 982 799 992T787 1032Q787 1053 793 1084Q800 1126 810 1148T835 1178T874 1187H1244Q1271
1187 1283 1176Z" />
<glyph unicode="Y" glyph-name="Y" d="M1291 1187T1303 1176T1315 1136Q1315 1116 1309 1084Q1302 1042 1292 1020T1267 990T1228 982H1183L750 460L705 205H911Q937 205 949 195T961 155Q961 135 955 102Q948 60 938 38T914 8T875 0H233Q206 0 194 11T182 51Q182
76 187 102Q198 163 216 184T269 205H455L501 467L256 982H206Q179 982 167 992T155 1032Q155 1053 161 1084Q168 1126 178 1148T203 1178T242 1187H626Q653 1187 665 1176T677 1136Q677 1116 671 1084Q664 1042 654 1020T629 990T590 982H523L657 690L896 982H844Q817
982 805 992T793 1032Q793 1053 799 1084Q806 1126 816 1148T841 1178T880 1187H1264Q1291 1187 1303 1176Z" />
<glyph unicode="Z" glyph-name="Z" d="M1173 1187T1185 1176T1197 1136Q1197 1116 1191 1084Q1180 1026 1151 992L470 215H827L867 437Q872 470 904 485T1000 500Q1055 500 1076 489T1098 452Q1098 443 1097 437L1031 65Q1025 30 1007 15T955 0H141Q114 0 102
11T90 51Q90 76 95 102Q106 166 132 195L813 972H489L453 770Q447 736 416 722T320 707Q265 707 243 718T221 754Q221 758 223 770L285 1122Q291 1156 309 1171T362 1187H1146Q1173 1187 1185 1176Z" />
<glyph unicode="[" glyph-name="bracketleft" d="M1061 1372T1072 1361T1084 1318Q1084 1295 1078 1259Q1067 1196 1048 1172T995 1147H672L451 -108H774Q800 -108 811 -119T823 -161Q823 -184 817 -220Q806 -287 788 -310T734 -333H224Q196 -333 183 -323T170
-291Q170 -286 172 -270L451 1309Q457 1343 474 1357T525 1372H1035Q1061 1372 1072 1361Z" />
<glyph unicode="\" glyph-name="backslash" d="M539 1399T549 1356L946 -273Q948 -281 948 -286Q948 -320 905 -340T790 -360Q731 -360 721 -317L324 1312Q322 1320 322 1325Q322 1359 365 1379T480 1399Q539 1399 549 1356Z" />
<glyph unicode="]" glyph-name="bracketright" d="M1075 1372T1088 1362T1101 1330Q1101 1325 1099 1309L820 -270Q814 -304 797 -318T746 -333H236Q210 -333 199 -322T187 -280Q187 -258 193 -220Q203 -158 222 -133T276 -108H599L820 1147H497Q471 1147 460
1158T448 1200Q448 1223 454 1259Q465 1326 483 1349T537 1372H1047Q1075 1372 1088 1362Z" />
<glyph unicode="^" glyph-name="asciicircum" d="M799 1209T820 1200T848 1172L1059 562Q1061 554 1061 550Q1061 526 1034 507T967 477Q934 468 900 468Q872 468 854 475T831 497L710 887L457 497Q439 468 373 468Q349 468 319 473Q276 482 248 499T219 539Q219
549 227 562L652 1172Q665 1191 689 1200T757 1209Q799 1209 820 1200Z" />
<glyph unicode="_" glyph-name="underscore" d="M1207 -288T1219 -299T1232 -341Q1232 -357 1225 -401Q1216 -449 1206 -472T1181 -504T1139 -513H-24Q-59 -513 -72 -504T-86 -466Q-86 -446 -78 -401Q-69 -351 -60 -328T-35 -296T11 -288H1177Q1207 -288 1219 -299Z" />
<glyph unicode="`" glyph-name="grave" d="M954 1137T961 1124T969 1097Q969 1085 964 1072Q957 1053 944 1042T912 1031Q902 1031 896 1033L416 1158Q387 1166 387 1204Q387 1240 413 1301Q457 1400 506 1400Q519 1400 533 1392L941 1145Q954 1137 961 1124Z" />
<glyph unicode="a" glyph-name="a" d="M1141 225T1152 214T1164 172Q1164 149 1158 113Q1147 46 1129 23T1075 0H1051Q967 0 909 32T828 133Q679 -22 464 -22Q356 -22 275 29T150 171T106 380Q106 514 164 644T337 860T614 946Q705 946 778 902T889 782L902 861Q907
895 924 909T976 924H1070Q1098 924 1111 914T1124 882Q1124 877 1122 861L1032 350Q1028 329 1028 308Q1028 225 1110 225H1115Q1141 225 1152 214ZM620 206T684 253T781 373T815 522Q815 614 762 666T625 718Q540 718 483 667T399 541T372 391Q372 306 414 256T535
206Q620 206 684 253Z" />
<glyph unicode="b" glyph-name="b" d="M553 1312T566 1302T579 1270Q579 1265 577 1249L503 833Q632 946 776 946Q885 946 967 895T1093 753T1137 544Q1137 410 1079 280T905 64T626 -22Q531 -22 456 25T343 152L326 53Q320 20 290 5T203 -10Q154 -10 134 0T114
36Q114 41 116 53L302 1107H205Q178 1107 166 1117T154 1157Q154 1178 160 1209Q167 1251 177 1273T202 1303T241 1312H525Q553 1312 566 1302ZM620 719T557 672T459 552T425 402Q425 309 478 257T616 205Q701 205 758 257T843 385T871 533Q871 620 828 669T706
719Q620 719 557 672Z" />
<glyph unicode="c" glyph-name="c" d="M1106 946T1128 935T1150 899Q1150 895 1148 883L1092 562Q1086 528 1053 514T948 499Q888 499 864 510T840 546Q840 550 842 562Q844 571 844 590Q844 646 805 682T690 719Q597 719 532 672T433 551T400 402Q400 310 453
258T600 205Q677 205 761 230T930 299Q947 308 961 308Q1004 308 1035 225Q1050 183 1050 154Q1050 129 1039 112T1005 83Q905 34 792 6T575 -22Q441 -22 341 31T188 177T134 389Q134 526 198 654T387 864T680 946Q762 946 823 915T908 824L918 883Q924 917 955
931T1051 946Q1106 946 1128 935Z" />
<glyph unicode="d" glyph-name="d" d="M1167 1312T1180 1302T1193 1270Q1193 1265 1191 1249L1007 205H1094Q1121 205 1133 195T1145 155Q1145 135 1139 103Q1132 61 1122 39T1097 9T1058 0H824Q796 0 783 10T770 42Q770 47 772 63L785 138Q635 -22 464 -22Q355
-22 273 29T147 171T103 380Q103 514 161 644T335 860T614 946Q692 946 757 914T866 824L916 1107H769Q742 1107 730 1117T718 1157Q718 1178 724 1209Q731 1251 741 1273T766 1303T805 1312H1139Q1167 1312 1180 1302ZM539 719T482 667T397 539T369 391Q369 304
412 255T534 205Q620 205 683 252T781 372T815 522Q815 615 762 667T624 719Q539 719 482 667Z" />
<glyph unicode="e" glyph-name="e" d="M961 264T974 264Q997 264 1010 245T1033 176Q1039 145 1039 122Q1039 91 1026 75T984 49Q876 15 763 -3T544 -22Q417 -22 325 29T185 172T137 379Q137 535 206 664T406 869T714 946Q830 946 918 907T1054 796T1103 634Q1103
520 1041 454T852 374L399 329Q414 268 461 237T584 205Q758 205 949 260Q961 264 974 264ZM472 719T412 516L761 551Q803 555 821 575T839 624Q839 664 802 691T688 719Q472 719 412 516Z" />
<glyph unicode="f" glyph-name="f" d="M1104 1317T1246 1260Q1293 1242 1293 1195Q1293 1169 1278 1127Q1262 1083 1242 1065T1198 1046Q1186 1046 1169 1051Q1107 1071 1056 1080T954 1090Q825 1090 795 924L785 864H1096Q1122 864 1134 852T1146 810Q1146 789
1140 756Q1129 694 1111 672T1058 649H747L625 -45Q592 -230 496 -322T232 -415Q144 -415 76 -394T-67 -319Q-98 -297 -98 -265Q-98 -235 -70 -187Q-28 -115 15 -115Q32 -115 49 -126Q100 -160 140 -174T230 -188Q289 -188 325 -151T377 -32L497 649H314Q288 649
276 660T264 702Q264 723 270 756Q281 818 299 841T352 864H535L548 937Q581 1126 680 1221T952 1317Q1104 1317 1246 1260Z" />
<glyph unicode="g" glyph-name="g" d="M735 946T808 907T925 791L939 871Q945 904 975 919T1062 934Q1111 934 1131 924T1151 888Q1151 883 1149 871L996 1Q961 -197 832 -303T469 -410Q390 -410 296 -393T107 -341Q86 -333 76 -320T65 -285Q65 -258 83 -210Q102
-162 122 -142T165 -121Q176 -121 191 -126Q262 -152 339 -167T479 -183Q602 -183 666 -132T749 21L767 123Q707 68 637 38T494 8Q382 8 300 58T174 196T130 395Q130 530 188 657T361 865T639 946Q735 946 808 907ZM567 719T510 673T425 557T397 412Q397 327 441
281T564 235Q652 235 714 278T809 390T841 534Q841 624 788 671T649 719Q567 719 510 673Z" />
<glyph unicode="h" glyph-name="h" d="M583 1312T596 1302T609 1270Q609 1265 607 1249L523 774Q671 946 833 946Q912 946 970 912T1059 817T1091 676Q1091 644 1084 600L1015 205H1092Q1118 205 1130 195T1142 155Q1142 135 1136 102Q1129 60 1119 38T1095 8T1056
0H792Q764 0 751 10T738 42Q738 47 740 63L827 561Q833 593 833 619Q833 668 811 693T738 719Q680 719 618 664T509 520T445 338L398 63Q392 29 375 15T324 0H200Q172 0 159 10T146 42Q146 47 148 63L332 1107H235Q208 1107 196 1117T184 1157Q184 1178 190 1209Q197
1251 207 1273T232 1303T271 1312H555Q583 1312 596 1302Z" />
<glyph unicode="i" glyph-name="i" d="M801 1383T828 1371T856 1333Q856 1325 855 1320L826 1156Q820 1121 791 1107T692 1093Q628 1093 602 1104T575 1143Q575 1151 576 1156L605 1320Q611 1355 639 1369T738 1383Q801 1383 828 1371ZM750 924T763 914T776 882Q776
877 774 861L686 361Q681 329 681 308Q681 255 705 230T778 205Q827 205 872 219T981 267Q1001 278 1017 278Q1039 278 1056 260T1090 204Q1111 157 1111 134Q1111 98 1070 74Q976 21 900 0T736 -22Q590 -22 510 55T429 272Q429 317 438 368L499 719H306Q279 719
267 729T255 769Q255 790 261 821Q268 863 278 885T303 915T342 924H722Q750 924 763 914Z" />
<glyph unicode="j" glyph-name="j" d="M1031 1383T1058 1371T1086 1333Q1086 1325 1085 1320L1056 1156Q1050 1121 1021 1107T922 1093Q858 1093 832 1104T805 1143Q805 1151 806 1156L835 1320Q841 1355 869 1369T968 1383Q1031 1383 1058 1371ZM980 924T993
914T1006 882Q1006 877 1004 861L845 -40Q812 -228 714 -319T443 -410Q359 -410 271 -384T97 -310Q61 -290 61 -255Q61 -225 88 -173Q110 -132 130 -115T172 -97Q186 -97 204 -105Q280 -142 337 -162T441 -183Q571 -183 600 -17L729 719H346Q319 719 307 729T295
769Q295 790 301 821Q308 863 318 885T343 915T382 924H952Q980 924 993 914Z" />
<glyph unicode="k" glyph-name="k" d="M593 1312T606 1302T619 1270Q619 1265 617 1249L491 535L780 739H737Q709 739 697 749T685 788Q685 803 690 831Q699 886 716 905T769 924H1183Q1210 924 1222 913T1235 874Q1235 859 1230 831Q1221 777 1204 758T1151 739H1121L691
449Q718 454 739 454Q790 454 832 428Q867 407 886 377T927 302Q929 298 937 282T952 253T968 232Q992 205 1033 205H1062Q1088 205 1100 195T1112 155Q1112 135 1106 102Q1099 60 1089 38T1065 8T1026 0H909Q841 0 793 47Q770 69 755 96T720 163Q698 209 683 233T645
276Q610 304 558 304Q530 304 502 296T450 270L443 265L408 63Q402 29 385 15T334 0H210Q182 0 169 10T156 42Q156 47 158 63L342 1107H245Q218 1107 206 1117T194 1157Q194 1178 200 1209Q207 1251 217 1273T242 1303T281 1312H565Q593 1312 606 1302Z" />
<glyph unicode="l" glyph-name="l" d="M789 1312T802 1302T815 1270Q815 1265 813 1249L656 361Q651 329 651 308Q651 255 675 230T748 205Q797 205 842 219T951 267Q971 278 987 278Q1009 278 1026 260T1060 204Q1081 157 1081 134Q1081 98 1040 74Q946 21 870
0T706 -22Q560 -22 480 55T399 272Q399 317 408 368L538 1107H305Q278 1107 266 1117T254 1157Q254 1178 260 1209Q267 1251 277 1273T302 1303T341 1312H761Q789 1312 802 1302Z" />
<glyph unicode="m" glyph-name="m" d="M1127 946T1171 893T1215 736Q1215 687 1205 633L1105 63Q1099 29 1082 15T1031 0H907Q879 0 866 10T853 42Q853 47 855 63L947 586Q952 618 952 635Q952 689 913 689Q866 689 826 616T761 403L701 63Q695 29 678 15T627
0H503Q475 0 462 10T449 42Q449 47 451 63L543 586Q548 618 548 635Q548 689 509 689Q462 689 422 616T357 403L297 63Q291 29 274 15T223 0H99Q71 0 58 10T45 42Q45 47 47 63L162 719H105Q78 719 66 729T54 769Q54 790 60 821Q67 863 77 885T102 915T141 924H315Q343
924 356 914T369 882Q369 877 367 861L342 717Q405 830 476 888T622 946Q698 946 736 894T782 743Q837 842 908 894T1052 946Q1127 946 1171 893Z" />
<glyph unicode="n" glyph-name="n" d="M912 946T970 912T1059 817T1091 675Q1091 644 1084 600L1015 205H1092Q1118 205 1130 195T1142 155Q1142 135 1136 102Q1129 60 1119 38T1095 8T1056 0H792Q764 0 751 10T738 42Q738 47 740 63L827 561Q833 594 833 621Q833
669 811 694T738 719Q680 719 618 664T509 520T445 338L398 63Q392 29 375 15T324 0H200Q172 0 159 10T146 42Q146 47 148 63L263 719H166Q139 719 127 729T115 769Q115 790 121 821Q128 863 138 885T163 915T202 924H446Q474 924 487 914T500 882Q500 877 498
861L473 716Q559 835 648 890T833 946Q912 946 970 912Z" />
<glyph unicode="o" glyph-name="o" d="M833 946T932 893T1083 747T1136 536Q1136 402 1072 274T876 62T550 -22Q416 -22 317 31T166 177T113 388Q113 526 179 654T377 864T700 946Q833 946 932 893ZM582 719T516 675T415 557T380 401Q380 310 433 258T580 205Q668
205 733 249T834 366T869 522Q869 613 816 666T670 719Q582 719 516 675Z" />
<glyph unicode="p" glyph-name="p" d="M905 946T987 895T1113 753T1157 544Q1157 410 1099 280T925 64T646 -22Q568 -22 503 10T394 100L344 -183H511Q538 -183 550 -194T562 -234Q562 -255 556 -286Q549 -328 539 -350T514 -380T475 -388H-29Q-55 -388 -67 -378T-79
-338Q-79 -318 -73 -286Q-66 -244 -56 -222T-32 -192T7 -183H94L253 719H166Q139 719 127 729T115 769Q115 790 121 821Q128 863 138 885T163 915T202 924H436Q464 924 477 914T490 882Q490 877 488 861L475 786Q625 946 796 946Q905 946 987 895ZM640 719T577
672T479 552T445 402Q445 309 498 257T636 205Q721 205 778 257T863 385T891 533Q891 620 848 669T726 719Q640 719 577 672Z" />
<glyph unicode="q" glyph-name="q" d="M734 946T809 899T922 772L939 871Q945 904 975 919T1062 934Q1111 934 1131 924T1151 888Q1151 883 1149 871L963 -183H1050Q1077 -183 1089 -194T1101 -234Q1101 -255 1095 -286Q1088 -328 1078 -350T1053 -380T1014 -388H510Q483
-388 471 -378T459 -338Q459 -318 465 -286Q472 -244 482 -222T507 -192T546 -183H713L762 91Q633 -22 489 -22Q380 -22 298 29T172 171T128 380Q128 514 186 644T360 860T639 946Q734 946 809 899ZM564 719T507 667T422 539T394 391Q394 304 437 255T559 205Q645
205 708 252T806 372T840 522Q840 615 787 667T649 719Q564 719 507 667Z" />
<glyph unicode="r" glyph-name="r" d="M1093 946T1163 890Q1200 860 1200 817Q1200 779 1172 729Q1123 639 1074 639Q1059 639 1045 647Q996 675 939 675Q860 675 781 625T643 486T567 290L553 205H840Q866 205 878 195T890 155Q890 135 884 102Q877 60 867 38T843
8T804 0H120Q93 0 81 11T69 51Q69 76 74 102Q85 163 103 184T156 205H303L393 719H276Q249 719 237 729T225 769Q225 790 231 821Q238 863 248 885T273 915T312 924H586Q614 924 627 914T640 882Q640 877 638 861L602 654Q699 796 805 871T1010 946Q1093 946 1163
890Z" />
<glyph unicode="s" glyph-name="s" d="M1059 946T1084 935T1110 896Q1110 888 1109 883L1072 672Q1066 638 1042 624T969 609Q915 609 900 630Q852 693 781 719T609 746Q540 746 504 721T468 660Q468 637 485 624T539 603Q561 598 642 586Q744 572 815 557T942
509Q994 479 1022 433T1051 315Q1051 227 1007 151T863 27T608 -22Q533 -22 472 -3T353 54L351 41Q346 8 314 -7T218 -22Q161 -22 136 -11T110 28Q110 36 111 41L150 264Q156 297 182 312T257 327Q318 327 335 299Q375 236 447 207T613 178Q705 178 747 204T789
269Q789 314 716 331Q691 337 612 349Q508 365 440 381T317 431Q265 462 237 510T208 630Q208 714 252 786T388 902T612 946Q767 946 876 868L879 883Q886 917 912 931T1002 946Q1059 946 1084 935Z" />
<glyph unicode="t" glyph-name="t" d="M689 1209T713 1198T737 1162Q737 1158 735 1146L685 864H1056Q1082 864 1094 852T1106 810Q1106 789 1100 756Q1089 694 1071 672T1018 649H647L598 371Q593 346 593 316Q593 205 698 205Q744 205 809 226T962 283Q977 290
993 290Q1015 290 1032 272T1065 209Q1079 169 1079 146Q1079 123 1067 108T1031 82Q924 32 831 5T656 -22Q505 -22 422 54T339 273Q339 317 348 368L397 649H204Q178 649 166 660T154 702Q154 723 160 756Q171 818 189 841T242 864H435L485 1146Q491 1180 524
1194T628 1209Q689 1209 713 1198Z" />
<glyph unicode="u" glyph-name="u" d="M1089 924T1102 914T1115 882Q1115 877 1113 861L998 205H1075Q1102 205 1114 195T1126 155Q1126 135 1120 103Q1113 61 1103 39T1078 9T1039 0H815Q787 0 774 10T761 42Q761 47 763 63L788 208Q702 89 613 34T428 -22Q349
-22 291 12T202 107T170 249Q170 288 177 324L246 719H169Q142 719 130 730T118 770Q118 791 124 822Q131 864 141 886T166 916T205 924H469Q497 924 510 914T523 882Q523 877 521 861L434 363Q428 332 428 305Q428 256 450 231T523 205Q581 205 643 260T753 405T816
586L838 719H731Q704 719 692 730T680 770Q680 791 686 822Q693 864 703 886T728 916T767 924H1061Q1089 924 1102 914Z" />
<glyph unicode="v" glyph-name="v" d="M1244 924T1256 913T1268 873Q1268 853 1262 821Q1255 779 1245 757T1220 727T1181 719H1113L701 43Q680 8 644 -7T537 -22Q467 -22 437 -7T397 43L225 719H159Q132 719 120 729T108 769Q108 790 114 821Q121 863 131 885T156
915T195 924H586Q613 924 625 913T637 873Q637 853 631 821Q624 779 614 757T589 727T550 719H483L583 278L839 719H784Q757 719 745 729T733 769Q733 790 739 821Q746 863 756 885T781 915T820 924H1217Q1244 924 1256 913Z" />
<glyph unicode="w" glyph-name="w" d="M1304 924T1316 913T1328 873Q1328 853 1322 821Q1315 779 1305 757T1280 727T1241 719H1200L935 43Q921 7 892 -7T803 -22Q744 -22 719 -7T687 43L610 398L405 43Q385 8 354 -7T265 -22Q205 -22 182 -8T157 43L133 719H99Q72
719 60 729T48 769Q48 790 54 821Q61 863 71 885T96 915T135 924H471Q498 924 510 913T522 873Q522 853 516 821Q509 779 499 757T474 727T435 719H350L357 331L555 670Q571 698 595 712T661 727Q704 727 723 715T749 677L825 331L971 719H899Q872 719 860 729T848
769Q848 790 854 821Q861 863 871 885T896 915T935 924H1277Q1304 924 1316 913Z" />
<glyph unicode="x" glyph-name="x" d="M1204 924T1216 913T1228 873Q1228 853 1222 821Q1215 779 1205 757T1180 727T1141 719H1093L797 458L1009 205H1061Q1087 205 1099 195T1111 155Q1111 135 1105 102Q1098 60 1088 38T1064 8T1025 0H641Q614 0 602 11T590
51Q590 76 595 102Q606 163 624 184T677 205H709L595 340L446 205H453Q479 205 491 195T503 155Q503 135 497 102Q490 60 480 38T456 8T417 0H63Q36 0 24 11T12 51Q12 76 17 102Q28 163 46 184T99 205H143L454 479L252 719H199Q172 719 160 729T148 769Q148 790
154 821Q161 863 171 885T196 915T235 924H609Q636 924 648 913T660 873Q660 853 654 821Q647 779 637 757T612 727T573 719H542L653 587L799 719H787Q760 719 748 729T736 769Q736 790 742 821Q749 863 759 885T784 915T823 924H1177Q1204 924 1216 913Z" />
<glyph unicode="y" glyph-name="y" d="M1244 924T1256 913T1268 873Q1268 853 1262 821Q1255 779 1245 757T1220 727T1181 719H1122L602 -57Q507 -199 431 -272T269 -375T57 -410Q25 -411 9 -389T-7 -307Q-7 -188 57 -184Q137 -179 191 -153T297 -70T426 100L234
719H159Q132 719 120 729T108 769Q108 790 114 821Q121 863 131 885T156 915T195 924H589Q616 924 628 913T640 873Q640 853 634 821Q627 779 617 757T592 727T553 719H493L600 339L841 719H787Q760 719 748 729T736 769Q736 790 742 821Q749 863 759 885T784 915T823
924H1217Q1244 924 1256 913Z" />
<glyph unicode="z" glyph-name="z" d="M1126 924T1138 914T1150 874Q1150 854 1144 822Q1140 795 1130 777T1098 740L511 205H826L848 329Q853 363 882 377T981 392Q1039 392 1059 382T1080 349Q1080 343 1078 329L1031 65Q1025 30 1007 15T955 0H141Q114 0 102
11T90 51Q90 76 95 102Q100 129 110 147T142 184L729 719H434L414 605Q408 570 380 556T281 542Q223 542 203 551T182 584Q182 589 184 605L229 859Q235 894 253 909T305 924H1099Q1126 924 1138 914Z" />
<glyph unicode="{" glyph-name="braceleft" d="M1123 1372T1135 1361T1147 1320Q1147 1300 1141 1267Q1133 1221 1123 1198T1098 1167T1059 1159Q965 1159 910 1137T827 1069T792 950L781 846Q769 730 702 657T496 547L495 537Q680 480 680 302Q680 273 673 229L655
125Q646 69 646 39Q646 -41 693 -80T854 -120Q881 -120 892 -130T904 -169Q904 -191 898 -227Q887 -289 869 -311T816 -333Q600 -333 498 -253T395 -10Q395 52 408 120L429 233Q434 257 434 286Q434 435 235 435Q209 435 197 446T185 486Q185 508 191 542Q198 586
208 608T233 639T272 648Q393 648 460 699T535 846L544 972Q554 1113 616 1201T797 1330T1097 1372Q1123 1372 1135 1361Z" />
<glyph unicode="|" glyph-name="bar" d="M853 1394T878 1383T904 1344Q904 1336 903 1331L616 -292Q610 -325 575 -340T473 -355Q416 -355 391 -344T365 -305Q365 -297 366 -292L653 1331Q659 1364 694 1379T796 1394Q853 1394 878 1383Z" />
<glyph unicode="}" glyph-name="braceright" d="M125 -333T113 -322T101 -281Q101 -261 107 -228Q115 -182 125 -159T150 -128T189 -120Q281 -120 337 -96T421 -25T458 99L475 237Q490 355 556 429T760 536L761 546Q667 576 625 639T583 795Q583 822 586 850L593
914Q598 961 598 990Q598 1048 580 1084T518 1140T394 1159Q367 1159 356 1169T344 1208Q344 1230 350 1266Q361 1328 379 1350T432 1372Q581 1372 672 1336T805 1226T847 1038Q847 991 839 929L829 850Q826 828 826 806Q826 729 872 689T1021 648Q1047 648 1059
637T1071 597Q1071 576 1065 541Q1058 497 1048 475T1023 444T984 435Q864 435 797 382T720 227L706 77Q692 -74 630 -163T451 -293T151 -333Q125 -333 113 -322Z" />
<glyph unicode="~" glyph-name="asciitilde" d="M515 765T562 748T675 696Q728 668 765 654T838 639Q877 639 907 655T970 705Q988 724 1010 724Q1043 724 1084 687Q1131 646 1131 609Q1131 592 1118 571Q1059 484 990 440T830 396Q776 396 728 414T615 466Q561
494 525 508T454 522Q415 522 385 506T322 456Q304 437 282 437Q249 437 208 474Q161 515 161 552Q161 569 174 590Q233 677 302 721T462 765Q515 765 562 748Z" />
<glyph unicode="&#xa0;" glyph-name="uni00A0" />
<glyph unicode="&#xa1;" glyph-name="exclamdown" d="M539 594T503 609T472 657L510 871Q516 905 552 919T670 934Q753 934 789 919T820 871L782 657Q776 623 740 609T622 594Q539 594 503 609ZM310 -345T310 -316Q310 -307 313 -295L486 362Q501 420 595 420Q689
420 684 362L625 -295Q621 -345 575 -345H345Q310 -345 310 -316Z" />
<glyph unicode="&#xa2;" glyph-name="cent" d="M826 1312T844 1302T863 1268Q863 1263 861 1249L828 1063Q905 1032 933 964L943 1023Q949 1057 980 1071T1076 1086Q1131 1086 1153 1075T1175 1039Q1175 1035 1173 1023L1117 702Q1111 668 1078 654T973 639Q913
639 889 650T865 686Q865 690 867 702Q869 720 869 729Q869 769 849 800T790 846L702 351Q823 368 955 439Q972 448 986 448Q1029 448 1060 365Q1075 323 1075 294Q1075 269 1064 252T1030 223Q945 181 850 154T662 120L630 -62Q624 -97 602 -111T525 -125Q479
-125 461 -115T442 -81Q442 -76 444 -62L478 131Q379 153 307 209T197 347T159 529Q159 658 216 780T384 985T646 1083L675 1249Q681 1284 702 1298T779 1312Q826 1312 844 1302ZM545 813T505 766T445 660T425 542Q425 480 449 436T519 368L602 837Q545 813 505
766Z" />
<glyph unicode="&#xa3;" glyph-name="sterling" d="M834 1209T919 1187T1082 1120Q1118 1099 1118 1068Q1118 1061 1117 1057L1080 850Q1074 816 1043 802T947 787Q892 787 870 798T848 834Q848 838 850 850L870 961Q811 992 732 992Q676 992 640 965T588 899T572
819Q572 786 580 757T605 683Q610 672 618 650H909Q935 650 947 639T959 598Q959 572 952 537Q944 490 934 466T908 434T869 425H629Q613 366 575 315T475 207Q556 235 622 235Q660 235 709 226Q759 218 787 218Q850 218 925 251Q933 255 942 255Q963 255 982 234T1012
182Q1023 152 1023 123Q1023 101 1016 83T994 56Q926 12 870 -5T757 -22Q727 -22 700 -18T625 -6Q572 4 538 8T464 13Q350 13 226 -34Q222 -36 214 -36Q193 -36 173 -15T140 39Q129 69 129 97Q129 141 157 161Q258 231 310 289T380 425H217Q191 425 179 435T167
476Q167 502 174 537Q182 584 193 608T218 641T257 650H355Q337 705 329 741T320 820Q320 911 366 1001T511 1150T753 1209Q834 1209 919 1187Z" />
<glyph unicode="&#xa4;" glyph-name="currency" d="M1218 984T1218 955Q1218 935 1194 914L1036 781Q1061 712 1061 637Q1061 568 1041 503T981 382L1084 259Q1101 239 1101 222Q1101 206 1087 187T1038 139Q982 91 953 91Q933 91 912 115L809 238Q718 198 615
198Q496 198 407 252L248 119Q227 101 211 101Q195 101 176 115T128 164Q79 221 79 251Q79 270 103 291L263 426Q239 489 239 567Q239 636 259 701T319 822L216 944Q198 965 198 981Q198 997 212 1016T261 1064Q318 1113 348 1113Q367 1113 388 1089L491 966Q582
1006 685 1006Q802 1006 891 953L1050 1086Q1070 1103 1087 1103Q1103 1103 1122 1089T1170 1040Q1218 984 1218 955ZM461 506T507 460T631 414Q695 414 742 443T814 521T839 625Q839 698 793 744T669 790Q605 790 558 761T486 683T461 579Q461 506 507 460Z" />
<glyph unicode="&#xa5;" glyph-name="yen" d="M1291 1187T1303 1176T1315 1136Q1315 1116 1309 1084Q1302 1042 1292 1020T1267 990T1228 982H1183L1065 840H1123Q1150 840 1162 830T1174 791Q1174 777 1169 747Q1160 693 1143 674T1090 655H911L793 512H1045Q1072
512 1084 502T1096 464Q1096 449 1091 419Q1082 365 1065 346T1012 327H726L705 205H911Q937 205 949 195T961 155Q961 135 955 102Q948 60 938 38T914 8T875 0H233Q206 0 194 11T182 51Q182 76 187 102Q198 163 216 184T269 205H455L476 327H190Q162 327 150 337T138
376Q138 391 143 419Q153 474 170 493T223 512H479L411 655H228Q200 655 188 665T176 704Q176 719 181 747Q190 801 208 820T261 840H323L256 982H206Q179 982 167 992T155 1032Q155 1053 161 1084Q168 1126 178 1148T203 1178T242 1187H626Q653 1187 665 1176T677
1136Q677 1116 671 1084Q664 1042 654 1020T629 990T590 982H523L657 690L896 982H844Q817 982 805 992T793 1032Q793 1053 799 1084Q806 1126 816 1148T841 1178T880 1187H1264Q1291 1187 1303 1176Z" />
<glyph unicode="&#xa6;" glyph-name="brokenbar" d="M853 1394T878 1383T904 1344Q904 1336 903 1331L793 708Q787 675 752 660T650 645Q593 645 568 656T542 695Q542 703 543 708L653 1331Q659 1364 694 1379T796 1394Q853 1394 878 1383ZM676 394T701 383T727
344Q727 336 726 331L616 -292Q610 -325 575 -340T473 -355Q416 -355 391 -344T365 -305Q365 -297 366 -292L476 331Q482 364 517 379T619 394Q676 394 701 383Z" />
<glyph unicode="&#xa7;" glyph-name="section" d="M1121 1187T1134 1177T1147 1143Q1147 1138 1145 1122L1099 860Q1093 826 1062 812T966 797Q911 797 889 808T867 844Q867 848 869 860L892 992H699Q645 992 621 965T596 895Q596 868 609 847T654 809L920 664Q989
626 1028 564T1067 423Q1067 333 1025 258T907 128Q910 109 910 89Q910 10 875 -62T762 -182T568 -230H164Q135 -230 122 -220T109 -186Q109 -181 111 -165L157 97Q163 131 194 145T290 160Q345 160 367 149T389 113Q389 109 387 97L364 -35H557Q611 -35 635 -8T660
62Q660 89 647 110T602 148L336 293Q267 331 228 393T189 534Q189 624 230 698T348 828Q346 841 346 868Q346 947 381 1019T494 1139T688 1187H1092Q1121 1187 1134 1177ZM439 613T439 565Q439 534 455 511T509 467L751 335Q772 323 790 311Q817 346 817 392Q817
423 801 446T747 490L505 622Q484 633 466 646Q439 613 439 565Z" />
<glyph unicode="&#xa8;" glyph-name="dieresis" d="M601 1345T638 1307T675 1214Q675 1167 652 1129T589 1068T505 1045Q448 1045 411 1083T373 1176Q373 1223 397 1261T460 1322T544 1345Q601 1345 638 1307ZM1061 1345T1098 1307T1135 1214Q1135 1167 1112 1129T1049
1068T965 1045Q908 1045 871 1083T833 1176Q833 1223 857 1261T920 1322T1004 1345Q1061 1345 1098 1307Z" />
<glyph unicode="&#xa9;" glyph-name="copyright" d="M890 1209T1003 1143T1177 959T1239 694Q1239 512 1153 347T911 80T553 -22Q405 -22 292 45T117 229T55 493Q55 675 141 840T384 1107T742 1209Q890 1209 1003 1143ZM577 1056T458 976T272 767T206 495Q206
388 248 306T372 177T566 131Q718 131 837 211T1022 420T1088 692Q1088 800 1046 882T922 1010T729 1056Q577 1056 458 976ZM771 937T817 926T902 894Q932 877 932 850Q932 830 916 792Q890 732 855 732Q850 732 836 736Q761 764 703 764Q624 764 574 711Q546 681
531 638T515 549Q515 488 548 455T643 422Q700 422 786 450Q797 454 806 454Q821 454 829 441T847 395Q855 366 855 348Q855 328 846 315T816 292Q770 271 720 260T622 249Q538 249 473 283T372 380T336 528Q336 605 365 687T451 828Q503 881 573 909T724 937Q771
937 817 926Z" />
<glyph unicode="&#xaa;" glyph-name="ordfeminine" d="M1090 649T1098 641T1107 609Q1107 590 1103 566Q1095 516 1082 499T1041 482H1023Q958 482 915 511T859 602Q747 465 586 465Q498 465 434 506T335 617T301 774Q301 877 345 977T479 1143T693 1209Q764 1209
820 1177T904 1089L914 1151Q918 1177 941 1188T1009 1200Q1054 1200 1071 1189T1085 1151L1013 740Q1010 722 1010 707Q1010 649 1067 649H1071Q1090 649 1098 641ZM698 640T747 676T822 768T848 883Q848 955 807 995T701 1035Q636 1035 592 995T526 897T505 783Q505
716 538 678T632 640Q698 640 747 676Z" />
<glyph unicode="&#xab;" glyph-name="guillemotleft" d="M452 946T472 946Q508 946 566 897Q621 851 621 811Q621 789 604 772L376 540L554 266Q564 249 564 236Q564 192 490 151Q436 121 402 121Q372 121 357 145L112 542Q105 554 105 565Q105 580 117 592L437
931Q452 946 472 946ZM992 946T1012 946Q1048 946 1106 897Q1161 851 1161 811Q1161 789 1144 772L896 520L1054 266Q1064 249 1064 235Q1064 192 990 151Q936 121 902 121Q872 121 857 145L632 522Q625 534 625 545Q625 560 637 572L977 931Q992 946 1012 946Z"
/>
<glyph unicode="&#xac;" glyph-name="logicalnot" d="M1140 845T1153 835T1167 800Q1167 796 1165 780L1082 308Q1076 274 1043 260T939 245Q878 245 854 256T830 292Q830 296 832 308L889 630H224Q198 630 186 641T174 682Q174 704 180 738Q187 783 197 805T222
836T261 845H1111Q1140 845 1153 835Z" />
<glyph unicode="&#xad;" glyph-name="uni00AD" d="M1008 551T1020 540T1032 499Q1032 473 1025 438Q1017 391 1007 367T981 335T942 326H238Q212 326 200 336T188 377Q188 403 195 438Q203 485 214 509T239 542T278 551H982Q1008 551 1020 540Z" />
<glyph unicode="&#xae;" glyph-name="registered" d="M890 1334T984 1279T1129 1126T1180 905Q1180 754 1109 616T907 393T609 308Q485 308 391 364T246 517T194 737Q194 889 266 1026T468 1249T766 1334Q890 1334 984 1279ZM629 1206T530 1139T375 965T319 739Q319
650 354 582T458 475T620 436Q746 436 845 503T1000 677T1055 903Q1055 993 1020 1061T916 1168T755 1206Q629 1206 530 1139ZM850 1091T898 1043T946 915Q946 854 912 805T810 725L865 647Q876 631 876 619Q876 594 828 567Q795 547 776 547Q757 547 741 572L667
696H601L585 606Q580 576 564 564T504 552Q469 552 456 560T442 586Q442 592 444 606L519 1038Q524 1066 538 1078T581 1091H761Q850 1091 898 1043ZM624 825H706Q754 825 775 848T797 901Q797 925 781 939T736 953H646L624 825Z" />
<glyph unicode="&#xaf;" glyph-name="overscore" d="M1076 1275T1088 1264T1100 1224Q1100 1204 1094 1172Q1087 1130 1077 1108T1052 1078T1013 1070H451Q424 1070 412 1080T400 1120Q400 1141 406 1172Q413 1214 423 1236T448 1266T487 1275H1049Q1076 1275 1088 1264Z" />
<glyph unicode="&#xb0;" glyph-name="degree" d="M746 1209T813 1172T916 1069T953 919Q953 821 909 740T785 612T599 565Q510 565 443 602T340 705T303 855Q303 953 347 1034T471 1162T657 1209Q746 1209 813 1172ZM587 998T552 962T516 870Q516 828 543 802T615
776Q669 776 704 812T740 904Q740 946 713 972T641 998Q587 998 552 962Z" />
<glyph unicode="&#xb1;" glyph-name="plusminus" d="M801 1126T823 1116T845 1082Q845 1077 843 1063L804 845H1073Q1099 845 1111 834T1123 791Q1123 770 1117 732Q1109 685 1099 661T1073 629T1034 620H765L726 401Q722 377 711 364T675 345T603 338Q544 338
522 348T499 383Q499 387 501 401L540 620H272Q246 620 234 630T222 671Q222 697 229 732Q237 779 247 803T272 836T311 845H579L618 1063Q622 1087 633 1100T669 1119T742 1126Q801 1126 823 1116ZM990 225T1002 214T1014 173Q1014 147 1007 112Q999 65 989 41T964
9T925 0H163Q136 0 124 10T112 52Q112 68 119 112Q127 159 138 183T163 216T202 225H964Q990 225 1002 214Z" />
<glyph unicode="&#xb2;" glyph-name="uni00B2" d="M877 1334T938 1304T1031 1219T1063 1094Q1063 1030 1037 981T965 890T839 794L633 653H853L861 699Q865 724 885 735T955 747Q1007 747 1028 735T1046 699L1016 529Q1011 504 999 494T962 483H367Q327 483 327
542Q327 562 331 583Q341 639 377 665L724 908Q802 962 830 995T859 1072Q859 1113 833 1137T759 1161Q687 1161 623 1135L607 1047Q602 1021 583 1010T513 999Q461 999 439 1011T422 1047L454 1225Q458 1254 493 1270Q563 1302 640 1318T791 1334Q877 1334 938
1304Z" />
<glyph unicode="&#xb3;" glyph-name="uni00B3" d="M862 1334T928 1306T1029 1228T1063 1112Q1063 960 907 897Q956 874 983 833T1010 739Q1010 668 977 607T859 505T634 465Q560 465 484 480T355 519Q325 533 325 568Q325 592 337 623Q349 656 367 674T402 692Q409
692 413 690Q464 667 523 653T636 638Q801 638 801 746Q801 777 777 794T708 811H615Q596 811 587 822T578 858Q578 877 582 897Q590 943 605 963T645 983H719Q792 983 826 1013T860 1086Q860 1122 831 1141T743 1161Q676 1161 601 1135L590 1077Q586 1052 566
1041T496 1029Q444 1029 423 1041T405 1077L433 1235Q440 1268 472 1280Q541 1306 617 1320T767 1334Q862 1334 928 1306Z" />
<glyph unicode="&#xb4;" glyph-name="acute" d="M973 1400T986 1400Q1035 1400 1079 1301Q1105 1240 1105 1204Q1105 1166 1076 1158L596 1033Q590 1031 580 1031Q562 1031 549 1042T528 1072Q523 1085 523 1097Q523 1111 530 1124T551 1145L959 1392Q973 1400 986 1400Z" />
<glyph unicode="&#xb5;" glyph-name="uni00B5" d="M1114 924T1127 914T1140 882Q1140 877 1138 861L997 63Q991 29 974 15T923 0H839Q811 0 798 10T785 42Q785 47 787 63L804 161Q730 72 640 25T452 -22Q402 -22 363 -7L306 -330Q300 -364 283 -378T232 -393H108Q80
-393 67 -383T54 -351Q54 -346 56 -330L266 861Q272 895 289 909T340 924H464Q492 924 505 914T518 882Q518 877 516 861L430 373Q425 343 425 323Q425 215 539 215Q597 215 659 258T768 373T829 528L888 861Q894 895 911 909T962 924H1086Q1114 924 1127 914Z"
/>
<glyph unicode="&#xb6;" glyph-name="paragraph" d="M1241 1187T1253 1176T1265 1136Q1265 1116 1259 1084Q1252 1042 1242 1020T1217 990T1178 982H1112L877 -347Q871 -380 841 -395T754 -410Q705 -410 685 -400T665 -364Q665 -359 667 -347L902 982H742L507
-347Q501 -380 471 -395T384 -410Q335 -410 315 -400T295 -364Q295 -359 297 -347L436 440Q311 460 241 543T170 751Q170 869 224 968T389 1127T658 1187H1214Q1241 1187 1253 1176Z" />
<glyph unicode="&#xb7;" glyph-name="middot" d="M761 770T800 755T834 707L789 453Q783 419 745 405T621 390Q533 390 493 405T459 453L504 707Q510 741 548 755T672 770Q761 770 800 755Z" />
<glyph unicode="&#xb8;" glyph-name="cedilla" d="M693 -90T742 -133T792 -250Q792 -286 780 -324T744 -389Q673 -472 487 -472Q338 -472 239 -431Q221 -424 221 -399Q221 -377 235 -346Q247 -319 262 -303T293 -286Q300 -286 304 -288Q346 -305 380 -313T461
-322Q513 -322 535 -304T557 -258Q557 -216 492 -216Q471 -216 439 -221Q426 -224 416 -217T406 -192Q406 -184 407 -180L443 28H618L597 -93Q693 -90 742 -133Z" />
<glyph unicode="&#xb9;" glyph-name="uni00B9" d="M994 653T1004 642T1014 605Q1014 596 1010 568Q1002 523 987 503T943 483H379Q358 483 349 494T339 528Q339 547 343 568Q351 613 366 633T409 653H587L664 1090L516 1020Q498 1012 486 1012Q469 1012 455 1026T428
1072Q416 1102 416 1122Q416 1140 426 1152T457 1175L798 1326Q817 1334 836 1334Q860 1334 876 1322T892 1287Q892 1279 891 1275L782 653H973Q994 653 1004 642Z" />
<glyph unicode="&#xba;" glyph-name="ordmasculine" d="M846 1209T920 1169T1035 1058T1075 894Q1075 790 1028 692T882 529T638 465Q536 465 462 505T348 616T308 780Q308 887 356 985T504 1146T745 1209Q846 1209 920 1169ZM662 1035T614 1001T539 910T513 790Q513
720 551 680T657 640Q721 640 769 674T843 764T869 883Q869 953 831 994T726 1035Q662 1035 614 1001Z" />
<glyph unicode="&#xbb;" glyph-name="guillemotright" d="M650 534T650 523Q650 508 638 496L298 137Q283 122 263 122Q227 122 169 171Q114 217 114 257Q114 279 131 296L379 548L221 802Q211 819 211 833Q211 876 285 917Q339 947 373 947Q403 947 418 923L643
546Q650 534 650 523ZM1170 514T1170 503Q1170 488 1158 476L838 137Q823 122 803 122Q767 122 709 171Q654 217 654 257Q654 279 671 296L899 528L721 802Q711 819 711 832Q711 876 785 917Q839 947 873 947Q903 947 918 923L1163 526Q1170 514 1170 503Z" />
<glyph unicode="&#xbc;" glyph-name="onequarter" d="M69 684Q52 684 44 693T36 722Q36 736 39 755Q46 792 59 809T95 826H243L308 1190L184 1132Q168 1125 159 1125Q145 1125 133 1136T110 1175Q100 1202 100 1216Q100 1232 108 1242T135 1261L419 1387Q433 1394
451 1394Q474 1394 487 1381T497 1344L406 826H565Q599 826 599 786Q599 773 596 755Q589 717 576 701T540 684H69ZM1203 772T1203 750Q1203 724 1178 711L149 190Q137 185 128 185Q102 185 80 230Q66 258 66 280Q66 306 91 319L1120 840Q1132 845 1141 845Q1167
845 1189 800Q1203 772 1203 750ZM1192 79T1200 69T1208 38Q1208 26 1205 8Q1198 -29 1185 -46T1148 -63H1074L1052 -184Q1048 -205 1031 -214T971 -224Q923 -224 903 -214T887 -184L908 -63H617Q597 -63 584 -35T570 30Q570 46 575 58T594 83L975 466Q1009 503
1081 503Q1126 503 1147 491T1165 457L1098 79H1174Q1192 79 1200 69ZM933 79L985 291L783 79H933Z" />
<glyph unicode="&#xbd;" glyph-name="onehalf" d="M69 684Q52 684 44 693T36 722Q36 736 39 755Q46 792 59 809T95 826H243L308 1190L184 1132Q168 1125 159 1125Q145 1125 133 1136T110 1175Q100 1202 100 1216Q100 1232 108 1242T135 1261L419 1387Q433 1394
451 1394Q474 1394 487 1381T497 1344L406 826H565Q599 826 599 786Q599 773 596 755Q589 717 576 701T540 684H69ZM1203 822T1203 800Q1203 774 1178 761L149 240Q137 235 128 235Q102 235 80 280Q66 308 66 330Q66 356 91 369L1120 890Q1132 895 1141 895Q1167
895 1189 850Q1203 822 1203 800ZM1167 4T1185 -5T1199 -36L1174 -178Q1170 -198 1160 -207T1129 -216H632Q599 -216 599 -167Q599 -153 602 -133Q610 -86 641 -64L931 138Q996 183 1019 210T1043 275Q1043 309 1022 329T960 349Q899 349 846 328L833 254Q829 233
813 224T754 214Q670 214 678 254L705 403Q710 428 738 440Q796 467 860 480T986 494Q1094 494 1154 439T1214 293Q1214 240 1192 199T1132 123T1027 43L855 -74H1038L1045 -36Q1048 -15 1064 -6T1123 4Q1167 4 1185 -5Z" />
<glyph unicode="&#xbe;" glyph-name="threequarters" d="M532 1394T596 1344T661 1208Q661 1081 530 1029Q571 1010 593 976T616 897Q616 803 545 736T302 669Q241 669 177 681T69 714Q44 725 44 756Q44 771 54 801Q64 828 79 843T108 858Q112 858 118 856Q160
837 209 825T304 813Q442 813 442 903Q442 929 422 943T364 957H287Q256 957 256 997Q256 1011 259 1029Q266 1067 279 1084T312 1101H373Q434 1101 462 1126T491 1187Q491 1217 467 1233T393 1249Q337 1249 275 1228L266 1179Q262 1158 246 1149T187 1139Q105
1139 111 1179L135 1311Q140 1338 167 1349Q286 1394 413 1394Q532 1394 596 1344ZM1132 855T1141 855Q1167 855 1189 810Q1203 782 1203 760Q1203 734 1178 721L149 200Q137 195 128 195Q102 195 80 240Q66 268 66 290Q66 316 91 329L1120 850Q1132 855 1141 855ZM1126
503T1147 491T1165 457L1098 79H1174Q1192 79 1200 69T1208 38Q1208 26 1205 8Q1198 -29 1185 -46T1148 -63H1074L1052 -184Q1048 -205 1031 -214T971 -224Q923 -224 903 -214T887 -184L908 -63H617Q597 -63 584 -35T570 30Q570 46 575 58T594 83L975 466Q1009
503 1081 503Q1126 503 1147 491ZM783 79H933L985 291L783 79Z" />
<glyph unicode="&#xbf;" glyph-name="questiondown" d="M581 634T547 649T519 697L550 871Q556 905 590 919T700 934Q778 934 812 919T840 871L809 697Q803 663 769 649T659 634Q581 634 547 649ZM382 -345T299 -307T172 -198T129 -33Q129 110 217 207T501 346L525
437Q531 462 555 473T635 485Q690 485 709 474T727 437L710 229Q707 185 671 178L558 158Q473 143 429 103T385 -2Q385 -60 420 -94T523 -128Q602 -128 681 -98L696 -6Q701 29 727 43T815 57Q873 57 900 45T927 6Q927 -2 926 -6L891 -206Q883 -249 839 -267Q656
-345 499 -345Q382 -345 299 -307Z" />
<glyph unicode="&#xc0;" glyph-name="Agrave" d="M872 1187T894 1172T921 1122L1050 205H1141Q1168 205 1180 195T1192 155Q1192 135 1186 103Q1179 61 1169 39T1144 9T1105 0H681Q654 0 642 11T630 51Q630 72 636 103Q643 145 653 167T678 197T717 205H807L787
350H423L353 205H423Q450 205 462 195T474 155Q474 135 468 103Q461 61 451 39T426 9T387 0H-17Q-44 0 -55 11T-67 52Q-67 68 -62 103Q-55 145 -45 167T-20 197T19 205H99L489 982H326Q299 982 287 993T275 1033Q275 1054 281 1085Q288 1127 298 1149T323 1179T362
1187H832Q872 1187 894 1172ZM716 982L517 555H766L722 982H716ZM944 1407T951 1394T959 1367Q959 1355 954 1342Q947 1323 934 1312T902 1301Q892 1301 886 1303L406 1428Q377 1436 377 1474Q377 1510 403 1571Q447 1670 496 1670Q509 1670 523 1662L931 1415Q944
1407 951 1394Z" />
<glyph unicode="&#xc1;" glyph-name="Aacute" d="M872 1187T894 1172T921 1122L1050 205H1141Q1168 205 1180 195T1192 155Q1192 135 1186 103Q1179 61 1169 39T1144 9T1105 0H681Q654 0 642 11T630 51Q630 72 636 103Q643 145 653 167T678 197T717 205H807L787
350H423L353 205H423Q450 205 462 195T474 155Q474 135 468 103Q461 61 451 39T426 9T387 0H-17Q-44 0 -55 11T-67 52Q-67 68 -62 103Q-55 145 -45 167T-20 197T19 205H99L489 982H326Q299 982 287 993T275 1033Q275 1054 281 1085Q288 1127 298 1149T323 1179T362
1187H832Q872 1187 894 1172ZM716 982L517 555H766L722 982H716ZM913 1670T926 1670Q975 1670 1019 1571Q1045 1510 1045 1474Q1045 1436 1016 1428L536 1303Q530 1301 520 1301Q502 1301 489 1312T468 1342Q463 1355 463 1367Q463 1381 470 1394T491 1415L899
1662Q913 1670 926 1670Z" />
<glyph unicode="&#xc2;" glyph-name="Acircumflex" d="M872 1187T894 1172T921 1122L1050 205H1141Q1168 205 1180 195T1192 155Q1192 135 1186 103Q1179 61 1169 39T1144 9T1105 0H681Q654 0 642 11T630 51Q630 72 636 103Q643 145 653 167T678 197T717 205H807L787
350H423L353 205H423Q450 205 462 195T474 155Q474 135 468 103Q461 61 451 39T426 9T387 0H-17Q-44 0 -55 11T-67 52Q-67 68 -62 103Q-55 145 -45 167T-20 197T19 205H99L489 982H326Q299 982 287 993T275 1033Q275 1054 281 1085Q288 1127 298 1149T323 1179T362
1187H832Q872 1187 894 1172ZM716 982L517 555H766L722 982H716ZM808 1676T823 1658L1074 1397Q1089 1382 1089 1362Q1089 1346 1076 1325Q1056 1293 1028 1293Q1016 1293 1004 1299L749 1433L446 1299Q434 1294 426 1294Q401 1294 382 1329Q371 1348 371 1363Q371
1382 390 1397L713 1658Q737 1676 771 1676Q808 1676 823 1658Z" />
<glyph unicode="&#xc3;" glyph-name="Atilde" d="M872 1187T894 1172T921 1122L1050 205H1141Q1168 205 1180 195T1192 155Q1192 135 1186 103Q1179 61 1169 39T1144 9T1105 0H681Q654 0 642 11T630 51Q630 72 636 103Q643 145 653 167T678 197T717 205H807L787
350H423L353 205H423Q450 205 462 195T474 155Q474 135 468 103Q461 61 451 39T426 9T387 0H-17Q-44 0 -55 11T-67 52Q-67 68 -62 103Q-55 145 -45 167T-20 197T19 205H99L489 982H326Q299 982 287 993T275 1033Q275 1054 281 1085Q288 1127 298 1149T323 1179T362
1187H832Q872 1187 894 1172ZM716 982L517 555H766L722 982H716ZM606 1584T641 1575T726 1546Q774 1528 804 1519T867 1510Q930 1510 989 1541Q1003 1548 1012 1548Q1043 1548 1067 1504Q1082 1476 1082 1453Q1082 1427 1063 1411Q952 1318 860 1318Q822 1318 787
1328T702 1357Q657 1374 626 1383T562 1392Q497 1392 438 1361Q427 1355 416 1355Q386 1355 362 1399Q346 1428 346 1451Q346 1476 364 1491Q470 1584 569 1584Q606 1584 641 1575Z" />
<glyph unicode="&#xc4;" glyph-name="Adieresis" d="M872 1187T894 1172T921 1122L1050 205H1141Q1168 205 1180 195T1192 155Q1192 135 1186 103Q1179 61 1169 39T1144 9T1105 0H681Q654 0 642 11T630 51Q630 72 636 103Q643 145 653 167T678 197T717 205H807L787
350H423L353 205H423Q450 205 462 195T474 155Q474 135 468 103Q461 61 451 39T426 9T387 0H-17Q-44 0 -55 11T-67 52Q-67 68 -62 103Q-55 145 -45 167T-20 197T19 205H99L489 982H326Q299 982 287 993T275 1033Q275 1054 281 1085Q288 1127 298 1149T323 1179T362
1187H832Q872 1187 894 1172ZM716 982L517 555H766L722 982H716ZM601 1615T638 1577T675 1484Q675 1437 652 1399T589 1338T505 1315Q448 1315 411 1353T373 1446Q373 1493 397 1531T460 1592T544 1615Q601 1615 638 1577ZM1061 1615T1098 1577T1135 1484Q1135
1437 1112 1399T1049 1338T965 1315Q908 1315 871 1353T833 1446Q833 1493 857 1531T920 1592T1004 1615Q1061 1615 1098 1577Z" />
<glyph unicode="&#xc5;" glyph-name="Aring" d="M872 1187T894 1172T921 1122L1050 205H1141Q1168 205 1180 195T1192 155Q1192 135 1186 103Q1179 61 1169 39T1144 9T1105 0H681Q654 0 642 11T630 51Q630 72 636 103Q643 145 653 167T678 197T717 205H807L787
350H423L353 205H423Q450 205 462 195T474 155Q474 135 468 103Q461 61 451 39T426 9T387 0H-17Q-44 0 -55 11T-67 52Q-67 68 -62 103Q-55 145 -45 167T-20 197T19 205H99L489 982H326Q299 982 287 993T275 1033Q275 1054 281 1085Q288 1127 298 1149T323 1179T362
1187H832Q872 1187 894 1172ZM716 982L517 555H766L722 982H716ZM875 1797T927 1766T1009 1683T1039 1568Q1039 1495 1001 1427T893 1316T739 1273Q675 1273 623 1303T541 1386T511 1501Q511 1577 550 1645T659 1755T811 1797Q875 1797 927 1766ZM760 1638T732
1621T687 1575T670 1517Q670 1480 694 1456T757 1432Q789 1432 817 1449T862 1494T879 1553Q879 1589 855 1613T793 1638Q760 1638 732 1621Z" />
<glyph unicode="&#xc6;" glyph-name="AE" d="M1263 1187T1276 1177T1289 1143Q1289 1138 1287 1122L1239 850Q1233 816 1205 802T1116 787Q1066 787 1047 797T1027 831Q1027 836 1029 850L1051 972H881L838 729H952Q978 729 990 717T1002 675Q1002 654 996 621Q985
559 967 537T914 514H800L747 215H927L958 387Q964 421 993 435T1085 450Q1139 450 1159 440T1180 405Q1180 401 1178 387L1121 65Q1115 30 1097 15T1045 0H545Q516 0 503 10T489 45Q489 49 491 65L538 330H341L287 205H328Q354 205 366 195T378 155Q378 135 372
102Q365 60 355 38T331 8T292 0H-37Q-64 0 -76 10T-88 50Q-88 71 -82 102Q-72 163 -54 184T-1 205H52L388 982H286Q259 982 247 992T235 1032Q235 1053 241 1084Q248 1126 258 1148T283 1178T322 1187H1234Q1263 1187 1276 1177ZM599 972L431 545H576L651 972H599Z"
/>
<glyph unicode="&#xc7;" glyph-name="Ccedilla" d="M1204 1209T1226 1198T1248 1162Q1248 1158 1246 1146L1178 762Q1172 728 1139 714T1035 699Q974 699 950 710T926 746Q926 750 928 762Q933 794 933 816Q933 893 888 937T757 982Q627 982 546 900T429 701T394
475Q394 345 454 275T630 205Q716 205 796 229T982 302Q996 309 1012 309Q1058 309 1082 225Q1093 184 1093 159Q1093 131 1081 113T1045 84Q841 -9 650 -21L637 -93Q733 -90 782 -133T832 -250Q832 -286 820 -324T784 -389Q713 -472 527 -472Q378 -472 279 -431Q261
-424 261 -399Q261 -377 275 -346Q287 -319 302 -303T333 -286Q340 -286 344 -288Q386 -305 420 -313T501 -322Q553 -322 575 -304T597 -258Q597 -216 532 -216Q511 -216 479 -221Q466 -224 456 -217T446 -192Q446 -184 447 -180L477 -9Q369 15 291 80T170 245T128
471Q128 652 201 822T417 1101T757 1209Q847 1209 910 1174T1003 1078L1016 1146Q1023 1180 1054 1194T1149 1209Q1204 1209 1226 1198Z" />
<glyph unicode="&#xc8;" glyph-name="Egrave" d="M1203 1187T1216 1177T1229 1143Q1229 1138 1227 1122L1174 820Q1168 786 1137 772T1041 757Q986 757 964 768T942 804Q942 808 944 820L971 972H571L526 719H770Q796 719 808 707T820 665Q820 644 814 611Q803
549 785 527T732 504H488L437 215H847L883 417Q889 451 921 465T1020 480Q1078 480 1101 469T1125 433Q1125 429 1123 417L1061 65Q1055 30 1037 15T985 0H53Q26 0 14 11T2 51Q2 76 7 102Q18 163 36 184T89 205H186L323 982H226Q199 982 187 992T175 1032Q175 1053
181 1084Q188 1126 198 1148T223 1178T262 1187H1174Q1203 1187 1216 1177ZM1004 1407T1011 1394T1019 1367Q1019 1355 1014 1342Q1007 1323 994 1312T962 1301Q952 1301 946 1303L466 1428Q437 1436 437 1474Q437 1510 463 1571Q507 1670 556 1670Q569 1670 583
1662L991 1415Q1004 1407 1011 1394Z" />
<glyph unicode="&#xc9;" glyph-name="Eacute" d="M1203 1187T1216 1177T1229 1143Q1229 1138 1227 1122L1174 820Q1168 786 1137 772T1041 757Q986 757 964 768T942 804Q942 808 944 820L971 972H571L526 719H770Q796 719 808 707T820 665Q820 644 814 611Q803
549 785 527T732 504H488L437 215H847L883 417Q889 451 921 465T1020 480Q1078 480 1101 469T1125 433Q1125 429 1123 417L1061 65Q1055 30 1037 15T985 0H53Q26 0 14 11T2 51Q2 76 7 102Q18 163 36 184T89 205H186L323 982H226Q199 982 187 992T175 1032Q175 1053
181 1084Q188 1126 198 1148T223 1178T262 1187H1174Q1203 1187 1216 1177ZM973 1670T986 1670Q1035 1670 1079 1571Q1105 1510 1105 1474Q1105 1436 1076 1428L596 1303Q590 1301 580 1301Q562 1301 549 1312T528 1342Q523 1355 523 1367Q523 1381 530 1394T551
1415L959 1662Q973 1670 986 1670Z" />
<glyph unicode="&#xca;" glyph-name="Ecircumflex" d="M1203 1187T1216 1177T1229 1143Q1229 1138 1227 1122L1174 820Q1168 786 1137 772T1041 757Q986 757 964 768T942 804Q942 808 944 820L971 972H571L526 719H770Q796 719 808 707T820 665Q820 644 814 611Q803
549 785 527T732 504H488L437 215H847L883 417Q889 451 921 465T1020 480Q1078 480 1101 469T1125 433Q1125 429 1123 417L1061 65Q1055 30 1037 15T985 0H53Q26 0 14 11T2 51Q2 76 7 102Q18 163 36 184T89 205H186L323 982H226Q199 982 187 992T175 1032Q175 1053
181 1084Q188 1126 198 1148T223 1178T262 1187H1174Q1203 1187 1216 1177ZM858 1676T873 1658L1124 1397Q1139 1382 1139 1362Q1139 1346 1126 1325Q1106 1293 1078 1293Q1066 1293 1054 1299L799 1433L496 1299Q484 1294 476 1294Q451 1294 432 1329Q421 1348
421 1363Q421 1382 440 1397L763 1658Q787 1676 821 1676Q858 1676 873 1658Z" />
<glyph unicode="&#xcb;" glyph-name="Edieresis" d="M1203 1187T1216 1177T1229 1143Q1229 1138 1227 1122L1174 820Q1168 786 1137 772T1041 757Q986 757 964 768T942 804Q942 808 944 820L971 972H571L526 719H770Q796 719 808 707T820 665Q820 644 814 611Q803
549 785 527T732 504H488L437 215H847L883 417Q889 451 921 465T1020 480Q1078 480 1101 469T1125 433Q1125 429 1123 417L1061 65Q1055 30 1037 15T985 0H53Q26 0 14 11T2 51Q2 76 7 102Q18 163 36 184T89 205H186L323 982H226Q199 982 187 992T175 1032Q175 1053
181 1084Q188 1126 198 1148T223 1178T262 1187H1174Q1203 1187 1216 1177ZM641 1615T678 1577T715 1484Q715 1437 692 1399T629 1338T545 1315Q488 1315 451 1353T413 1446Q413 1493 437 1531T500 1592T584 1615Q641 1615 678 1577ZM1101 1615T1138 1577T1175
1484Q1175 1437 1152 1399T1089 1338T1005 1315Q948 1315 911 1353T873 1446Q873 1493 897 1531T960 1592T1044 1615Q1101 1615 1138 1577Z" />
<glyph unicode="&#xcc;" glyph-name="Igrave" d="M1141 1187T1153 1176T1165 1136Q1165 1116 1159 1084Q1152 1042 1142 1020T1117 990T1078 982H842L705 205H961Q987 205 999 195T1011 155Q1011 135 1005 102Q998 60 988 38T964 8T925 0H183Q156 0 144 11T132
51Q132 76 137 102Q148 163 166 184T219 205H455L592 982H336Q309 982 297 992T285 1032Q285 1053 291 1084Q298 1126 308 1148T333 1178T372 1187H1114Q1141 1187 1153 1176ZM984 1407T991 1394T999 1367Q999 1355 994 1342Q987 1323 974 1312T942 1301Q932 1301
926 1303L446 1428Q417 1436 417 1474Q417 1510 443 1571Q487 1670 536 1670Q549 1670 563 1662L971 1415Q984 1407 991 1394Z" />
<glyph unicode="&#xcd;" glyph-name="Iacute" d="M1141 1187T1153 1176T1165 1136Q1165 1116 1159 1084Q1152 1042 1142 1020T1117 990T1078 982H842L705 205H961Q987 205 999 195T1011 155Q1011 135 1005 102Q998 60 988 38T964 8T925 0H183Q156 0 144 11T132
51Q132 76 137 102Q148 163 166 184T219 205H455L592 982H336Q309 982 297 992T285 1032Q285 1053 291 1084Q298 1126 308 1148T333 1178T372 1187H1114Q1141 1187 1153 1176ZM983 1670T996 1670Q1045 1670 1089 1571Q1115 1510 1115 1474Q1115 1436 1086 1428L606
1303Q600 1301 590 1301Q572 1301 559 1312T538 1342Q533 1355 533 1367Q533 1381 540 1394T561 1415L969 1662Q983 1670 996 1670Z" />
<glyph unicode="&#xce;" glyph-name="Icircumflex" d="M1141 1187T1153 1176T1165 1136Q1165 1116 1159 1084Q1152 1042 1142 1020T1117 990T1078 982H842L705 205H961Q987 205 999 195T1011 155Q1011 135 1005 102Q998 60 988 38T964 8T925 0H183Q156 0 144 11T132
51Q132 76 137 102Q148 163 166 184T219 205H455L592 982H336Q309 982 297 992T285 1032Q285 1053 291 1084Q298 1126 308 1148T333 1178T372 1187H1114Q1141 1187 1153 1176ZM838 1676T853 1658L1104 1397Q1119 1382 1119 1362Q1119 1346 1106 1325Q1086 1293
1058 1293Q1046 1293 1034 1299L779 1433L476 1299Q464 1294 456 1294Q431 1294 412 1329Q401 1348 401 1363Q401 1382 420 1397L743 1658Q767 1676 801 1676Q838 1676 853 1658Z" />
<glyph unicode="&#xcf;" glyph-name="Idieresis" d="M1141 1187T1153 1176T1165 1136Q1165 1116 1159 1084Q1152 1042 1142 1020T1117 990T1078 982H842L705 205H961Q987 205 999 195T1011 155Q1011 135 1005 102Q998 60 988 38T964 8T925 0H183Q156 0 144 11T132
51Q132 76 137 102Q148 163 166 184T219 205H455L592 982H336Q309 982 297 992T285 1032Q285 1053 291 1084Q298 1126 308 1148T333 1178T372 1187H1114Q1141 1187 1153 1176ZM631 1615T668 1577T705 1484Q705 1437 682 1399T619 1338T535 1315Q478 1315 441 1353T403
1446Q403 1493 427 1531T490 1592T574 1615Q631 1615 668 1577ZM1091 1615T1128 1577T1165 1484Q1165 1437 1142 1399T1079 1338T995 1315Q938 1315 901 1353T863 1446Q863 1493 887 1531T950 1592T1034 1615Q1091 1615 1128 1577Z" />
<glyph unicode="&#xd0;" glyph-name="Eth" d="M864 1187T973 1131T1140 970T1198 718Q1198 560 1141 397T937 117T544 0H53Q26 0 14 11T2 51Q2 76 7 102Q18 163 36 184T89 205H186L237 494H120Q93 494 82 505T70 547Q70 569 76 606Q84 653 95 677T120 710T159
719H277L323 982H226Q199 982 187 992T175 1032Q175 1053 181 1084Q188 1126 198 1148T223 1178T262 1187H713Q864 1187 973 1131ZM680 215T767 290T893 478T932 712Q932 841 868 906T675 972H571L527 719H661Q687 719 699 708T711 667Q711 641 704 606Q696 559
686 535T661 503T622 494H487L438 215H542Q680 215 767 290Z" />
<glyph unicode="&#xd1;" glyph-name="Ntilde" d="M1301 1187T1313 1176T1325 1136Q1325 1116 1319 1084Q1312 1042 1302 1020T1277 990T1238 982H1181L1015 44Q1009 11 982 -5T894 -22Q848 -22 827 -10T795 31L480 796H476L372 205H483Q509 205 521 195T533 155Q533
135 527 102Q520 60 510 38T486 8T447 0H43Q16 0 4 11T-8 51Q-8 76 -3 102Q8 163 26 184T79 205H146L283 982H216Q189 982 177 992T165 1032Q165 1053 171 1084Q178 1126 188 1148T213 1178T252 1187H516Q556 1187 567 1160L857 453H861L955 982H863Q836 982 824
992T812 1032Q812 1053 818 1084Q825 1126 835 1148T860 1178T899 1187H1274Q1301 1187 1313 1176ZM676 1584T711 1575T796 1546Q844 1528 874 1519T937 1510Q1000 1510 1059 1541Q1073 1548 1082 1548Q1113 1548 1137 1504Q1152 1476 1152 1453Q1152 1427 1133
1411Q1022 1318 930 1318Q892 1318 857 1328T772 1357Q727 1374 696 1383T632 1392Q567 1392 508 1361Q497 1355 486 1355Q456 1355 432 1399Q416 1428 416 1451Q416 1476 434 1491Q540 1584 639 1584Q676 1584 711 1575Z" />
<glyph unicode="&#xd2;" glyph-name="Ograve" d="M879 1209T986 1149T1151 977T1209 716Q1209 593 1171 462T1062 231Q976 108 848 43T560 -22Q418 -22 311 38T146 210T88 471Q88 594 126 725T235 956Q321 1079 449 1144T737 1209Q879 1209 986 1149ZM558 982T462
849Q410 776 382 671T353 467Q353 340 410 273T580 205Q739 205 835 338Q887 411 915 516T944 720Q944 847 887 914T717 982Q558 982 462 849ZM994 1407T1001 1394T1009 1367Q1009 1355 1004 1342Q997 1323 984 1312T952 1301Q942 1301 936 1303L456 1428Q427 1436
427 1474Q427 1510 453 1571Q497 1670 546 1670Q559 1670 573 1662L981 1415Q994 1407 1001 1394Z" />
<glyph unicode="&#xd3;" glyph-name="Oacute" d="M879 1209T986 1149T1151 977T1209 716Q1209 593 1171 462T1062 231Q976 108 848 43T560 -22Q418 -22 311 38T146 210T88 471Q88 594 126 725T235 956Q321 1079 449 1144T737 1209Q879 1209 986 1149ZM558 982T462
849Q410 776 382 671T353 467Q353 340 410 273T580 205Q739 205 835 338Q887 411 915 516T944 720Q944 847 887 914T717 982Q558 982 462 849ZM963 1670T976 1670Q1025 1670 1069 1571Q1095 1510 1095 1474Q1095 1436 1066 1428L586 1303Q580 1301 570 1301Q552
1301 539 1312T518 1342Q513 1355 513 1367Q513 1381 520 1394T541 1415L949 1662Q963 1670 976 1670Z" />
<glyph unicode="&#xd4;" glyph-name="Ocircumflex" d="M879 1209T986 1149T1151 977T1209 716Q1209 593 1171 462T1062 231Q976 108 848 43T560 -22Q418 -22 311 38T146 210T88 471Q88 594 126 725T235 956Q321 1079 449 1144T737 1209Q879 1209 986 1149ZM558
982T462 849Q410 776 382 671T353 467Q353 340 410 273T580 205Q739 205 835 338Q887 411 915 516T944 720Q944 847 887 914T717 982Q558 982 462 849ZM838 1676T853 1658L1104 1397Q1119 1382 1119 1362Q1119 1346 1106 1325Q1086 1293 1058 1293Q1046 1293 1034
1299L779 1433L476 1299Q464 1294 456 1294Q431 1294 412 1329Q401 1348 401 1363Q401 1382 420 1397L743 1658Q767 1676 801 1676Q838 1676 853 1658Z" />
<glyph unicode="&#xd5;" glyph-name="Otilde" d="M879 1209T986 1149T1151 977T1209 716Q1209 593 1171 462T1062 231Q976 108 848 43T560 -22Q418 -22 311 38T146 210T88 471Q88 594 126 725T235 956Q321 1079 449 1144T737 1209Q879 1209 986 1149ZM558 982T462
849Q410 776 382 671T353 467Q353 340 410 273T580 205Q739 205 835 338Q887 411 915 516T944 720Q944 847 887 914T717 982Q558 982 462 849ZM666 1584T701 1575T786 1546Q834 1528 864 1519T927 1510Q990 1510 1049 1541Q1063 1548 1072 1548Q1103 1548 1127
1504Q1142 1476 1142 1453Q1142 1427 1123 1411Q1012 1318 920 1318Q882 1318 847 1328T762 1357Q717 1374 686 1383T622 1392Q557 1392 498 1361Q487 1355 476 1355Q446 1355 422 1399Q406 1428 406 1451Q406 1476 424 1491Q530 1584 629 1584Q666 1584 701 1575Z"
/>
<glyph unicode="&#xd6;" glyph-name="Odieresis" d="M879 1209T986 1149T1151 977T1209 716Q1209 593 1171 462T1062 231Q976 108 848 43T560 -22Q418 -22 311 38T146 210T88 471Q88 594 126 725T235 956Q321 1079 449 1144T737 1209Q879 1209 986 1149ZM558 982T462
849Q410 776 382 671T353 467Q353 340 410 273T580 205Q739 205 835 338Q887 411 915 516T944 720Q944 847 887 914T717 982Q558 982 462 849ZM641 1615T678 1577T715 1484Q715 1437 692 1399T629 1338T545 1315Q488 1315 451 1353T413 1446Q413 1493 437 1531T500
1592T584 1615Q641 1615 678 1577ZM1101 1615T1138 1577T1175 1484Q1175 1437 1152 1399T1089 1338T1005 1315Q948 1315 911 1353T873 1446Q873 1493 897 1531T960 1592T1044 1615Q1101 1615 1138 1577Z" />
<glyph unicode="&#xd7;" glyph-name="multiply" d="M1085 859T1085 829Q1085 808 1060 788L802 569L985 350Q1002 330 1002 313Q1002 297 988 278T939 229Q883 181 853 181Q832 181 812 206L630 424L371 204Q351 187 334 187Q318 187 299 201T251 249Q203 307
203 336Q203 356 227 377L486 597L304 815Q287 835 287 852Q287 868 301 887T349 935Q407 983 436 983Q456 983 477 959L658 742L916 961Q936 978 953 978Q970 978 989 964T1037 915Q1085 859 1085 829Z" />
<glyph unicode="&#xd8;" glyph-name="Oslash" d="M1229 1212T1239 1198T1250 1169Q1250 1151 1228 1126L1129 1013Q1209 891 1209 716Q1209 593 1171 462T1062 231Q976 108 848 43T560 -22Q403 -22 289 52L205 -44Q192 -59 181 -66T156 -73Q133 -73 93 -42Q49
-8 49 19Q49 38 71 63L168 174Q88 296 88 471Q88 594 126 725T235 956Q321 1079 449 1144T737 1209Q894 1209 1008 1135L1094 1233Q1107 1248 1118 1255T1143 1262Q1166 1262 1206 1231Q1229 1212 1239 1198ZM558 982T462 849Q410 776 382 671T353 467Q353 427
359 392L846 950Q794 982 717 982Q558 982 462 849ZM503 205T580 205Q739 205 835 338Q887 411 915 516T944 720Q944 761 938 795L451 237Q503 205 580 205Z" />
<glyph unicode="&#xd9;" glyph-name="Ugrave" d="M1281 1187T1293 1176T1305 1136Q1305 1116 1299 1084Q1292 1042 1282 1020T1257 990T1218 982H1171L1068 403Q1031 194 901 86T560 -22Q437 -22 346 21T206 146T157 338Q157 384 166 433L263 982H216Q189 982
177 992T165 1032Q165 1053 171 1084Q178 1126 188 1148T213 1178T252 1187H626Q653 1187 665 1176T677 1136Q677 1116 671 1084Q664 1042 654 1020T629 990T590 982H513L416 433Q410 399 410 370Q410 287 455 246T580 205Q674 205 739 261T824 433L921 982H844Q817
982 805 992T793 1032Q793 1053 799 1084Q806 1126 816 1148T841 1178T880 1187H1254Q1281 1187 1293 1176ZM994 1407T1001 1394T1009 1367Q1009 1355 1004 1342Q997 1323 984 1312T952 1301Q942 1301 936 1303L456 1428Q427 1436 427 1474Q427 1510 453 1571Q497
1670 546 1670Q559 1670 573 1662L981 1415Q994 1407 1001 1394Z" />
<glyph unicode="&#xda;" glyph-name="Uacute" d="M1281 1187T1293 1176T1305 1136Q1305 1116 1299 1084Q1292 1042 1282 1020T1257 990T1218 982H1171L1068 403Q1031 194 901 86T560 -22Q437 -22 346 21T206 146T157 338Q157 384 166 433L263 982H216Q189 982
177 992T165 1032Q165 1053 171 1084Q178 1126 188 1148T213 1178T252 1187H626Q653 1187 665 1176T677 1136Q677 1116 671 1084Q664 1042 654 1020T629 990T590 982H513L416 433Q410 399 410 370Q410 287 455 246T580 205Q674 205 739 261T824 433L921 982H844Q817
982 805 992T793 1032Q793 1053 799 1084Q806 1126 816 1148T841 1178T880 1187H1254Q1281 1187 1293 1176ZM973 1670T986 1670Q1035 1670 1079 1571Q1105 1510 1105 1474Q1105 1436 1076 1428L596 1303Q590 1301 580 1301Q562 1301 549 1312T528 1342Q523 1355
523 1367Q523 1381 530 1394T551 1415L959 1662Q973 1670 986 1670Z" />
<glyph unicode="&#xdb;" glyph-name="Ucircumflex" d="M1281 1187T1293 1176T1305 1136Q1305 1116 1299 1084Q1292 1042 1282 1020T1257 990T1218 982H1171L1068 403Q1031 194 901 86T560 -22Q437 -22 346 21T206 146T157 338Q157 384 166 433L263 982H216Q189
982 177 992T165 1032Q165 1053 171 1084Q178 1126 188 1148T213 1178T252 1187H626Q653 1187 665 1176T677 1136Q677 1116 671 1084Q664 1042 654 1020T629 990T590 982H513L416 433Q410 399 410 370Q410 287 455 246T580 205Q674 205 739 261T824 433L921 982H844Q817
982 805 992T793 1032Q793 1053 799 1084Q806 1126 816 1148T841 1178T880 1187H1254Q1281 1187 1293 1176ZM838 1676T853 1658L1104 1397Q1119 1382 1119 1362Q1119 1346 1106 1325Q1086 1293 1058 1293Q1046 1293 1034 1299L779 1433L476 1299Q464 1294 456 1294Q431
1294 412 1329Q401 1348 401 1363Q401 1382 420 1397L743 1658Q767 1676 801 1676Q838 1676 853 1658Z" />
<glyph unicode="&#xdc;" glyph-name="Udieresis" d="M1281 1187T1293 1176T1305 1136Q1305 1116 1299 1084Q1292 1042 1282 1020T1257 990T1218 982H1171L1068 403Q1031 194 901 86T560 -22Q437 -22 346 21T206 146T157 338Q157 384 166 433L263 982H216Q189 982
177 992T165 1032Q165 1053 171 1084Q178 1126 188 1148T213 1178T252 1187H626Q653 1187 665 1176T677 1136Q677 1116 671 1084Q664 1042 654 1020T629 990T590 982H513L416 433Q410 399 410 370Q410 287 455 246T580 205Q674 205 739 261T824 433L921 982H844Q817
982 805 992T793 1032Q793 1053 799 1084Q806 1126 816 1148T841 1178T880 1187H1254Q1281 1187 1293 1176ZM631 1615T668 1577T705 1484Q705 1437 682 1399T619 1338T535 1315Q478 1315 441 1353T403 1446Q403 1493 427 1531T490 1592T574 1615Q631 1615 668 1577ZM1091
1615T1128 1577T1165 1484Q1165 1437 1142 1399T1079 1338T995 1315Q938 1315 901 1353T863 1446Q863 1493 887 1531T950 1592T1034 1615Q1091 1615 1128 1577Z" />
<glyph unicode="&#xdd;" glyph-name="Yacute" d="M1291 1187T1303 1176T1315 1136Q1315 1116 1309 1084Q1302 1042 1292 1020T1267 990T1228 982H1183L750 460L705 205H911Q937 205 949 195T961 155Q961 135 955 102Q948 60 938 38T914 8T875 0H233Q206 0 194
11T182 51Q182 76 187 102Q198 163 216 184T269 205H455L501 467L256 982H206Q179 982 167 992T155 1032Q155 1053 161 1084Q168 1126 178 1148T203 1178T242 1187H626Q653 1187 665 1176T677 1136Q677 1116 671 1084Q664 1042 654 1020T629 990T590 982H523L657
690L896 982H844Q817 982 805 992T793 1032Q793 1053 799 1084Q806 1126 816 1148T841 1178T880 1187H1264Q1291 1187 1303 1176ZM1003 1670T1016 1670Q1065 1670 1109 1571Q1135 1510 1135 1474Q1135 1436 1106 1428L626 1303Q620 1301 610 1301Q592 1301 579
1312T558 1342Q553 1355 553 1367Q553 1381 560 1394T581 1415L989 1662Q1003 1670 1016 1670Z" />
<glyph unicode="&#xde;" glyph-name="Thorn" d="M933 1187T945 1176T957 1136Q957 1116 951 1084Q944 1042 934 1020T909 990T870 982H683L666 886H805Q963 886 1043 819T1123 639Q1123 576 1102 514T1037 407Q933 301 703 301H563L546 205H733Q759 205 771 195T783
155Q783 135 777 102Q770 60 760 38T736 8T697 0H113Q86 0 74 11T62 51Q62 76 67 102Q78 163 96 184T149 205H296L433 982H286Q259 982 247 992T235 1032Q235 1053 241 1084Q248 1126 258 1148T283 1178T322 1187H906Q933 1187 945 1176ZM597 496H706Q800 496 836
535Q850 550 857 572T865 617Q865 656 835 673T740 691H631L597 496Z" />
<glyph unicode="&#xdf;" glyph-name="germandbls" d="M868 1317T950 1277T1076 1165T1120 1002Q1120 769 912 668Q992 636 1034 572T1076 418Q1076 308 1026 208T864 43T575 -22Q541 -22 527 -4T512 61Q512 80 513 91Q517 153 533 178T585 205Q699 209 756 270T813
422Q813 483 773 516T658 549Q633 549 621 562T609 605Q609 628 615 661Q626 723 644 747T698 774Q789 781 830 838T871 969Q871 1023 838 1056T737 1090Q656 1090 603 1035T532 874L389 63Q383 29 366 15T315 0H191Q163 0 150 10T137 42Q137 47 139 63L282 877Q318
1082 439 1199T755 1317Q868 1317 950 1277Z" />
<glyph unicode="&#xe0;" glyph-name="agrave" d="M1141 225T1152 214T1164 172Q1164 149 1158 113Q1147 46 1129 23T1075 0H1051Q967 0 909 32T828 133Q679 -22 464 -22Q356 -22 275 29T150 171T106 380Q106 514 164 644T337 860T614 946Q705 946 778 902T889
782L902 861Q907 895 924 909T976 924H1070Q1098 924 1111 914T1124 882Q1124 877 1122 861L1032 350Q1028 329 1028 308Q1028 225 1110 225H1115Q1141 225 1152 214ZM620 206T684 253T781 373T815 522Q815 614 762 666T625 718Q540 718 483 667T399 541T372 391Q372
306 414 256T535 206Q620 206 684 253ZM984 1137T991 1124T999 1097Q999 1085 994 1072Q987 1053 974 1042T942 1031Q932 1031 926 1033L446 1158Q417 1166 417 1204Q417 1240 443 1301Q487 1400 536 1400Q549 1400 563 1392L971 1145Q984 1137 991 1124Z" />
<glyph unicode="&#xe1;" glyph-name="aacute" d="M1141 225T1152 214T1164 172Q1164 149 1158 113Q1147 46 1129 23T1075 0H1051Q967 0 909 32T828 133Q679 -22 464 -22Q356 -22 275 29T150 171T106 380Q106 514 164 644T337 860T614 946Q705 946 778 902T889
782L902 861Q907 895 924 909T976 924H1070Q1098 924 1111 914T1124 882Q1124 877 1122 861L1032 350Q1028 329 1028 308Q1028 225 1110 225H1115Q1141 225 1152 214ZM620 206T684 253T781 373T815 522Q815 614 762 666T625 718Q540 718 483 667T399 541T372 391Q372
306 414 256T535 206Q620 206 684 253ZM1149 1400T1162 1400Q1211 1400 1255 1301Q1281 1240 1281 1204Q1281 1166 1252 1158L772 1033Q766 1031 756 1031Q738 1031 725 1042T704 1072Q699 1085 699 1097Q699 1111 706 1124T727 1145L1135 1392Q1149 1400 1162
1400Z" />
<glyph unicode="&#xe2;" glyph-name="acircumflex" d="M1141 225T1152 214T1164 172Q1164 149 1158 113Q1147 46 1129 23T1075 0H1051Q967 0 909 32T828 133Q679 -22 464 -22Q356 -22 275 29T150 171T106 380Q106 514 164 644T337 860T614 946Q705 946 778 902T889
782L902 861Q907 895 924 909T976 924H1070Q1098 924 1111 914T1124 882Q1124 877 1122 861L1032 350Q1028 329 1028 308Q1028 225 1110 225H1115Q1141 225 1152 214ZM620 206T684 253T781 373T815 522Q815 614 762 666T625 718Q540 718 483 667T399 541T372 391Q372
306 414 256T535 206Q620 206 684 253ZM1044 1406T1059 1388L1310 1127Q1325 1112 1325 1092Q1325 1076 1312 1055Q1292 1023 1264 1023Q1252 1023 1240 1029L985 1163L682 1029Q670 1024 662 1024Q637 1024 618 1059Q607 1078 607 1093Q607 1112 626 1127L949
1388Q973 1406 1007 1406Q1044 1406 1059 1388Z" />
<glyph unicode="&#xe3;" glyph-name="atilde" d="M1141 225T1152 214T1164 172Q1164 149 1158 113Q1147 46 1129 23T1075 0H1051Q967 0 909 32T828 133Q679 -22 464 -22Q356 -22 275 29T150 171T106 380Q106 514 164 644T337 860T614 946Q705 946 778 902T889
782L902 861Q907 895 924 909T976 924H1070Q1098 924 1111 914T1124 882Q1124 877 1122 861L1032 350Q1028 329 1028 308Q1028 225 1110 225H1115Q1141 225 1152 214ZM620 206T684 253T781 373T815 522Q815 614 762 666T625 718Q540 718 483 667T399 541T372 391Q372
306 414 256T535 206Q620 206 684 253ZM872 1324T907 1315T992 1286Q1040 1268 1070 1259T1133 1250Q1196 1250 1255 1281Q1269 1288 1278 1288Q1309 1288 1333 1244Q1348 1216 1348 1193Q1348 1167 1329 1151Q1218 1058 1126 1058Q1088 1058 1053 1068T968 1097Q923
1114 892 1123T828 1132Q763 1132 704 1101Q693 1095 682 1095Q652 1095 628 1139Q612 1168 612 1191Q612 1216 630 1231Q736 1324 835 1324Q872 1324 907 1315Z" />
<glyph unicode="&#xe4;" glyph-name="adieresis" d="M1141 225T1152 214T1164 172Q1164 149 1158 113Q1147 46 1129 23T1075 0H1051Q967 0 909 32T828 133Q679 -22 464 -22Q356 -22 275 29T150 171T106 380Q106 514 164 644T337 860T614 946Q705 946 778 902T889
782L902 861Q907 895 924 909T976 924H1070Q1098 924 1111 914T1124 882Q1124 877 1122 861L1032 350Q1028 329 1028 308Q1028 225 1110 225H1115Q1141 225 1152 214ZM620 206T684 253T781 373T815 522Q815 614 762 666T625 718Q540 718 483 667T399 541T372 391Q372
306 414 256T535 206Q620 206 684 253ZM837 1345T874 1307T911 1214Q911 1167 888 1129T825 1068T741 1045Q684 1045 647 1083T609 1176Q609 1223 633 1261T696 1322T780 1345Q837 1345 874 1307ZM1297 1345T1334 1307T1371 1214Q1371 1167 1348 1129T1285 1068T1201
1045Q1144 1045 1107 1083T1069 1176Q1069 1223 1093 1261T1156 1322T1240 1345Q1297 1345 1334 1307Z" />
<glyph unicode="&#xe5;" glyph-name="aring" d="M1141 225T1152 214T1164 172Q1164 149 1158 113Q1147 46 1129 23T1075 0H1051Q967 0 909 32T828 133Q679 -22 464 -22Q356 -22 275 29T150 171T106 380Q106 514 164 644T337 860T614 946Q705 946 778 902T889 782L902
861Q907 895 924 909T976 924H1070Q1098 924 1111 914T1124 882Q1124 877 1122 861L1032 350Q1028 329 1028 308Q1028 225 1110 225H1115Q1141 225 1152 214ZM620 206T684 253T781 373T815 522Q815 614 762 666T625 718Q540 718 483 667T399 541T372 391Q372 306
414 256T535 206Q620 206 684 253ZM1111 1567T1163 1536T1245 1453T1275 1338Q1275 1265 1237 1197T1129 1086T975 1043Q911 1043 859 1073T777 1156T747 1271Q747 1347 786 1415T895 1525T1047 1567Q1111 1567 1163 1536ZM996 1408T968 1391T923 1345T906 1287Q906
1250 930 1226T993 1202Q1025 1202 1053 1219T1098 1264T1115 1323Q1115 1359 1091 1383T1029 1408Q996 1408 968 1391Z" />
<glyph unicode="&#xe6;" glyph-name="ae" d="M1081 946T1149 859T1217 614Q1217 538 1199 432Q1193 398 1176 384T1125 370H719Q717 352 717 332Q717 270 745 238T824 205Q876 205 924 217T1040 255Q1059 262 1071 262Q1091 262 1105 243T1132 179Q1143 138 1143
116Q1143 90 1131 75T1093 49Q1009 15 936 -3T789 -22Q632 -22 570 102Q513 40 436 9T271 -22Q192 -22 132 7T39 92T6 221Q6 335 58 417T208 544T442 588Q490 588 541 582L542 588Q545 606 545 620Q545 719 421 719Q378 719 333 706T236 667Q222 660 208 660Q188
660 171 679T137 740Q124 772 124 798Q124 841 162 862Q238 903 317 924T469 946Q629 946 694 852Q743 897 804 921T934 946Q1081 946 1149 859ZM854 719T816 682T753 565H997Q1000 586 1000 605Q1000 660 979 689T914 719Q854 719 816 682ZM470 393T438 393Q337
393 288 362T238 260Q238 226 259 208T321 189Q391 189 440 236T502 358L507 390Q470 393 438 393Z" />
<glyph unicode="&#xe7;" glyph-name="ccedilla" d="M1106 946T1128 935T1150 899Q1150 895 1148 883L1092 562Q1086 528 1053 514T948 499Q888 499 864 510T840 546Q840 550 842 562Q844 571 844 590Q844 646 805 682T690 719Q597 719 532 672T433 551T400 402Q400
310 453 258T600 205Q677 205 761 230T930 299Q947 308 961 308Q1004 308 1035 225Q1050 183 1050 154Q1050 129 1039 112T1005 83Q919 41 821 14T630 -20L617 -93Q713 -90 762 -133T812 -250Q812 -286 800 -324T764 -389Q693 -472 507 -472Q358 -472 259 -431Q241
-424 241 -399Q241 -377 255 -346Q267 -319 282 -303T313 -286Q320 -286 324 -288Q366 -305 400 -313T481 -322Q533 -322 555 -304T577 -258Q577 -216 512 -216Q491 -216 459 -221Q446 -224 436 -217T426 -192Q426 -184 427 -180L456 -10Q356 12 284 68T173 207T134
389Q134 526 198 654T387 864T680 946Q762 946 823 915T908 824L918 883Q924 917 955 931T1051 946Q1106 946 1128 935Z" />
<glyph unicode="&#xe8;" glyph-name="egrave" d="M961 264T974 264Q997 264 1010 245T1033 176Q1039 145 1039 122Q1039 91 1026 75T984 49Q876 15 763 -3T544 -22Q417 -22 325 29T185 172T137 379Q137 535 206 664T406 869T714 946Q830 946 918 907T1054 796T1103
634Q1103 520 1041 454T852 374L399 329Q414 268 461 237T584 205Q758 205 949 260Q961 264 974 264ZM472 719T412 516L761 551Q803 555 821 575T839 624Q839 664 802 691T688 719Q472 719 412 516ZM984 1137T991 1124T999 1097Q999 1085 994 1072Q987 1053 974
1042T942 1031Q932 1031 926 1033L446 1158Q417 1166 417 1204Q417 1240 443 1301Q487 1400 536 1400Q549 1400 563 1392L971 1145Q984 1137 991 1124Z" />
<glyph unicode="&#xe9;" glyph-name="eacute" d="M961 264T974 264Q997 264 1010 245T1033 176Q1039 145 1039 122Q1039 91 1026 75T984 49Q876 15 763 -3T544 -22Q417 -22 325 29T185 172T137 379Q137 535 206 664T406 869T714 946Q830 946 918 907T1054 796T1103
634Q1103 520 1041 454T852 374L399 329Q414 268 461 237T584 205Q758 205 949 260Q961 264 974 264ZM472 719T412 516L761 551Q803 555 821 575T839 624Q839 664 802 691T688 719Q472 719 412 516ZM1159 1400T1172 1400Q1221 1400 1265 1301Q1291 1240 1291 1204Q1291
1166 1262 1158L782 1033Q776 1031 766 1031Q748 1031 735 1042T714 1072Q709 1085 709 1097Q709 1111 716 1124T737 1145L1145 1392Q1159 1400 1172 1400Z" />
<glyph unicode="&#xea;" glyph-name="ecircumflex" d="M961 264T974 264Q997 264 1010 245T1033 176Q1039 145 1039 122Q1039 91 1026 75T984 49Q876 15 763 -3T544 -22Q417 -22 325 29T185 172T137 379Q137 535 206 664T406 869T714 946Q830 946 918 907T1054
796T1103 634Q1103 520 1041 454T852 374L399 329Q414 268 461 237T584 205Q758 205 949 260Q961 264 974 264ZM472 719T412 516L761 551Q803 555 821 575T839 624Q839 664 802 691T688 719Q472 719 412 516ZM1054 1406T1069 1388L1320 1127Q1335 1112 1335 1092Q1335
1076 1322 1055Q1302 1023 1274 1023Q1262 1023 1250 1029L995 1163L692 1029Q680 1024 672 1024Q647 1024 628 1059Q617 1078 617 1093Q617 1112 636 1127L959 1388Q983 1406 1017 1406Q1054 1406 1069 1388Z" />
<glyph unicode="&#xeb;" glyph-name="edieresis" d="M961 264T974 264Q997 264 1010 245T1033 176Q1039 145 1039 122Q1039 91 1026 75T984 49Q876 15 763 -3T544 -22Q417 -22 325 29T185 172T137 379Q137 535 206 664T406 869T714 946Q830 946 918 907T1054 796T1103
634Q1103 520 1041 454T852 374L399 329Q414 268 461 237T584 205Q758 205 949 260Q961 264 974 264ZM472 719T412 516L761 551Q803 555 821 575T839 624Q839 664 802 691T688 719Q472 719 412 516ZM837 1345T874 1307T911 1214Q911 1167 888 1129T825 1068T741
1045Q684 1045 647 1083T609 1176Q609 1223 633 1261T696 1322T780 1345Q837 1345 874 1307ZM1297 1345T1334 1307T1371 1214Q1371 1167 1348 1129T1285 1068T1201 1045Q1144 1045 1107 1083T1069 1176Q1069 1223 1093 1261T1156 1322T1240 1345Q1297 1345 1334
1307Z" />
<glyph unicode="&#xec;" glyph-name="igrave" d="M750 924T763 914T776 882Q776 877 774 861L686 361Q681 329 681 308Q681 255 705 230T778 205Q827 205 872 219T981 267Q1001 278 1017 278Q1039 278 1056 260T1090 204Q1111 157 1111 134Q1111 98 1070 74Q976
21 900 0T736 -22Q590 -22 510 55T429 272Q429 317 438 368L499 719H306Q279 719 267 729T255 769Q255 790 261 821Q268 863 278 885T303 915T342 924H722Q750 924 763 914ZM1090 1137T1097 1124T1105 1097Q1105 1085 1100 1072Q1093 1053 1080 1042T1048 1031Q1038
1031 1032 1033L552 1158Q523 1166 523 1204Q523 1240 549 1301Q593 1400 642 1400Q655 1400 669 1392L1077 1145Q1090 1137 1097 1124Z" />
<glyph unicode="&#xed;" glyph-name="iacute" d="M750 924T763 914T776 882Q776 877 774 861L686 361Q681 329 681 308Q681 255 705 230T778 205Q827 205 872 219T981 267Q1001 278 1017 278Q1039 278 1056 260T1090 204Q1111 157 1111 134Q1111 98 1070 74Q976
21 900 0T736 -22Q590 -22 510 55T429 272Q429 317 438 368L499 719H306Q279 719 267 729T255 769Q255 790 261 821Q268 863 278 885T303 915T342 924H722Q750 924 763 914ZM833 1400T846 1400Q895 1400 939 1301Q965 1240 965 1204Q965 1166 936 1158L456 1033Q450
1031 440 1031Q422 1031 409 1042T388 1072Q383 1085 383 1097Q383 1111 390 1124T411 1145L819 1392Q833 1400 846 1400Z" />
<glyph unicode="&#xee;" glyph-name="icircumflex" d="M750 924T763 914T776 882Q776 877 774 861L686 361Q681 329 681 308Q681 255 705 230T778 205Q827 205 872 219T981 267Q1001 278 1017 278Q1039 278 1056 260T1090 204Q1111 157 1111 134Q1111 98 1070
74Q976 21 900 0T736 -22Q590 -22 510 55T429 272Q429 317 438 368L499 719H306Q279 719 267 729T255 769Q255 790 261 821Q268 863 278 885T303 915T342 924H722Q750 924 763 914ZM994 1406T1009 1388L1260 1127Q1275 1112 1275 1092Q1275 1076 1262 1055Q1242
1023 1214 1023Q1202 1023 1190 1029L935 1163L632 1029Q620 1024 612 1024Q587 1024 568 1059Q557 1078 557 1093Q557 1112 576 1127L899 1388Q923 1406 957 1406Q994 1406 1009 1388Z" />
<glyph unicode="&#xef;" glyph-name="idieresis" d="M750 924T763 914T776 882Q776 877 774 861L686 361Q681 329 681 308Q681 255 705 230T778 205Q827 205 872 219T981 267Q1001 278 1017 278Q1039 278 1056 260T1090 204Q1111 157 1111 134Q1111 98 1070 74Q976
21 900 0T736 -22Q590 -22 510 55T429 272Q429 317 438 368L499 719H306Q279 719 267 729T255 769Q255 790 261 821Q268 863 278 885T303 915T342 924H722Q750 924 763 914ZM777 1345T814 1307T851 1214Q851 1167 828 1129T765 1068T681 1045Q624 1045 587 1083T549
1176Q549 1223 573 1261T636 1322T720 1345Q777 1345 814 1307ZM1237 1345T1274 1307T1311 1214Q1311 1167 1288 1129T1225 1068T1141 1045Q1084 1045 1047 1083T1009 1176Q1009 1223 1033 1261T1096 1322T1180 1345Q1237 1345 1274 1307Z" />
<glyph unicode="&#xf0;" glyph-name="eth" d="M769 1288T836 1231L1002 1312Q1024 1322 1035 1322Q1050 1322 1062 1308T1091 1259Q1109 1222 1109 1200Q1109 1184 1100 1173T1071 1153L964 1101Q1046 997 1087 874T1129 613Q1129 535 1113 442Q1087 294 1011
190T818 32T550 -22Q420 -22 323 27T174 162T122 359Q122 476 179 592T356 787T656 866Q770 866 852 811Q810 904 730 987L567 908Q547 898 532 898Q515 898 501 912T472 960Q456 995 456 1016Q456 1033 466 1045T498 1067L582 1108Q566 1119 532 1139L514 1149Q490
1163 490 1186Q490 1220 540 1277Q574 1316 598 1332T643 1349Q660 1349 676 1340Q769 1288 836 1231ZM568 639T508 600T419 500T390 375Q390 295 440 250T580 205Q665 205 725 242T815 341T846 470Q846 550 796 594T656 639Q568 639 508 600Z" />
<glyph unicode="&#xf1;" glyph-name="ntilde" d="M912 946T970 912T1059 817T1091 675Q1091 644 1084 600L1015 205H1092Q1118 205 1130 195T1142 155Q1142 135 1136 102Q1129 60 1119 38T1095 8T1056 0H792Q764 0 751 10T738 42Q738 47 740 63L827 561Q833 594
833 621Q833 669 811 694T738 719Q680 719 618 664T509 520T445 338L398 63Q392 29 375 15T324 0H200Q172 0 159 10T146 42Q146 47 148 63L263 719H166Q139 719 127 729T115 769Q115 790 121 821Q128 863 138 885T163 915T202 924H446Q474 924 487 914T500 882Q500
877 498 861L473 716Q559 835 648 890T833 946Q912 946 970 912ZM882 1324T917 1315T1002 1286Q1050 1268 1080 1259T1143 1250Q1206 1250 1265 1281Q1279 1288 1288 1288Q1319 1288 1343 1244Q1358 1216 1358 1193Q1358 1167 1339 1151Q1228 1058 1136 1058Q1098
1058 1063 1068T978 1097Q933 1114 902 1123T838 1132Q773 1132 714 1101Q703 1095 692 1095Q662 1095 638 1139Q622 1168 622 1191Q622 1216 640 1231Q746 1324 845 1324Q882 1324 917 1315Z" />
<glyph unicode="&#xf2;" glyph-name="ograve" d="M833 946T932 893T1083 747T1136 536Q1136 402 1072 274T876 62T550 -22Q416 -22 317 31T166 177T113 388Q113 526 179 654T377 864T700 946Q833 946 932 893ZM582 719T516 675T415 557T380 401Q380 310 433 258T580
205Q668 205 733 249T834 366T869 522Q869 613 816 666T670 719Q582 719 516 675ZM984 1137T991 1124T999 1097Q999 1085 994 1072Q987 1053 974 1042T942 1031Q932 1031 926 1033L446 1158Q417 1166 417 1204Q417 1240 443 1301Q487 1400 536 1400Q549 1400 563
1392L971 1145Q984 1137 991 1124Z" />
<glyph unicode="&#xf3;" glyph-name="oacute" d="M833 946T932 893T1083 747T1136 536Q1136 402 1072 274T876 62T550 -22Q416 -22 317 31T166 177T113 388Q113 526 179 654T377 864T700 946Q833 946 932 893ZM582 719T516 675T415 557T380 401Q380 310 433 258T580
205Q668 205 733 249T834 366T869 522Q869 613 816 666T670 719Q582 719 516 675ZM1179 1400T1192 1400Q1241 1400 1285 1301Q1311 1240 1311 1204Q1311 1166 1282 1158L802 1033Q796 1031 786 1031Q768 1031 755 1042T734 1072Q729 1085 729 1097Q729 1111 736
1124T757 1145L1165 1392Q1179 1400 1192 1400Z" />
<glyph unicode="&#xf4;" glyph-name="ocircumflex" d="M833 946T932 893T1083 747T1136 536Q1136 402 1072 274T876 62T550 -22Q416 -22 317 31T166 177T113 388Q113 526 179 654T377 864T700 946Q833 946 932 893ZM582 719T516 675T415 557T380 401Q380 310 433
258T580 205Q668 205 733 249T834 366T869 522Q869 613 816 666T670 719Q582 719 516 675ZM1054 1406T1069 1388L1320 1127Q1335 1112 1335 1092Q1335 1076 1322 1055Q1302 1023 1274 1023Q1262 1023 1250 1029L995 1163L692 1029Q680 1024 672 1024Q647 1024 628
1059Q617 1078 617 1093Q617 1112 636 1127L959 1388Q983 1406 1017 1406Q1054 1406 1069 1388Z" />
<glyph unicode="&#xf5;" glyph-name="otilde" d="M833 946T932 893T1083 747T1136 536Q1136 402 1072 274T876 62T550 -22Q416 -22 317 31T166 177T113 388Q113 526 179 654T377 864T700 946Q833 946 932 893ZM582 719T516 675T415 557T380 401Q380 310 433 258T580
205Q668 205 733 249T834 366T869 522Q869 613 816 666T670 719Q582 719 516 675ZM872 1324T907 1315T992 1286Q1040 1268 1070 1259T1133 1250Q1196 1250 1255 1281Q1269 1288 1278 1288Q1309 1288 1333 1244Q1348 1216 1348 1193Q1348 1167 1329 1151Q1218 1058
1126 1058Q1088 1058 1053 1068T968 1097Q923 1114 892 1123T828 1132Q763 1132 704 1101Q693 1095 682 1095Q652 1095 628 1139Q612 1168 612 1191Q612 1216 630 1231Q736 1324 835 1324Q872 1324 907 1315Z" />
<glyph unicode="&#xf6;" glyph-name="odieresis" d="M833 946T932 893T1083 747T1136 536Q1136 402 1072 274T876 62T550 -22Q416 -22 317 31T166 177T113 388Q113 526 179 654T377 864T700 946Q833 946 932 893ZM582 719T516 675T415 557T380 401Q380 310 433
258T580 205Q668 205 733 249T834 366T869 522Q869 613 816 666T670 719Q582 719 516 675ZM837 1345T874 1307T911 1214Q911 1167 888 1129T825 1068T741 1045Q684 1045 647 1083T609 1176Q609 1223 633 1261T696 1322T780 1345Q837 1345 874 1307ZM1297 1345T1334
1307T1371 1214Q1371 1167 1348 1129T1285 1068T1201 1045Q1144 1045 1107 1083T1069 1176Q1069 1223 1093 1261T1156 1322T1240 1345Q1297 1345 1334 1307Z" />
<glyph unicode="&#xf7;" glyph-name="divide" d="M787 1095T814 1083T842 1044Q842 1036 841 1032L816 888Q810 854 778 840T679 825Q619 825 592 837T565 876Q565 884 566 888L591 1032Q597 1066 629 1080T727 1095Q787 1095 814 1083ZM1073 695T1085 684T1097
643Q1097 617 1090 582Q1082 535 1072 511T1046 479T1007 470H245Q219 470 207 480T195 521Q195 547 202 582Q210 629 221 653T246 686T285 695H1047Q1073 695 1085 684ZM674 340T701 328T729 289Q729 281 728 277L702 133Q697 99 665 85T566 70Q500 70 474 84T452
133L478 277Q484 311 516 325T614 340Q674 340 701 328Z" />
<glyph unicode="&#xf8;" glyph-name="oslash" d="M1208 906T1208 881Q1208 859 1180 834L1082 749Q1136 653 1136 536Q1136 402 1072 274T876 62T550 -22Q394 -22 284 50L182 -39Q156 -62 136 -62Q110 -62 74 -20Q42 18 42 43Q42 65 70 90L167 175Q113 269 113
388Q113 526 179 654T377 864T700 946Q855 946 965 873L1068 963Q1094 986 1114 986Q1140 986 1176 944Q1208 906 1208 881ZM380 381T383 363L767 700Q724 719 670 719Q582 719 516 675T415 557T380 401Q380 381 383 363ZM869 542T866 560L483 224Q526 205 580
205Q668 205 733 249T834 366T869 522Q869 542 866 560Z" />
<glyph unicode="&#xf9;" glyph-name="ugrave" d="M1089 924T1102 914T1115 882Q1115 877 1113 861L998 205H1075Q1102 205 1114 195T1126 155Q1126 135 1120 103Q1113 61 1103 39T1078 9T1039 0H815Q787 0 774 10T761 42Q761 47 763 63L788 208Q702 89 613 34T428
-22Q349 -22 291 12T202 107T170 249Q170 288 177 324L246 719H169Q142 719 130 730T118 770Q118 791 124 822Q131 864 141 886T166 916T205 924H469Q497 924 510 914T523 882Q523 877 521 861L434 363Q428 332 428 305Q428 256 450 231T523 205Q581 205 643 260T753
405T816 586L838 719H731Q704 719 692 730T680 770Q680 791 686 822Q693 864 703 886T728 916T767 924H1061Q1089 924 1102 914ZM1200 1137T1207 1124T1215 1097Q1215 1085 1210 1072Q1203 1053 1190 1042T1158 1031Q1148 1031 1142 1033L662 1158Q633 1166 633
1204Q633 1240 659 1301Q703 1400 752 1400Q765 1400 779 1392L1187 1145Q1200 1137 1207 1124Z" />
<glyph unicode="&#xfa;" glyph-name="uacute" d="M1089 924T1102 914T1115 882Q1115 877 1113 861L998 205H1075Q1102 205 1114 195T1126 155Q1126 135 1120 103Q1113 61 1103 39T1078 9T1039 0H815Q787 0 774 10T761 42Q761 47 763 63L788 208Q702 89 613 34T428
-22Q349 -22 291 12T202 107T170 249Q170 288 177 324L246 719H169Q142 719 130 730T118 770Q118 791 124 822Q131 864 141 886T166 916T205 924H469Q497 924 510 914T523 882Q523 877 521 861L434 363Q428 332 428 305Q428 256 450 231T523 205Q581 205 643 260T753
405T816 586L838 719H731Q704 719 692 730T680 770Q680 791 686 822Q693 864 703 886T728 916T767 924H1061Q1089 924 1102 914ZM1189 1400T1202 1400Q1251 1400 1295 1301Q1321 1240 1321 1204Q1321 1166 1292 1158L812 1033Q806 1031 796 1031Q778 1031 765 1042T744
1072Q739 1085 739 1097Q739 1111 746 1124T767 1145L1175 1392Q1189 1400 1202 1400Z" />
<glyph unicode="&#xfb;" glyph-name="ucircumflex" d="M1089 924T1102 914T1115 882Q1115 877 1113 861L998 205H1075Q1102 205 1114 195T1126 155Q1126 135 1120 103Q1113 61 1103 39T1078 9T1039 0H815Q787 0 774 10T761 42Q761 47 763 63L788 208Q702 89 613
34T428 -22Q349 -22 291 12T202 107T170 249Q170 288 177 324L246 719H169Q142 719 130 730T118 770Q118 791 124 822Q131 864 141 886T166 916T205 924H469Q497 924 510 914T523 882Q523 877 521 861L434 363Q428 332 428 305Q428 256 450 231T523 205Q581 205
643 260T753 405T816 586L838 719H731Q704 719 692 730T680 770Q680 791 686 822Q693 864 703 886T728 916T767 924H1061Q1089 924 1102 914ZM1034 1406T1049 1388L1300 1127Q1315 1112 1315 1092Q1315 1076 1302 1055Q1282 1023 1254 1023Q1242 1023 1230 1029L975
1163L672 1029Q660 1024 652 1024Q627 1024 608 1059Q597 1078 597 1093Q597 1112 616 1127L939 1388Q963 1406 997 1406Q1034 1406 1049 1388Z" />
<glyph unicode="&#xfc;" glyph-name="udieresis" d="M1089 924T1102 914T1115 882Q1115 877 1113 861L998 205H1075Q1102 205 1114 195T1126 155Q1126 135 1120 103Q1113 61 1103 39T1078 9T1039 0H815Q787 0 774 10T761 42Q761 47 763 63L788 208Q702 89 613
34T428 -22Q349 -22 291 12T202 107T170 249Q170 288 177 324L246 719H169Q142 719 130 730T118 770Q118 791 124 822Q131 864 141 886T166 916T205 924H469Q497 924 510 914T523 882Q523 877 521 861L434 363Q428 332 428 305Q428 256 450 231T523 205Q581 205
643 260T753 405T816 586L838 719H731Q704 719 692 730T680 770Q680 791 686 822Q693 864 703 886T728 916T767 924H1061Q1089 924 1102 914ZM807 1345T844 1307T881 1214Q881 1167 858 1129T795 1068T711 1045Q654 1045 617 1083T579 1176Q579 1223 603 1261T666
1322T750 1345Q807 1345 844 1307ZM1267 1345T1304 1307T1341 1214Q1341 1167 1318 1129T1255 1068T1171 1045Q1114 1045 1077 1083T1039 1176Q1039 1223 1063 1261T1126 1322T1210 1345Q1267 1345 1304 1307Z" />
<glyph unicode="&#xfd;" glyph-name="yacute" d="M1244 924T1256 913T1268 873Q1268 853 1262 821Q1255 779 1245 757T1220 727T1181 719H1122L602 -57Q507 -199 431 -272T269 -375T57 -410Q25 -411 9 -389T-7 -307Q-7 -188 57 -184Q137 -179 191 -153T297 -70T426
100L234 719H159Q132 719 120 729T108 769Q108 790 114 821Q121 863 131 885T156 915T195 924H589Q616 924 628 913T640 873Q640 853 634 821Q627 779 617 757T592 727T553 719H493L600 339L841 719H787Q760 719 748 729T736 769Q736 790 742 821Q749 863 759 885T784
915T823 924H1217Q1244 924 1256 913ZM1217 1400T1230 1400Q1279 1400 1323 1301Q1349 1240 1349 1204Q1349 1166 1320 1158L840 1033Q834 1031 824 1031Q806 1031 793 1042T772 1072Q767 1085 767 1097Q767 1111 774 1124T795 1145L1203 1392Q1217 1400 1230 1400Z"
/>
<glyph unicode="&#xfe;" glyph-name="thorn" d="M573 1312T586 1302T599 1270Q599 1265 597 1249L523 833Q654 946 796 946Q905 946 987 895T1113 753T1157 544Q1157 410 1099 280T925 64T646 -22Q568 -22 503 10T394 100L344 -183H511Q538 -183 550 -194T562
-234Q562 -255 556 -286Q549 -328 539 -350T514 -380T475 -388H-29Q-55 -388 -67 -378T-79 -338Q-79 -318 -73 -286Q-66 -244 -56 -222T-32 -192T7 -183H94L322 1107H235Q208 1107 196 1117T184 1157Q184 1178 190 1209Q197 1251 207 1273T232 1303T271 1312H545Q573
1312 586 1302ZM640 719T577 672T479 552T445 402Q445 309 498 257T636 205Q721 205 778 257T863 385T891 533Q891 620 848 669T726 719Q640 719 577 672Z" />
<glyph unicode="&#xff;" glyph-name="ydieresis" d="M1244 924T1256 913T1268 873Q1268 853 1262 821Q1255 779 1245 757T1220 727T1181 719H1122L602 -57Q507 -199 431 -272T269 -375T57 -410Q25 -411 9 -389T-7 -307Q-7 -188 57 -184Q137 -179 191 -153T297
-70T426 100L234 719H159Q132 719 120 729T108 769Q108 790 114 821Q121 863 131 885T156 915T195 924H589Q616 924 628 913T640 873Q640 853 634 821Q627 779 617 757T592 727T553 719H493L600 339L841 719H787Q760 719 748 729T736 769Q736 790 742 821Q749 863
759 885T784 915T823 924H1217Q1244 924 1256 913ZM837 1345T874 1307T911 1214Q911 1167 888 1129T825 1068T741 1045Q684 1045 647 1083T609 1176Q609 1223 633 1261T696 1322T780 1345Q837 1345 874 1307ZM1297 1345T1334 1307T1371 1214Q1371 1167 1348 1129T1285
1068T1201 1045Q1144 1045 1107 1083T1069 1176Q1069 1223 1093 1261T1156 1322T1240 1345Q1297 1345 1334 1307Z" />
<glyph unicode="&#x2013;" glyph-name="endash" d="M1073 695T1085 684T1097 643Q1097 617 1090 582Q1082 535 1072 511T1046 479T1007 470H245Q219 470 207 480T195 521Q195 547 202 582Q210 629 221 653T246 686T285 695H1047Q1073 695 1085 684Z" />
<glyph unicode="&#x2014;" glyph-name="emdash" d="M1273 695T1285 684T1297 643Q1297 617 1290 582Q1282 535 1272 511T1246 479T1207 470H45Q19 470 7 480T-5 521Q-5 547 2 582Q10 629 21 653T46 686T85 695H1247Q1273 695 1285 684Z" />
<glyph unicode="&#x2018;" glyph-name="quoteleft" d="M458 709T449 717T440 738Q440 756 451 772L742 1241Q764 1275 796 1291T879 1307Q917 1307 935 1296T953 1261Q953 1245 944 1221L770 749Q763 730 748 720T711 709H473Q458 709 449 717Z" />
<glyph unicode="&#x2019;" glyph-name="quoteright" d="M963 1269T972 1261T981 1240Q981 1223 970 1206L679 737Q657 703 625 687T542 671Q504 671 486 682T468 717Q468 733 477 757L651 1229Q658 1248 673 1258T710 1269H948Q963 1269 972 1261Z" />
<glyph unicode="&#x201a;" glyph-name="quotesinglbase" d="M793 304T802 296T811 275Q811 258 800 241L509 -228Q487 -262 455 -278T372 -294Q334 -294 316 -283T298 -248Q298 -232 307 -208L481 264Q488 283 503 293T540 304H778Q793 304 802 296Z" />
<glyph unicode="&#x201c;" glyph-name="quotedblleft" d="M178 709T169 717T160 738Q160 756 171 772L462 1241Q484 1275 516 1291T599 1307Q637 1307 655 1296T673 1261Q673 1245 664 1221L490 749Q483 730 468 720T431 709H193Q178 709 169 717ZM738 709T729
717T720 738Q720 756 731 772L1022 1241Q1044 1275 1076 1291T1159 1307Q1197 1307 1215 1296T1233 1261Q1233 1245 1224 1221L1050 749Q1043 730 1028 720T991 709H753Q738 709 729 717Z" />
<glyph unicode="&#x201d;" glyph-name="quotedblright" d="M683 1269T692 1261T701 1240Q701 1223 690 1206L399 737Q377 703 345 687T262 671Q224 671 206 682T188 717Q188 733 197 757L371 1229Q378 1248 393 1258T430 1269H668Q683 1269 692 1261ZM1243 1269T1252
1261T1261 1240Q1261 1223 1250 1206L959 737Q937 703 905 687T822 671Q784 671 766 682T748 717Q748 733 757 757L931 1229Q938 1248 953 1258T990 1269H1228Q1243 1269 1252 1261Z" />
<glyph unicode="&#x201e;" glyph-name="quotedblbase" d="M1073 304T1082 296T1091 275Q1091 258 1080 241L789 -228Q767 -262 735 -278T652 -294Q614 -294 596 -283T578 -248Q578 -232 587 -208L761 264Q768 283 783 293T820 304H1058Q1073 304 1082 296ZM513
304T522 296T531 275Q531 258 520 241L229 -228Q207 -262 175 -278T92 -294Q54 -294 36 -283T18 -248Q18 -232 27 -208L201 264Q208 283 223 293T260 304H498Q513 304 522 296Z" />
<glyph unicode="&#x2022;" glyph-name="bullet" d="M811 858T872 836T933 766Q933 762 931 750L873 418Q862 360 802 335T609 310Q483 310 422 332T361 402Q361 406 363 418L421 750Q432 808 492 833T685 858Q811 858 872 836Z" />
<glyph unicode="&#x2039;" glyph-name="guilsinglleft" d="M732 946T752 946Q788 946 846 897Q901 851 901 811Q901 789 884 772L646 530L814 266Q824 249 824 235Q824 192 750 151Q696 121 662 121Q632 121 617 145L382 532Q375 544 375 555Q375 570 387 582L717
931Q732 946 752 946Z" />
<glyph unicode="&#x203a;" glyph-name="guilsinglright" d="M900 524T900 513Q900 498 888 486L558 137Q543 122 523 122Q487 122 429 171Q374 217 374 257Q374 279 391 296L629 538L461 802Q451 819 451 833Q451 876 525 917Q579 947 613 947Q643 947 658 923L893
536Q900 524 900 513Z" />
</font>
</defs>
</svg>
